<svg width="97" height="96" viewBox="0 0 97 96" fill="none" xmlns="http://www.w3.org/2000/svg">
<rect x="0.333984" width="96" height="96" rx="48" fill="#FF5630"/>
<path d="M41.334 61.9999V66.3999C41.334 66.9599 41.334 67.24 41.225 67.4539C41.1291 67.642 40.9761 67.795 40.788 67.8909C40.5741 67.9999 40.294 67.9999 39.734 67.9999H35.934C35.3739 67.9999 35.0939 67.9999 34.88 67.8909C34.6918 67.795 34.5389 67.642 34.443 67.4539C34.334 67.24 34.334 66.9599 34.334 66.3999V61.9999M62.334 61.9999V66.3999C62.334 66.9599 62.334 67.24 62.225 67.4539C62.1291 67.642 61.9761 67.795 61.788 67.8909C61.5741 67.9999 61.294 67.9999 60.734 67.9999H56.934C56.3739 67.9999 56.0939 67.9999 55.88 67.8909C55.6918 67.795 55.5389 67.642 55.443 67.4539C55.334 67.24 55.334 66.9599 55.334 66.3999V61.9999M30.334 47.9999H66.334M30.334 34.9999H66.334M37.334 54.9999H40.334M56.334 54.9999H59.334M39.934 61.9999H56.734C60.0943 61.9999 61.7745 61.9999 63.0579 61.3459C64.1869 60.7707 65.1048 59.8528 65.68 58.7238C66.334 57.4404 66.334 55.7602 66.334 52.3999V37.5999C66.334 34.2396 66.334 32.5594 65.68 31.2759C65.1048 30.147 64.1869 29.2291 63.0579 28.6538C61.7745 27.9999 60.0943 27.9999 56.734 27.9999H39.934C36.5737 27.9999 34.8935 27.9999 33.61 28.6538C32.4811 29.2291 31.5632 30.147 30.9879 31.2759C30.334 32.5594 30.334 34.2396 30.334 37.5999V52.3999C30.334 55.7602 30.334 57.4404 30.9879 58.7238C31.5632 59.8528 32.4811 60.7707 33.61 61.3459C34.8935 61.9999 36.5737 61.9999 39.934 61.9999Z" stroke="#441506" stroke-width="3.42857" stroke-linecap="round" stroke-linejoin="round"/>
</svg>
