<svg width="97" height="96" viewBox="0 0 97 96" fill="none" xmlns="http://www.w3.org/2000/svg">
<rect x="0.666016" width="96" height="96" rx="48" fill="#FB9CBE"/>
<path d="M60.1574 29.6258C62.0869 27.6329 65.275 27.6071 67.2365 29.5686C69.1442 31.4763 69.1797 34.5583 67.3165 36.5095L61.7591 42.329C61.3235 42.7852 61.1057 43.0132 60.9715 43.2804C60.8527 43.5168 60.782 43.7745 60.7635 44.0385C60.7426 44.3367 60.8135 44.644 60.9554 45.2586L64.4112 60.2337C64.5567 60.8645 64.6295 61.1799 64.606 61.485C64.5852 61.7551 64.5098 62.0181 64.3843 62.2581C64.2425 62.5293 64.0136 62.7582 63.5558 63.216L62.8143 63.9575C61.602 65.1698 60.9959 65.7759 60.3755 65.8857C59.8338 65.9815 59.2765 65.8499 58.8348 65.522C58.329 65.1464 58.0579 64.3332 57.5158 62.7067L53.4963 50.6481L46.8056 57.3388C46.4062 57.7382 46.2066 57.9378 46.073 58.173C45.9546 58.3813 45.8747 58.6092 45.837 58.8458C45.7944 59.1129 45.8256 59.3936 45.8879 59.9549L46.2553 63.2617C46.3177 63.823 46.3489 64.1037 46.3063 64.3708C46.2686 64.6074 46.1886 64.8353 46.0703 65.0436C45.9367 65.2787 45.737 65.4784 45.3377 65.8778L44.9426 66.2728C43.9965 67.2189 43.5235 67.692 42.9978 67.829C42.5367 67.9492 42.0478 67.9008 41.6193 67.6925C41.1306 67.4551 40.7595 66.8984 40.0173 65.7851L36.8807 61.0801C36.7481 60.8812 36.6818 60.7818 36.6048 60.6916C36.5365 60.6115 36.4619 60.5369 36.3817 60.4685C36.2915 60.3915 36.1921 60.3252 35.9932 60.1926L31.2882 57.056C30.1749 56.3138 29.6183 55.9427 29.3808 55.4541C29.1726 55.0255 29.1242 54.5366 29.2443 54.0756C29.3813 53.5499 29.8544 53.0768 30.8005 52.1307L31.1955 51.7357C31.5949 51.3363 31.7946 51.1366 32.0297 51.003C32.2381 50.8847 32.466 50.8048 32.7026 50.767C32.9696 50.7244 33.2503 50.7556 33.8116 50.818L37.1184 51.1854C37.6798 51.2478 37.9604 51.279 38.2275 51.2364C38.4641 51.1986 38.692 51.1187 38.9003 51.0004C39.1355 50.8668 39.3352 50.6671 39.7345 50.2677L46.4252 43.5771L34.3666 39.5576C32.7402 39.0154 31.9269 38.7443 31.5514 38.2385C31.2234 37.7968 31.0918 37.2396 31.1877 36.6978C31.2974 36.0775 31.9035 35.4713 33.1158 34.259L33.8574 33.5175C34.3151 33.0597 34.544 32.8308 34.8152 32.689C35.0552 32.5635 35.3183 32.4881 35.5883 32.4673C35.8934 32.4438 36.2088 32.5166 36.8397 32.6622L51.7579 36.1049C52.3778 36.2479 52.6878 36.3194 52.987 36.2982C53.276 36.2776 53.557 36.1945 53.8107 36.0547C54.0734 35.9099 54.2947 35.6814 54.7372 35.2243L60.1574 29.6258Z" stroke="#120B0F" stroke-width="3.42857" stroke-linecap="round" stroke-linejoin="round"/>
</svg>
