<svg width="96" height="96" viewBox="0 0 96 96" fill="none" xmlns="http://www.w3.org/2000/svg">
<rect width="96" height="96" rx="48" fill="#F2D23B"/>
<path d="M42.998 67.9999H52.998M39.998 27.9999H55.998M47.998 33.9999V27.9999M31.998 47.9999H63.9981M57.998 61.9999L60.9981 67.9999M37.998 61.9999L34.998 67.9999M40.998 54.9999H41.018M54.998 54.9999H55.0181M41.598 61.9999H54.398C57.7584 61.9999 59.4385 61.9999 60.722 61.346C61.851 60.7707 62.7688 59.8529 63.3441 58.7239C63.9981 57.4404 63.9981 55.7603 63.9981 52.3999V43.5999C63.9981 40.2396 63.9981 38.5595 63.3441 37.276C62.7688 36.147 61.851 35.2291 60.722 34.6539C59.4385 33.9999 57.7584 33.9999 54.398 33.9999H41.598C38.2377 33.9999 36.5576 33.9999 35.2741 34.6539C34.1451 35.2291 33.2272 36.147 32.652 37.276C31.998 38.5595 31.998 40.2396 31.998 43.5999V52.3999C31.998 55.7603 31.998 57.4404 32.652 58.7239C33.2272 59.8529 34.1451 60.7707 35.2741 61.346C36.5576 61.9999 38.2377 61.9999 41.598 61.9999ZM41.998 54.9999C41.998 55.5522 41.5503 55.9999 40.998 55.9999C40.4458 55.9999 39.998 55.5522 39.998 54.9999C39.998 54.4477 40.4458 53.9999 40.998 53.9999C41.5503 53.9999 41.998 54.4477 41.998 54.9999ZM55.998 54.9999C55.998 55.5522 55.5503 55.9999 54.998 55.9999C54.4458 55.9999 53.998 55.5522 53.998 54.9999C53.998 54.4477 54.4458 53.9999 54.998 53.9999C55.5503 53.9999 55.998 54.4477 55.998 54.9999Z" stroke="#441506" stroke-width="3.42857" stroke-linecap="round" stroke-linejoin="round"/>
</svg>
