<svg width="315" height="240" viewBox="0 0 315 240" fill="none" xmlns="http://www.w3.org/2000/svg">
<path d="M313.942 123.194V116.719C313.942 52.2574 261.686 0.000976563 197.224 0.000976563L116.758 0.000976563C52.2962 0.000976563 0.039856 52.2574 0.039856 116.719V123.194C0.039856 187.655 52.2962 239.912 116.758 239.912H197.224C261.686 239.912 313.942 187.655 313.942 123.194Z" fill="#FF5630"/>
<path d="M34.7615 118.918L34.7196 121.265L20.0723 120.93L20.1351 118.583L34.7825 118.918H34.7615ZM22.4192 110.62L22.2096 120.28L20.0932 120.238L20.3028 110.578L22.4192 110.62ZM29.0619 111.102L28.8523 120.427L26.7359 120.385L26.9454 111.06L29.0619 111.102Z" fill="#441506"/>
<path d="M35.978 104.711C35.8104 105.8 35.4332 106.722 34.8465 107.456C34.2597 108.189 33.5054 108.713 32.6043 109.027C31.7032 109.342 30.6765 109.426 29.5868 109.258C28.4762 109.09 27.5332 108.734 26.7579 108.168C25.9826 107.602 25.4378 106.89 25.0815 106.01C24.7253 105.13 24.6415 104.166 24.8091 103.055C24.9768 101.966 25.354 101.044 25.9407 100.331C26.5274 99.6187 27.2608 99.0948 28.1619 98.8015C29.0629 98.4871 30.0688 98.4243 31.1794 98.5919C32.29 98.7596 33.2329 99.1158 34.0083 99.6816C34.7836 100.247 35.3494 100.939 35.7056 101.798C36.0618 102.657 36.1456 103.621 35.978 104.732V104.711ZM33.9035 104.396C34.0711 103.265 33.9035 102.427 33.4006 101.903C32.8977 101.379 32.0385 101.023 30.8231 100.834C29.6078 100.645 28.6858 100.75 28.0571 101.086C27.4285 101.442 27.0094 102.196 26.8417 103.328C26.6741 104.459 26.8417 105.297 27.3447 105.842C27.8476 106.366 28.7067 106.722 29.9221 106.911C31.1375 107.1 32.0595 106.995 32.6881 106.639C33.3168 106.282 33.7359 105.528 33.9035 104.396Z" fill="#441506"/>
<path d="M37.5693 95.8055L36.9407 98.0896L26.4214 95.135L27.0081 93.0605L29.9418 93.8777L30.1094 93.7101L37.6112 95.8055H37.5693ZM30.7381 93.8987L30.5914 94.4435L28.5588 93.8777L28.6845 93.4167C28.2654 93.0814 27.9511 92.5995 27.7206 92.0127C27.4901 91.426 27.4901 90.7555 27.6996 90.0011C27.9092 89.2677 28.2444 88.7019 28.6845 88.3666C29.1245 88.0104 29.6484 87.8218 30.2351 87.7589C30.8219 87.6961 31.4505 87.7589 32.1211 87.9475L32.8126 88.1361L32.1839 90.3992L31.7648 90.2735C31.0733 90.0849 30.5495 90.0639 30.1932 90.2106C29.837 90.3573 29.5646 90.7764 29.376 91.447C29.1874 92.1175 29.2084 92.6414 29.4179 93.0186C29.6275 93.3957 30.0885 93.6682 30.8009 93.8777L30.7381 93.8987Z" fill="#441506"/>
<path d="M41.4474 84.3645C41.0074 85.4751 40.4416 86.2295 39.7292 86.6276C39.0167 87.0257 38.1156 87.0048 36.9631 86.5647L30.1947 83.8825L27.6802 82.29L28.3298 80.6136L37.7175 84.3226C38.2414 84.5321 38.6395 84.5321 38.891 84.3226C39.1424 84.113 39.3939 83.652 39.6663 82.9605L40.1482 81.7451L41.9504 82.4576C41.9084 82.6671 41.8456 82.9605 41.7618 83.2958C41.6779 83.6311 41.5522 83.9873 41.4265 84.3435L41.4474 84.3645ZM33.8828 79.2725L31.1377 86.1875L29.3146 85.4541L32.0597 78.5391L33.8828 79.2725Z" fill="#441506"/>
<path d="M32.6881 74.0961L31.6822 76.2125L29.5029 75.1857L30.5297 73.0483L32.709 74.0961H32.6881ZM43.7312 79.3557L42.7044 81.4931L32.8557 76.7783L33.8825 74.6409L43.7312 79.3557Z" fill="#441506"/>
<path d="M46.0136 75.0812L44.8611 77.1138L35.4524 71.8542C34.719 71.4351 34.1742 70.9531 33.818 70.4083C33.4617 69.8635 33.315 69.2348 33.3779 68.5224C33.4408 67.8309 33.6922 67.0765 34.1323 66.2593C34.1952 66.1335 34.279 66.0078 34.3418 65.8821C34.4047 65.7563 34.4885 65.6306 34.5514 65.5049L36.1649 66.4059L35.5153 67.5585C35.2638 68.0195 35.1591 68.3966 35.2219 68.7319C35.2848 69.0462 35.5153 69.3186 35.9344 69.5491L36.7726 70.0102L37.2965 70.2197L45.9508 75.0602L46.0136 75.0812ZM39.6015 68.3128L36.3325 74.1592L34.6142 73.1953L37.8832 67.3489L39.6015 68.3128Z" fill="#441506"/>
<path d="M51.9226 72.4205C51.755 72.651 51.5664 72.8815 51.3569 73.112C51.1473 73.3425 50.9797 73.5101 50.833 73.6149L49.2614 72.5043L50.1205 71.2889C50.372 70.9117 50.5187 70.6184 50.5606 70.3669C50.5815 70.1155 50.4977 69.8011 50.2882 69.424L49.429 67.9781L49.9319 68.5858L38.4487 66.2179L39.9365 64.1224L45.5105 65.3587L48.0041 65.9245L48.1089 65.7569L46.6839 63.6824L43.5407 59.0095L45.0495 56.8721L51.9645 68.1038C52.3417 68.6905 52.5932 69.2354 52.677 69.7173C52.7608 70.1993 52.7399 70.6393 52.6141 71.0794C52.4884 71.5194 52.237 71.9595 51.9017 72.4414L51.9226 72.4205Z" fill="#441506"/>
<path d="M55.8211 54.3364C55.4649 54.6926 55.0877 54.944 54.6477 55.0907C54.2076 55.2374 53.7676 55.2584 53.3066 55.1326C52.8455 55.0279 52.4265 54.7764 52.0283 54.3992C51.6302 54.022 51.3787 53.582 51.253 53.1419C51.1273 52.6809 51.1273 52.2409 51.253 51.8008C51.3787 51.3608 51.6302 50.9626 51.9654 50.6064C52.3007 50.2711 52.6779 50.0197 53.118 49.873C53.558 49.7263 53.9981 49.7054 54.4591 49.8311C54.9201 49.9359 55.3392 50.1873 55.7373 50.5855C56.1145 50.9626 56.3869 51.3817 56.5126 51.8427C56.6384 52.3037 56.6384 52.7438 56.5126 53.1838C56.3869 53.6239 56.1354 54.022 55.8211 54.3573V54.3364Z" fill="#441506"/>
<path d="M67.3883 50.1451L65.5862 51.6329L56.3242 40.2964L58.1263 38.8086L67.3883 50.1451Z" fill="#441506"/>
<path d="M70.952 47.4208L68.9822 48.72L62.9473 39.6885L64.7494 38.4941L66.5515 41.1972H66.782L70.952 47.4208ZM77.406 43.1041L75.4572 44.4033L71.9578 39.1646C71.413 38.3474 70.8682 37.8654 70.3233 37.7187C69.7785 37.5721 69.087 37.7816 68.2488 38.3474C67.7249 38.7036 67.3478 39.0599 67.0963 39.437C66.8448 39.8142 66.7401 40.2333 66.8029 40.6734C66.8448 41.1134 67.0753 41.6373 67.4525 42.2031L67.0963 42.4336L65.5037 40.4219L65.9438 40.1285C65.86 39.7094 65.86 39.2694 65.9438 38.8294C66.0276 38.3683 66.2162 37.9073 66.5096 37.4463C66.8029 36.9853 67.243 36.5662 67.8088 36.1891C68.6051 35.6652 69.3594 35.3718 70.0509 35.3509C70.7424 35.3299 71.392 35.4975 71.9997 35.8747C72.6074 36.2519 73.1313 36.7758 73.5923 37.4673L77.3851 43.146L77.406 43.1041Z" fill="#441506"/>
<path d="M81.1564 41.1764L79.019 42.2032L74.3042 32.4173L76.253 31.4744L77.657 34.408H77.8875L81.1354 41.1764H81.1564ZM88.1553 37.8027L86.0389 38.8085L83.3147 33.1298C82.8956 32.2497 82.4137 31.7049 81.9108 31.4744C81.3869 31.2648 80.6744 31.3696 79.7734 31.8096C79.2076 32.082 78.7676 32.3964 78.4742 32.7316C78.1808 33.0669 78.0132 33.4651 78.0132 33.9051C78.0132 34.3452 78.1389 34.89 78.4532 35.4977L78.0761 35.6863L76.7978 33.4651L77.2798 33.2346C77.2588 32.8155 77.3217 32.3754 77.4474 31.9354C77.5941 31.4953 77.8456 31.0762 78.2018 30.6571C78.558 30.238 79.04 29.8818 79.6686 29.5884C80.5278 29.1693 81.324 29.0017 82.0155 29.0646C82.7071 29.1274 83.3357 29.3998 83.8805 29.8399C84.4253 30.3009 84.8654 30.8876 85.2426 31.642L88.1972 37.7817L88.1553 37.8027Z" fill="#441506"/>
<path d="M94.6089 35.8327C93.5612 36.168 92.5763 36.2308 91.6543 36.0423C90.7323 35.8327 89.936 35.3927 89.2655 34.7221C88.574 34.0516 88.0711 33.1715 87.7148 32.1028C87.3795 31.0341 87.2748 30.0282 87.4424 29.0853C87.61 28.1423 88.0082 27.3251 88.6368 26.6336C89.2655 25.9421 90.1037 25.4182 91.1514 25.0829C92.1991 24.7476 93.184 24.6848 94.0851 24.8943C94.9861 25.1039 95.7824 25.5439 96.4529 26.2145C97.1235 26.885 97.6264 27.7651 97.9826 28.8338C98.3179 29.9025 98.4227 30.9083 98.2551 31.8513C98.0874 32.7943 97.7102 33.6115 97.1025 34.303C96.4949 34.9945 95.6567 35.5184 94.6089 35.8537V35.8327ZM93.9593 33.842C95.049 33.4858 95.7195 32.9619 95.971 32.2914C96.2224 31.5998 96.1596 30.6778 95.7824 29.5253C95.4052 28.3728 94.9232 27.5765 94.3156 27.1574C93.7079 26.7383 92.8697 26.7174 91.78 27.0736C90.6904 27.4299 89.9989 27.9537 89.7474 28.6243C89.496 29.3158 89.5588 30.2378 89.936 31.4113C90.3132 32.5847 90.7952 33.36 91.4029 33.7791C92.0105 34.1982 92.8697 34.2192 93.9593 33.863V33.842Z" fill="#441506"/>
<path d="M106.762 32.6693L103.808 33.2141L97.605 23.3025L100.161 22.8415L104.834 30.7414H104.981L106.574 21.668L109.088 21.207L106.762 32.6693Z" fill="#441506"/>
<path d="M114.454 31.9562C113.47 32.019 112.631 31.8095 111.94 31.3485C111.248 30.8875 110.892 30.196 110.829 29.232C110.787 28.6453 110.913 28.1214 111.165 27.7023C111.416 27.2833 111.814 26.9061 112.338 26.6337C112.862 26.3403 113.511 26.1307 114.266 25.9631L118.247 25.1668L118.331 26.8432L114.685 27.5557C114.056 27.6814 113.637 27.849 113.407 28.0376C113.176 28.2262 113.05 28.5196 113.092 28.9387C113.113 29.3578 113.281 29.6721 113.595 29.8397C113.91 30.0074 114.392 30.0912 115.083 30.0493C115.607 30.0283 116.11 29.9026 116.592 29.714C117.074 29.5254 117.472 29.2111 117.765 28.792C118.059 28.3729 118.184 27.7862 118.142 27.0527L118.603 29.7978H118.268C118.08 30.1331 117.807 30.4684 117.472 30.7827C117.116 31.097 116.697 31.3485 116.194 31.558C115.691 31.7676 115.104 31.8933 114.433 31.9352L114.454 31.9562ZM120.636 31.3904L118.457 31.5161L118.331 29.3787L118.226 28.792L117.996 24.622C117.954 23.8048 117.723 23.2599 117.325 22.9875C116.927 22.7151 116.298 22.6103 115.439 22.6523C114.58 22.6942 113.972 22.8828 113.616 23.1971C113.26 23.5114 113.113 24.0353 113.155 24.7687V25.104L110.913 25.2297V25.0201C110.85 24.2239 111.018 23.4904 111.374 22.8408C111.73 22.1912 112.275 21.6674 112.967 21.2692C113.658 20.8711 114.496 20.6406 115.46 20.5987C116.466 20.5358 117.325 20.6825 118.017 21.0178C118.708 21.3531 119.253 21.856 119.63 22.4846C120.007 23.1342 120.217 23.9095 120.28 24.8106L120.636 31.4113V31.3904Z" fill="#441506"/>
<path d="M129.143 22.6314H121.704V20.6617H129.143V22.6314ZM127.194 31.5372C125.999 31.5372 125.077 31.2858 124.449 30.7828C123.82 30.2799 123.506 29.4208 123.506 28.1845V20.9132L124.051 17.9795H125.853V28.0797C125.853 28.6455 125.999 29.0017 126.293 29.1693C126.586 29.316 127.11 29.3998 127.843 29.3998H129.164V31.3486C128.954 31.3905 128.661 31.4324 128.304 31.4743C127.948 31.5163 127.592 31.5372 127.215 31.5372H127.194Z" fill="#441506"/>
<path d="M135.241 31.7472C134.047 31.7472 133.062 31.5167 132.286 31.0348C131.511 30.5528 130.924 29.8823 130.547 29.0441C130.17 28.2059 129.96 27.221 129.96 26.0895C129.96 24.9579 130.17 23.994 130.61 23.1348C131.05 22.2757 131.658 21.6261 132.433 21.1651C133.229 20.6831 134.151 20.4526 135.241 20.4526C136.226 20.4526 137.085 20.6412 137.818 21.0184C138.552 21.3956 139.139 21.9195 139.558 22.6319C139.977 23.3234 140.186 24.1826 140.186 25.1884C140.186 25.4608 140.186 25.7332 140.144 26.0056C140.123 26.2781 140.103 26.4876 140.061 26.6762H131.05V25.0836H138.133L137.902 25.2932C137.965 24.6226 137.902 24.0778 137.714 23.6587C137.525 23.2396 137.19 22.9253 136.771 22.7367C136.331 22.5272 135.786 22.4224 135.157 22.4224C134.005 22.4224 133.229 22.7157 132.789 23.3025C132.37 23.8892 132.161 24.6855 132.161 25.6913V26.32C132.161 27.0534 132.245 27.6611 132.412 28.164C132.58 28.6669 132.894 29.0441 133.355 29.2955C133.816 29.547 134.445 29.6727 135.22 29.6727C136.142 29.6727 136.792 29.526 137.169 29.2327C137.546 28.9393 137.735 28.5621 137.735 28.0802V27.9125H140.082V28.1011C140.082 28.8345 139.872 29.4841 139.474 30.029C139.076 30.5738 138.51 30.9929 137.777 31.3072C137.043 31.6215 136.205 31.7682 135.199 31.7682L135.241 31.7472Z" fill="#441506"/>
<path d="M149.026 26.8645C148.524 26.8645 148.083 26.7597 147.664 26.5501C147.266 26.3406 146.931 26.0263 146.7 25.6281C146.47 25.23 146.344 24.748 146.344 24.2032C146.344 23.6584 146.47 23.1764 146.7 22.7573C146.931 22.3592 147.266 22.0449 147.664 21.8353C148.063 21.6258 148.524 21.521 149.026 21.521C149.529 21.521 149.948 21.6258 150.368 21.8353C150.766 22.0449 151.101 22.3592 151.331 22.7573C151.562 23.1555 151.688 23.6374 151.688 24.2032C151.688 24.769 151.562 25.209 151.331 25.6281C151.101 26.0263 150.766 26.3406 150.368 26.5501C149.969 26.7597 149.508 26.8645 149.026 26.8645Z" fill="#441506"/>
<path d="M159.589 31.5375H157.138L162.816 16.8901H166.211L171.911 31.5375H169.354L165.499 21.7516L164.556 19.0485H164.388L163.424 21.7516L159.568 31.5375H159.589ZM169.145 27.7028H159.967V25.6073H169.145V27.7028Z" fill="#441506"/>
<path d="M175.598 31.5377H173.23V20.6622H175.389V23.9102L175.577 24.0149V31.5167L175.598 31.5377ZM183.352 31.5377H181.005V25.2513C181.005 24.2664 180.816 23.5749 180.439 23.1558C180.062 22.7367 179.37 22.5272 178.364 22.5272C177.736 22.5272 177.212 22.611 176.793 22.7786C176.374 22.9463 176.059 23.2396 175.871 23.6378C175.661 24.0359 175.556 24.5807 175.556 25.2722H175.137L174.949 22.7157H175.473C175.64 22.3176 175.871 21.9614 176.185 21.6261C176.499 21.2908 176.919 21.0184 177.421 20.7879C177.924 20.5784 178.511 20.4526 179.203 20.4526C180.166 20.4526 180.942 20.6412 181.55 20.9975C182.157 21.3537 182.597 21.8566 182.891 22.5062C183.184 23.1558 183.331 23.8892 183.331 24.7064V31.5167L183.352 31.5377Z" fill="#441506"/>
<path d="M190.643 31.7472C189.532 31.7472 188.569 31.5167 187.772 31.0348C186.955 30.5528 186.326 29.9032 185.886 29.0441C185.446 28.1849 185.216 27.2001 185.216 26.0895C185.216 24.9789 185.446 23.994 185.886 23.1348C186.326 22.2967 186.955 21.6261 187.772 21.1651C188.59 20.6831 189.532 20.4526 190.643 20.4526C191.754 20.4526 192.697 20.6831 193.493 21.1651C194.289 21.6471 194.897 22.2967 195.337 23.1348C195.777 23.973 195.987 24.9579 195.987 26.0895C195.987 27.221 195.777 28.2059 195.337 29.0441C194.897 29.9032 194.289 30.5528 193.493 31.0348C192.697 31.5167 191.754 31.7472 190.643 31.7472ZM190.643 29.6518C191.796 29.6518 192.592 29.3584 193.032 28.7926C193.472 28.2268 193.702 27.3258 193.702 26.0895C193.702 24.8531 193.472 23.973 193.032 23.3863C192.592 22.8205 191.796 22.5272 190.643 22.5272C189.491 22.5272 188.694 22.8205 188.233 23.3863C187.772 23.9521 187.563 24.8531 187.563 26.0895C187.563 27.3258 187.793 28.2059 188.233 28.7926C188.694 29.3584 189.491 29.6518 190.643 29.6518Z" fill="#441506"/>
<path d="M199.78 31.7467L197.433 31.4953L198.586 20.6826L200.744 20.9131L200.388 24.1611L200.576 24.2868L199.78 31.7467ZM207.491 32.564L205.165 32.3125L205.836 26.047C205.941 25.0831 205.836 24.3707 205.501 23.9096C205.186 23.4486 204.516 23.1762 203.51 23.0505C202.881 22.9876 202.357 23.0086 201.917 23.1343C201.477 23.2601 201.142 23.5115 200.912 23.8887C200.66 24.2659 200.513 24.7897 200.43 25.4813L200.011 25.4393L200.094 22.8829L200.618 22.9457C200.828 22.5685 201.1 22.2333 201.456 21.9399C201.813 21.6465 202.253 21.416 202.777 21.2484C203.3 21.0808 203.908 21.0388 204.579 21.1227C205.543 21.2274 206.297 21.4789 206.842 21.9189C207.408 22.338 207.785 22.8829 208.015 23.5534C208.246 24.224 208.309 24.9783 208.225 25.7956L207.491 32.5849V32.564Z" fill="#441506"/>
<path d="M209.692 36.8389C209.399 36.7761 209.127 36.6922 208.833 36.5665C208.54 36.4617 208.33 36.357 208.163 36.2522L208.624 34.3872L210.069 34.7435C210.51 34.8482 210.845 34.8692 211.096 34.8063C211.348 34.7435 211.599 34.5339 211.872 34.1986L212.898 32.8785L212.521 33.57L210.468 22.0239L212.982 22.6316L213.883 28.2684L214.281 30.804L214.47 30.8459L215.874 28.7504L219.038 24.0984L221.595 24.7061L213.737 35.2883C213.338 35.8541 212.919 36.2732 212.521 36.5456C212.123 36.797 211.683 36.9437 211.243 36.9856C210.803 37.0275 210.279 36.9856 209.713 36.8389H209.692Z" fill="#441506"/>
<path d="M221.824 36.168L219.666 35.225L224.024 25.2715L226.015 26.1306L224.716 29.1062L224.862 29.2948L221.866 36.168H221.824ZM228.739 39.1854L226.602 38.2425L229.116 32.4799C229.514 31.5789 229.619 30.8664 229.451 30.3425C229.284 29.7977 228.739 29.3367 227.859 28.9595C227.042 28.6033 226.35 28.5195 225.805 28.7081C225.26 28.8967 224.778 29.4624 224.38 30.3635L223.961 30.2797L224.82 27.828L225.302 28.0375C225.617 27.7441 225.973 27.4927 226.392 27.325C226.811 27.1574 227.293 27.0526 227.838 27.0526C228.383 27.0526 228.969 27.1784 229.598 27.4717C230.436 27.8489 231.044 28.3099 231.442 28.8757C231.819 29.4415 232.008 30.0701 232.008 30.7616C232.008 31.4531 231.84 32.1865 231.505 32.9409L228.781 39.1854H228.739ZM235.654 42.2029L233.496 41.26L236.01 35.4974C236.408 34.5963 236.513 33.8839 236.366 33.36C236.199 32.8361 235.675 32.3751 234.774 31.977C233.957 31.6208 233.265 31.537 232.72 31.7465C232.176 31.956 231.694 32.5009 231.295 33.4019L230.897 33.2972L231.756 30.8454L232.071 30.9921C232.385 30.7197 232.741 30.4892 233.181 30.3006C233.6 30.112 234.103 30.0073 234.627 30.0073C235.172 30.0073 235.759 30.1539 236.429 30.4264C237.288 30.8035 237.917 31.2645 238.294 31.8513C238.692 32.4171 238.881 33.0666 238.902 33.7582C238.902 34.4706 238.755 35.204 238.42 35.9584L235.696 42.2029H235.654Z" fill="#441506"/>
<path d="M238.965 44.6965L236.953 43.4602L242.653 34.1354L244.664 35.3717L238.965 44.6965ZM245.335 34.2401L243.344 33.0248L244.581 30.9712L246.592 32.2075L245.335 34.2611V34.2401Z" fill="#441506"/>
<path d="M248.249 51.2768L239.993 45.1999L241.083 43.7121L248.543 42.4967L250.471 42.2034L250.596 42.0567L249.465 41.2185L245.462 38.2848L246.678 36.6294L254.41 42.3291L253.237 43.9216L245.693 45.0742L243.954 45.3047L243.828 45.4304L244.876 46.2057L249.486 49.6004L248.249 51.2768Z" fill="#441506"/>
<path d="M252.02 55.1115C251.14 54.2942 250.595 53.4351 250.365 52.555C250.134 51.6749 250.155 50.7948 250.469 49.9147C250.763 49.0346 251.308 48.1755 252.062 47.3582C252.837 46.541 253.655 45.9752 254.556 45.6609C255.457 45.3466 256.337 45.2837 257.238 45.4723C258.139 45.6609 258.977 46.1428 259.773 46.8763C260.486 47.5468 260.989 48.2802 261.261 49.0556C261.554 49.8309 261.596 50.6272 261.429 51.4234C261.261 52.2197 260.821 52.995 260.13 53.7285C259.941 53.938 259.752 54.1266 259.543 54.2942C259.333 54.4828 259.166 54.6295 259.04 54.7343L252.481 48.5526L253.571 47.4001L258.726 52.2616H258.39C258.893 51.8216 259.228 51.3815 259.375 50.9415C259.522 50.5014 259.501 50.0614 259.312 49.6213C259.124 49.1813 258.809 48.7203 258.348 48.2802C257.51 47.4839 256.735 47.1696 256.022 47.2954C255.31 47.4211 254.618 47.8611 253.927 48.5946L253.487 49.0556C252.984 49.5794 252.628 50.1033 252.418 50.5852C252.209 51.0672 252.167 51.5701 252.334 52.0521C252.502 52.534 252.858 53.0579 253.445 53.6027C254.116 54.2314 254.681 54.5666 255.163 54.6086C255.645 54.6505 256.043 54.5038 256.379 54.1476L256.504 54.0218L258.202 55.6353L258.076 55.782C257.573 56.3269 256.986 56.6621 256.295 56.7669C255.624 56.8926 254.912 56.8088 254.178 56.5364C253.445 56.264 252.712 55.782 251.999 55.1115H252.02Z" fill="#441506"/>
<path d="M264.719 61.8372C264.405 61.4391 264.217 61.02 264.133 60.58C264.049 60.1189 264.091 59.6789 264.258 59.2389C264.426 58.7988 264.74 58.4216 265.16 58.0863C265.6 57.7511 266.04 57.5415 266.522 57.4787C267.004 57.4158 267.444 57.4787 267.863 57.6672C268.282 57.8558 268.638 58.1492 268.952 58.5473C269.246 58.9245 269.434 59.3436 269.518 59.7837C269.602 60.2447 269.56 60.6847 269.392 61.1248C269.225 61.5648 268.91 61.963 268.47 62.2982C268.051 62.6335 267.59 62.8221 267.129 62.885C266.668 62.9478 266.207 62.885 265.809 62.6964C265.39 62.5078 265.034 62.2144 264.74 61.8372H264.719Z" fill="#441506"/>
<path d="M267.234 73.6987L266.103 71.6452L278.906 64.5415L280.037 66.5951L267.234 73.6987ZM276.098 77.5754L271.572 69.403L273.437 68.3762L277.963 76.5486L276.098 77.5754ZM282.07 74.6417L277.397 66.1969L279.262 65.1701L283.935 73.6149L282.07 74.6417Z" fill="#441506"/>
<path d="M273.206 86.5647C272.808 85.538 272.683 84.5531 272.829 83.6311C272.976 82.7091 273.374 81.8918 274.003 81.1584C274.631 80.4459 275.47 79.8802 276.517 79.4611C277.565 79.0629 278.571 78.9162 279.514 79.021C280.457 79.1258 281.295 79.482 282.049 80.0478C282.783 80.6345 283.349 81.4308 283.747 82.4786C284.145 83.5053 284.271 84.4902 284.124 85.3913C283.977 86.3133 283.579 87.1096 282.95 87.822C282.322 88.5345 281.484 89.1003 280.436 89.4984C279.388 89.8965 278.382 90.0642 277.439 89.9594C276.496 89.8546 275.637 89.5194 274.925 88.9536C274.191 88.3878 273.626 87.5915 273.227 86.5438L273.206 86.5647ZM275.155 85.8104C275.574 86.8791 276.119 87.5286 276.832 87.7382C277.523 87.9477 278.445 87.822 279.598 87.382C280.729 86.9419 281.505 86.3971 281.882 85.7894C282.259 85.1608 282.238 84.3226 281.819 83.2539C281.4 82.1852 280.834 81.5356 280.142 81.326C279.451 81.1165 278.529 81.2213 277.376 81.6823C276.245 82.1223 275.47 82.6672 275.113 83.2958C274.736 83.9244 274.757 84.7836 275.176 85.8523L275.155 85.8104Z" fill="#441506"/>
<path d="M276.266 95.1558L275.7 92.8717L286.303 90.2314L286.827 92.3269L283.873 93.0603L283.81 93.2699L276.266 95.1558ZM283.139 93.4375L282.992 92.8927L285.046 92.3688L285.172 92.8298C285.696 92.9136 286.219 93.1651 286.701 93.5632C287.183 93.9614 287.54 94.5481 287.728 95.3025C287.917 96.0569 287.896 96.6855 287.686 97.2094C287.477 97.7332 287.121 98.1733 286.639 98.5086C286.157 98.8438 285.57 99.0953 284.92 99.2629L284.229 99.4306L283.663 97.1465L284.082 97.0417C284.774 96.8741 285.235 96.6226 285.486 96.3083C285.717 95.994 285.758 95.4911 285.591 94.8205C285.423 94.15 285.151 93.689 284.774 93.4794C284.396 93.2699 283.873 93.2489 283.16 93.4166L283.139 93.4375Z" fill="#441506"/>
<path d="M278.571 106.974C278.403 105.801 278.529 104.858 278.927 104.145C279.325 103.454 280.142 103.014 281.358 102.846L288.566 101.819L291.542 101.945L291.793 103.726L281.798 105.151C281.232 105.235 280.897 105.423 280.792 105.738C280.687 106.052 280.687 106.576 280.792 107.309L280.981 108.609L279.053 108.881C278.969 108.671 278.885 108.399 278.801 108.064C278.718 107.728 278.634 107.372 278.592 106.995L278.571 106.974ZM287.644 107.645L286.597 100.29L288.545 100.017L289.593 107.372L287.644 107.645Z" fill="#441506"/>
<path d="M279.052 112.464L278.885 110.117L289.781 109.321L289.949 111.668L279.052 112.464ZM291.269 111.563L291.101 109.237L293.49 109.048L293.658 111.395L291.248 111.563H291.269Z" fill="#441506"/>
<path d="M279.198 117.304L279.156 114.957L289.927 114.769C290.765 114.769 291.478 114.895 292.064 115.209C292.651 115.502 293.091 115.984 293.385 116.613C293.678 117.241 293.846 118.017 293.866 118.939C293.866 119.086 293.866 119.232 293.866 119.379C293.866 119.526 293.866 119.672 293.866 119.819L292.002 119.861V118.541C291.96 118.017 291.855 117.64 291.645 117.388C291.436 117.137 291.08 117.032 290.618 117.032H289.655L289.089 117.116L279.156 117.304H279.198ZM288.146 119.924L288.02 113.218L289.99 113.176L290.116 119.882L288.146 119.924Z" fill="#441506"/>
<path d="M275.532 122.963C275.532 122.669 275.574 122.376 275.637 122.062C275.679 121.747 275.742 121.517 275.805 121.349L277.732 121.433L277.67 122.921C277.67 123.382 277.691 123.717 277.816 123.927C277.921 124.157 278.173 124.367 278.571 124.576L280.079 125.331L279.325 125.1L290.263 120.888L290.138 123.466L284.773 125.435L282.363 126.315V126.504L284.668 127.489L289.844 129.71L289.719 132.329L277.837 126.63C277.188 126.336 276.706 126.022 276.37 125.666C276.035 125.31 275.805 124.932 275.7 124.492C275.574 124.052 275.532 123.549 275.553 122.963H275.532Z" fill="#441506"/>
<path d="M282.091 140.209C282.196 139.727 282.384 139.308 282.657 138.952C282.95 138.595 283.306 138.344 283.767 138.176C284.207 138.03 284.71 137.988 285.234 138.092C285.779 138.197 286.219 138.407 286.575 138.721C286.932 139.035 287.162 139.413 287.288 139.853C287.414 140.293 287.434 140.754 287.33 141.236C287.246 141.718 287.036 142.116 286.764 142.472C286.471 142.828 286.114 143.08 285.653 143.247C285.213 143.394 284.71 143.436 284.166 143.31C283.642 143.205 283.202 142.996 282.845 142.681C282.489 142.367 282.259 141.99 282.133 141.55C282.007 141.11 281.986 140.649 282.091 140.188V140.209Z" fill="#441506"/>
<path d="M274.672 149.994L275.384 147.773L289.319 152.278L288.607 154.499L274.672 149.994Z" fill="#441506"/>
<path d="M270.021 161.414L270.964 159.277L276.727 161.792C277.628 162.19 278.34 162.294 278.864 162.127C279.409 161.959 279.87 161.414 280.268 160.492C280.519 159.927 280.645 159.403 280.645 158.963C280.645 158.502 280.519 158.103 280.226 157.768C279.933 157.412 279.493 157.119 278.864 156.846L279.032 156.469L281.462 157.307L281.253 157.789C281.546 158.103 281.777 158.46 281.965 158.879C282.133 159.298 282.238 159.801 282.238 160.346C282.238 160.89 282.091 161.477 281.819 162.106C281.441 162.986 280.959 163.636 280.373 164.034C279.807 164.432 279.157 164.641 278.466 164.662C277.753 164.662 277.02 164.516 276.266 164.18L270.021 161.456V161.414ZM273.122 154.311L274.065 152.152L284.019 156.49L283.16 158.481L280.184 157.181L279.995 157.328L273.122 154.332V154.311Z" fill="#441506"/>
<path d="M263.881 171.64L265.096 169.649L270.461 172.939C271.299 173.442 271.99 173.652 272.535 173.568C273.08 173.484 273.625 173.002 274.149 172.143C274.484 171.619 274.672 171.116 274.735 170.676C274.798 170.236 274.735 169.817 274.484 169.44C274.253 169.063 273.834 168.686 273.247 168.329L273.457 167.973L275.741 169.147L275.469 169.587C275.72 169.922 275.909 170.32 276.014 170.781C276.139 171.221 276.16 171.724 276.076 172.269C275.993 172.814 275.783 173.379 275.427 173.966C274.924 174.783 274.358 175.349 273.729 175.664C273.101 175.978 272.451 176.104 271.739 176.02C271.047 175.936 270.335 175.663 269.622 175.244L263.818 171.682L263.881 171.64ZM267.946 165.018L269.182 163.007L278.444 168.686L277.313 170.53L274.547 168.832L274.358 168.937L267.967 165.018H267.946Z" fill="#441506"/>
<path d="M259.48 176.816C260.192 175.957 260.968 175.37 261.848 175.035C262.728 174.721 263.629 174.637 264.572 174.846C265.515 175.035 266.416 175.496 267.275 176.208C268.134 176.921 268.763 177.717 269.14 178.597C269.517 179.477 269.622 180.378 269.475 181.3C269.329 182.222 268.91 183.123 268.197 183.983C267.485 184.842 266.709 185.428 265.829 185.743C264.949 186.057 264.048 186.12 263.126 185.91C262.204 185.701 261.303 185.261 260.423 184.548C259.564 183.836 258.935 183.04 258.558 182.159C258.181 181.279 258.055 180.378 258.202 179.477C258.348 178.555 258.768 177.675 259.459 176.816H259.48ZM261.093 178.157C260.36 179.037 260.088 179.854 260.234 180.546C260.381 181.237 260.947 181.992 261.89 182.767C262.833 183.542 263.671 183.941 264.404 183.962C265.138 183.983 265.85 183.542 266.584 182.662C267.317 181.782 267.61 180.965 267.443 180.253C267.275 179.54 266.73 178.786 265.787 178.01C264.844 177.235 264.006 176.837 263.273 176.816C262.539 176.795 261.806 177.235 261.073 178.115L261.093 178.157Z" fill="#441506"/>
<path d="M251.015 186.057L253.194 184.003L263.797 188.949L261.911 190.73L253.697 186.623L253.592 186.728L257.175 195.193L255.31 196.953L251.036 186.057H251.015Z" fill="#441506"/>
<path d="M240.014 194.669L241.774 193.391L243.031 195.13L243.429 195.57L245.881 198.944C246.363 199.594 246.845 199.929 247.327 199.95C247.809 199.971 248.396 199.72 249.087 199.196C249.779 198.693 250.198 198.211 250.323 197.75C250.449 197.289 250.302 196.765 249.862 196.178L249.674 195.906L251.518 194.565L251.644 194.732C252.126 195.382 252.377 196.073 252.419 196.828C252.461 197.582 252.314 198.316 251.937 199.028C251.56 199.74 250.994 200.39 250.219 200.956C249.401 201.543 248.605 201.899 247.851 201.983C247.075 202.066 246.363 201.962 245.692 201.626C245.022 201.291 244.435 200.767 243.89 200.034L240.014 194.69V194.669ZM244.896 190.835C245.692 190.248 246.51 189.976 247.327 189.976C248.144 189.976 248.836 190.374 249.401 191.149C249.758 191.631 249.946 192.113 249.967 192.616C249.988 193.119 249.862 193.622 249.569 194.146C249.276 194.669 248.857 195.214 248.312 195.738L245.399 198.567L244.414 197.205L247.096 194.628C247.536 194.167 247.809 193.81 247.914 193.517C248.018 193.224 247.935 192.93 247.704 192.595C247.453 192.26 247.159 192.092 246.803 192.113C246.447 192.113 245.986 192.343 245.441 192.742C245.022 193.056 244.645 193.412 244.351 193.852C244.058 194.271 243.89 194.753 243.869 195.256C243.869 195.78 244.058 196.325 244.498 196.912L242.612 194.837L242.884 194.669C242.843 194.271 242.884 193.852 243.01 193.412C243.136 192.951 243.345 192.511 243.66 192.071C243.974 191.631 244.393 191.212 244.938 190.814L244.896 190.835Z" fill="#441506"/>
<path d="M234.503 197.833C235.529 197.246 236.452 196.995 237.248 197.12C238.044 197.246 238.757 197.833 239.364 198.902L242.989 205.209L243.974 208.017L242.424 208.918L237.394 200.159C237.122 199.677 236.808 199.426 236.472 199.446C236.137 199.446 235.655 199.656 235.006 200.012L233.874 200.662L232.91 198.965C233.078 198.818 233.308 198.629 233.581 198.42C233.853 198.21 234.167 198.001 234.503 197.812V197.833ZM237.248 206.508L243.702 202.799L244.687 204.497L238.233 208.206L237.248 206.508Z" fill="#441506"/>
<path d="M227.545 200.998C228.635 200.516 229.641 200.348 230.542 200.474C231.443 200.6 232.239 200.977 232.931 201.605C233.622 202.234 234.188 203.051 234.649 204.078C235.11 205.105 235.299 206.09 235.236 207.033C235.173 207.976 234.901 208.835 234.356 209.568C233.832 210.323 233.057 210.909 232.072 211.349C231.171 211.747 230.311 211.915 229.494 211.873C228.656 211.831 227.923 211.58 227.252 211.098C226.582 210.637 226.058 209.924 225.639 209.002C225.534 208.751 225.429 208.499 225.345 208.248C225.261 207.997 225.198 207.787 225.157 207.598L233.413 203.973L234.062 205.44L227.587 208.29L227.713 207.997C227.923 208.646 228.195 209.107 228.53 209.421C228.887 209.715 229.285 209.882 229.767 209.882C230.249 209.882 230.793 209.778 231.38 209.505C232.428 209.044 233.036 208.458 233.182 207.745C233.329 207.033 233.203 206.236 232.805 205.314L232.554 204.728C232.26 204.057 231.925 203.533 231.569 203.135C231.213 202.737 230.772 202.527 230.249 202.485C229.725 202.444 229.117 202.59 228.384 202.905C227.545 203.282 227.001 203.659 226.77 204.078C226.54 204.497 226.519 204.916 226.707 205.377L226.77 205.545L224.633 206.488L224.549 206.299C224.256 205.629 224.172 204.937 224.339 204.288C224.486 203.617 224.842 203.009 225.366 202.444C225.911 201.878 226.623 201.396 227.524 200.998H227.545Z" fill="#441506"/>
<path d="M216.417 210.029C216.899 209.904 217.36 209.883 217.8 209.987C218.24 210.092 218.638 210.302 218.973 210.637C219.309 210.972 219.539 211.391 219.686 211.915C219.832 212.46 219.832 212.942 219.686 213.403C219.56 213.864 219.329 214.241 218.973 214.556C218.638 214.87 218.219 215.079 217.737 215.205C217.276 215.331 216.815 215.331 216.375 215.247C215.935 215.142 215.537 214.933 215.201 214.598C214.866 214.262 214.636 213.822 214.489 213.298C214.342 212.774 214.342 212.293 214.489 211.832C214.615 211.37 214.845 210.993 215.18 210.679C215.516 210.365 215.914 210.155 216.396 210.029H216.417Z" fill="#441506"/>
<path d="M205.521 207.64L207.952 207.43L203.53 222.518L200.157 222.811L193.221 208.708L195.777 208.499L200.45 217.929L201.624 220.548H201.791L202.525 217.74L205.521 207.661V207.64ZM196.322 212.271L205.479 211.495L205.668 213.591L196.511 214.366L196.322 212.271Z" fill="#441506"/>
<path d="M182.095 208.394H184.442V214.68C184.442 215.665 184.631 216.357 185.008 216.776C185.385 217.195 186.077 217.405 187.082 217.405C187.711 217.405 188.235 217.321 188.654 217.153C189.073 216.985 189.387 216.692 189.576 216.294C189.786 215.896 189.89 215.351 189.89 214.66H190.309L190.498 217.216H189.974C189.807 217.614 189.576 217.97 189.262 218.306C188.947 218.641 188.528 218.913 188.025 219.144C187.522 219.353 186.936 219.479 186.244 219.479C185.28 219.479 184.505 219.291 183.897 218.934C183.29 218.578 182.85 218.075 182.556 217.426C182.263 216.776 182.116 216.043 182.116 215.225V208.415L182.095 208.394ZM189.848 208.394H192.216V219.27H190.058V216.022L189.869 215.917V208.415L189.848 208.394Z" fill="#441506"/>
<path d="M174.822 208.165C175.933 208.165 176.897 208.395 177.693 208.877C178.51 209.359 179.139 210.009 179.579 210.868C180.019 211.727 180.25 212.712 180.25 213.822C180.25 214.933 180.019 215.918 179.579 216.777C179.139 217.615 178.51 218.286 177.693 218.747C176.876 219.229 175.933 219.459 174.822 219.459C173.712 219.459 172.769 219.229 171.973 218.747C171.176 218.265 170.569 217.615 170.129 216.777C169.689 215.939 169.479 214.954 169.479 213.822C169.479 212.691 169.689 211.706 170.129 210.868C170.569 210.009 171.176 209.359 171.973 208.877C172.769 208.395 173.712 208.165 174.822 208.165ZM174.822 210.26C173.67 210.26 172.874 210.553 172.434 211.119C171.994 211.685 171.763 212.586 171.763 213.822C171.763 215.059 171.994 215.939 172.434 216.526C172.874 217.091 173.67 217.385 174.822 217.385C175.975 217.385 176.771 217.091 177.232 216.526C177.693 215.96 177.903 215.059 177.903 213.822C177.903 212.586 177.672 211.706 177.232 211.119C176.771 210.553 175.975 210.26 174.822 210.26Z" fill="#441506"/>
<path d="M157.515 208.394H159.862V214.68C159.862 215.665 160.05 216.357 160.427 216.776C160.805 217.195 161.496 217.405 162.502 217.405C163.131 217.405 163.654 217.321 164.073 217.153C164.493 216.985 164.807 216.692 164.995 216.294C165.205 215.896 165.31 215.351 165.31 214.66H165.729L165.918 217.216H165.394C165.226 217.614 164.995 217.97 164.681 218.306C164.367 218.641 163.948 218.913 163.445 219.144C162.942 219.353 162.355 219.479 161.664 219.479C160.7 219.479 159.924 219.291 159.317 218.934C158.709 218.578 158.269 218.075 157.976 217.426C157.682 216.776 157.536 216.043 157.536 215.225V208.415L157.515 208.394ZM165.268 208.394H167.636V219.27H165.477V216.022L165.289 215.917V208.415L165.268 208.394Z" fill="#441506"/>
<path d="M153.911 204.665C154.204 204.665 154.498 204.665 154.812 204.727C155.126 204.769 155.357 204.811 155.525 204.874V206.802H154.037C153.576 206.802 153.24 206.865 153.031 206.991C152.821 207.116 152.612 207.368 152.423 207.766L151.753 209.296L151.941 208.52L156.635 219.249H154.058L151.857 213.989L150.873 211.622H150.684L149.804 213.989L147.813 219.249H145.194L150.349 207.116C150.6 206.467 150.914 205.964 151.25 205.608C151.585 205.251 151.962 205.021 152.402 204.874C152.842 204.727 153.345 204.665 153.932 204.665H153.911Z" fill="#441506"/>
<path d="M126.501 208.394H128.869V214.68C128.869 215.665 129.057 216.357 129.414 216.776C129.77 217.195 130.44 217.405 131.425 217.405C132.305 217.405 132.976 217.195 133.395 216.797C133.835 216.399 134.045 215.686 134.045 214.701L134.464 214.639L134.652 217.216H134.296C134.128 217.572 133.877 217.928 133.563 218.285C133.248 218.641 132.85 218.913 132.347 219.144C131.844 219.374 131.237 219.479 130.524 219.479C129.602 219.479 128.827 219.291 128.24 218.934C127.653 218.578 127.213 218.075 126.92 217.426C126.627 216.776 126.48 216.043 126.48 215.225V208.415L126.501 208.394ZM134.045 208.394H136.392V214.68C136.392 215.665 136.58 216.357 136.957 216.776C137.335 217.195 138.005 217.405 138.969 217.405C139.849 217.405 140.52 217.195 140.939 216.797C141.379 216.399 141.588 215.707 141.588 214.701L142.007 214.618L142.196 217.195H141.672C141.505 217.593 141.274 217.949 140.96 218.285C140.645 218.62 140.247 218.892 139.744 219.123C139.241 219.332 138.655 219.458 137.984 219.458C137.062 219.458 136.329 219.27 135.742 218.913C135.155 218.557 134.736 218.054 134.464 217.405C134.191 216.755 134.045 216.022 134.045 215.204V208.394ZM141.588 208.394H143.956V219.27H141.798V216.022L141.609 215.917V208.415L141.588 208.394Z" fill="#441506"/>
<path d="M121.934 208.394H124.302V219.332H121.934V208.394ZM121.955 220.632H124.302V223.041H121.955V220.632Z" fill="#441506"/>
<path d="M110.493 207.913L120.719 208.52L120.614 210.364L115.019 215.435L113.552 216.735L113.51 216.923L114.914 217.007L119.86 217.3L119.734 219.354L110.158 218.767L110.283 216.776L116.004 211.705L117.345 210.553L117.387 210.385L116.109 210.301L110.388 209.966L110.514 207.892L110.493 207.913Z" fill="#441506"/>
<path d="M105.168 206.739C106.342 206.949 107.264 207.368 107.934 207.976C108.605 208.584 109.066 209.338 109.275 210.239C109.506 211.14 109.506 212.146 109.317 213.256C109.129 214.367 108.73 215.289 108.144 216.043C107.578 216.798 106.844 217.343 105.985 217.657C105.126 217.971 104.162 218.055 103.115 217.846C102.151 217.678 101.333 217.322 100.684 216.84C100.013 216.337 99.5522 215.708 99.2589 214.954C98.9655 214.199 98.9236 213.319 99.0912 212.313C99.1331 212.041 99.196 211.769 99.2798 211.517C99.3427 211.266 99.4055 211.035 99.4684 210.868L108.332 212.502L108.039 214.074L101.082 212.795L101.354 212.628C101.166 213.277 101.124 213.822 101.25 214.262C101.375 214.702 101.627 215.059 102.025 215.352C102.423 215.624 102.926 215.834 103.555 215.939C104.686 216.148 105.524 216.001 106.027 215.499C106.53 214.996 106.907 214.262 107.075 213.277L107.18 212.649C107.305 211.936 107.347 211.308 107.264 210.784C107.18 210.26 106.928 209.841 106.53 209.506C106.132 209.17 105.524 208.94 104.749 208.793C103.848 208.625 103.177 208.646 102.758 208.877C102.339 209.086 102.067 209.443 101.983 209.925L101.941 210.092L99.636 209.673L99.678 209.485C99.8037 208.751 100.139 208.164 100.621 207.682C101.124 207.221 101.752 206.907 102.528 206.739C103.303 206.572 104.162 206.572 105.147 206.739H105.168Z" fill="#441506"/>
<path d="M90.8982 207.976C91.3592 208.143 91.7574 208.395 92.0717 208.73C92.386 209.065 92.5956 209.463 92.6794 209.924C92.7632 210.385 92.7213 210.867 92.5537 211.391C92.3651 211.915 92.0927 212.334 91.7364 212.628C91.3802 212.921 90.9611 213.11 90.5211 213.193C90.081 213.277 89.599 213.193 89.138 213.047C88.677 212.879 88.2999 212.649 87.9855 212.313C87.6712 211.978 87.4617 211.58 87.3778 211.119C87.294 210.658 87.3359 210.155 87.5036 209.631C87.6712 209.128 87.9436 208.709 88.3208 208.416C88.698 208.122 89.0961 207.934 89.5362 207.85C89.9972 207.787 90.4372 207.85 90.8982 207.997V207.976Z" fill="#441506"/>
<path d="M69.3574 206.593L77.865 211.182L76.8592 213.047L68.3516 208.458L69.3574 206.593ZM72.794 200.893L81.0082 205.314L80.0024 207.179L71.7881 202.758L72.794 200.893ZM82.3493 199.363L84.4029 200.474L77.4669 213.361L75.4133 212.25L82.3493 199.363Z" fill="#441506"/>
<path d="M70.3433 191.736C71.2444 192.386 71.873 193.14 72.2502 194C72.6274 194.859 72.7322 195.76 72.6064 196.724C72.4598 197.667 72.0616 198.61 71.3911 199.511C70.7415 200.412 69.9661 201.082 69.107 201.501C68.2479 201.92 67.3468 202.088 66.4248 201.983C65.5028 201.899 64.5808 201.522 63.6797 200.873C62.7787 200.223 62.15 199.469 61.7938 198.61C61.4376 197.75 61.3118 196.87 61.4585 195.927C61.6052 194.984 62.0033 194.062 62.6739 193.161C63.3444 192.26 64.0988 191.59 64.958 191.15C65.8171 190.71 66.6972 190.542 67.6192 190.626C68.5412 190.71 69.4423 191.087 70.3433 191.736ZM69.107 193.434C68.185 192.763 67.3678 192.512 66.6553 192.721C65.9638 192.931 65.2513 193.518 64.5179 194.502C63.7845 195.487 63.4492 196.346 63.4702 197.08C63.4911 197.813 63.9731 198.505 64.8951 199.196C65.8171 199.888 66.6343 200.118 67.3468 199.909C68.0593 199.699 68.7717 199.113 69.4842 198.128C70.1967 197.143 70.5529 196.284 70.5319 195.55C70.511 194.817 70.029 194.104 69.086 193.434H69.107Z" fill="#441506"/>
<path d="M58.3356 191.38L58.7547 191.778L57.3088 193.329L56.9525 192.993C56.4496 193.203 55.8839 193.287 55.2762 193.203C54.6685 193.119 54.0398 192.826 53.4741 192.302C52.9083 191.778 52.573 191.233 52.4682 190.667C52.3635 190.102 52.4263 189.557 52.6359 189.012C52.8454 188.467 53.2016 187.943 53.6836 187.44L54.1865 186.917L55.9048 188.53L55.6114 188.844C55.1295 189.368 54.8571 189.829 54.8361 190.206C54.8152 190.605 55.0457 191.045 55.5695 191.506C56.0724 191.988 56.5544 192.218 56.9735 192.197C57.3926 192.197 57.8536 191.904 58.3565 191.38H58.3356ZM63.1761 186.204L64.8944 187.818L57.4136 195.801L55.8419 194.314L57.9165 192.092L57.8536 191.883L63.1761 186.204Z" fill="#441506"/>
<path d="M46.854 181.929L51.7365 187.545L50.2487 188.844L45.3662 183.228L46.854 181.929ZM54.8378 177.55C55.6131 178.451 56.0322 179.31 56.0741 180.106C56.116 180.923 55.6759 181.72 54.7539 182.516L49.2638 187.294L46.6864 188.802L45.5129 187.44L53.1404 180.818C53.5595 180.441 53.7481 180.106 53.6643 179.771C53.5805 179.435 53.3081 179.016 52.8261 178.451L51.967 177.466L53.4338 176.188C53.6014 176.313 53.8319 176.502 54.0834 176.753C54.3348 176.984 54.6073 177.256 54.8587 177.529L54.8378 177.55Z" fill="#441506"/>
<path d="M41.6554 180.587L43.0593 182.452L41.1525 183.919L39.7275 182.033L41.6554 180.587ZM51.4203 173.19L52.8452 175.076L44.128 181.656L42.7031 179.77L51.4203 173.19Z" fill="#441506"/>
<path d="M48.6546 169.167L49.9328 171.116L40.9432 177.046C40.2308 177.507 39.5602 177.78 38.9106 177.822C38.261 177.885 37.6324 177.717 37.0456 177.34C36.4589 176.963 35.8931 176.397 35.3902 175.621C35.3064 175.496 35.2226 175.37 35.1597 175.265C35.0759 175.14 34.9921 175.014 34.9292 174.909L36.4799 173.882L37.1923 174.972C37.4857 175.412 37.779 175.663 38.0934 175.768C38.4077 175.852 38.7639 175.768 39.1411 175.517L39.9374 174.993L40.3774 174.616L48.6546 169.146V169.167ZM39.7069 171.745L43.3949 177.34L41.7604 178.429L38.0724 172.835L39.7069 171.745Z" fill="#441506"/>
<path d="M49.012 162.671C49.1377 162.922 49.2635 163.195 49.3682 163.488C49.473 163.782 49.5359 164.012 49.5778 164.201L47.8595 165.081L47.168 163.761C46.9584 163.363 46.7489 163.09 46.5393 162.943C46.3298 162.797 46.0155 162.734 45.5754 162.755L43.899 162.86L44.6744 162.692L37.2983 171.786L36.1248 169.502L39.7919 165.123L41.4473 163.174L41.3635 163.006L38.8699 163.321L33.275 163.97L32.0806 161.644L45.2192 160.659C45.9317 160.597 46.4974 160.617 46.9794 160.764C47.4404 160.911 47.8385 161.12 48.1529 161.456C48.4672 161.791 48.7605 162.189 49.033 162.713L49.012 162.671Z" fill="#441506"/>
<path d="M34.7626 150.958C34.9093 151.419 34.9512 151.901 34.8884 152.341C34.8255 152.802 34.6159 153.2 34.3226 153.556C34.0083 153.912 33.6101 154.185 33.0862 154.353C32.5624 154.52 32.0595 154.562 31.5985 154.457C31.1375 154.353 30.7393 154.143 30.404 153.829C30.0688 153.514 29.8383 153.116 29.6706 152.634C29.5239 152.173 29.482 151.733 29.5449 151.272C29.6078 150.811 29.8173 150.413 30.1107 150.057C30.425 149.701 30.8441 149.428 31.368 149.261C31.8709 149.093 32.3738 149.051 32.8348 149.156C33.2958 149.261 33.6939 149.47 34.0292 149.784C34.3645 150.099 34.595 150.497 34.7417 150.958H34.7626Z" fill="#441506"/>
<path d="M191.295 183.899H122.71C88.9733 183.899 61.6064 155.275 61.6064 119.945C61.6064 84.6363 88.9524 55.9912 122.71 55.9912H191.295C225.032 55.9912 252.399 84.6154 252.399 119.945C252.399 155.254 225.053 183.899 191.295 183.899Z" fill="#441506"/>
<path d="M110.785 137.588H146.723V154.771H92.0308V141.884C92.0308 132.161 95.9283 123.109 104.834 118.373C108.271 116.34 112.378 115.209 116.736 115.209H123.379C130.252 113.847 131.384 106.848 126.585 103.684C125.433 102.783 123.84 102.322 122.017 102.322H116.757C113.321 102.322 110.345 104.815 109.654 107.979H92.0308C92.9528 95.3227 103.703 85.1387 116.757 85.1387H122.017C131.866 85.1387 140.331 90.5659 144.439 98.6964C152.213 114.538 140.541 132.392 123.379 132.392H116.736C114.222 132.392 110.785 134.445 110.785 137.588Z" fill="#FF5630"/>
<path d="M167.361 146.641C167.361 150.936 163.694 154.562 159.357 154.562C155.019 154.562 151.352 150.957 151.352 146.641C151.352 142.114 154.998 138.72 159.357 138.72C163.715 138.72 167.361 142.114 167.361 146.641Z" fill="#FF5630"/>
<path d="M227.273 129.458C227.273 143.477 215.601 154.792 201.415 154.792H197.748C183.561 154.792 171.89 143.477 171.89 129.458V110.683C171.89 96.6638 183.561 85.1387 197.748 85.1387H201.415C215.601 85.1387 227.273 96.6638 227.273 110.683V129.458ZM209.881 110.683C209.881 105.947 205.983 102.322 201.415 102.322H197.748C192.949 102.322 189.282 105.947 189.282 110.683V129.458C189.282 133.984 192.949 137.819 197.748 137.819H201.415C205.983 137.819 209.881 133.984 209.881 129.458V110.683Z" fill="#FF5630"/>
</svg>
