<svg width="240" height="240" viewBox="0 0 240 240" fill="none" xmlns="http://www.w3.org/2000/svg">
<g clip-path="url(#clip0_1242_30467)">
<path d="M120.01 240.02C186.29 240.02 240.02 186.29 240.02 120.01C240.02 53.7304 186.29 0 120.01 0C53.7304 0 0 53.7304 0 120.01C0 186.29 53.7304 240.02 120.01 240.02Z" fill="#F2D23B"/>
<path d="M120.888 29.8948L118.623 29.8131L119.133 15.6919L121.398 15.7735L120.888 29.8948ZM128.52 24.4871L119.52 24.1606L119.602 22.1199L128.601 22.4464L128.52 24.4871ZM129.071 18.0794L119.745 17.7325L119.827 15.6919L129.152 16.0388L129.071 18.0794Z" fill="#441506"/>
<path d="M134.499 31.3026C133.438 31.1393 132.56 30.7516 131.866 30.1802C131.173 29.6088 130.683 28.8742 130.377 27.9967C130.091 27.1192 130.03 26.1397 130.193 25.0786C130.356 24.0175 130.724 23.0992 131.275 22.3645C131.826 21.6299 132.519 21.0993 133.376 20.7728C134.213 20.4463 135.172 20.3647 136.233 20.5484C137.294 20.7116 138.152 21.0993 138.845 21.6707C139.519 22.2421 140.009 22.9767 140.294 23.8338C140.58 24.7113 140.641 25.6704 140.457 26.7519C140.294 27.8131 139.927 28.7313 139.376 29.466C138.825 30.2006 138.131 30.7516 137.315 31.0781C136.478 31.4046 135.54 31.4862 134.478 31.323L134.499 31.3026ZM134.825 29.3027C135.927 29.4864 136.723 29.3231 137.233 28.8538C137.743 28.364 138.09 27.5478 138.274 26.3846C138.458 25.2214 138.396 24.3236 138.05 23.7114C137.723 23.0992 136.988 22.691 135.907 22.5278C134.805 22.3441 134.009 22.5074 133.478 22.9767C132.968 23.4461 132.601 24.2827 132.417 25.4459C132.234 26.6091 132.315 27.507 132.642 28.1192C132.989 28.7313 133.703 29.1395 134.805 29.3027H134.825Z" fill="#441506"/>
<path d="M143.028 32.8942L140.824 32.282L143.681 22.1196L145.701 22.691L144.906 25.5071L145.069 25.6703L143.028 32.8942ZM144.885 26.3029L144.355 26.1601L144.906 24.1807L145.354 24.3031C145.681 23.895 146.13 23.5889 146.701 23.3644C147.273 23.1399 147.926 23.1399 148.64 23.344C149.354 23.5481 149.885 23.8542 150.232 24.3031C150.578 24.7521 150.762 25.2418 150.823 25.8132C150.885 26.3846 150.823 26.9764 150.64 27.6294L150.456 28.3028L148.252 27.6906L148.375 27.2825C148.558 26.609 148.579 26.1193 148.436 25.7724C148.293 25.4255 147.885 25.1602 147.232 24.9765C146.579 24.7929 146.069 24.8133 145.722 25.0173C145.354 25.2214 145.089 25.6703 144.906 26.3438L144.885 26.3029Z" fill="#441506"/>
<path d="M154.008 36.5472C152.927 36.1391 152.192 35.5881 151.804 34.9147C151.417 34.2413 151.417 33.3434 151.845 32.2414L154.376 25.691L155.886 23.2422L157.498 23.8748L153.968 32.9761C153.763 33.4862 153.784 33.8739 153.968 34.0984C154.151 34.3229 154.621 34.5882 155.294 34.8534L156.478 35.3024L155.804 37.0573C155.6 37.0165 155.314 36.9553 154.988 36.8737C154.661 36.7921 154.314 36.69 153.988 36.5472H154.008ZM158.865 29.2213L152.172 26.6297L152.866 24.8543L159.559 27.4459L158.865 29.2213Z" fill="#441506"/>
<path d="M158.802 38.6898L156.741 37.7307L161.169 28.16L163.23 29.1192L158.802 38.6898ZM163.74 27.956L161.699 27.0173L162.659 24.895L164.72 25.8541L163.74 27.956Z" fill="#441506"/>
<path d="M162.885 40.7714L160.885 39.7103L165.782 30.5274C166.17 29.8132 166.619 29.2826 167.15 28.9357C167.68 28.5888 168.272 28.4459 168.966 28.4868C169.639 28.5276 170.374 28.752 171.149 29.1806C171.272 29.2418 171.394 29.303 171.517 29.3846C171.639 29.4459 171.761 29.5071 171.884 29.5887L171.047 31.1804L169.925 30.5886C169.476 30.3437 169.109 30.2621 168.802 30.3233C168.496 30.3846 168.231 30.6294 168.027 31.0172L167.598 31.8334L167.394 32.3436L162.885 40.7918V40.7714ZM169.292 34.4658L163.578 31.4049L164.476 29.7315L170.19 32.7925L169.292 34.4658Z" fill="#441506"/>
<path d="M165.538 46.4037C165.294 46.2405 165.069 46.0772 164.845 45.8732C164.62 45.6895 164.457 45.5059 164.334 45.363L165.355 43.8121L166.538 44.608C166.906 44.8529 167.212 44.9753 167.436 44.9957C167.681 44.9957 167.987 44.9141 168.355 44.71L169.722 43.8529L169.15 44.3631L171.13 33.2212L173.211 34.6088L172.171 40.0165L171.701 42.4449L171.864 42.5469L173.823 41.1185L178.252 37.9555L180.354 39.3635L169.701 46.3425C169.13 46.7302 168.64 46.9751 168.171 47.0772C167.722 47.1792 167.273 47.1792 166.865 47.0567C166.436 46.9343 166.008 46.7302 165.538 46.4037Z" fill="#441506"/>
<path d="M182.963 49.4438C182.616 49.1173 182.351 48.75 182.188 48.3419C182.024 47.9338 182.004 47.5052 182.086 47.0563C182.167 46.6073 182.392 46.1992 182.739 45.8115C183.086 45.4034 183.494 45.1381 183.922 44.9952C184.351 44.8524 184.779 44.832 185.228 44.9544C185.657 45.0565 186.045 45.2809 186.412 45.587C186.759 45.8931 187.004 46.2604 187.167 46.6686C187.33 47.0767 187.351 47.5052 187.269 47.9542C187.187 48.4031 186.963 48.8316 186.596 49.2194C186.249 49.6071 185.861 49.8724 185.412 50.0152C184.983 50.1581 184.534 50.1785 184.106 50.056C183.677 49.954 183.29 49.7295 182.943 49.4234L182.963 49.4438Z" fill="#441506"/>
<path d="M187.393 60.2394L185.863 58.566L196.311 49.0566L197.841 50.73L187.393 60.2394Z" fill="#441506"/>
<path d="M190.165 63.4629L188.778 61.6467L197.124 55.3003L198.389 56.9532L195.879 58.851V59.0755L190.145 63.4629H190.165ZM194.696 69.4215L193.328 67.6258L198.165 63.9526C198.92 63.3812 199.348 62.8303 199.45 62.2997C199.552 61.7691 199.328 61.1161 198.736 60.3407C198.369 59.8509 198.002 59.504 197.614 59.3C197.246 59.0755 196.838 59.0143 196.41 59.0959C195.981 59.1775 195.512 59.4224 194.981 59.8101L194.737 59.4836L196.593 57.8307L196.9 58.2388C197.287 58.1368 197.716 58.096 198.165 58.1572C198.614 58.198 199.063 58.3613 199.532 58.6265C200.001 58.8918 200.43 59.2795 200.818 59.8101C201.389 60.5447 201.695 61.259 201.756 61.9324C201.818 62.6058 201.695 63.2384 201.369 63.8302C201.042 64.422 200.573 64.9729 199.92 65.4627L194.675 69.4419L194.696 69.4215Z" fill="#441506"/>
<path d="M196.779 72.8298L195.637 70.8504L204.718 65.606L205.758 67.4221L203.044 68.9934V69.2179L196.779 72.8298ZM200.514 79.3191L199.391 77.3601L204.656 74.3195C205.473 73.8501 205.962 73.3604 206.146 72.8502C206.309 72.3401 206.146 71.6667 205.677 70.8096C205.371 70.279 205.044 69.8913 204.697 69.626C204.35 69.3607 203.963 69.2383 203.534 69.2587C203.105 69.2791 202.595 69.4628 202.024 69.7893L201.82 69.4424L203.861 68.0343L204.105 68.4833C204.514 68.422 204.942 68.4424 205.371 68.5649C205.799 68.6669 206.228 68.8914 206.656 69.1975C207.085 69.5036 207.452 69.9525 207.799 70.5239C208.268 71.3198 208.493 72.0748 208.472 72.7482C208.472 73.4216 208.248 74.0338 207.86 74.5848C207.472 75.1358 206.921 75.6051 206.228 76.0132L200.534 79.2987L200.514 79.3191Z" fill="#441506"/>
<path d="M202.923 85.3184C202.514 84.3389 202.372 83.4002 202.474 82.5023C202.576 81.6044 202.943 80.8086 203.535 80.0943C204.127 79.3801 204.922 78.8087 205.922 78.4006C206.922 77.9721 207.881 77.8088 208.8 77.8904C209.718 77.9721 210.534 78.2782 211.269 78.8291C211.983 79.3801 212.554 80.1351 212.983 81.1146C213.391 82.0942 213.534 83.0329 213.411 83.9103C213.289 84.7878 212.922 85.5837 212.35 86.2979C211.759 87.0121 210.963 87.5631 209.963 87.9916C208.963 88.4201 208.004 88.5834 207.085 88.5222C206.167 88.461 205.351 88.1549 204.616 87.6243C203.902 87.0937 203.331 86.3387 202.923 85.3592V85.3184ZM204.8 84.5429C205.228 85.5633 205.779 86.1754 206.453 86.3591C207.126 86.5428 208.024 86.3999 209.106 85.951C210.187 85.502 210.922 84.9511 211.269 84.3389C211.616 83.7267 211.575 82.9104 211.146 81.8901C210.718 80.8698 210.167 80.2576 209.473 80.0739C208.779 79.8903 207.902 80.0127 206.82 80.482C205.739 80.9514 205.004 81.482 204.677 82.0942C204.331 82.7064 204.371 83.5226 204.8 84.5633V84.5429Z" fill="#441506"/>
<path d="M207.023 96.6643L206.227 93.8891L215.165 86.9917L215.859 89.3997L208.696 94.6237L208.737 94.7665L217.573 95.4604L218.246 97.8275L207.003 96.6643H207.023Z" fill="#441506"/>
<path d="M208.433 103.909C208.27 102.971 208.392 102.134 208.759 101.44C209.127 100.746 209.759 100.318 210.677 100.175C211.249 100.073 211.759 100.134 212.188 100.338C212.616 100.542 213.004 100.869 213.33 101.359C213.657 101.848 213.942 102.44 214.167 103.134L215.33 106.868L213.718 107.134L212.677 103.705C212.494 103.134 212.29 102.726 212.086 102.522C211.881 102.318 211.575 102.236 211.188 102.297C210.779 102.359 210.514 102.563 210.371 102.869C210.229 103.175 210.208 103.665 210.31 104.318C210.392 104.828 210.555 105.297 210.78 105.746C211.024 106.195 211.351 106.542 211.8 106.766C212.228 107.011 212.8 107.072 213.494 106.95L210.902 107.664V107.358C210.514 107.215 210.167 106.991 209.841 106.685C209.514 106.379 209.208 106.011 208.963 105.542C208.718 105.093 208.535 104.542 208.433 103.889V103.909ZM209.616 109.786L209.269 107.705L211.31 107.379L211.861 107.215L215.84 106.562C216.616 106.44 217.105 106.175 217.33 105.746C217.554 105.338 217.595 104.726 217.452 103.889C217.31 103.052 217.085 102.501 216.738 102.195C216.391 101.889 215.881 101.787 215.187 101.91L214.881 101.95L214.534 99.7873L214.738 99.7465C215.493 99.6241 216.208 99.7057 216.881 99.9914C217.554 100.277 218.105 100.726 218.554 101.359C219.003 101.991 219.309 102.767 219.452 103.685C219.615 104.644 219.554 105.481 219.309 106.175C219.044 106.889 218.636 107.44 218.065 107.868C217.493 108.297 216.759 108.582 215.902 108.725L209.616 109.746V109.786Z" fill="#441506"/>
<path d="M209.983 115.867C209.902 114.724 210.106 113.826 210.534 113.173C210.983 112.541 211.8 112.173 212.983 112.092L220.003 111.643L222.86 111.99L222.962 113.724L213.228 114.336C212.677 114.377 212.351 114.541 212.208 114.826C212.085 115.112 212.045 115.622 212.085 116.336L212.167 117.602L210.29 117.724C210.228 117.52 210.167 117.255 210.106 116.908C210.045 116.581 210.004 116.234 209.983 115.867ZM218.677 117.214L218.228 110.051L220.125 109.929L220.574 117.091L218.677 117.214Z" fill="#441506"/>
<path d="M209.8 123.132C209.841 121.989 210.106 121.03 210.596 120.316C211.085 119.581 211.738 119.05 212.575 118.704C213.412 118.357 214.35 118.193 215.432 118.234C216.513 118.275 217.452 118.499 218.248 118.948C219.044 119.397 219.676 119.989 220.105 120.765C220.534 121.54 220.738 122.438 220.697 123.479C220.656 124.417 220.452 125.254 220.085 125.948C219.697 126.662 219.166 127.193 218.472 127.58C217.779 127.968 216.962 128.152 215.983 128.111C215.718 128.111 215.452 128.09 215.187 128.05C214.922 128.029 214.718 127.988 214.554 127.948L214.84 119.254L216.371 119.295L216.146 126.131L215.942 125.887C216.595 125.968 217.105 125.927 217.513 125.764C217.921 125.58 218.228 125.295 218.432 124.866C218.636 124.458 218.758 123.928 218.779 123.315C218.819 122.213 218.554 121.438 218.003 121.009C217.452 120.581 216.697 120.356 215.718 120.316H215.105C214.412 120.275 213.799 120.336 213.31 120.479C212.82 120.622 212.453 120.928 212.187 121.356C211.942 121.785 211.8 122.397 211.759 123.152C211.738 124.03 211.84 124.662 212.126 125.05C212.391 125.417 212.759 125.621 213.228 125.642H213.391L213.31 127.907H213.126C212.412 127.886 211.8 127.662 211.289 127.254C210.779 126.846 210.371 126.274 210.106 125.58C209.841 124.866 209.718 124.05 209.739 123.091L209.8 123.132Z" fill="#441506"/>
<path d="M213.123 136.457C213.205 135.988 213.389 135.58 213.654 135.212C213.919 134.845 214.266 134.6 214.695 134.437C215.123 134.274 215.593 134.233 216.103 134.335C216.633 134.437 217.062 134.621 217.409 134.927C217.756 135.233 218.001 135.58 218.123 136.008C218.245 136.437 218.286 136.886 218.205 137.355C218.123 137.804 217.96 138.212 217.674 138.579C217.388 138.947 217.062 139.192 216.633 139.355C216.205 139.518 215.735 139.559 215.205 139.457C214.695 139.375 214.266 139.171 213.919 138.886C213.572 138.579 213.327 138.233 213.205 137.804C213.062 137.375 213.042 136.947 213.123 136.478V136.457Z" fill="#441506"/>
<path d="M206.716 144.905L207.492 142.681L219.062 152.476L218.001 155.578L202.839 156.17L203.635 153.843L213.777 153.415H216.552L216.613 153.252L214.45 151.517L206.716 144.926V144.905ZM207.206 154.823L210.104 146.436L212.022 147.089L209.124 155.476L207.206 154.823Z" fill="#441506"/>
<path d="M197.962 165.373L198.983 163.373L204.39 166.149C205.227 166.577 205.921 166.72 206.431 166.598C206.941 166.475 207.451 165.965 207.88 165.108C208.145 164.577 208.308 164.088 208.349 163.659C208.39 163.231 208.268 162.823 208.023 162.476C207.778 162.129 207.349 161.802 206.758 161.496L206.941 161.149L209.227 162.108L209.002 162.557C209.268 162.863 209.472 163.231 209.614 163.659C209.757 164.088 209.819 164.557 209.778 165.088C209.737 165.618 209.574 166.169 209.268 166.761C208.839 167.598 208.349 168.169 207.778 168.536C207.207 168.904 206.574 169.046 205.901 169.026C205.227 169.006 204.533 168.802 203.819 168.434L197.962 165.435V165.373ZM201.37 158.7L202.411 156.68L211.757 161.455L210.798 163.312L208.002 161.884L207.819 162.006L201.37 158.7Z" fill="#441506"/>
<path d="M194.249 170.617C194.841 169.74 195.556 169.107 196.372 168.719C197.188 168.332 198.065 168.189 198.984 168.311C199.902 168.413 200.82 168.781 201.698 169.393C202.596 170.005 203.249 170.719 203.698 171.535C204.126 172.352 204.31 173.209 204.249 174.107C204.187 175.004 203.861 175.902 203.249 176.78C202.637 177.657 201.943 178.29 201.126 178.678C200.31 179.045 199.453 179.188 198.535 179.065C197.617 178.963 196.719 178.596 195.821 177.984C194.923 177.372 194.249 176.657 193.821 175.841C193.372 175.025 193.188 174.168 193.229 173.29C193.29 172.392 193.617 171.515 194.209 170.638L194.249 170.617ZM195.923 171.76C195.29 172.678 195.086 173.474 195.311 174.147C195.535 174.821 196.127 175.474 197.106 176.147C198.086 176.821 198.923 177.127 199.616 177.086C200.31 177.045 200.984 176.555 201.616 175.637C202.249 174.719 202.453 173.923 202.228 173.25C202.004 172.576 201.412 171.903 200.453 171.25C199.474 170.576 198.637 170.27 197.923 170.311C197.229 170.352 196.555 170.842 195.923 171.76Z" fill="#441506"/>
<path d="M184.27 183.29L185.759 181.596L190.31 185.616C191.024 186.249 191.636 186.555 192.187 186.555C192.738 186.555 193.33 186.187 193.963 185.473C194.371 185.024 194.636 184.596 194.779 184.167C194.922 183.739 194.901 183.351 194.738 182.943C194.575 182.535 194.248 182.127 193.759 181.678L194.024 181.372L196.003 182.861L195.677 183.249C195.86 183.616 195.962 184.024 196.003 184.473C196.044 184.922 195.983 185.392 195.82 185.902C195.656 186.412 195.35 186.902 194.922 187.391C194.309 188.085 193.677 188.534 193.024 188.738C192.371 188.942 191.738 188.942 191.085 188.738C190.432 188.534 189.82 188.167 189.208 187.636L184.27 183.269V183.29ZM189.228 177.678L190.738 175.964L198.595 182.902L197.207 184.473L194.86 182.392L194.656 182.474L189.228 177.678Z" fill="#441506"/>
<path d="M179.699 182.637C179.903 182.453 180.127 182.27 180.372 182.107C180.617 181.943 180.821 181.821 180.984 181.739L182.229 183.127L181.148 184.086C180.821 184.372 180.617 184.637 180.535 184.861C180.454 185.086 180.474 185.412 180.597 185.821L181.086 187.351L180.739 186.678L191.024 191.392L189.167 193.044L184.188 190.677L181.964 189.616L181.821 189.739L182.719 192.004L184.678 197.085L182.78 198.779L178.699 186.718C178.474 186.086 178.352 185.514 178.372 185.066C178.372 184.596 178.515 184.168 178.719 183.8C178.944 183.433 179.25 183.045 179.678 182.678L179.699 182.637Z" fill="#441506"/>
<path d="M161.374 200.472L163.292 199.248L166.578 204.37C167.088 205.166 167.598 205.635 168.108 205.798C168.618 205.961 169.271 205.778 170.088 205.268C170.802 204.798 171.251 204.288 171.373 203.737C171.516 203.186 171.312 202.492 170.802 201.696L171.108 201.431L172.618 203.431L172.332 203.615C172.373 204.002 172.373 204.411 172.291 204.859C172.21 205.308 172.047 205.757 171.74 206.186C171.455 206.614 171.026 207.023 170.434 207.39C169.679 207.88 168.965 208.124 168.292 208.124C167.618 208.124 167.006 207.961 166.435 207.594C165.863 207.227 165.353 206.696 164.925 206.023L161.374 200.472ZM167.496 196.554L169.394 195.33L172.679 200.452C173.189 201.248 173.7 201.717 174.23 201.86C174.761 202.003 175.414 201.839 176.209 201.329C176.924 200.86 177.373 200.35 177.495 199.819C177.638 199.268 177.454 198.595 176.924 197.778L177.209 197.493L178.719 199.493L178.291 199.758C178.373 200.166 178.373 200.574 178.291 201.023C178.209 201.452 178.026 201.901 177.74 202.329C177.454 202.758 177.026 203.166 176.475 203.513C175.72 203.982 175.026 204.227 174.373 204.227C173.72 204.227 173.108 204.043 172.557 203.676C172.006 203.288 171.496 202.778 171.067 202.105L167.516 196.554H167.496ZM173.618 192.636L175.536 191.412L181.189 200.248L179.434 201.37L177.74 198.717H177.516L173.618 192.636Z" fill="#441506"/>
<path d="M157.702 201.819L159.763 200.839L164.313 210.369L162.252 211.349L157.702 201.819ZM162.803 212.471L164.844 211.492L165.864 213.573L163.803 214.552L162.803 212.451V212.471Z" fill="#441506"/>
<path d="M147.578 205.9L156.822 202.37L157.454 204.023L154.557 210.716L153.781 212.43L153.822 212.614L155.087 212.124L159.556 210.41L160.27 212.267L151.618 215.573L150.924 213.777L153.924 207.043L154.638 205.492L154.597 205.329L153.434 205.777L148.271 207.757L147.557 205.88L147.578 205.9Z" fill="#441506"/>
<path d="M142.56 207.002C143.683 206.716 144.662 206.696 145.499 206.961C146.336 207.227 147.029 207.696 147.601 208.39C148.172 209.084 148.58 209.961 148.866 211.002C149.152 212.042 149.172 213.022 148.988 213.92C148.784 214.818 148.376 215.573 147.764 216.205C147.152 216.838 146.336 217.287 145.315 217.552C144.397 217.797 143.56 217.817 142.765 217.654C141.989 217.491 141.316 217.124 140.744 216.573C140.173 216.022 139.765 215.267 139.54 214.328C139.479 214.063 139.418 213.818 139.377 213.553C139.336 213.287 139.295 213.083 139.295 212.92L147.703 210.736L148.091 212.226L141.479 213.94L141.642 213.675C141.744 214.328 141.928 214.818 142.214 215.144C142.499 215.491 142.867 215.695 143.336 215.777C143.805 215.858 144.315 215.818 144.928 215.675C146.009 215.389 146.662 214.94 146.927 214.287C147.172 213.634 147.193 212.838 146.927 211.9L146.764 211.308C146.581 210.634 146.356 210.083 146.07 209.655C145.785 209.226 145.397 208.961 144.907 208.839C144.417 208.716 143.805 208.757 143.071 208.941C142.214 209.165 141.642 209.451 141.356 209.818C141.071 210.185 140.989 210.594 141.112 211.043L141.152 211.206L138.969 211.777L138.928 211.594C138.744 210.9 138.785 210.247 139.03 209.635C139.275 209.022 139.704 208.492 140.295 208.022C140.887 207.553 141.663 207.206 142.581 206.961L142.56 207.002Z" fill="#441506"/>
<path d="M130.764 213.961C131.233 213.9 131.682 213.961 132.091 214.124C132.499 214.287 132.846 214.553 133.131 214.899C133.397 215.267 133.58 215.716 133.641 216.226C133.703 216.756 133.641 217.226 133.458 217.654C133.274 218.083 132.988 218.409 132.621 218.654C132.254 218.899 131.825 219.042 131.356 219.103C130.887 219.164 130.458 219.103 130.05 218.94C129.642 218.777 129.295 218.511 129.009 218.165C128.744 217.797 128.56 217.348 128.499 216.818C128.438 216.308 128.499 215.838 128.683 215.41C128.866 214.981 129.152 214.655 129.519 214.41C129.887 214.165 130.295 214.022 130.764 213.961Z" fill="#441506"/>
<path d="M111.848 221.981L121.174 222.246L121.112 224.286L111.787 224.021L111.848 221.981ZM112.338 215.573L121.337 215.818L121.276 217.858L112.276 217.614L112.338 215.573ZM119.929 210.104L122.194 210.165L121.806 224.307L119.541 224.246L119.929 210.104Z" fill="#441506"/>
<path d="M106.337 208.818C107.399 208.982 108.276 209.349 108.97 209.92C109.664 210.492 110.174 211.206 110.48 212.084C110.786 212.961 110.847 213.94 110.684 215.002C110.521 216.063 110.174 216.981 109.623 217.716C109.072 218.45 108.378 219.001 107.541 219.328C106.705 219.654 105.746 219.756 104.684 219.593C103.623 219.43 102.746 219.063 102.072 218.491C101.399 217.92 100.889 217.206 100.603 216.328C100.317 215.451 100.236 214.491 100.399 213.41C100.562 212.349 100.909 211.43 101.46 210.675C102.011 209.92 102.685 209.39 103.521 209.043C104.358 208.696 105.297 208.614 106.337 208.778V208.818ZM106.031 210.818C104.929 210.655 104.133 210.818 103.623 211.288C103.113 211.757 102.766 212.594 102.603 213.777C102.44 214.961 102.501 215.838 102.848 216.45C103.195 217.063 103.909 217.45 105.011 217.614C106.113 217.777 106.909 217.614 107.439 217.144C107.95 216.655 108.296 215.838 108.48 214.675C108.664 213.512 108.562 212.614 108.235 212.002C107.888 211.39 107.174 211.002 106.072 210.818H106.031Z" fill="#441506"/>
<path d="M95.9921 213.92L96.5227 214.063L95.9921 216.042L95.5432 215.92C95.2166 216.328 94.7677 216.634 94.1963 216.858C93.6249 217.083 92.9923 217.103 92.2577 216.899C91.5435 216.695 91.0129 216.389 90.666 215.961C90.3191 215.532 90.115 215.042 90.0742 214.471C90.013 213.899 90.0742 213.287 90.2579 212.655L90.4415 211.981L92.6454 212.573L92.5434 212.981C92.3597 213.655 92.3393 214.144 92.5026 214.491C92.6658 214.838 93.0536 215.103 93.7066 215.287C94.3596 215.471 94.8697 215.45 95.2166 215.246C95.5636 215.042 95.8493 214.593 96.0329 213.92H95.9921ZM97.7879 207.329L99.9918 207.92L97.2369 218.103L95.2166 217.552L95.9921 214.716L95.8288 214.573L97.7879 207.329Z" fill="#441506"/>
<path d="M81.9717 211.124L88.6855 213.655L88.0121 215.43L81.2983 212.9L81.9717 211.124ZM86.7673 203.757C87.8488 204.166 88.5834 204.696 88.9916 205.37C89.3997 206.043 89.3793 206.92 88.9712 208.043L86.502 214.614L85.0123 217.083L83.4002 216.471L86.8285 207.349C87.0121 206.839 87.0121 206.451 86.8081 206.227C86.604 205.982 86.1551 205.737 85.4817 205.492L84.2981 205.043L84.9511 203.288C85.1552 203.329 85.4408 203.39 85.7673 203.451C86.0938 203.533 86.4408 203.635 86.7877 203.757H86.7673Z" fill="#441506"/>
<path d="M77.1158 212.45L79.1769 213.389L78.2382 215.511L76.1567 214.573L77.1158 212.45ZM81.9522 201.676L84.0336 202.614L79.6871 212.226L77.6056 211.287L81.9522 201.676Z" fill="#441506"/>
<path d="M77.8292 199.615L79.8291 200.655L75.0131 209.879C74.6254 210.593 74.1765 211.144 73.6663 211.491C73.1357 211.838 72.544 212.001 71.8501 211.961C71.1767 211.92 70.4421 211.695 69.6463 211.287C69.5238 211.226 69.4014 211.165 69.2789 211.083C69.1565 211.022 69.0341 210.961 68.9116 210.879L69.7483 209.287L70.8706 209.879C71.3196 210.124 71.7073 210.206 72.0134 210.124C72.3195 210.063 72.5848 209.818 72.7888 209.43L73.2174 208.614L73.4214 208.104L77.87 199.615H77.8292ZM71.4828 205.982L77.217 208.981L76.3396 210.655L70.6054 207.655L71.4828 205.961V205.982Z" fill="#441506"/>
<path d="M75.1372 194.003C75.382 194.167 75.6065 194.33 75.831 194.514C76.0554 194.697 76.2187 194.86 76.3411 195.003L75.3208 196.554L74.1168 195.779C73.7495 195.534 73.4434 195.411 73.1985 195.391C72.9537 195.391 72.6476 195.473 72.3007 195.697L70.9538 196.575L71.5252 196.064L69.6478 207.227L67.5664 205.859L68.5663 200.431L69.0152 198.003L68.852 197.901L66.8929 199.35L62.5056 202.554L60.3833 201.166L70.9538 194.085C71.5048 193.697 72.015 193.452 72.4843 193.33C72.9333 193.228 73.3822 193.228 73.7903 193.33C74.2189 193.452 74.6474 193.656 75.1372 193.963V194.003Z" fill="#441506"/>
<path d="M57.6893 191.126C58.0567 191.432 58.3015 191.799 58.4648 192.228C58.628 192.636 58.6689 193.064 58.5872 193.513C58.5056 193.962 58.2811 194.391 57.9546 194.778C57.6077 195.187 57.1996 195.452 56.7711 195.595C56.3425 195.738 55.914 195.758 55.465 195.656C55.0365 195.554 54.6488 195.329 54.2815 195.023C53.9346 194.717 53.6693 194.35 53.506 193.942C53.3428 193.534 53.302 193.105 53.3836 192.656C53.4652 192.207 53.6897 191.779 54.0366 191.371C54.3835 190.983 54.7712 190.718 55.1998 190.575C55.6283 190.432 56.0568 190.411 56.5058 190.513C56.9343 190.616 57.322 190.82 57.6689 191.126H57.6893Z" fill="#441506"/>
<path d="M53.1585 180.372L54.6889 182.024L44.3225 191.636L42.792 189.983L53.1585 180.372Z" fill="#441506"/>
<path d="M45.7515 171.229L47.1392 173.005L42.3437 176.719C41.5886 177.29 41.1805 177.862 41.0785 178.392C40.9764 178.923 41.2213 179.576 41.8131 180.351C42.1804 180.82 42.5681 181.167 42.9354 181.392C43.3232 181.596 43.7109 181.678 44.1394 181.596C44.568 181.514 45.0373 181.269 45.5679 180.861L45.8128 181.188L43.9762 182.841L43.6701 182.433C43.2824 182.535 42.8538 182.575 42.4049 182.535C41.9559 182.494 41.507 182.331 41.0377 182.086C40.5683 181.841 40.1398 181.453 39.7316 180.923C39.1603 180.188 38.8338 179.494 38.7725 178.821C38.6909 178.147 38.8133 177.515 39.1399 176.902C39.4664 176.29 39.9357 175.76 40.5683 175.27L45.7719 171.229H45.7515ZM50.343 177.147L51.7306 178.943L43.4456 185.371L42.16 183.718L44.6496 181.8L44.6088 181.576L50.3226 177.147H50.343Z" fill="#441506"/>
<path d="M39.8523 161.413L40.995 163.352L35.7506 166.433C34.9343 166.903 34.4446 167.413 34.2813 167.923C34.1181 168.433 34.2813 169.107 34.7711 169.943C35.0772 170.474 35.4037 170.862 35.7506 171.106C36.0975 171.351 36.4852 171.474 36.9341 171.453C37.3831 171.433 37.8728 171.249 38.4442 170.902L38.6483 171.249L36.6076 172.657L36.3424 172.229C35.9342 172.29 35.5057 172.27 35.0772 172.168C34.6486 172.066 34.1997 171.861 33.7711 171.555C33.3426 171.249 32.9549 170.8 32.6284 170.229C32.159 169.433 31.9346 168.698 31.9346 168.025C31.9346 167.352 32.1386 166.739 32.5264 166.168C32.9141 165.597 33.4651 165.127 34.1385 164.719L39.8115 161.373L39.8523 161.413ZM43.6479 167.862L44.811 169.821L35.771 175.147L34.7098 173.351L37.4239 171.759V171.535L43.6479 167.862Z" fill="#441506"/>
<path d="M37.3837 155.374C37.8122 156.353 37.9551 157.292 37.853 158.19C37.751 159.088 37.3837 159.904 36.8123 160.618C36.2205 161.332 35.4247 161.904 34.4452 162.332C33.4656 162.761 32.4861 162.944 31.5679 162.863C30.6496 162.781 29.8333 162.475 29.0987 161.945C28.364 161.414 27.7927 160.639 27.3641 159.659C26.9356 158.68 26.7927 157.741 26.9152 156.863C27.0376 155.986 27.3845 155.19 27.9763 154.476C28.5681 153.762 29.3435 153.19 30.3435 152.762C31.3434 152.333 32.3025 152.149 33.2208 152.211C34.1391 152.272 34.9757 152.558 35.6899 153.088C36.4042 153.619 36.9756 154.374 37.4041 155.353L37.3837 155.374ZM35.5267 156.17C35.0982 155.149 34.5268 154.557 33.8534 154.374C33.18 154.19 32.2821 154.353 31.2005 154.802C30.119 155.251 29.4048 155.802 29.0579 156.414C28.7109 157.027 28.7722 157.843 29.2007 158.863C29.6292 159.884 30.2006 160.496 30.874 160.659C31.5474 160.843 32.4453 160.7 33.5269 160.23C34.6084 159.761 35.3226 159.231 35.6695 158.598C36.0165 157.986 35.9552 157.149 35.5267 156.129V156.17Z" fill="#441506"/>
<path d="M33.1813 144.13L33.9976 146.905L25.1208 153.884L24.4066 151.476L31.508 146.191L31.4672 146.048L22.6108 145.436L21.917 143.069L33.1609 144.13H33.1813Z" fill="#441506"/>
<path d="M30.4868 131.008L30.8541 133.09L28.8135 133.437L28.2625 133.6L24.2832 134.294C23.5078 134.437 23.018 134.702 22.7936 135.11C22.5895 135.518 22.5487 136.151 22.6915 136.967C22.8344 137.783 23.0793 138.355 23.4262 138.661C23.7731 138.967 24.2832 139.048 24.9771 138.946L25.2831 138.885L25.6505 141.048L25.4464 141.089C24.6914 141.212 23.9771 141.15 23.3037 140.865C22.6303 140.579 22.0793 140.13 21.61 139.497C21.161 138.865 20.8345 138.089 20.6917 137.191C20.5284 136.232 20.5693 135.396 20.8141 134.702C21.059 133.988 21.4671 133.416 22.0589 132.988C22.6303 132.559 23.3445 132.253 24.2016 132.11L30.4868 131.029V131.008ZM31.7112 136.885C31.8744 137.824 31.7724 138.661 31.4051 139.355C31.0378 140.069 30.4052 140.497 29.5073 140.64C28.9359 140.742 28.4257 140.681 27.9972 140.497C27.5483 140.293 27.1605 139.967 26.834 139.477C26.5075 139.008 26.2218 138.416 25.977 137.702L24.773 133.967L26.3647 133.682L27.4462 137.089C27.6503 137.661 27.8544 138.069 28.0584 138.273C28.2625 138.477 28.5686 138.559 28.9563 138.477C29.3644 138.416 29.6297 138.212 29.7726 137.906C29.9154 137.6 29.9154 137.11 29.8134 136.457C29.7317 135.967 29.5685 135.477 29.3236 135.049C29.0787 134.6 28.7522 134.273 28.3033 134.028C27.8544 133.804 27.3034 133.743 26.6096 133.865L29.2012 133.11L29.242 133.416C29.5889 133.559 29.9358 133.784 30.2827 134.069C30.6296 134.375 30.9153 134.743 31.1806 135.192C31.4459 135.641 31.6295 136.192 31.7316 136.824L31.7112 136.885Z" fill="#441506"/>
<path d="M30.0587 124.988C30.1403 126.131 29.9566 127.029 29.5281 127.682C29.0792 128.335 28.2833 128.702 27.0997 128.784L20.0799 129.294L17.223 128.968L17.1006 127.233L26.8345 126.539C27.3854 126.498 27.7119 126.335 27.8548 126.049C27.9772 125.764 28.018 125.254 27.9772 124.539L27.8956 123.274L29.773 123.131C29.8342 123.335 29.8954 123.601 29.9566 123.948C30.0179 124.274 30.0791 124.621 30.0995 124.988H30.0587ZM21.3655 123.723L21.8757 130.886L19.9779 131.029L19.4677 123.866L21.3655 123.723Z" fill="#441506"/>
<path d="M30.1801 117.663C30.1597 118.806 29.8944 119.765 29.4047 120.5C28.9149 121.234 28.2619 121.785 27.4456 122.132C26.6294 122.479 25.6703 122.642 24.5887 122.622C23.5072 122.601 22.5685 122.357 21.7522 121.928C20.936 121.499 20.3238 120.887 19.8953 120.112C19.4667 119.336 19.2422 118.438 19.2831 117.398C19.3035 116.459 19.5075 115.622 19.8748 114.929C20.2422 114.214 20.7727 113.663 21.4665 113.276C22.1604 112.888 22.9766 112.704 23.9561 112.725C24.2214 112.725 24.4867 112.745 24.752 112.765C25.0173 112.786 25.2213 112.827 25.3846 112.847L25.1805 121.54L23.65 121.499L23.8133 114.663L24.0174 114.908C23.3643 114.827 22.8542 114.867 22.4461 115.051C22.0379 115.235 21.7318 115.52 21.5278 115.949C21.3237 116.357 21.2013 116.888 21.2013 117.5C21.1809 118.602 21.4461 119.377 21.9971 119.806C22.5481 120.234 23.3031 120.459 24.2826 120.479H24.8948C25.5886 120.52 26.2008 120.438 26.6906 120.275C27.1803 120.112 27.5477 119.826 27.7925 119.377C28.0374 118.928 28.1803 118.336 28.2007 117.581C28.2211 116.704 28.0986 116.071 27.8334 115.704C27.5681 115.337 27.2008 115.133 26.7314 115.133H26.5682L26.6294 112.868H26.813C27.5273 112.888 28.1395 113.092 28.67 113.5C29.1802 113.908 29.5883 114.459 29.874 115.173C30.1597 115.867 30.2821 116.704 30.2617 117.663H30.1801Z" fill="#441506"/>
<path d="M26.7123 104.419C26.6307 104.888 26.4675 105.297 26.2022 105.664C25.9369 106.011 25.59 106.276 25.1614 106.439C24.7329 106.603 24.2636 106.643 23.7534 106.562C23.2228 106.48 22.7943 106.276 22.427 105.99C22.0801 105.705 21.8352 105.337 21.6924 104.909C21.5495 104.48 21.5291 104.031 21.6107 103.562C21.6924 103.113 21.8556 102.705 22.1209 102.338C22.3862 101.991 22.7331 101.725 23.1616 101.562C23.5902 101.399 24.0595 101.358 24.5901 101.44C25.1002 101.521 25.5288 101.705 25.8961 102.011C26.243 102.297 26.4879 102.664 26.6307 103.093C26.7736 103.521 26.794 103.95 26.7123 104.419Z" fill="#441506"/>
<path d="M33.0584 95.8893L32.3033 98.134L20.6309 88.4409L21.6716 85.3391L36.8336 84.6045L36.0581 86.9512L25.9161 87.4614H23.1409L23.0796 87.6451L25.2631 89.3592L33.0584 95.8893ZM32.487 85.9717L29.6709 94.3792L27.7527 93.7262L30.5688 85.3187L32.487 85.9717Z" fill="#441506"/>
<path d="M38.2608 82.0336L37.2405 84.0743L27.8535 79.3808L28.7922 77.5034L31.6083 78.9114L31.792 78.789L38.2608 82.0336ZM41.6075 75.3403L40.5871 77.3606L35.159 74.6465C34.3224 74.218 33.6285 74.0751 33.098 74.218C32.5674 74.3608 32.0981 74.8506 31.6491 75.7281C31.3838 76.279 31.2206 76.7484 31.2002 77.1973C31.1798 77.6259 31.2818 78.0136 31.5471 78.3809C31.8124 78.7278 32.2205 79.0543 32.8123 79.34L32.6286 79.7073L30.3431 78.7686L30.5676 78.3197C30.3023 78.0136 30.0778 77.6463 29.935 77.2177C29.7921 76.7892 29.7309 76.3198 29.7513 75.7893C29.7717 75.2587 29.935 74.7077 30.2411 74.1159C30.6492 73.2793 31.1594 72.6875 31.7307 72.3406C32.3021 71.9937 32.9347 71.81 33.6081 71.8508C34.2815 71.8916 34.9958 72.0753 35.71 72.4222L41.587 75.3607L41.6075 75.3403Z" fill="#441506"/>
<path d="M45.2826 70.0546C44.6908 70.9525 43.9765 71.5851 43.1603 71.9728C42.344 72.3605 41.487 72.5238 40.5483 72.4217C39.63 72.3197 38.7117 71.9728 37.8138 71.3606C36.9159 70.7484 36.2425 70.0546 35.814 69.2383C35.3854 68.4221 35.1814 67.565 35.2426 66.6671C35.3038 65.7692 35.6303 64.8713 36.2221 63.9735C36.8139 63.0756 37.5077 62.443 38.324 62.0757C39.1402 61.6879 39.9973 61.5451 40.8952 61.6471C41.7931 61.7492 42.7113 62.0961 43.6092 62.7083C44.5071 63.3204 45.1805 64.0143 45.6295 64.8305C46.0784 65.6468 46.2825 66.4834 46.2417 67.3813C46.2008 68.2792 45.8743 69.1567 45.2826 70.0546ZM43.6092 68.9322C44.2214 68.0139 44.4255 67.2181 44.201 66.5447C43.9765 65.8713 43.3848 65.2182 42.3848 64.5652C41.4053 63.9122 40.5687 63.6061 39.8544 63.647C39.1402 63.6878 38.4872 64.1775 37.875 65.0958C37.2628 66.0141 37.0588 66.8099 37.2832 67.4834C37.5077 68.1568 38.0995 68.8098 39.079 69.4832C40.0585 70.1362 40.9156 70.4423 41.6094 70.3811C42.3032 70.3199 42.9766 69.8301 43.5888 68.9118L43.6092 68.9322Z" fill="#441506"/>
<path d="M50.2609 62.9532L48.7712 64.6673L40.8535 57.7904L42.2207 56.2191L44.5879 58.2801L44.792 58.1985L50.2609 62.9328V62.9532ZM55.1788 57.3006L53.6892 59.0147L49.0977 55.0355C48.3835 54.4233 47.7509 54.1172 47.2203 54.1172C46.6693 54.1172 46.0776 54.4845 45.445 55.2191C45.0572 55.6681 44.792 56.117 44.6491 56.5252C44.5063 56.9333 44.5267 57.3414 44.6899 57.7495C44.8532 58.1577 45.1797 58.5658 45.6898 58.9943L45.4246 59.3004L43.4451 57.8312L43.7716 57.4434C43.588 57.0761 43.4655 56.668 43.4247 56.2191C43.3839 55.7701 43.4247 55.3008 43.6084 54.7906C43.7716 54.2804 44.0573 53.7907 44.5063 53.2805C45.1185 52.5867 45.7307 52.1174 46.3837 51.9133C47.0367 51.7092 47.6693 51.7092 48.3223 51.9133C48.9753 52.097 49.6079 52.4643 50.1997 52.9948L55.1788 57.3006Z" fill="#441506"/>
<path d="M59.7103 57.9329C59.5063 58.1166 59.2818 58.3002 59.0369 58.4839C58.792 58.6675 58.588 58.7696 58.4247 58.8512L57.1799 57.484L58.2411 56.5249C58.5676 56.2392 58.7716 55.9739 58.8328 55.729C58.9145 55.5045 58.8941 55.178 58.7716 54.7699L58.2615 53.2394L58.6084 53.9128L48.2827 49.301L50.1193 47.6277L55.1189 49.954L57.3636 50.9947L57.5064 50.8723L56.5881 48.6276L54.5883 43.5668L56.4657 41.873L60.6694 53.8924C60.9143 54.525 61.0163 55.076 61.0163 55.5454C61.0163 56.0147 60.8939 56.4432 60.6694 56.8106C60.4449 57.1983 60.1389 57.5656 59.7103 57.9533V57.9329Z" fill="#441506"/>
<path d="M65.71 47.8726L63.7918 49.1173L58.0576 40.3426L59.8126 39.1998L61.5267 41.8322H61.7512L65.71 47.8726ZM71.8115 43.8933L69.9137 45.1177L66.5875 40.0365C66.0773 39.2406 65.5468 38.7713 65.0366 38.6284C64.5265 38.4856 63.853 38.6693 63.0776 39.1794C62.3634 39.6488 61.9348 40.1589 61.792 40.7099C61.6491 41.2609 61.8532 41.9343 62.3634 42.7301L62.0777 43.0158L60.5472 41.0364L60.9757 40.7507C60.8941 40.3426 60.8941 39.9345 60.9757 39.4855C61.0574 39.0366 61.241 38.608 61.5267 38.1795C61.8124 37.751 62.2205 37.3428 62.7919 36.9755C63.5265 36.4858 64.2408 36.2409 64.8938 36.2409C65.5468 36.2409 66.159 36.4041 66.7304 36.7919C67.3017 37.1592 67.7915 37.6897 68.2404 38.3632L71.832 43.8729L71.8115 43.8933ZM77.9131 39.914L75.9949 41.1588L72.6686 36.0776C72.1585 35.2818 71.6483 34.8124 71.1381 34.6696C70.628 34.5267 69.975 34.7104 69.1587 35.2206C68.4445 35.6899 68.016 36.2001 67.8935 36.751C67.7711 37.302 67.9547 37.9958 68.4853 38.7917L68.1792 39.057L66.6487 37.0776L66.9344 36.8939C66.8936 36.5062 66.8936 36.098 66.9548 35.6491C67.016 35.2002 67.1997 34.7512 67.4854 34.3227C67.7711 33.8941 68.1996 33.486 68.771 33.0983C69.526 32.6085 70.2403 32.3433 70.9137 32.3433C71.5871 32.3433 72.1993 32.5065 72.7707 32.8738C73.342 33.2411 73.8522 33.7513 74.2807 34.4247L77.8723 39.9345L77.9131 39.914Z" fill="#441506"/>
<path d="M76.3422 27.9154L74.322 28.9154L73.2812 26.8339L75.3219 25.834L76.3422 27.9154ZM81.5459 38.5268L79.5052 39.5267L74.8729 30.0377L76.9136 29.0378L81.5459 38.5268Z" fill="#441506"/>
<path d="M91.6232 34.3429L82.4199 37.9752L81.7669 36.3223L84.6033 29.6086L85.3584 27.8944L85.3176 27.7108L84.0524 28.2005L79.6038 29.9555L78.8691 28.1189L87.5011 24.7314L88.1949 26.5272L85.2563 33.2817L84.5421 34.8326L84.5829 34.9959L85.7461 34.5469L90.8885 32.5267L91.6232 34.3837V34.3429Z" fill="#441506"/>
<path d="M96.6245 33.2212C95.5022 33.5273 94.5431 33.5477 93.686 33.2824C92.8493 33.0375 92.1351 32.5478 91.5637 31.8744C90.9923 31.1806 90.5638 30.3235 90.2781 29.2623C89.9924 28.2012 89.9516 27.2421 90.1353 26.3442C90.3189 25.4463 90.727 24.6709 91.3392 24.0383C91.9514 23.4057 92.7677 22.9364 93.7676 22.6711C94.6859 22.4262 95.5226 22.3854 96.3184 22.5486C97.1143 22.7119 97.7877 23.0588 98.3591 23.6098C98.9304 24.1607 99.3386 24.8954 99.5834 25.8341C99.6447 26.0994 99.7059 26.3442 99.7671 26.6095C99.8079 26.8748 99.8487 27.0789 99.8691 27.2421L91.4821 29.5072L91.074 28.0176L97.6652 26.2422L97.502 26.5075C97.4 25.8749 97.2163 25.3647 96.9102 25.0382C96.6041 24.7117 96.2572 24.4872 95.7878 24.4056C95.3185 24.324 94.8083 24.3648 94.1961 24.5281C93.1146 24.8137 92.4616 25.2831 92.2167 25.9361C91.9718 26.5891 91.9718 27.385 92.2167 28.3237L92.38 28.9154C92.5636 29.5889 92.8085 30.1398 93.0942 30.5684C93.3799 30.9969 93.7676 31.2622 94.2574 31.3846C94.7471 31.5071 95.3593 31.4662 96.0939 31.2622C96.951 31.0377 97.5224 30.7316 97.7877 30.3643C98.0734 29.997 98.155 29.5889 98.0326 29.1399L97.9917 28.9767L100.175 28.3849L100.216 28.5685C100.4 29.2623 100.379 29.9154 100.134 30.5275C99.8895 31.1397 99.4814 31.6703 98.8692 32.1397C98.2774 32.609 97.5224 32.9559 96.5837 33.2212H96.6245Z" fill="#441506"/>
<path d="M108.338 26.1397C107.868 26.2009 107.419 26.1397 107.011 25.9968C106.603 25.8336 106.256 25.5887 105.971 25.2214C105.685 24.8541 105.522 24.4256 105.46 23.895C105.399 23.3644 105.46 22.8951 105.644 22.4665C105.828 22.038 106.093 21.7115 106.46 21.4666C106.828 21.2217 107.256 21.0585 107.726 20.9973C108.195 20.9361 108.623 20.9973 109.032 21.1401C109.44 21.3034 109.787 21.5482 110.072 21.9156C110.358 22.2829 110.521 22.7318 110.582 23.2624C110.644 23.7725 110.582 24.2419 110.399 24.6704C110.215 25.099 109.95 25.4255 109.583 25.6703C109.215 25.9152 108.807 26.0785 108.338 26.1397Z" fill="#441506"/>
<path d="M74.2783 143.457L91.8279 158.843L169.638 105.072L144.211 82.9312L74.2783 143.457Z" fill="#441506"/>
<path d="M120.587 151.137C147.069 144.337 164.332 122.445 159.144 102.24C153.956 82.034 128.282 71.1662 101.8 77.9657C75.3174 84.7652 58.0548 106.657 63.2427 126.863C68.4306 147.069 94.1046 157.936 120.587 151.137Z" fill="#441506"/>
<path d="M136.531 165.318C163.013 158.519 180.276 136.626 175.088 116.421C169.9 96.2151 144.226 85.3473 117.744 92.1469C91.2612 98.9464 73.9986 120.838 79.1866 141.044C84.3745 161.25 110.048 172.118 136.531 165.318Z" fill="#441506"/>
<path d="M106.031 143.007C90.808 143.007 78.2376 135.477 75.2379 123.764C74.7889 122.029 74.5849 120.254 74.5645 118.499C74.5645 106.378 84.7677 94.2562 100.338 88.8485C101.236 88.5628 102.195 88.2567 103.133 88.0119C103.378 87.8894 103.848 87.767 104.276 87.665C104.746 87.5425 105.215 87.4201 105.664 87.3793C106.439 87.1752 107.439 86.9711 108.337 86.8079H108.357C123.642 84.1959 137.62 89.1138 144.069 98.562C145.456 100.603 146.497 102.827 147.109 105.255C147.109 105.255 147.109 105.296 147.109 105.317C147.558 107.071 147.783 108.847 147.783 110.622C147.783 122.764 137.6 134.885 122.071 140.293C121.173 140.579 120.254 140.885 119.316 141.109C119.071 141.232 118.581 141.354 118.091 141.477C117.622 141.599 117.153 141.722 116.643 141.783C115.867 141.987 114.99 142.15 114.112 142.334C111.357 142.803 108.643 143.028 105.99 143.028L106.031 143.007ZM82.1148 131.478C88.0327 137.987 98.4604 141.477 110.051 140.416C101.583 139.028 94.4403 134.518 90.2366 127.988C89.5632 128.253 88.8898 128.519 88.2164 128.804C86.1349 129.661 84.0738 130.559 82.0944 131.478H82.1148ZM92.5629 127.111C96.7871 133.375 104.113 137.518 112.663 138.314C107.623 134.987 103.501 130.09 100.787 124.254C97.9502 125.172 95.1954 126.131 92.5629 127.111ZM113.561 120.683L117.826 137.273C121.295 132.09 122.948 125.539 122.581 118.744C119.622 119.295 116.602 119.948 113.582 120.683H113.561ZM103.113 123.519C105.868 129.314 110.112 134.09 115.275 137.089L111.214 121.254C111.214 121.254 111.153 121.254 111.112 121.274C108.398 121.968 105.725 122.723 103.113 123.519ZM135.988 116.765C135.314 124.315 131.213 131.518 124.601 136.702C135.008 132.171 142.355 124.397 144.62 116.071C142.804 116.152 140.824 116.295 138.661 116.499C137.743 116.601 136.865 116.683 135.988 116.785V116.765ZM124.968 118.315C125.376 124.682 124.111 130.865 121.336 136.089C128.152 131.416 132.58 124.397 133.478 117.05C130.662 117.397 127.825 117.805 124.968 118.315ZM76.952 118.499C76.952 120.07 77.1357 121.642 77.5438 123.193C78.1356 125.498 79.1559 127.641 80.5231 129.559C82.7066 128.539 84.9717 127.539 87.2777 126.58C87.849 126.356 88.4204 126.111 89.0122 125.886C88.1755 124.274 87.5225 122.54 87.0532 120.744C86.2369 117.54 86.0737 114.295 86.5022 111.132C86.2981 111.173 86.0941 111.194 85.89 111.214C83.1147 111.643 80.4823 111.969 77.9315 112.234C77.2785 114.295 76.9316 116.397 76.9316 118.499H76.952ZM89.0326 110.724C88.502 113.806 88.6041 116.989 89.3999 120.132C89.8489 121.846 90.4815 123.478 91.2773 125.009C93.9914 123.968 96.8483 122.968 99.8072 122.029C99.2766 120.662 98.8277 119.254 98.4604 117.805C97.7258 114.928 97.338 112.03 97.2768 109.153C94.4811 109.765 91.7059 110.275 89.0122 110.724H89.0326ZM99.7052 108.622C99.7052 111.459 100.072 114.336 100.807 117.193C101.174 118.601 101.603 119.968 102.134 121.274C104.888 120.438 107.664 119.662 110.398 118.948C110.459 118.948 110.541 118.907 110.602 118.887L107.46 106.602C107.46 106.602 107.378 106.623 107.337 106.643C106.501 106.929 105.46 107.194 104.419 107.459C102.848 107.867 101.276 108.255 99.7052 108.602V108.622ZM109.786 105.99L112.949 118.336C116.092 117.56 119.255 116.887 122.336 116.316C122.152 114.846 121.867 113.357 121.499 111.887C120.724 108.847 119.561 105.99 118.091 103.378C115.479 104.276 112.684 105.153 109.786 105.99ZM120.418 102.582C121.887 105.276 123.05 108.194 123.846 111.296C124.234 112.826 124.54 114.377 124.723 115.907C127.703 115.377 130.682 114.948 133.621 114.601C133.641 112.704 133.417 110.826 132.947 108.949C132.049 105.419 130.315 102.276 127.968 99.6231C125.438 100.684 122.907 101.664 120.397 102.562L120.418 102.582ZM130.335 98.6436C132.662 101.439 134.376 104.725 135.314 108.357C135.825 110.336 136.069 112.336 136.09 114.336C136.845 114.255 137.6 114.193 138.355 114.112C140.906 113.867 143.11 113.724 145.15 113.642C145.293 112.642 145.375 111.643 145.375 110.663C145.375 109.092 145.171 107.5 144.783 105.949C143.701 101.725 141.191 98.0926 137.702 95.2766C135.621 96.3173 133.437 97.3376 131.254 98.2763C130.947 98.3987 130.662 98.5416 130.356 98.664L130.335 98.6436ZM97.7666 92.4605C88.7673 96.3785 82.074 102.704 78.9314 109.704C81.0537 109.479 83.2168 109.194 85.4003 108.847C85.9921 108.765 86.5226 108.684 87.0124 108.602C88.502 102.46 92.2568 96.7458 97.7666 92.4605ZM100.97 93.1339C95.2974 96.9907 91.3385 102.337 89.6448 108.194C92.1752 107.765 94.7464 107.276 97.3584 106.704C97.6033 101.868 98.8277 97.2356 100.97 93.1543V93.1339ZM103.929 92.8278C101.562 96.7458 100.175 101.317 99.8276 106.153C101.154 105.847 102.501 105.521 103.848 105.174C104.827 104.929 105.807 104.664 106.684 104.378C106.745 104.378 106.807 104.337 106.888 104.337L103.929 92.8482V92.8278ZM106.092 91.481L109.215 103.664C111.867 102.909 114.418 102.113 116.826 101.296C114.01 97.0927 110.337 93.6849 106.092 91.5014V91.481ZM109.827 90.8688C113.5 93.2971 116.683 96.5622 119.173 100.46C121.499 99.6435 123.846 98.7456 126.172 97.7865C121.948 93.9501 116.234 91.481 109.827 90.8688ZM112.235 88.7261C118.704 89.7464 124.417 92.5829 128.621 96.7458C129.192 96.5009 129.743 96.2561 130.294 96.0112C132.07 95.2561 133.804 94.4603 135.498 93.6236C129.886 90.0117 122.336 88.1343 114.092 88.5832C113.48 88.6241 112.867 88.6649 112.235 88.7261Z" fill="#F2D23B"/>
</g>
<defs>
<clipPath id="clip0_1242_30467">
<rect width="240" height="240" fill="white"/>
</clipPath>
</defs>
</svg>
