<svg width="241" height="240" viewBox="0 0 241 240" fill="none" xmlns="http://www.w3.org/2000/svg">
<g clip-path="url(#clip0_1242_30328)">
<path d="M120.637 240.02C186.917 240.02 240.647 186.29 240.647 120.01C240.647 53.7299 186.917 -0.000488281 120.637 -0.000488281C54.3569 -0.000488281 0.626465 53.7299 0.626465 120.01C0.626465 186.29 54.3569 240.02 120.637 240.02Z" fill="#0275F6"/>
<path d="M121.513 29.8948L119.248 29.8131L119.758 15.6919L122.023 15.7735L121.513 29.8948ZM129.145 24.4871L120.146 24.1606L120.228 22.1199L129.227 22.4464L129.145 24.4871ZM129.696 18.0794L120.37 17.7325L120.452 15.6919L129.778 16.0388L129.696 18.0794Z" fill="#F5F0D8"/>
<path d="M135.125 31.3026C134.064 31.1393 133.186 30.7516 132.492 30.1802C131.799 29.6088 131.309 28.8742 131.003 27.9967C130.717 27.1192 130.656 26.1397 130.819 25.0786C130.982 24.0175 131.35 23.0992 131.901 22.3645C132.452 21.6299 133.145 21.0993 134.002 20.7728C134.839 20.4463 135.798 20.3647 136.859 20.5484C137.92 20.7116 138.778 21.0993 139.471 21.6707C140.145 22.2421 140.635 22.9767 140.92 23.8338C141.206 24.7113 141.267 25.6704 141.083 26.7519C140.92 27.8131 140.553 28.7313 140.002 29.466C139.451 30.2006 138.757 30.7516 137.941 31.0781C137.104 31.4046 136.166 31.4862 135.104 31.323L135.125 31.3026ZM135.451 29.3027C136.553 29.4864 137.349 29.3231 137.859 28.8538C138.369 28.364 138.716 27.5478 138.9 26.3846C139.084 25.2214 139.022 24.3236 138.676 23.7114C138.349 23.0992 137.614 22.691 136.533 22.5278C135.431 22.3441 134.635 22.5074 134.104 22.9767C133.594 23.4461 133.227 24.2827 133.043 25.4459C132.86 26.6091 132.941 27.507 133.268 28.1192C133.615 28.7313 134.329 29.1395 135.431 29.3027H135.451Z" fill="#F5F0D8"/>
<path d="M143.654 32.8942L141.45 32.282L144.307 22.1196L146.327 22.691L145.531 25.5071L145.695 25.6703L143.654 32.8942ZM145.511 26.3029L144.98 26.1601L145.531 24.1807L145.98 24.3031C146.307 23.895 146.756 23.5889 147.327 23.3644C147.899 23.1399 148.552 23.1399 149.266 23.344C149.98 23.5481 150.511 23.8542 150.858 24.3031C151.204 24.7521 151.388 25.2418 151.449 25.8132C151.511 26.3846 151.449 26.9764 151.266 27.6294L151.082 28.3028L148.878 27.6906L149.001 27.2825C149.184 26.609 149.205 26.1193 149.062 25.7724C148.919 25.4255 148.511 25.1602 147.858 24.9765C147.205 24.7929 146.695 24.8133 146.348 25.0173C145.98 25.2214 145.715 25.6703 145.531 26.3438L145.511 26.3029Z" fill="#F5F0D8"/>
<path d="M154.634 36.5472C153.552 36.1391 152.818 35.5881 152.43 34.9147C152.042 34.2413 152.042 33.3434 152.471 32.2414L155.001 25.691L156.511 23.2422L158.123 23.8748L154.593 32.9761C154.389 33.4862 154.409 33.8739 154.593 34.0984C154.777 34.3229 155.246 34.5882 155.919 34.8534L157.103 35.3024L156.43 37.0573C156.226 37.0165 155.94 36.9553 155.613 36.8737C155.287 36.7921 154.94 36.69 154.613 36.5472H154.634ZM159.491 29.2213L152.797 26.6297L153.491 24.8543L160.184 27.4459L159.491 29.2213Z" fill="#F5F0D8"/>
<path d="M159.427 38.6898L157.366 37.7307L161.794 28.16L163.855 29.1192L159.427 38.6898ZM164.366 27.956L162.325 27.0173L163.284 24.895L165.345 25.8541L164.366 27.956Z" fill="#F5F0D8"/>
<path d="M163.51 40.7714L161.51 39.7103L166.408 30.5274C166.796 29.8132 167.244 29.2826 167.775 28.9357C168.306 28.5888 168.897 28.4459 169.591 28.4868C170.265 28.5276 170.999 28.752 171.775 29.1806C171.897 29.2418 172.02 29.303 172.142 29.3846C172.264 29.4459 172.387 29.5071 172.509 29.5887L171.673 31.1804L170.55 30.5886C170.101 30.3437 169.734 30.2621 169.428 30.3233C169.122 30.3846 168.857 30.6294 168.653 31.0172L168.224 31.8334L168.02 32.3436L163.51 40.7918V40.7714ZM169.918 34.4658L164.204 31.4049L165.102 29.7315L170.816 32.7925L169.918 34.4658Z" fill="#F5F0D8"/>
<path d="M166.164 46.4037C165.92 46.2405 165.695 46.0772 165.471 45.8732C165.246 45.6895 165.083 45.5059 164.96 45.363L165.981 43.8121L167.164 44.608C167.532 44.8529 167.838 44.9753 168.062 44.9957C168.307 44.9957 168.613 44.9141 168.981 44.71L170.348 43.8529L169.776 44.3631L171.756 33.2212L173.837 34.6088L172.797 40.0165L172.327 42.4449L172.49 42.5469L174.449 41.1185L178.878 37.9555L180.979 39.3635L170.327 46.3425C169.756 46.7302 169.266 46.9751 168.797 47.0772C168.348 47.1792 167.899 47.1792 167.491 47.0567C167.062 46.9343 166.634 46.7302 166.164 46.4037Z" fill="#F5F0D8"/>
<path d="M183.59 49.4438C183.243 49.1173 182.977 48.75 182.814 48.3419C182.651 47.9338 182.631 47.5052 182.712 47.0563C182.794 46.6073 183.018 46.1992 183.365 45.8115C183.712 45.4034 184.12 45.1381 184.549 44.9952C184.977 44.8524 185.406 44.832 185.855 44.9544C186.283 45.0565 186.671 45.2809 187.038 45.587C187.385 45.8931 187.63 46.2604 187.793 46.6686C187.957 47.0767 187.977 47.5052 187.895 47.9542C187.814 48.4031 187.589 48.8316 187.222 49.2194C186.875 49.6071 186.487 49.8724 186.038 50.0152C185.61 50.1581 185.161 50.1785 184.732 50.056C184.304 49.954 183.916 49.7295 183.569 49.4234L183.59 49.4438Z" fill="#F5F0D8"/>
<path d="M188.02 60.2394L186.49 58.566L196.938 49.0566L198.468 50.73L188.02 60.2394Z" fill="#F5F0D8"/>
<path d="M190.793 63.4629L189.406 61.6467L197.752 55.3003L199.017 56.9532L196.507 58.851V59.0755L190.773 63.4629H190.793ZM195.324 69.4215L193.956 67.6258L198.793 63.9526C199.548 63.3812 199.976 62.8303 200.078 62.2997C200.18 61.7691 199.956 61.1161 199.364 60.3407C198.997 59.8509 198.629 59.504 198.242 59.3C197.874 59.0755 197.466 59.0143 197.038 59.0959C196.609 59.1775 196.14 59.4224 195.609 59.8101L195.364 59.4836L197.221 57.8307L197.528 58.2388C197.915 58.1368 198.344 58.096 198.793 58.1572C199.242 58.198 199.691 58.3613 200.16 58.6265C200.629 58.8918 201.058 59.2795 201.446 59.8101C202.017 60.5447 202.323 61.259 202.384 61.9324C202.445 62.6058 202.323 63.2384 201.997 63.8302C201.67 64.422 201.201 64.9729 200.548 65.4627L195.303 69.4419L195.324 69.4215Z" fill="#F5F0D8"/>
<path d="M197.405 72.8298L196.263 70.8504L205.344 65.606L206.384 67.4221L203.67 68.9934V69.2179L197.405 72.8298ZM201.14 79.3191L200.017 77.3601L205.282 74.3195C206.099 73.8501 206.588 73.3604 206.772 72.8502C206.935 72.3401 206.772 71.6667 206.303 70.8096C205.997 70.279 205.67 69.8913 205.323 69.626C204.976 69.3607 204.589 69.2383 204.16 69.2587C203.731 69.2791 203.221 69.4628 202.65 69.7893L202.446 69.4424L204.486 68.0343L204.731 68.4833C205.139 68.422 205.568 68.4424 205.997 68.5649C206.425 68.6669 206.854 68.8914 207.282 69.1975C207.711 69.5036 208.078 69.9525 208.425 70.5239C208.894 71.3198 209.119 72.0748 209.098 72.7482C209.098 73.4216 208.874 74.0338 208.486 74.5848C208.098 75.1358 207.547 75.6051 206.854 76.0132L201.16 79.2987L201.14 79.3191Z" fill="#F5F0D8"/>
<path d="M203.548 85.3184C203.14 84.3389 202.997 83.4002 203.099 82.5023C203.201 81.6044 203.568 80.8086 204.16 80.0943C204.752 79.3801 205.548 78.8087 206.548 78.4006C207.548 77.9721 208.507 77.8088 209.425 77.8904C210.343 77.9721 211.16 78.2782 211.894 78.8291C212.608 79.3801 213.18 80.1351 213.608 81.1146C214.017 82.0942 214.159 83.0329 214.037 83.9103C213.914 84.7878 213.547 85.5837 212.976 86.2979C212.384 87.0121 211.588 87.5631 210.588 87.9916C209.588 88.4201 208.629 88.5834 207.711 88.5222C206.793 88.461 205.976 88.1549 205.242 87.6243C204.528 87.0937 203.956 86.3387 203.548 85.3592V85.3184ZM205.425 84.5429C205.854 85.5633 206.405 86.1754 207.078 86.3591C207.752 86.5428 208.65 86.3999 209.731 85.951C210.813 85.502 211.547 84.9511 211.894 84.3389C212.241 83.7267 212.2 82.9104 211.772 81.8901C211.343 80.8698 210.792 80.2576 210.098 80.0739C209.405 79.8903 208.527 80.0127 207.446 80.482C206.364 80.9514 205.629 81.482 205.303 82.0942C204.956 82.7064 204.997 83.5226 205.425 84.5633V84.5429Z" fill="#F5F0D8"/>
<path d="M207.648 96.6643L206.853 93.8891L215.791 86.9917L216.484 89.3997L209.322 94.6237L209.363 94.7665L218.199 95.4604L218.872 97.8275L207.628 96.6643H207.648Z" fill="#F5F0D8"/>
<path d="M209.058 103.909C208.895 102.971 209.017 102.134 209.385 101.44C209.752 100.746 210.385 100.318 211.303 100.175C211.874 100.073 212.385 100.134 212.813 100.338C213.242 100.542 213.629 100.869 213.956 101.359C214.282 101.848 214.568 102.44 214.792 103.134L215.956 106.868L214.344 107.134L213.303 103.705C213.119 103.134 212.915 102.726 212.711 102.522C212.507 102.318 212.201 102.236 211.813 102.297C211.405 102.359 211.14 102.563 210.997 102.869C210.854 103.175 210.834 103.665 210.936 104.318C211.017 104.828 211.181 105.297 211.405 105.746C211.65 106.195 211.976 106.542 212.425 106.766C212.854 107.011 213.425 107.072 214.119 106.95L211.527 107.664V107.358C211.14 107.215 210.793 106.991 210.466 106.685C210.14 106.379 209.834 106.011 209.589 105.542C209.344 105.093 209.16 104.542 209.058 103.889V103.909ZM210.242 109.786L209.895 107.705L211.936 107.379L212.487 107.215L216.466 106.562C217.241 106.44 217.731 106.175 217.955 105.746C218.18 105.338 218.221 104.726 218.078 103.889C217.935 103.052 217.711 102.501 217.364 102.195C217.017 101.889 216.507 101.787 215.813 101.91L215.507 101.95L215.16 99.7873L215.364 99.7465C216.119 99.6241 216.833 99.7057 217.507 99.9914C218.18 100.277 218.731 100.726 219.18 101.359C219.629 101.991 219.935 102.767 220.078 103.685C220.241 104.644 220.18 105.481 219.935 106.175C219.67 106.889 219.261 107.44 218.69 107.868C218.119 108.297 217.384 108.582 216.527 108.725L210.242 109.746V109.786Z" fill="#F5F0D8"/>
<path d="M210.609 115.866C210.527 114.723 210.731 113.825 211.16 113.172C211.609 112.54 212.425 112.172 213.609 112.091L220.629 111.642L223.485 111.989L223.587 113.723L213.854 114.336C213.303 114.376 212.976 114.54 212.833 114.825C212.711 115.111 212.67 115.621 212.711 116.335L212.792 117.601L210.915 117.723C210.854 117.519 210.793 117.254 210.731 116.907C210.67 116.58 210.629 116.233 210.609 115.866ZM219.302 117.213L218.853 110.05L220.751 109.928L221.2 117.09L219.302 117.213Z" fill="#F5F0D8"/>
<path d="M210.425 123.132C210.466 121.989 210.731 121.03 211.221 120.316C211.711 119.581 212.364 119.05 213.2 118.704C214.037 118.357 214.976 118.193 216.057 118.234C217.139 118.275 218.078 118.499 218.873 118.948C219.669 119.397 220.302 119.989 220.73 120.765C221.159 121.54 221.363 122.438 221.322 123.479C221.281 124.417 221.077 125.254 220.71 125.948C220.322 126.662 219.792 127.193 219.098 127.58C218.404 127.968 217.588 128.152 216.608 128.111C216.343 128.111 216.078 128.09 215.813 128.05C215.547 128.029 215.343 127.988 215.18 127.948L215.466 119.254L216.996 119.295L216.772 126.131L216.568 125.887C217.221 125.968 217.731 125.927 218.139 125.764C218.547 125.58 218.853 125.295 219.057 124.866C219.261 124.458 219.384 123.928 219.404 123.315C219.445 122.213 219.18 121.438 218.629 121.009C218.078 120.581 217.323 120.356 216.343 120.316H215.731C215.037 120.275 214.425 120.336 213.935 120.479C213.445 120.622 213.078 120.928 212.813 121.356C212.568 121.785 212.425 122.397 212.384 123.152C212.364 124.03 212.466 124.662 212.752 125.05C213.017 125.417 213.384 125.621 213.854 125.642H214.017L213.935 127.907H213.751C213.037 127.886 212.425 127.662 211.915 127.254C211.405 126.846 210.997 126.274 210.731 125.58C210.466 124.866 210.344 124.05 210.364 123.091L210.425 123.132Z" fill="#F5F0D8"/>
<path d="M213.75 136.457C213.832 135.988 214.015 135.58 214.28 135.212C214.546 134.845 214.893 134.6 215.321 134.437C215.75 134.274 216.219 134.233 216.729 134.335C217.26 134.437 217.688 134.621 218.035 134.927C218.382 135.233 218.627 135.58 218.749 136.008C218.872 136.437 218.913 136.886 218.831 137.355C218.749 137.804 218.586 138.212 218.301 138.579C218.015 138.947 217.688 139.192 217.26 139.355C216.831 139.518 216.362 139.559 215.831 139.457C215.321 139.375 214.893 139.171 214.546 138.886C214.199 138.579 213.954 138.233 213.832 137.804C213.689 137.375 213.668 136.947 213.75 136.478V136.457Z" fill="#F5F0D8"/>
<path d="M207.341 144.904L208.117 142.68L219.687 152.475L218.626 155.577L203.464 156.169L204.26 153.842L214.402 153.414H217.177L217.238 153.251L215.075 151.516L207.341 144.925V144.904ZM207.831 154.822L210.729 146.435L212.647 147.088L209.749 155.475L207.831 154.822Z" fill="#F5F0D8"/>
<path d="M198.588 165.373L199.608 163.373L205.016 166.149C205.853 166.577 206.546 166.72 207.057 166.598C207.567 166.475 208.077 165.965 208.505 165.108C208.771 164.577 208.934 164.088 208.975 163.659C209.016 163.231 208.893 162.823 208.648 162.476C208.403 162.129 207.975 161.802 207.383 161.496L207.567 161.149L209.852 162.108L209.628 162.557C209.893 162.863 210.097 163.231 210.24 163.659C210.383 164.088 210.444 164.557 210.403 165.088C210.362 165.618 210.199 166.169 209.893 166.761C209.465 167.598 208.975 168.169 208.403 168.536C207.832 168.904 207.199 169.046 206.526 169.026C205.853 169.006 205.159 168.802 204.445 168.434L198.588 165.435V165.373ZM201.996 158.7L203.036 156.68L212.383 161.455L211.424 163.312L208.628 161.884L208.444 162.006L201.996 158.7Z" fill="#F5F0D8"/>
<path d="M194.875 170.617C195.467 169.74 196.181 169.107 196.997 168.719C197.814 168.332 198.691 168.189 199.609 168.311C200.528 168.413 201.446 168.781 202.323 169.393C203.221 170.005 203.874 170.719 204.323 171.535C204.752 172.352 204.935 173.209 204.874 174.107C204.813 175.004 204.486 175.902 203.874 176.78C203.262 177.657 202.568 178.29 201.752 178.678C200.936 179.045 200.079 179.188 199.16 179.065C198.242 178.963 197.344 178.596 196.446 177.984C195.548 177.372 194.875 176.657 194.446 175.841C193.998 175.025 193.814 174.168 193.855 173.29C193.916 172.392 194.242 171.515 194.834 170.638L194.875 170.617ZM196.548 171.76C195.916 172.678 195.712 173.474 195.936 174.147C196.161 174.821 196.752 175.474 197.732 176.147C198.711 176.821 199.548 177.127 200.242 177.086C200.936 177.045 201.609 176.555 202.242 175.637C202.874 174.719 203.078 173.923 202.854 173.25C202.629 172.576 202.038 171.903 201.079 171.25C200.099 170.576 199.262 170.27 198.548 170.311C197.854 170.352 197.181 170.842 196.548 171.76Z" fill="#F5F0D8"/>
<path d="M184.895 183.29L186.385 181.596L190.935 185.616C191.65 186.249 192.262 186.555 192.813 186.555C193.364 186.555 193.955 186.187 194.588 185.473C194.996 185.024 195.261 184.596 195.404 184.167C195.547 183.739 195.527 183.351 195.364 182.943C195.2 182.535 194.874 182.127 194.384 181.678L194.649 181.372L196.629 182.861L196.302 183.249C196.486 183.616 196.588 184.024 196.629 184.473C196.67 184.922 196.608 185.392 196.445 185.902C196.282 186.412 195.976 186.902 195.547 187.391C194.935 188.085 194.302 188.534 193.649 188.738C192.996 188.942 192.364 188.942 191.711 188.738C191.058 188.534 190.446 188.167 189.833 187.636L184.895 183.269V183.29ZM189.854 177.678L191.364 175.964L199.22 182.902L197.833 184.473L195.486 182.392L195.282 182.474L189.854 177.678Z" fill="#F5F0D8"/>
<path d="M180.324 182.637C180.528 182.453 180.753 182.269 180.998 182.106C181.243 181.943 181.447 181.82 181.61 181.739L182.855 183.126L181.773 184.086C181.447 184.371 181.243 184.636 181.161 184.861C181.079 185.085 181.1 185.412 181.222 185.82L181.712 187.351L181.365 186.677L191.65 191.391L189.793 193.044L184.814 190.677L182.589 189.616L182.446 189.738L183.344 192.003L185.303 197.084L183.406 198.778L179.324 186.718C179.1 186.085 178.977 185.514 178.998 185.065C178.998 184.596 179.141 184.167 179.345 183.8C179.569 183.433 179.875 183.045 180.304 182.677L180.324 182.637Z" fill="#F5F0D8"/>
<path d="M162.001 200.472L163.919 199.248L167.205 204.37C167.715 205.166 168.225 205.635 168.735 205.798C169.245 205.961 169.898 205.778 170.715 205.268C171.429 204.798 171.878 204.288 172 203.737C172.143 203.186 171.939 202.492 171.429 201.696L171.735 201.431L173.245 203.431L172.959 203.615C173 204.002 173 204.411 172.918 204.859C172.837 205.308 172.674 205.757 172.367 206.186C172.082 206.614 171.653 207.023 171.061 207.39C170.306 207.88 169.592 208.124 168.919 208.124C168.245 208.124 167.633 207.961 167.062 207.594C166.49 207.227 165.98 206.696 165.552 206.023L162.001 200.472ZM168.123 196.554L170.021 195.33L173.306 200.452C173.816 201.248 174.326 201.717 174.857 201.86C175.388 202.003 176.041 201.839 176.836 201.329C177.551 200.86 178 200.35 178.122 199.819C178.265 199.268 178.081 198.595 177.551 197.778L177.836 197.493L179.346 199.493L178.918 199.758C179 200.166 179 200.574 178.918 201.023C178.836 201.452 178.653 201.901 178.367 202.329C178.081 202.758 177.653 203.166 177.102 203.513C176.347 203.982 175.653 204.227 175 204.227C174.347 204.227 173.735 204.043 173.184 203.676C172.633 203.288 172.123 202.778 171.694 202.105L168.143 196.554H168.123ZM174.245 192.636L176.163 191.412L181.816 200.248L180.061 201.37L178.367 198.717H178.142L174.245 192.636Z" fill="#F5F0D8"/>
<path d="M158.327 201.819L160.388 200.839L164.938 210.369L162.877 211.349L158.327 201.819ZM163.428 212.471L165.469 211.492L166.489 213.573L164.428 214.552L163.428 212.451V212.471Z" fill="#F5F0D8"/>
<path d="M148.203 205.9L157.447 202.37L158.08 204.023L155.182 210.716L154.407 212.43L154.447 212.614L155.713 212.124L160.182 210.41L160.896 212.267L152.244 215.573L151.55 213.777L154.549 207.043L155.264 205.492L155.223 205.329L154.06 205.777L148.897 207.757L148.183 205.88L148.203 205.9Z" fill="#F5F0D8"/>
<path d="M143.186 207.002C144.308 206.716 145.288 206.695 146.124 206.961C146.961 207.226 147.655 207.695 148.226 208.389C148.798 209.083 149.206 209.961 149.492 211.001C149.777 212.042 149.798 213.021 149.614 213.919C149.41 214.817 149.002 215.572 148.39 216.205C147.777 216.837 146.961 217.286 145.941 217.552C145.023 217.797 144.186 217.817 143.39 217.654C142.615 217.49 141.941 217.123 141.37 216.572C140.798 216.021 140.39 215.266 140.166 214.327C140.105 214.062 140.043 213.817 140.003 213.552C139.962 213.287 139.921 213.083 139.921 212.919L148.328 210.736L148.716 212.226L142.104 213.94L142.268 213.674C142.37 214.327 142.553 214.817 142.839 215.144C143.125 215.491 143.492 215.695 143.961 215.776C144.431 215.858 144.941 215.817 145.553 215.674C146.635 215.389 147.288 214.94 147.553 214.287C147.798 213.634 147.818 212.838 147.553 211.899L147.39 211.307C147.206 210.634 146.982 210.083 146.696 209.654C146.41 209.226 146.022 208.961 145.533 208.838C145.043 208.716 144.431 208.757 143.696 208.94C142.839 209.165 142.268 209.45 141.982 209.818C141.696 210.185 141.615 210.593 141.737 211.042L141.778 211.205L139.594 211.777L139.554 211.593C139.37 210.899 139.411 210.246 139.656 209.634C139.9 209.022 140.329 208.491 140.921 208.022C141.513 207.553 142.288 207.206 143.206 206.961L143.186 207.002Z" fill="#F5F0D8"/>
<path d="M131.391 213.96C131.86 213.899 132.309 213.96 132.717 214.124C133.125 214.287 133.472 214.552 133.758 214.899C134.023 215.266 134.207 215.715 134.268 216.225C134.329 216.756 134.268 217.225 134.084 217.654C133.901 218.082 133.615 218.409 133.248 218.654C132.88 218.899 132.452 219.042 131.982 219.103C131.513 219.164 131.085 219.103 130.676 218.939C130.268 218.776 129.921 218.511 129.636 218.164C129.37 217.797 129.187 217.348 129.125 216.817C129.064 216.307 129.125 215.838 129.309 215.409C129.493 214.981 129.779 214.654 130.146 214.409C130.513 214.164 130.921 214.022 131.391 213.96Z" fill="#F5F0D8"/>
<path d="M112.474 221.981L121.8 222.246L121.739 224.286L112.413 224.021L112.474 221.981ZM112.964 215.573L121.963 215.818L121.902 217.858L112.903 217.614L112.964 215.573ZM120.555 210.104L122.82 210.165L122.433 224.307L120.168 224.246L120.555 210.104Z" fill="#F5F0D8"/>
<path d="M106.964 208.818C108.025 208.981 108.902 209.348 109.596 209.919C110.29 210.491 110.8 211.205 111.106 212.083C111.412 212.96 111.474 213.94 111.31 215.001C111.147 216.062 110.8 216.98 110.249 217.715C109.698 218.449 109.005 219 108.168 219.327C107.331 219.653 106.372 219.755 105.311 219.592C104.25 219.429 103.372 219.062 102.699 218.49C102.026 217.919 101.515 217.205 101.23 216.327C100.944 215.45 100.862 214.49 101.026 213.409C101.189 212.348 101.536 211.43 102.087 210.674C102.638 209.919 103.311 209.389 104.148 209.042C104.984 208.695 105.923 208.613 106.964 208.777V208.818ZM106.658 210.817C105.556 210.654 104.76 210.817 104.25 211.287C103.74 211.756 103.393 212.593 103.229 213.776C103.066 214.96 103.127 215.837 103.474 216.45C103.821 217.062 104.535 217.449 105.637 217.613C106.739 217.776 107.535 217.613 108.066 217.143C108.576 216.654 108.923 215.837 109.107 214.674C109.29 213.511 109.188 212.613 108.862 212.001C108.515 211.389 107.801 211.001 106.699 210.817H106.658Z" fill="#F5F0D8"/>
<path d="M96.6176 213.92L97.1481 214.063L96.6176 216.042L96.1686 215.92C95.8421 216.328 95.3932 216.634 94.8218 216.858C94.2504 217.083 93.6178 217.103 92.8832 216.899C92.169 216.695 91.6384 216.389 91.2915 215.961C90.9446 215.532 90.7405 215.042 90.6997 214.471C90.6385 213.899 90.6997 213.287 90.8834 212.655L91.067 211.981L93.2709 212.573L93.1689 212.981C92.9852 213.655 92.9648 214.144 93.1281 214.491C93.2913 214.838 93.6791 215.103 94.3321 215.287C94.9851 215.471 95.4952 215.45 95.8421 215.246C96.189 215.042 96.4747 214.593 96.6584 213.92H96.6176ZM98.4133 207.329L100.617 207.92L97.8624 218.103L95.8421 217.552L96.6176 214.716L96.4543 214.573L98.4133 207.329Z" fill="#F5F0D8"/>
<path d="M82.5987 211.124L89.3124 213.654L88.639 215.429L81.9253 212.899L82.5987 211.124ZM87.3942 203.757C88.4758 204.165 89.2104 204.696 89.6185 205.369C90.0266 206.042 90.0062 206.92 89.5981 208.042L87.1289 214.613L85.6393 217.082L84.0272 216.47L87.4554 207.348C87.6391 206.838 87.6391 206.451 87.435 206.226C87.231 205.981 86.782 205.736 86.1086 205.491L84.925 205.043L85.578 203.288C85.7821 203.328 86.0678 203.39 86.3943 203.451C86.7208 203.532 87.0677 203.634 87.4146 203.757H87.3942Z" fill="#F5F0D8"/>
<path d="M77.7423 212.45L79.8034 213.389L78.8647 215.511L76.7832 214.573L77.7423 212.45ZM82.5786 201.676L84.6601 202.614L80.3135 212.226L78.2321 211.287L82.5786 201.676Z" fill="#F5F0D8"/>
<path d="M78.4547 199.615L80.4545 200.655L75.6386 209.879C75.2509 210.593 74.802 211.144 74.2918 211.491C73.7612 211.838 73.1695 212.001 72.4756 211.961C71.8022 211.92 71.0676 211.695 70.2717 211.287C70.1493 211.226 70.0269 211.165 69.9044 211.083C69.782 211.022 69.6595 210.961 69.5371 210.879L70.3738 209.287L71.4961 209.879C71.9451 210.124 72.3328 210.206 72.6389 210.124C72.945 210.063 73.2103 209.818 73.4143 209.43L73.8429 208.614L74.0469 208.104L78.4955 199.615H78.4547ZM72.1083 205.982L77.8425 208.981L76.965 210.655L71.2308 207.655L72.1083 205.961V205.982Z" fill="#F5F0D8"/>
<path d="M75.7626 194.003C76.0075 194.166 76.232 194.329 76.4565 194.513C76.6809 194.697 76.8442 194.86 76.9666 195.003L75.9463 196.554L74.7423 195.778C74.375 195.533 74.0689 195.411 73.824 195.391C73.5791 195.391 73.2731 195.472 72.9261 195.697L71.5793 196.574L72.1507 196.064L70.2733 207.226L68.1919 205.859L69.1918 200.431L69.6407 198.003L69.4775 197.901L67.5184 199.349L63.1311 202.553L61.0088 201.166L71.5793 194.084C72.1303 193.697 72.6405 193.452 73.1098 193.329C73.5587 193.227 74.0077 193.227 74.4158 193.329C74.8443 193.452 75.2729 193.656 75.7626 193.962V194.003Z" fill="#F5F0D8"/>
<path d="M58.3148 191.126C58.6821 191.432 58.927 191.799 59.0903 192.228C59.2535 192.636 59.2943 193.064 59.2127 193.513C59.1311 193.962 58.9066 194.391 58.5801 194.778C58.2332 195.187 57.8251 195.452 57.3965 195.595C56.968 195.738 56.5395 195.758 56.0905 195.656C55.662 195.554 55.2743 195.329 54.907 195.023C54.56 194.717 54.2948 194.35 54.1315 193.942C53.9683 193.534 53.9274 193.105 54.0091 192.656C54.0907 192.207 54.3152 191.779 54.6621 191.371C55.009 190.983 55.3967 190.718 55.8252 190.575C56.2538 190.432 56.6823 190.411 57.1313 190.513C57.5598 190.616 57.9475 190.82 58.2944 191.126H58.3148Z" fill="#F5F0D8"/>
<path d="M53.7839 180.371L55.3144 182.024L44.948 191.635L43.4175 189.982L53.7839 180.371Z" fill="#F5F0D8"/>
<path d="M46.377 171.229L47.7647 173.005L42.9691 176.719C42.2141 177.29 41.806 177.862 41.7039 178.392C41.6019 178.923 41.8468 179.576 42.4386 180.351C42.8059 180.82 43.1936 181.167 43.5609 181.392C43.9487 181.596 44.3364 181.678 44.7649 181.596C45.1934 181.514 45.6628 181.269 46.1934 180.861L46.4382 181.188L44.6017 182.841L44.2956 182.433C43.9078 182.535 43.4793 182.575 43.0304 182.535C42.5814 182.494 42.1325 182.331 41.6631 182.086C41.1938 181.841 40.7653 181.453 40.3571 180.923C39.7857 180.188 39.4592 179.494 39.398 178.821C39.3164 178.147 39.4388 177.515 39.7653 176.902C40.0918 176.29 40.5612 175.76 41.1938 175.27L46.3974 171.229H46.377ZM50.9685 177.147L52.3561 178.943L44.0711 185.371L42.7855 183.718L45.2751 181.8L45.2343 181.576L50.9481 177.147H50.9685Z" fill="#F5F0D8"/>
<path d="M40.4778 161.414L41.6205 163.352L36.3761 166.434C35.5598 166.903 35.07 167.413 34.9068 167.924C34.7435 168.434 34.9068 169.107 35.3966 169.944C35.7027 170.474 36.0292 170.862 36.3761 171.107C36.723 171.352 37.1107 171.474 37.5596 171.454C38.0086 171.433 38.4983 171.25 39.0697 170.903L39.2738 171.25L37.2331 172.658L36.9678 172.229C36.5597 172.29 36.1312 172.27 35.7027 172.168C35.2741 172.066 34.8252 171.862 34.3966 171.556C33.9681 171.25 33.5804 170.801 33.2539 170.229C32.7845 169.434 32.5601 168.699 32.5601 168.026C32.5601 167.352 32.7641 166.74 33.1518 166.169C33.5396 165.597 34.0905 165.128 34.764 164.72L40.4369 161.373L40.4778 161.414ZM44.2734 167.862L45.4365 169.821L36.3965 175.147L35.3353 173.352L38.0494 171.76V171.535L44.2734 167.862Z" fill="#F5F0D8"/>
<path d="M38.0097 155.374C38.4382 156.353 38.581 157.292 38.479 158.19C38.377 159.088 38.0097 159.904 37.4383 160.618C36.8465 161.332 36.0506 161.904 35.0711 162.332C34.0916 162.761 33.1121 162.944 32.1938 162.863C31.2755 162.781 30.4593 162.475 29.7246 161.945C28.99 161.414 28.4186 160.639 27.9901 159.659C27.5616 158.68 27.4187 157.741 27.5412 156.863C27.6636 155.986 28.0105 155.19 28.6023 154.476C29.1941 153.762 29.9695 153.19 30.9694 152.762C31.9694 152.333 32.9285 152.149 33.8467 152.211C34.765 152.272 35.6017 152.558 36.3159 153.088C37.0301 153.619 37.6015 154.374 38.0301 155.353L38.0097 155.374ZM36.1527 156.17C35.7241 155.149 35.1528 154.557 34.4793 154.374C33.8059 154.19 32.9081 154.353 31.8265 154.802C30.745 155.251 30.0307 155.802 29.6838 156.414C29.3369 157.027 29.3981 157.843 29.8267 158.863C30.2552 159.884 30.8266 160.496 31.5 160.659C32.1734 160.843 33.0713 160.7 34.1528 160.23C35.2344 159.761 35.9486 159.231 36.2955 158.598C36.6424 157.986 36.5812 157.149 36.1527 156.129V156.17Z" fill="#F5F0D8"/>
<path d="M33.8063 144.129L34.6226 146.905L25.7458 153.884L25.0316 151.476L32.133 146.191L32.0922 146.048L23.2358 145.435L22.542 143.068L33.7859 144.129H33.8063Z" fill="#F5F0D8"/>
<path d="M31.1137 131.009L31.4811 133.09L29.4404 133.437L28.8894 133.6L24.9102 134.294C24.1347 134.437 23.645 134.702 23.4205 135.11C23.2165 135.519 23.1756 136.151 23.3185 136.967C23.4613 137.784 23.7062 138.355 24.0531 138.661C24.4 138.967 24.9102 139.049 25.604 138.947L25.9101 138.886L26.2774 141.049L26.0734 141.09C25.3183 141.212 24.6041 141.151 23.9307 140.865C23.2573 140.579 22.7063 140.13 22.2369 139.498C21.788 138.865 21.4615 138.09 21.3187 137.192C21.1554 136.233 21.1962 135.396 21.4411 134.702C21.686 133.988 22.0941 133.417 22.6859 132.988C23.2573 132.56 23.9715 132.254 24.8286 132.111L31.1137 131.029V131.009ZM32.3381 136.886C32.5014 137.825 32.3993 138.661 32.032 139.355C31.6647 140.069 31.0321 140.498 30.1342 140.641C29.5629 140.743 29.0527 140.681 28.6242 140.498C28.1752 140.294 27.7875 139.967 27.461 139.477C27.1345 139.008 26.8488 138.416 26.6039 137.702L25.3999 133.968L26.9916 133.682L28.0732 137.09C28.2772 137.661 28.4813 138.069 28.6854 138.273C28.8894 138.478 29.1955 138.559 29.5833 138.478C29.9914 138.416 30.2567 138.212 30.3995 137.906C30.5424 137.6 30.5424 137.11 30.4403 136.457C30.3587 135.968 30.1955 135.478 29.9506 135.049C29.7057 134.6 29.3792 134.274 28.9303 134.029C28.4813 133.804 27.9303 133.743 27.2365 133.866L29.8281 133.111L29.8689 133.417C30.2159 133.56 30.5628 133.784 30.9097 134.07C31.2566 134.376 31.5423 134.743 31.8076 135.192C32.0728 135.641 32.2565 136.192 32.3585 136.825L32.3381 136.886Z" fill="#F5F0D8"/>
<path d="M30.6842 124.988C30.7658 126.131 30.5821 127.029 30.1536 127.682C29.7047 128.335 28.9088 128.702 27.7252 128.784L20.7054 129.294L17.8485 128.968L17.7261 127.233L27.4599 126.539C28.0109 126.498 28.3374 126.335 28.4803 126.049C28.6027 125.764 28.6435 125.254 28.6027 124.539L28.5211 123.274L30.3985 123.131C30.4597 123.335 30.5209 123.601 30.5821 123.948C30.6433 124.274 30.7046 124.621 30.725 124.988H30.6842ZM21.991 123.723L22.5012 130.886L20.6034 131.029L20.0932 123.866L21.991 123.723Z" fill="#F5F0D8"/>
<path d="M30.8056 117.663C30.7852 118.805 30.5199 119.764 30.0301 120.499C29.5404 121.234 28.8874 121.785 28.0711 122.132C27.2549 122.478 26.2958 122.642 25.2142 122.621C24.1327 122.601 23.194 122.356 22.3777 121.927C21.5615 121.499 20.9493 120.887 20.5207 120.111C20.0922 119.336 19.8677 118.438 19.9085 117.397C19.929 116.459 20.133 115.622 20.5003 114.928C20.8676 114.214 21.3982 113.663 22.092 113.275C22.7859 112.887 23.6021 112.704 24.5816 112.724C24.8469 112.724 25.1122 112.745 25.3775 112.765C25.6428 112.785 25.8468 112.826 26.0101 112.847L25.806 121.54L24.2755 121.499L24.4388 114.663L24.6428 114.908C23.9898 114.826 23.4797 114.867 23.0715 115.051C22.6634 115.234 22.3573 115.52 22.1533 115.948C21.9492 116.357 21.8268 116.887 21.8268 117.499C21.8063 118.601 22.0716 119.377 22.6226 119.805C23.1736 120.234 23.9286 120.458 24.9081 120.479H25.5203C26.2141 120.519 26.8263 120.438 27.3161 120.275C27.8058 120.111 28.1732 119.826 28.418 119.377C28.6629 118.928 28.8058 118.336 28.8262 117.581C28.8466 116.703 28.7241 116.071 28.4588 115.704C28.1936 115.336 27.8262 115.132 27.3569 115.132H27.1936L27.2549 112.867H27.4385C28.1527 112.887 28.7649 113.091 29.2955 113.5C29.8057 113.908 30.2138 114.459 30.4995 115.173C30.7852 115.867 30.9076 116.703 30.8872 117.663H30.8056Z" fill="#F5F0D8"/>
<path d="M27.3378 104.419C27.2562 104.888 27.0929 105.297 26.8277 105.664C26.5624 106.011 26.2155 106.276 25.7869 106.439C25.3584 106.603 24.8891 106.643 24.3789 106.562C23.8483 106.48 23.4198 106.276 23.0525 105.99C22.7056 105.705 22.4607 105.337 22.3178 104.909C22.175 104.48 22.1546 104.031 22.2362 103.562C22.3178 103.113 22.4811 102.705 22.7464 102.338C23.0117 101.991 23.3586 101.725 23.7871 101.562C24.2156 101.399 24.685 101.358 25.2156 101.44C25.7257 101.521 26.1543 101.705 26.5216 102.011C26.8685 102.297 27.1134 102.664 27.2562 103.093C27.399 103.521 27.4195 103.95 27.3378 104.419Z" fill="#F5F0D8"/>
<path d="M33.6839 95.8888L32.9288 98.1335L21.2563 88.4404L22.2971 85.3386L37.4591 84.604L36.6836 86.9507L26.5416 87.4609H23.7663L23.7051 87.6446L25.8886 89.3587L33.6839 95.8888ZM33.1125 85.9712L30.2964 94.3787L28.3782 93.7257L31.1943 85.3182L33.1125 85.9712Z" fill="#F5F0D8"/>
<path d="M38.8863 82.0327L37.866 84.0733L28.479 79.3798L29.4177 77.5024L32.2338 78.9105L32.4174 78.788L38.8863 82.0327ZM42.2329 75.3393L41.2126 77.3596L35.7845 74.6455C34.9478 74.217 34.254 74.0742 33.7235 74.217C33.1929 74.3598 32.7235 74.8496 32.2746 75.7271C32.0093 76.278 31.8461 76.7474 31.8257 77.1963C31.8053 77.6249 31.9073 78.0126 32.1726 78.3799C32.4379 78.7268 32.846 79.0533 33.4378 79.339L33.2541 79.7063L30.9686 78.7676L31.1931 78.3187C30.9278 78.0126 30.7033 77.6453 30.5605 77.2167C30.4176 76.7882 30.3564 76.3189 30.3768 75.7883C30.3972 75.2577 30.5605 74.7068 30.8666 74.115C31.2747 73.2783 31.7848 72.6865 32.3562 72.3396C32.9276 71.9927 33.5602 71.809 34.2336 71.8499C34.907 71.8907 35.6213 72.0743 36.3355 72.4212L42.2125 75.3598L42.2329 75.3393Z" fill="#F5F0D8"/>
<path d="M45.908 70.0546C45.3163 70.9525 44.602 71.5851 43.7858 71.9728C42.9695 72.3605 42.1125 72.5238 41.1738 72.4217C40.2555 72.3197 39.3372 71.9728 38.4393 71.3606C37.5414 70.7484 36.868 70.0546 36.4395 69.2383C36.0109 68.4221 35.8069 67.565 35.8681 66.6671C35.9293 65.7692 36.2558 64.8713 36.8476 63.9735C37.4394 63.0756 38.1332 62.443 38.9495 62.0757C39.7657 61.6879 40.6228 61.5451 41.5207 61.6471C42.4185 61.7492 43.3368 62.0961 44.2347 62.7083C45.1326 63.3204 45.806 64.0143 46.255 64.8305C46.7039 65.6468 46.908 66.4834 46.8671 67.3813C46.8263 68.2792 46.4998 69.1567 45.908 70.0546ZM44.2347 68.9322C44.8469 68.0139 45.051 67.2181 44.8265 66.5447C44.602 65.8713 44.0102 65.2182 43.0103 64.5652C42.0308 63.9122 41.1942 63.6061 40.4799 63.647C39.7657 63.6878 39.1127 64.1775 38.5005 65.0958C37.8883 66.0141 37.6843 66.8099 37.9087 67.4834C38.1332 68.1568 38.725 68.8098 39.7045 69.4832C40.684 70.1362 41.5411 70.4423 42.2349 70.3811C42.9287 70.3199 43.6021 69.8301 44.2143 68.9118L44.2347 68.9322Z" fill="#F5F0D8"/>
<path d="M50.8869 62.9532L49.3972 64.6673L41.4795 57.7904L42.8467 56.2191L45.2139 58.2801L45.4179 58.1985L50.8869 62.9328V62.9532ZM55.8048 57.3006L54.3151 59.0147L49.7237 55.0355C49.0095 54.4233 48.3769 54.1172 47.8463 54.1172C47.2953 54.1172 46.7035 54.4845 46.0709 55.2191C45.6832 55.6681 45.4179 56.117 45.2751 56.5252C45.1322 56.9333 45.1526 57.3414 45.3159 57.7495C45.4792 58.1577 45.8057 58.5658 46.3158 58.9943L46.0505 59.3004L44.0711 57.8312L44.3976 57.4434C44.214 57.0761 44.0915 56.668 44.0507 56.2191C44.0099 55.7701 44.0507 55.3008 44.2344 54.7906C44.3976 54.2804 44.6833 53.7907 45.1322 53.2805C45.7444 52.5867 46.3566 52.1174 47.0096 51.9133C47.6626 51.7092 48.2952 51.7092 48.9482 51.9133C49.6013 52.097 50.2339 52.4643 50.8256 52.9948L55.8048 57.3006Z" fill="#F5F0D8"/>
<path d="M60.3353 57.9329C60.1313 58.1166 59.9068 58.3002 59.6619 58.4839C59.417 58.6675 59.213 58.7696 59.0497 58.8512L57.8049 57.484L58.8661 56.5249C59.1926 56.2392 59.3966 55.9739 59.4578 55.729C59.5395 55.5045 59.5191 55.178 59.3966 54.7699L58.8865 53.2394L59.2334 53.9128L48.9077 49.301L50.7443 47.6277L55.7439 49.954L57.9886 50.9947L58.1314 50.8723L57.2131 48.6276L55.2133 43.5668L57.0907 41.873L61.2944 53.8924C61.5393 54.525 61.6413 55.076 61.6413 55.5454C61.6413 56.0147 61.5189 56.4432 61.2944 56.8106C61.0699 57.1983 60.7639 57.5656 60.3353 57.9533V57.9329Z" fill="#F5F0D8"/>
<path d="M66.3355 47.8726L64.4173 49.1173L58.6831 40.3426L60.4381 39.1998L62.1522 41.8322H62.3767L66.3355 47.8726ZM72.437 43.8933L70.5392 45.1177L67.213 40.0365C66.7028 39.2406 66.1723 38.7713 65.6621 38.6284C65.1519 38.4856 64.4785 38.6693 63.7031 39.1794C62.9889 39.6488 62.5603 40.1589 62.4175 40.7099C62.2746 41.2609 62.4787 41.9343 62.9889 42.7301L62.7032 43.0158L61.1727 41.0364L61.6012 40.7507C61.5196 40.3426 61.5196 39.9345 61.6012 39.4855C61.6828 39.0366 61.8665 38.608 62.1522 38.1795C62.4379 37.751 62.846 37.3428 63.4174 36.9755C64.152 36.4858 64.8663 36.2409 65.5193 36.2409C66.1723 36.2409 66.7845 36.4041 67.3558 36.7919C67.9272 37.1592 68.417 37.6897 68.8659 38.3632L72.4574 43.8729L72.437 43.8933ZM78.5386 39.914L76.6204 41.1588L73.2941 36.0776C72.7839 35.2818 72.2738 34.8124 71.7636 34.6696C71.2535 34.5267 70.6005 34.7104 69.7842 35.2206C69.07 35.6899 68.6414 36.2001 68.519 36.751C68.3966 37.302 68.5802 37.9958 69.1108 38.7917L68.8047 39.057L67.2742 37.0776L67.5599 36.8939C67.5191 36.5062 67.5191 36.098 67.5803 35.6491C67.6415 35.2002 67.8252 34.7512 68.1109 34.3227C68.3966 33.8941 68.8251 33.486 69.3965 33.0983C70.1515 32.6085 70.8657 32.3433 71.5392 32.3433C72.2126 32.3433 72.8248 32.5065 73.3961 32.8738C73.9675 33.2411 74.4777 33.7513 74.9062 34.4247L78.4977 39.9345L78.5386 39.914Z" fill="#F5F0D8"/>
<path d="M76.9677 27.915L74.9475 28.9149L73.9067 26.8334L75.9474 25.8335L76.9677 27.915ZM82.1713 38.5263L80.1307 39.5262L75.4984 30.0372L77.5391 29.0373L82.1713 38.5263Z" fill="#F5F0D8"/>
<path d="M92.2486 34.3429L83.0453 37.9752L82.3923 36.3223L85.2288 29.6086L85.9839 27.8944L85.9431 27.7108L84.6779 28.2005L80.2293 29.9555L79.4946 28.1189L88.1265 24.7314L88.8204 26.5272L85.8818 33.2817L85.1676 34.8326L85.2084 34.9959L86.3716 34.5469L91.514 32.5267L92.2486 34.3837V34.3429Z" fill="#F5F0D8"/>
<path d="M97.251 33.2212C96.1286 33.5273 95.1695 33.5477 94.3125 33.2824C93.4758 33.0375 92.7616 32.5478 92.1902 31.8744C91.6188 31.1806 91.1903 30.3235 90.9046 29.2623C90.6189 28.2012 90.5781 27.2421 90.7617 26.3442C90.9454 25.4463 91.3535 24.6709 91.9657 24.0383C92.5779 23.4057 93.3942 22.9364 94.3941 22.6711C95.3124 22.4262 96.149 22.3854 96.9449 22.5486C97.7407 22.7119 98.4141 23.0588 98.9855 23.6098C99.5569 24.1607 99.965 24.8954 100.21 25.8341C100.271 26.0994 100.332 26.3442 100.394 26.6095C100.434 26.8748 100.475 27.0789 100.496 27.2421L92.1086 29.5072L91.7004 28.0176L98.2917 26.2422L98.1285 26.5075C98.0264 25.8749 97.8428 25.3647 97.5367 25.0382C97.2306 24.7117 96.8837 24.4872 96.4143 24.4056C95.945 24.324 95.4348 24.3648 94.8226 24.5281C93.7411 24.8137 93.0881 25.2831 92.8432 25.9361C92.5983 26.5891 92.5983 27.385 92.8432 28.3237L93.0064 28.9154C93.1901 29.5889 93.435 30.1398 93.7207 30.5684C94.0064 30.9969 94.3941 31.2622 94.8838 31.3846C95.3736 31.5071 95.9858 31.4662 96.7204 31.2622C97.5775 31.0377 98.1489 30.7316 98.4141 30.3643C98.6998 29.997 98.7815 29.5889 98.659 29.1399L98.6182 28.9767L100.802 28.3849L100.843 28.5685C101.026 29.2623 101.006 29.9154 100.761 30.5275C100.516 31.1397 100.108 31.6703 99.4957 32.1397C98.9039 32.609 98.1489 32.9559 97.2102 33.2212H97.251Z" fill="#F5F0D8"/>
<path d="M108.964 26.1397C108.495 26.2009 108.046 26.1397 107.638 25.9968C107.23 25.8336 106.883 25.5887 106.597 25.2214C106.311 24.8541 106.148 24.4256 106.087 23.895C106.026 23.3644 106.087 22.8951 106.271 22.4665C106.454 22.038 106.72 21.7115 107.087 21.4666C107.454 21.2217 107.883 21.0585 108.352 20.9973C108.821 20.9361 109.25 20.9973 109.658 21.1401C110.066 21.3034 110.413 21.5482 110.699 21.9156C110.984 22.2829 111.148 22.7318 111.209 23.2624C111.27 23.7725 111.209 24.2419 111.025 24.6704C110.842 25.099 110.576 25.4255 110.209 25.6703C109.842 25.9152 109.434 26.0785 108.964 26.1397Z" fill="#F5F0D8"/>
<path d="M120.187 143.62C118.432 140.151 114.229 142.478 113.31 140.539C109.841 138.886 105.433 130.581 100.536 128.275L85.8228 121.357L160.776 92.645L132.268 167.496L120.167 143.62H120.187Z" fill="#F5F0D8"/>
<path d="M107.943 154.639L132.288 167.495L115.677 124.479L107.943 154.639Z" fill="#F5F0D8"/>
<path d="M95.8426 130.765C94.0876 127.296 92.802 124.745 91.8837 122.806C88.4146 121.153 81.1091 117.725 76.2116 115.419L61.4985 108.501L136.451 79.7896L107.944 154.64L95.8426 130.765Z" fill="#F5F0D8"/>
<path d="M124.535 91.7471L107.047 137.662C107.047 137.662 96.8643 117.561 96.9051 117.561C96.946 117.561 79.0903 109.154 79.0903 109.154L124.515 91.7471H124.535Z" fill="#0275F6"/>
<path d="M61.4985 108.48L85.823 121.357L92.6388 120.357L61.4985 108.48Z" fill="#F5F0D8"/>
<path d="M136.451 79.7686L160.795 93.2776L120.799 115.806L135.92 79.9726" fill="#F5F0D8"/>
</g>
<defs>
<clipPath id="clip0_1242_30328">
<rect width="240" height="240" fill="white" transform="translate(0.626953)"/>
</clipPath>
</defs>
</svg>
