<svg width="240" height="240" viewBox="0 0 240 240" fill="none" xmlns="http://www.w3.org/2000/svg">
<g clip-path="url(#clip0_1242_30532)">
<path d="M120.009 240.02C186.289 240.02 240.019 186.29 240.019 120.01C240.019 53.7299 186.289 -0.000488281 120.009 -0.000488281C53.7289 -0.000488281 -0.00146484 53.7299 -0.00146484 120.01C-0.00146484 186.29 53.7289 240.02 120.009 240.02Z" fill="#1FD26C"/>
<path d="M120.886 29.8948L118.621 29.8131L119.131 15.6919L121.396 15.7735L120.886 29.8948ZM128.518 24.4871L119.519 24.1606L119.601 22.1199L128.6 22.4464L128.518 24.4871ZM129.069 18.0794L119.743 17.7325L119.825 15.6919L129.151 16.0388L129.069 18.0794Z" fill="#04030B"/>
<path d="M134.495 31.3026C133.434 31.1393 132.557 30.7516 131.863 30.1802C131.169 29.6088 130.679 28.8742 130.373 27.9967C130.088 27.1192 130.026 26.1397 130.19 25.0786C130.353 24.0175 130.72 23.0992 131.271 22.3645C131.822 21.6299 132.516 21.0993 133.373 20.7728C134.21 20.4463 135.169 20.3647 136.23 20.5484C137.291 20.7116 138.148 21.0993 138.842 21.6707C139.515 22.2421 140.005 22.9767 140.291 23.8338C140.577 24.7113 140.638 25.6704 140.454 26.7519C140.291 27.8131 139.924 28.7313 139.373 29.466C138.822 30.2006 138.128 30.7516 137.311 31.0781C136.475 31.4046 135.536 31.4862 134.475 31.323L134.495 31.3026ZM134.822 29.3027C135.924 29.4864 136.72 29.3231 137.23 28.8538C137.74 28.364 138.087 27.5478 138.271 26.3846C138.454 25.2214 138.393 24.3236 138.046 23.7114C137.72 23.0992 136.985 22.691 135.903 22.5278C134.801 22.3441 134.006 22.5074 133.475 22.9767C132.965 23.4461 132.598 24.2827 132.414 25.4459C132.23 26.6091 132.312 27.507 132.638 28.1192C132.985 28.7313 133.7 29.1395 134.801 29.3027H134.822Z" fill="#04030B"/>
<path d="M143.026 32.8947L140.822 32.2825L143.679 22.1201L145.699 22.6915L144.904 25.5076L145.067 25.6708L143.026 32.8947ZM144.883 26.3034L144.353 26.1606L144.904 24.1812L145.352 24.3036C145.679 23.8955 146.128 23.5894 146.699 23.3649C147.271 23.1404 147.924 23.1404 148.638 23.3445C149.352 23.5486 149.883 23.8547 150.23 24.3036C150.577 24.7525 150.76 25.2423 150.821 25.8137C150.883 26.3851 150.821 26.9768 150.638 27.6299L150.454 28.3033L148.25 27.6911L148.373 27.2829C148.556 26.6095 148.577 26.1198 148.434 25.7729C148.291 25.426 147.883 25.1607 147.23 24.977C146.577 24.7934 146.067 24.8138 145.72 25.0178C145.352 25.2219 145.087 25.6708 144.904 26.3442L144.883 26.3034Z" fill="#04030B"/>
<path d="M154.006 36.5472C152.925 36.1391 152.19 35.5881 151.802 34.9147C151.415 34.2413 151.415 33.3434 151.843 32.2414L154.374 25.691L155.884 23.2422L157.496 23.8748L153.966 32.9761C153.761 33.4862 153.782 33.8739 153.966 34.0984C154.149 34.3229 154.619 34.5882 155.292 34.8534L156.476 35.3024L155.802 37.0573C155.598 37.0165 155.312 36.9553 154.986 36.8737C154.659 36.7921 154.312 36.69 153.986 36.5472H154.006ZM158.863 29.2213L152.17 26.6297L152.864 24.8543L159.557 27.4459L158.863 29.2213Z" fill="#04030B"/>
<path d="M158.8 38.6898L156.739 37.7307L161.167 28.16L163.229 29.1192L158.8 38.6898ZM163.739 27.956L161.698 27.0173L162.657 24.895L164.718 25.8541L163.739 27.956Z" fill="#04030B"/>
<path d="M162.883 40.7714L160.883 39.7103L165.78 30.5274C166.168 29.8132 166.617 29.2826 167.148 28.9357C167.678 28.5888 168.27 28.4459 168.964 28.4868C169.637 28.5276 170.372 28.752 171.147 29.1806C171.27 29.2418 171.392 29.303 171.515 29.3846C171.637 29.4459 171.759 29.5071 171.882 29.5887L171.045 31.1804L169.923 30.5886C169.474 30.3437 169.107 30.2621 168.801 30.3233C168.494 30.3846 168.229 30.6294 168.025 31.0172L167.597 31.8334L167.392 32.3436L162.883 40.7918V40.7714ZM169.29 34.4658L163.576 31.4049L164.474 29.7315L170.188 32.7925L169.29 34.4658Z" fill="#04030B"/>
<path d="M165.536 46.4037C165.291 46.2405 165.067 46.0772 164.842 45.8732C164.618 45.6895 164.454 45.5059 164.332 45.363L165.352 43.8121L166.536 44.608C166.903 44.8529 167.209 44.9753 167.434 44.9957C167.679 44.9957 167.985 44.9141 168.352 44.71L169.719 43.8529L169.148 44.3631L171.127 33.2212L173.209 34.6088L172.168 40.0165L171.699 42.4449L171.862 42.5469L173.821 41.1185L178.249 37.9555L180.351 39.3635L169.699 46.3425C169.128 46.7302 168.638 46.9751 168.168 47.0772C167.72 47.1792 167.271 47.1792 166.862 47.0567C166.434 46.9343 166.005 46.7302 165.536 46.4037Z" fill="#04030B"/>
<path d="M182.961 49.4438C182.614 49.1173 182.349 48.75 182.186 48.3419C182.023 47.9338 182.002 47.5052 182.084 47.0563C182.165 46.6073 182.39 46.1992 182.737 45.8115C183.084 45.4034 183.492 45.1381 183.92 44.9952C184.349 44.8524 184.777 44.832 185.226 44.9544C185.655 45.0565 186.043 45.2809 186.41 45.587C186.757 45.8931 187.002 46.2604 187.165 46.6686C187.328 47.0767 187.349 47.5052 187.267 47.9542C187.185 48.4031 186.961 48.8316 186.594 49.2194C186.247 49.6071 185.859 49.8724 185.41 50.0152C184.981 50.1581 184.533 50.1785 184.104 50.056C183.675 49.954 183.288 49.7295 182.941 49.4234L182.961 49.4438Z" fill="#04030B"/>
<path d="M187.391 60.2394L185.86 58.566L196.308 49.0566L197.839 50.73L187.391 60.2394Z" fill="#04030B"/>
<path d="M190.164 63.4629L188.776 61.6467L197.123 55.3003L198.388 56.9532L195.878 58.851V59.0755L190.144 63.4629H190.164ZM194.694 69.4215L193.327 67.6258L198.163 63.9526C198.918 63.3812 199.347 62.8303 199.449 62.2997C199.551 61.7691 199.326 61.1161 198.735 60.3407C198.367 59.8509 198 59.504 197.612 59.3C197.245 59.0755 196.837 59.0143 196.408 59.0959C195.98 59.1775 195.51 59.4224 194.98 59.8101L194.735 59.4836L196.592 57.8307L196.898 58.2388C197.286 58.1368 197.714 58.096 198.163 58.1572C198.612 58.198 199.061 58.3613 199.531 58.6265C200 58.8918 200.428 59.2795 200.816 59.8101C201.388 60.5447 201.694 61.259 201.755 61.9324C201.816 62.6058 201.694 63.2384 201.367 63.8302C201.041 64.422 200.571 64.9729 199.918 65.4627L194.674 69.4419L194.694 69.4215Z" fill="#04030B"/>
<path d="M196.778 72.8298L195.635 70.8504L204.716 65.606L205.756 67.4221L203.042 68.9934V69.2179L196.778 72.8298ZM200.512 79.3191L199.39 77.3601L204.654 74.3195C205.471 73.8501 205.96 73.3604 206.144 72.8502C206.307 72.3401 206.144 71.6667 205.675 70.8096C205.369 70.279 205.042 69.8913 204.695 69.626C204.348 69.3607 203.961 69.2383 203.532 69.2587C203.104 69.2791 202.593 69.4628 202.022 69.7893L201.818 69.4424L203.859 68.0343L204.103 68.4833C204.512 68.422 204.94 68.4424 205.369 68.5649C205.797 68.6669 206.226 68.8914 206.654 69.1975C207.083 69.5036 207.45 69.9525 207.797 70.5239C208.266 71.3198 208.491 72.0748 208.47 72.7482C208.47 73.4216 208.246 74.0338 207.858 74.5848C207.47 75.1358 206.92 75.6051 206.226 76.0132L200.532 79.2987L200.512 79.3191Z" fill="#04030B"/>
<path d="M202.919 85.3189C202.511 84.3394 202.368 83.4007 202.47 82.5028C202.572 81.6049 202.94 80.809 203.531 80.0948C204.123 79.3806 204.919 78.8092 205.919 78.4011C206.919 77.9725 207.878 77.8093 208.796 77.8909C209.714 77.9725 210.531 78.2786 211.265 78.8296C211.98 79.3806 212.551 80.1356 212.979 81.1151C213.388 82.0946 213.53 83.0333 213.408 83.9108C213.286 84.7883 212.918 85.5841 212.347 86.2984C211.755 87.0126 210.959 87.5636 209.959 87.9921C208.959 88.4206 208 88.5839 207.082 88.5227C206.164 88.4615 205.347 88.1554 204.613 87.6248C203.899 87.0942 203.327 86.3392 202.919 85.3597V85.3189ZM204.797 84.5434C205.225 85.5637 205.776 86.1759 206.449 86.3596C207.123 86.5432 208.021 86.4004 209.102 85.9515C210.184 85.5025 210.918 84.9516 211.265 84.3394C211.612 83.7272 211.571 82.9109 211.143 81.8906C210.714 80.8703 210.163 80.2581 209.47 80.0744C208.776 79.8908 207.898 80.0132 206.817 80.4825C205.735 80.9519 205.001 81.4825 204.674 82.0946C204.327 82.7068 204.368 83.5231 204.797 84.5638V84.5434Z" fill="#04030B"/>
<path d="M207.02 96.6643L206.225 93.8891L215.163 86.9917L215.856 89.3997L208.694 94.6237L208.735 94.7665L217.571 95.4604L218.244 97.8275L207 96.6643H207.02Z" fill="#04030B"/>
<path d="M208.429 103.909C208.266 102.971 208.389 102.134 208.756 101.44C209.123 100.746 209.756 100.318 210.674 100.175C211.245 100.073 211.756 100.134 212.184 100.338C212.613 100.542 213 100.869 213.327 101.359C213.653 101.848 213.939 102.44 214.164 103.134L215.327 106.868L213.715 107.134L212.674 103.705C212.49 103.134 212.286 102.726 212.082 102.522C211.878 102.318 211.572 102.236 211.184 102.297C210.776 102.359 210.511 102.563 210.368 102.869C210.225 103.175 210.205 103.665 210.307 104.318C210.388 104.828 210.552 105.297 210.776 105.746C211.021 106.195 211.347 106.542 211.796 106.766C212.225 107.011 212.796 107.072 213.49 106.95L210.899 107.664V107.358C210.511 107.215 210.164 106.991 209.837 106.685C209.511 106.379 209.205 106.011 208.96 105.542C208.715 105.093 208.531 104.542 208.429 103.889V103.909ZM209.613 109.786L209.266 107.705L211.307 107.379L211.858 107.215L215.837 106.562C216.612 106.44 217.102 106.175 217.327 105.746C217.551 105.338 217.592 104.726 217.449 103.889C217.306 103.052 217.082 102.501 216.735 102.195C216.388 101.889 215.878 101.787 215.184 101.91L214.878 101.95L214.531 99.7873L214.735 99.7465C215.49 99.6241 216.204 99.7057 216.878 99.9914C217.551 100.277 218.102 100.726 218.551 101.359C219 101.991 219.306 102.767 219.449 103.685C219.612 104.644 219.551 105.481 219.306 106.175C219.041 106.889 218.633 107.44 218.061 107.868C217.49 108.297 216.755 108.582 215.898 108.725L209.613 109.746V109.786Z" fill="#04030B"/>
<path d="M209.982 115.867C209.9 114.724 210.104 113.826 210.533 113.173C210.981 112.541 211.798 112.173 212.981 112.092L220.001 111.643L222.858 111.99L222.96 113.724L213.226 114.336C212.675 114.377 212.349 114.541 212.206 114.826C212.083 115.112 212.043 115.622 212.083 116.336L212.165 117.602L210.288 117.724C210.226 117.52 210.165 117.255 210.104 116.908C210.043 116.581 210.002 116.234 209.982 115.867ZM218.675 117.214L218.226 110.051L220.124 109.929L220.572 117.091L218.675 117.214Z" fill="#04030B"/>
<path d="M209.798 123.132C209.839 121.989 210.104 121.03 210.594 120.316C211.083 119.581 211.736 119.05 212.573 118.704C213.41 118.357 214.348 118.193 215.43 118.234C216.511 118.275 217.45 118.499 218.246 118.948C219.042 119.397 219.674 119.989 220.103 120.765C220.532 121.54 220.736 122.438 220.695 123.479C220.654 124.417 220.45 125.254 220.083 125.948C219.695 126.662 219.164 127.193 218.471 127.58C217.777 127.968 216.96 128.152 215.981 128.111C215.716 128.111 215.45 128.09 215.185 128.05C214.92 128.029 214.716 127.988 214.552 127.948L214.838 119.254L216.369 119.295L216.144 126.131L215.94 125.887C216.593 125.968 217.103 125.927 217.511 125.764C217.92 125.58 218.226 125.295 218.43 124.866C218.634 124.458 218.756 123.928 218.777 123.315C218.817 122.213 218.552 121.438 218.001 121.009C217.45 120.581 216.695 120.356 215.716 120.316H215.103C214.41 120.275 213.797 120.336 213.308 120.479C212.818 120.622 212.451 120.928 212.185 121.356C211.94 121.785 211.798 122.397 211.757 123.152C211.736 124.03 211.838 124.662 212.124 125.05C212.389 125.417 212.757 125.621 213.226 125.642H213.389L213.308 127.907H213.124C212.41 127.886 211.798 127.662 211.287 127.254C210.777 126.846 210.369 126.274 210.104 125.58C209.839 124.866 209.716 124.05 209.737 123.091L209.798 123.132Z" fill="#04030B"/>
<path d="M213.121 136.457C213.203 135.988 213.386 135.58 213.652 135.212C213.917 134.845 214.264 134.6 214.692 134.437C215.121 134.274 215.59 134.233 216.1 134.335C216.631 134.437 217.059 134.621 217.406 134.927C217.753 135.233 217.998 135.58 218.121 136.008C218.243 136.437 218.284 136.886 218.202 137.355C218.121 137.804 217.957 138.212 217.672 138.579C217.386 138.947 217.059 139.192 216.631 139.355C216.202 139.518 215.733 139.559 215.202 139.457C214.692 139.375 214.264 139.171 213.917 138.886C213.57 138.579 213.325 138.233 213.203 137.804C213.06 137.375 213.039 136.947 213.121 136.478V136.457Z" fill="#04030B"/>
<path d="M206.713 144.904L207.489 142.68L219.059 152.475L217.998 155.577L202.836 156.169L203.632 153.842L213.774 153.414H216.549L216.61 153.251L214.447 151.516L206.713 144.925V144.904ZM207.203 154.822L210.101 146.435L212.019 147.088L209.121 155.475L207.203 154.822Z" fill="#04030B"/>
<path d="M197.96 165.373L198.98 163.373L204.388 166.148C205.225 166.577 205.918 166.72 206.429 166.597C206.939 166.475 207.449 165.965 207.877 165.108C208.143 164.577 208.306 164.087 208.347 163.659C208.388 163.23 208.265 162.822 208.02 162.475C207.775 162.128 207.347 161.802 206.755 161.496L206.939 161.149L209.224 162.108L209 162.557C209.265 162.863 209.469 163.23 209.612 163.659C209.755 164.087 209.816 164.557 209.775 165.087C209.734 165.618 209.571 166.169 209.265 166.76C208.837 167.597 208.347 168.169 207.775 168.536C207.204 168.903 206.571 169.046 205.898 169.026C205.225 169.005 204.531 168.801 203.817 168.434L197.96 165.434V165.373ZM201.368 158.7L202.409 156.68L211.755 161.455L210.796 163.312L208 161.883L207.816 162.006L201.368 158.7Z" fill="#04030B"/>
<path d="M194.247 170.617C194.838 169.74 195.553 169.107 196.369 168.719C197.185 168.332 198.063 168.189 198.981 168.311C199.899 168.413 200.817 168.781 201.695 169.393C202.593 170.005 203.246 170.719 203.695 171.535C204.123 172.352 204.307 173.209 204.246 174.107C204.184 175.004 203.858 175.902 203.246 176.78C202.634 177.657 201.94 178.29 201.124 178.678C200.307 179.045 199.45 179.188 198.532 179.065C197.614 178.963 196.716 178.596 195.818 177.984C194.92 177.372 194.247 176.657 193.818 175.841C193.369 175.025 193.185 174.168 193.226 173.29C193.287 172.392 193.614 171.515 194.206 170.638L194.247 170.617ZM195.92 171.76C195.287 172.678 195.083 173.474 195.308 174.147C195.532 174.821 196.124 175.474 197.103 176.147C198.083 176.821 198.92 177.127 199.613 177.086C200.307 177.045 200.981 176.555 201.613 175.637C202.246 174.719 202.45 173.923 202.225 173.25C202.001 172.576 201.409 171.903 200.45 171.25C199.471 170.576 198.634 170.27 197.92 170.311C197.226 170.352 196.552 170.842 195.92 171.76Z" fill="#04030B"/>
<path d="M184.268 183.29L185.757 181.596L190.308 185.616C191.022 186.249 191.634 186.555 192.185 186.555C192.736 186.555 193.328 186.187 193.961 185.473C194.369 185.024 194.634 184.596 194.777 184.167C194.92 183.739 194.899 183.351 194.736 182.943C194.573 182.535 194.246 182.127 193.757 181.678L194.022 181.372L196.001 182.861L195.675 183.249C195.858 183.616 195.96 184.024 196.001 184.473C196.042 184.922 195.981 185.392 195.818 185.902C195.654 186.412 195.348 186.902 194.92 187.391C194.308 188.085 193.675 188.534 193.022 188.738C192.369 188.942 191.736 188.942 191.083 188.738C190.43 188.534 189.818 188.167 189.206 187.636L184.268 183.269V183.29ZM189.226 177.678L190.736 175.964L198.593 182.902L197.205 184.473L194.859 182.392L194.654 182.474L189.226 177.678Z" fill="#04030B"/>
<path d="M179.697 182.638C179.901 182.454 180.125 182.27 180.37 182.107C180.615 181.944 180.819 181.821 180.982 181.74L182.227 183.127L181.146 184.086C180.819 184.372 180.615 184.637 180.533 184.862C180.452 185.086 180.472 185.413 180.595 185.821L181.084 187.352L180.738 186.678L191.022 191.392L189.165 193.045L184.186 190.678L181.962 189.617L181.819 189.739L182.717 192.004L184.676 197.085L182.778 198.779L178.697 186.719C178.472 186.086 178.35 185.515 178.37 185.066C178.37 184.597 178.513 184.168 178.717 183.801C178.942 183.433 179.248 183.046 179.676 182.678L179.697 182.638Z" fill="#04030B"/>
<path d="M161.373 200.472L163.291 199.248L166.577 204.37C167.087 205.166 167.597 205.635 168.107 205.798C168.617 205.961 169.27 205.778 170.087 205.268C170.801 204.798 171.25 204.288 171.372 203.737C171.515 203.186 171.311 202.492 170.801 201.696L171.107 201.431L172.617 203.431L172.331 203.615C172.372 204.002 172.372 204.411 172.29 204.859C172.209 205.308 172.046 205.757 171.74 206.186C171.454 206.614 171.025 207.023 170.433 207.39C169.678 207.88 168.964 208.124 168.291 208.124C167.617 208.124 167.005 207.961 166.434 207.594C165.862 207.227 165.352 206.696 164.924 206.023L161.373 200.472ZM167.495 196.554L169.393 195.33L172.678 200.452C173.188 201.248 173.699 201.717 174.229 201.86C174.76 202.003 175.413 201.839 176.209 201.329C176.923 200.86 177.372 200.35 177.494 199.819C177.637 199.268 177.453 198.595 176.923 197.778L177.208 197.493L178.719 199.493L178.29 199.758C178.372 200.166 178.372 200.574 178.29 201.023C178.208 201.452 178.025 201.901 177.739 202.329C177.453 202.758 177.025 203.166 176.474 203.513C175.719 203.982 175.025 204.227 174.372 204.227C173.719 204.227 173.107 204.043 172.556 203.676C172.005 203.288 171.495 202.778 171.066 202.105L167.515 196.554H167.495ZM173.617 192.636L175.535 191.412L181.188 200.248L179.433 201.37L177.739 198.717H177.515L173.617 192.636Z" fill="#04030B"/>
<path d="M157.698 201.819L159.759 200.839L164.31 210.369L162.249 211.349L157.698 201.819ZM162.8 212.471L164.84 211.492L165.861 213.573L163.8 214.552L162.8 212.451V212.471Z" fill="#04030B"/>
<path d="M147.575 205.9L156.819 202.37L157.452 204.023L154.554 210.716L153.779 212.43L153.819 212.614L155.085 212.124L159.554 210.41L160.268 212.267L151.616 215.573L150.922 213.777L153.922 207.043L154.636 205.492L154.595 205.329L153.432 205.777L148.269 207.757L147.555 205.88L147.575 205.9Z" fill="#04030B"/>
<path d="M142.558 207.003C143.68 206.717 144.66 206.696 145.497 206.962C146.333 207.227 147.027 207.696 147.598 208.39C148.17 209.084 148.578 209.961 148.864 211.002C149.149 212.043 149.17 213.022 148.986 213.92C148.782 214.818 148.374 215.573 147.762 216.206C147.149 216.838 146.333 217.287 145.313 217.553C144.395 217.798 143.558 217.818 142.762 217.655C141.987 217.491 141.313 217.124 140.742 216.573C140.17 216.022 139.762 215.267 139.538 214.328C139.477 214.063 139.415 213.818 139.375 213.553C139.334 213.288 139.293 213.084 139.293 212.92L147.7 210.737L148.088 212.227L141.476 213.941L141.64 213.675C141.742 214.328 141.925 214.818 142.211 215.145C142.497 215.492 142.864 215.696 143.333 215.777C143.803 215.859 144.313 215.818 144.925 215.675C146.007 215.39 146.66 214.941 146.925 214.288C147.17 213.635 147.19 212.839 146.925 211.9L146.762 211.308C146.578 210.635 146.354 210.084 146.068 209.655C145.782 209.227 145.395 208.962 144.905 208.839C144.415 208.717 143.803 208.758 143.068 208.941C142.211 209.166 141.64 209.451 141.354 209.819C141.068 210.186 140.987 210.594 141.109 211.043L141.15 211.206L138.966 211.778L138.926 211.594C138.742 210.9 138.783 210.247 139.028 209.635C139.273 209.023 139.701 208.492 140.293 208.023C140.885 207.554 141.66 207.207 142.578 206.962L142.558 207.003Z" fill="#04030B"/>
<path d="M130.764 213.96C131.233 213.899 131.682 213.96 132.09 214.124C132.498 214.287 132.845 214.552 133.131 214.899C133.396 215.266 133.58 215.715 133.641 216.225C133.702 216.756 133.641 217.225 133.457 217.654C133.274 218.082 132.988 218.409 132.621 218.654C132.253 218.899 131.825 219.042 131.355 219.103C130.886 219.164 130.458 219.103 130.049 218.939C129.641 218.776 129.294 218.511 129.009 218.164C128.743 217.797 128.56 217.348 128.499 216.817C128.437 216.307 128.499 215.838 128.682 215.409C128.866 214.981 129.152 214.654 129.519 214.409C129.886 214.164 130.294 214.022 130.764 213.96Z" fill="#04030B"/>
<path d="M111.845 221.981L121.171 222.246L121.11 224.286L111.784 224.021L111.845 221.981ZM112.335 215.573L121.334 215.818L121.273 217.858L112.274 217.614L112.335 215.573ZM119.926 210.104L122.191 210.165L121.804 224.307L119.539 224.246L119.926 210.104Z" fill="#04030B"/>
<path d="M106.335 208.818C107.396 208.982 108.274 209.349 108.967 209.92C109.661 210.492 110.171 211.206 110.477 212.084C110.784 212.961 110.845 213.94 110.682 215.002C110.518 216.063 110.171 216.981 109.62 217.716C109.069 218.45 108.376 219.001 107.539 219.328C106.702 219.654 105.743 219.756 104.682 219.593C103.621 219.43 102.743 219.063 102.07 218.491C101.397 217.92 100.886 217.206 100.601 216.328C100.315 215.451 100.233 214.491 100.397 213.41C100.56 212.349 100.907 211.43 101.458 210.675C102.009 209.92 102.682 209.39 103.519 209.043C104.356 208.696 105.294 208.614 106.335 208.778V208.818ZM106.029 210.818C104.927 210.655 104.131 210.818 103.621 211.288C103.111 211.757 102.764 212.594 102.601 213.777C102.437 214.961 102.499 215.838 102.845 216.45C103.192 217.063 103.907 217.45 105.009 217.614C106.11 217.777 106.906 217.614 107.437 217.144C107.947 216.655 108.294 215.838 108.478 214.675C108.661 213.512 108.559 212.614 108.233 212.002C107.886 211.39 107.172 211.002 106.07 210.818H106.029Z" fill="#04030B"/>
<path d="M95.9897 213.92L96.5202 214.063L95.9897 216.042L95.5407 215.92C95.2142 216.328 94.7653 216.634 94.1939 216.858C93.6225 217.083 92.9899 217.103 92.2553 216.899C91.541 216.695 91.0105 216.389 90.6636 215.961C90.3167 215.532 90.1126 215.042 90.0718 214.471C90.0106 213.899 90.0718 213.287 90.2554 212.655L90.4391 211.981L92.643 212.573L92.541 212.981C92.3573 213.655 92.3369 214.144 92.5002 214.491C92.6634 214.838 93.0511 215.103 93.7041 215.287C94.3571 215.471 94.8673 215.45 95.2142 215.246C95.5611 215.042 95.8468 214.593 96.0305 213.92H95.9897ZM97.7854 207.329L99.9893 207.92L97.2344 218.103L95.2142 217.552L95.9897 214.716L95.8264 214.573L97.7854 207.329Z" fill="#04030B"/>
<path d="M81.9703 211.124L88.684 213.655L88.0106 215.43L81.2969 212.9L81.9703 211.124ZM86.7658 203.757C87.8473 204.166 88.582 204.696 88.9901 205.37C89.3982 206.043 89.3778 206.92 88.9697 208.043L86.5005 214.614L85.0108 217.083L83.3987 216.471L86.827 207.349C87.0107 206.839 87.0107 206.451 86.8066 206.227C86.6025 205.982 86.1536 205.737 85.4802 205.492L84.2966 205.043L84.9496 203.288C85.1537 203.329 85.4394 203.39 85.7659 203.451C86.0924 203.533 86.4393 203.635 86.7862 203.757H86.7658Z" fill="#04030B"/>
<path d="M77.1134 212.45L79.1744 213.389L78.2358 215.511L76.1543 214.573L77.1134 212.45ZM81.9497 201.676L84.0312 202.614L79.6846 212.226L77.6032 211.287L81.9497 201.676Z" fill="#04030B"/>
<path d="M77.8283 199.615L79.8281 200.655L75.0122 209.879C74.6244 210.593 74.1755 211.144 73.6653 211.491C73.1348 211.838 72.543 212.001 71.8492 211.961C71.1758 211.92 70.4411 211.695 69.6453 211.287C69.5228 211.226 69.4004 211.165 69.278 211.083C69.1555 211.022 69.0331 210.961 68.9106 210.879L69.7473 209.287L70.8697 209.879C71.3186 210.124 71.7063 210.206 72.0124 210.124C72.3185 210.063 72.5838 209.818 72.7879 209.43L73.2164 208.614L73.4205 208.104L77.8691 199.615H77.8283ZM71.4819 205.982L77.2161 208.981L76.3386 210.655L70.6044 207.655L71.4819 205.961V205.982Z" fill="#04030B"/>
<path d="M75.1337 194.003C75.3786 194.167 75.6031 194.33 75.8276 194.514C76.052 194.697 76.2153 194.86 76.3377 195.003L75.3174 196.554L74.1134 195.779C73.7461 195.534 73.44 195.411 73.1951 195.391C72.9502 195.391 72.6441 195.473 72.2972 195.697L70.9504 196.575L71.5218 196.064L69.6444 207.227L67.5629 205.859L68.5629 200.431L69.0118 198.003L68.8486 197.901L66.8895 199.35L62.5021 202.554L60.3799 201.166L70.9504 194.085C71.5014 193.697 72.0115 193.452 72.4809 193.33C72.9298 193.228 73.3788 193.228 73.7869 193.33C74.2154 193.452 74.644 193.656 75.1337 193.963V194.003Z" fill="#04030B"/>
<path d="M57.6869 191.126C58.0542 191.432 58.2991 191.799 58.4623 192.228C58.6256 192.636 58.6664 193.064 58.5848 193.513C58.5032 193.962 58.2787 194.391 57.9522 194.778C57.6053 195.187 57.1971 195.452 56.7686 195.595C56.3401 195.738 55.9115 195.758 55.4626 195.656C55.0341 195.554 54.6463 195.329 54.279 195.023C53.9321 194.717 53.6668 194.35 53.5036 193.942C53.3403 193.534 53.2995 193.105 53.3811 192.656C53.4628 192.207 53.6872 191.779 54.0342 191.371C54.3811 190.983 54.7688 190.718 55.1973 190.575C55.6259 190.432 56.0544 190.411 56.5033 190.513C56.9319 190.616 57.3196 190.82 57.6665 191.126H57.6869Z" fill="#04030B"/>
<path d="M53.156 180.372L54.6865 182.024L44.32 191.636L42.7896 189.983L53.156 180.372Z" fill="#04030B"/>
<path d="M45.7491 171.229L47.1367 173.005L42.3412 176.719C41.5862 177.29 41.1781 177.862 41.076 178.392C40.974 178.923 41.2189 179.576 41.8107 180.351C42.178 180.82 42.5657 181.167 42.933 181.392C43.3207 181.596 43.7084 181.678 44.137 181.596C44.5655 181.514 45.0349 181.269 45.5654 180.861L45.8103 181.188L43.9737 182.841L43.6676 182.433C43.2799 182.535 42.8514 182.575 42.4024 182.535C41.9535 182.494 41.5046 182.331 41.0352 182.086C40.5659 181.841 40.1373 181.453 39.7292 180.923C39.1578 180.188 38.8313 179.494 38.7701 178.821C38.6885 178.147 38.8109 177.515 39.1374 176.902C39.4639 176.29 39.9333 175.76 40.5659 175.27L45.7695 171.229H45.7491ZM50.3405 177.147L51.7282 178.943L43.4432 185.371L42.1576 183.718L44.6471 181.8L44.6063 181.576L50.3201 177.147H50.3405Z" fill="#04030B"/>
<path d="M39.8513 161.414L40.9941 163.353L35.7496 166.434C34.9333 166.904 34.4436 167.414 34.2803 167.924C34.1171 168.434 34.2803 169.108 34.7701 169.944C35.0762 170.475 35.4027 170.863 35.7496 171.107C36.0965 171.352 36.4842 171.475 36.9332 171.454C37.3821 171.434 37.8719 171.25 38.4432 170.903L38.6473 171.25L36.6067 172.658L36.3414 172.23C35.9333 172.291 35.5047 172.271 35.0762 172.169C34.6477 172.067 34.1987 171.862 33.7702 171.556C33.3416 171.25 32.9539 170.801 32.6274 170.23C32.1581 169.434 31.9336 168.699 31.9336 168.026C31.9336 167.353 32.1377 166.74 32.5254 166.169C32.9131 165.598 33.4641 165.128 34.1375 164.72L39.8105 161.374L39.8513 161.414ZM43.6469 167.863L44.8101 169.822L35.77 175.148L34.7089 173.352L37.4229 171.76V171.536L43.6469 167.863Z" fill="#04030B"/>
<path d="M37.3817 155.374C37.8103 156.353 37.9531 157.292 37.8511 158.19C37.749 159.088 37.3817 159.904 36.8104 160.618C36.2186 161.332 35.4227 161.904 34.4432 162.332C33.4637 162.761 32.4842 162.944 31.5659 162.863C30.6476 162.781 29.8313 162.475 29.0967 161.945C28.3621 161.414 27.7907 160.639 27.3622 159.659C26.9336 158.68 26.7908 157.741 26.9132 156.863C27.0357 155.986 27.3826 155.19 27.9744 154.476C28.5662 153.762 29.3416 153.19 30.3415 152.762C31.3414 152.333 32.3005 152.149 33.2188 152.211C34.1371 152.272 34.9738 152.558 35.688 153.088C36.4022 153.619 36.9736 154.374 37.4021 155.353L37.3817 155.374ZM35.5247 156.17C35.0962 155.149 34.5248 154.557 33.8514 154.374C33.178 154.19 32.2801 154.353 31.1986 154.802C30.117 155.251 29.4028 155.802 29.0559 156.414C28.709 157.027 28.7702 157.843 29.1988 158.863C29.6273 159.884 30.1987 160.496 30.8721 160.659C31.5455 160.843 32.4434 160.7 33.5249 160.23C34.6065 159.761 35.3207 159.231 35.6676 158.598C36.0145 157.986 35.9533 157.149 35.5247 156.129V156.17Z" fill="#04030B"/>
<path d="M33.1799 144.129L33.9961 146.905L25.1193 153.884L24.4051 151.476L31.5066 146.191L31.4657 146.048L22.6093 145.435L21.9155 143.068L33.1595 144.129H33.1799Z" fill="#04030B"/>
<path d="M30.4848 131.009L30.8522 133.09L28.8115 133.437L28.2605 133.6L24.2813 134.294C23.5058 134.437 23.0161 134.702 22.7916 135.11C22.5875 135.519 22.5467 136.151 22.6896 136.967C22.8324 137.784 23.0773 138.355 23.4242 138.661C23.7711 138.967 24.2813 139.049 24.9751 138.947L25.2812 138.886L25.6485 141.049L25.4444 141.09C24.6894 141.212 23.9752 141.151 23.3018 140.865C22.6284 140.579 22.0774 140.13 21.608 139.498C21.1591 138.865 20.8326 138.09 20.6897 137.192C20.5265 136.233 20.5673 135.396 20.8122 134.702C21.0571 133.988 21.4652 133.417 22.057 132.988C22.6284 132.56 23.3426 132.254 24.1997 132.111L30.4848 131.029V131.009ZM31.7092 136.886C31.8725 137.825 31.7704 138.661 31.4031 139.355C31.0358 140.069 30.4032 140.498 29.5053 140.641C28.9339 140.743 28.4238 140.681 27.9953 140.498C27.5463 140.294 27.1586 139.967 26.8321 139.477C26.5056 139.008 26.2199 138.416 25.975 137.702L24.771 133.968L26.3627 133.682L27.4443 137.09C27.6483 137.661 27.8524 138.069 28.0565 138.273C28.2605 138.478 28.5666 138.559 28.9544 138.478C29.3625 138.416 29.6278 138.212 29.7706 137.906C29.9135 137.6 29.9135 137.11 29.8114 136.457C29.7298 135.968 29.5665 135.478 29.3217 135.049C29.0768 134.6 28.7503 134.274 28.3013 134.029C27.8524 133.804 27.3014 133.743 26.6076 133.866L29.1992 133.111L29.24 133.417C29.587 133.56 29.9339 133.784 30.2808 134.07C30.6277 134.376 30.9134 134.743 31.1787 135.192C31.4439 135.641 31.6276 136.192 31.7296 136.825L31.7092 136.886Z" fill="#04030B"/>
<path d="M30.0562 124.989C30.1379 126.132 29.9542 127.029 29.5257 127.682C29.0767 128.335 28.2809 128.703 27.0973 128.784L20.0775 129.295L17.2206 128.968L17.0981 127.234L26.832 126.54C27.383 126.499 27.7095 126.336 27.8523 126.05C27.9748 125.764 28.0156 125.254 27.9748 124.54L27.8931 123.275L29.7705 123.132C29.8318 123.336 29.893 123.601 29.9542 123.948C30.0154 124.275 30.0766 124.622 30.097 124.989H30.0562ZM21.3631 123.724L21.8733 130.886L19.9755 131.029L19.4653 123.866L21.3631 123.724Z" fill="#04030B"/>
<path d="M30.1791 117.663C30.1587 118.805 29.8934 119.764 29.4037 120.499C28.9139 121.234 28.2609 121.785 27.4447 122.132C26.6284 122.478 25.6693 122.642 24.5878 122.621C23.5062 122.601 22.5675 122.356 21.7513 121.927C20.935 121.499 20.3228 120.887 19.8943 120.111C19.4657 119.336 19.2413 118.438 19.2821 117.397C19.3025 116.459 19.5066 115.622 19.8739 114.928C20.2412 114.214 20.7718 113.663 21.4656 113.275C22.1594 112.887 22.9756 112.704 23.9552 112.724C24.2204 112.724 24.4857 112.745 24.751 112.765C25.0163 112.785 25.2204 112.826 25.3836 112.847L25.1795 121.54L23.6491 121.499L23.8123 114.663L24.0164 114.908C23.3634 114.826 22.8532 114.867 22.4451 115.051C22.037 115.234 21.7309 115.52 21.5268 115.948C21.3227 116.357 21.2003 116.887 21.2003 117.499C21.1799 118.601 21.4452 119.377 21.9961 119.805C22.5471 120.234 23.3021 120.458 24.2817 120.479H24.8939C25.5877 120.519 26.1999 120.438 26.6896 120.275C27.1794 120.111 27.5467 119.826 27.7916 119.377C28.0364 118.928 28.1793 118.336 28.1997 117.581C28.2201 116.703 28.0977 116.071 27.8324 115.704C27.5671 115.336 27.1998 115.132 26.7304 115.132H26.5672L26.6284 112.867H26.8121C27.5263 112.887 28.1385 113.091 28.669 113.5C29.1792 113.908 29.5873 114.459 29.873 115.173C30.1587 115.867 30.2812 116.703 30.2607 117.663H30.1791Z" fill="#04030B"/>
<path d="M26.7104 104.419C26.6288 104.888 26.4655 105.297 26.2002 105.664C25.9349 106.011 25.588 106.276 25.1595 106.439C24.731 106.603 24.2616 106.643 23.7515 106.562C23.2209 106.48 22.7923 106.276 22.425 105.99C22.0781 105.705 21.8332 105.337 21.6904 104.909C21.5476 104.48 21.5272 104.031 21.6088 103.562C21.6904 103.113 21.8537 102.705 22.1189 102.338C22.3842 101.991 22.7311 101.725 23.1597 101.562C23.5882 101.399 24.0575 101.358 24.5881 101.44C25.0983 101.521 25.5268 101.705 25.8941 102.011C26.241 102.297 26.4859 102.664 26.6288 103.093C26.7716 103.521 26.792 103.95 26.7104 104.419Z" fill="#04030B"/>
<path d="M33.0564 95.8888L32.3014 98.1335L20.6289 88.4404L21.6696 85.3386L36.8316 84.604L36.0562 86.9507L25.9142 87.4609H23.1389L23.0777 87.6446L25.2612 89.3587L33.0564 95.8888ZM32.485 85.9712L29.669 94.3787L27.7508 93.7257L30.5668 85.3182L32.485 85.9712Z" fill="#04030B"/>
<path d="M38.2584 82.0327L37.238 84.0733L27.8511 79.3798L28.7898 77.5024L31.6059 78.9105L31.7895 78.788L38.2584 82.0327ZM41.605 75.3393L40.5847 77.3596L35.1566 74.6455C34.3199 74.217 33.6261 74.0742 33.0955 74.217C32.565 74.3598 32.0956 74.8496 31.6467 75.7271C31.3814 76.278 31.2181 76.7474 31.1977 77.1963C31.1773 77.6249 31.2794 78.0126 31.5446 78.3799C31.8099 78.7268 32.2181 79.0533 32.8098 79.339L32.6262 79.7063L30.3407 78.7676L30.5651 78.3187C30.2998 78.0126 30.0754 77.6453 29.9325 77.2167C29.7897 76.7882 29.7285 76.3189 29.7489 75.7883C29.7693 75.2577 29.9325 74.7068 30.2386 74.115C30.6468 73.2783 31.1569 72.6865 31.7283 72.3396C32.2997 71.9927 32.9323 71.809 33.6057 71.8499C34.2791 71.8907 34.9933 72.0743 35.7076 72.4212L41.5846 75.3598L41.605 75.3393Z" fill="#04030B"/>
<path d="M45.2806 70.0546C44.6888 70.9525 43.9746 71.5851 43.1583 71.9728C42.3421 72.3605 41.485 72.5238 40.5463 72.4217C39.628 72.3197 38.7097 71.9728 37.8119 71.3606C36.914 70.7484 36.2406 70.0546 35.812 69.2383C35.3835 68.4221 35.1794 67.565 35.2406 66.6671C35.3019 65.7692 35.6284 64.8713 36.2201 63.9735C36.8119 63.0756 37.5058 62.443 38.322 62.0757C39.1383 61.6879 39.9953 61.5451 40.8932 61.6471C41.7911 61.7492 42.7094 62.0961 43.6073 62.7083C44.5052 63.3204 45.1786 64.0143 45.6275 64.8305C46.0765 65.6468 46.2805 66.4834 46.2397 67.3813C46.1989 68.2792 45.8724 69.1567 45.2806 70.0546ZM43.6073 68.9322C44.2195 68.0139 44.4235 67.2181 44.1991 66.5447C43.9746 65.8713 43.3828 65.2182 42.3829 64.5652C41.4034 63.9122 40.5667 63.6061 39.8525 63.647C39.1383 63.6878 38.4853 64.1775 37.8731 65.0958C37.2609 66.0141 37.0568 66.8099 37.2813 67.4834C37.5058 68.1568 38.0975 68.8098 39.077 69.4832C40.0566 70.1362 40.9136 70.4423 41.6074 70.3811C42.3013 70.3199 42.9747 69.8301 43.5869 68.9118L43.6073 68.9322Z" fill="#04030B"/>
<path d="M50.2575 62.9532L48.7678 64.6673L40.8501 57.7904L42.2173 56.2191L44.5845 58.2801L44.7885 58.1985L50.2575 62.9328V62.9532ZM55.1754 57.3006L53.6857 59.0147L49.0943 55.0355C48.3801 54.4233 47.7475 54.1172 47.2169 54.1172C46.6659 54.1172 46.0741 54.4845 45.4415 55.2191C45.0538 55.6681 44.7885 56.117 44.6457 56.5252C44.5028 56.9333 44.5233 57.3414 44.6865 57.7495C44.8498 58.1577 45.1763 58.5658 45.6864 58.9943L45.4211 59.3004L43.4417 57.8312L43.7682 57.4434C43.5846 57.0761 43.4621 56.668 43.4213 56.2191C43.3805 55.7701 43.4213 55.3008 43.605 54.7906C43.7682 54.2804 44.0539 53.7907 44.5028 53.2805C45.115 52.5867 45.7272 52.1174 46.3802 51.9133C47.0332 51.7092 47.6658 51.7092 48.3189 51.9133C48.9719 52.097 49.6045 52.4643 50.1962 52.9948L55.1754 57.3006Z" fill="#04030B"/>
<path d="M59.7079 57.9334C59.5038 58.117 59.2793 58.3007 59.0345 58.4844C58.7896 58.668 58.5855 58.7701 58.4223 58.8517L57.1775 57.4845L58.2386 56.5254C58.5651 56.2397 58.7692 55.9744 58.8304 55.7295C58.912 55.505 58.8916 55.1785 58.7692 54.7704L58.259 53.2399L58.6059 53.9133L48.2803 49.3015L50.1169 47.6281L55.1164 49.9545L57.3611 50.9952L57.504 50.8728L56.5857 48.6281L54.5859 43.5673L56.4633 41.8735L60.667 53.8929C60.9119 54.5255 61.0139 55.0765 61.0139 55.5458C61.0139 56.0152 60.8914 56.4437 60.667 56.811C60.4425 57.1988 60.1364 57.5661 59.7079 57.9538V57.9334Z" fill="#04030B"/>
<path d="M65.7081 47.873L63.7899 49.1178L58.0557 40.3431L59.8106 39.2003L61.5248 41.8327H61.7492L65.7081 47.873ZM71.8096 43.8938L69.9118 45.1182L66.5856 40.037C66.0754 39.2411 65.5448 38.7718 65.0347 38.6289C64.5245 38.4861 63.8511 38.6697 63.0756 39.1799C62.3614 39.6493 61.9329 40.1594 61.79 40.7104C61.6472 41.2614 61.8513 41.9348 62.3614 42.7306L62.0757 43.0163L60.5452 41.0369L60.9738 40.7512C60.8922 40.3431 60.8922 39.9349 60.9738 39.486C61.0554 39.0371 61.2391 38.6085 61.5248 38.18C61.8104 37.7515 62.2186 37.3433 62.79 36.976C63.5246 36.4863 64.2388 36.2414 64.8918 36.2414C65.5448 36.2414 66.157 36.4046 66.7284 36.7924C67.2998 37.1597 67.7895 37.6902 68.2385 38.3636L71.83 43.8734L71.8096 43.8938ZM77.9111 39.9145L75.9929 41.1593L72.6667 36.0781C72.1565 35.2823 71.6463 34.8129 71.1362 34.6701C70.626 34.5272 69.973 34.7109 69.1568 35.2211C68.4425 35.6904 68.014 36.2006 67.8916 36.7515C67.7691 37.3025 67.9528 37.9963 68.4834 38.7922L68.1773 39.0575L66.6468 37.078L66.9325 36.8944C66.8916 36.5067 66.8917 36.0985 66.9529 35.6496C67.0141 35.2006 67.1977 34.7517 67.4834 34.3232C67.7691 33.8946 68.1977 33.4865 68.769 33.0988C69.5241 32.609 70.2383 32.3438 70.9117 32.3438C71.5851 32.3438 72.1973 32.507 72.7687 32.8743C73.3401 33.2416 73.8502 33.7518 74.2788 34.4252L77.8703 39.9349L77.9111 39.9145Z" fill="#04030B"/>
<path d="M76.3403 27.9154L74.32 28.9154L73.2793 26.8339L75.3199 25.834L76.3403 27.9154ZM81.5439 38.5268L79.5033 39.5267L74.871 30.0377L76.9116 29.0378L81.5439 38.5268Z" fill="#04030B"/>
<path d="M91.6222 34.3429L82.4189 37.9752L81.7659 36.3223L84.6024 29.6086L85.3574 27.8944L85.3166 27.7108L84.0514 28.2005L79.6028 29.9555L78.8682 28.1189L87.5001 24.7314L88.1939 26.5272L85.2554 33.2817L84.5411 34.8326L84.582 34.9959L85.7451 34.5469L90.8876 32.5267L91.6222 34.3837V34.3429Z" fill="#04030B"/>
<path d="M96.6221 33.2207C95.4997 33.5268 94.5406 33.5472 93.6835 33.2819C92.8469 33.037 92.1327 32.5473 91.5613 31.8739C90.9899 31.1801 90.5614 30.323 90.2757 29.2619C89.99 28.2007 89.9492 27.2416 90.1328 26.3437C90.3165 25.4459 90.7246 24.6704 91.3368 24.0378C91.949 23.4052 92.7653 22.9359 93.7652 22.6706C94.6835 22.4257 95.5201 22.3849 96.316 22.5481C97.1118 22.7114 97.7852 23.0583 98.3566 23.6093C98.928 24.1603 99.3361 24.8949 99.581 25.8336C99.6422 26.0989 99.7034 26.3437 99.7647 26.609C99.8055 26.8743 99.8463 27.0784 99.8667 27.2416L91.4797 29.5067L91.0715 28.0171L97.6628 26.2417L97.4995 26.507C97.3975 25.8744 97.2139 25.3642 96.9078 25.0377C96.6017 24.7112 96.2548 24.4868 95.7854 24.4051C95.3161 24.3235 94.8059 24.3643 94.1937 24.5276C93.1122 24.8133 92.4592 25.2826 92.2143 25.9356C91.9694 26.5886 91.9694 27.3845 92.2143 28.3232L92.3775 28.915C92.5612 29.5884 92.8061 30.1393 93.0918 30.5679C93.3774 30.9964 93.7652 31.2617 94.2549 31.3841C94.7447 31.5066 95.3569 31.4658 96.0915 31.2617C96.9486 31.0372 97.5199 30.7311 97.7852 30.3638C98.0709 29.9965 98.1526 29.5884 98.0301 29.1394L97.9893 28.9762L100.173 28.3844L100.214 28.568C100.397 29.2619 100.377 29.9149 100.132 30.5271C99.8871 31.1393 99.479 31.6698 98.8668 32.1392C98.275 32.6085 97.52 32.9554 96.5813 33.2207H96.6221Z" fill="#04030B"/>
<path d="M108.336 26.1402C107.866 26.2014 107.418 26.1402 107.009 25.9973C106.601 25.8341 106.254 25.5892 105.969 25.2219C105.683 24.8546 105.52 24.426 105.459 23.8955C105.397 23.3649 105.459 22.8956 105.642 22.467C105.826 22.0385 106.091 21.712 106.458 21.4671C106.826 21.2222 107.254 21.059 107.724 20.9978C108.193 20.9365 108.622 20.9978 109.03 21.1406C109.438 21.3039 109.785 21.5487 110.07 21.916C110.356 22.2834 110.519 22.7323 110.581 23.2629C110.642 23.773 110.581 24.2424 110.397 24.6709C110.213 25.0995 109.948 25.426 109.581 25.6708C109.213 25.9157 108.805 26.079 108.336 26.1402Z" fill="#04030B"/>
<path d="M119.559 143.62C117.804 140.151 113.6 142.478 112.682 140.539C109.213 138.886 104.805 130.581 99.9074 128.275L85.1943 121.357L160.147 92.645L131.639 167.496L119.538 143.62H119.559Z" fill="#04030B"/>
<path d="M107.314 154.64L131.659 167.496L115.048 124.479L107.314 154.64Z" fill="#04030B"/>
<path d="M95.2146 130.765C93.4597 127.296 92.1741 124.745 91.2558 122.806C87.7867 121.153 80.4812 117.725 75.5836 115.419L60.8706 108.501L135.823 79.7896L107.316 154.64L95.2146 130.765Z" fill="#04030B"/>
<path d="M123.906 91.7476L106.418 137.662C106.418 137.662 96.2349 117.562 96.2758 117.562C96.3166 117.562 78.4609 109.154 78.4609 109.154L123.886 91.7476H123.906Z" fill="#1FD26C"/>
<path d="M60.8701 108.48L85.1946 121.357L92.0103 120.357L60.8701 108.48Z" fill="#04030B"/>
<path d="M135.824 79.7686L160.168 93.2776L120.172 115.806L135.293 79.9726" fill="#04030B"/>
</g>
<defs>
<clipPath id="clip0_1242_30532">
<rect width="240" height="240" fill="white"/>
</clipPath>
</defs>
</svg>
