<svg width="72" height="72" viewBox="0 0 72 72" fill="none" xmlns="http://www.w3.org/2000/svg">
<path d="M63 12.168H54V9.16797C54 8.37232 53.6839 7.60926 53.1213 7.04665C52.5587 6.48404 51.7957 6.16797 51 6.16797H21C20.2044 6.16797 19.4413 6.48404 18.8787 7.04665C18.3161 7.60926 18 8.37232 18 9.16797V12.168H9C8.20435 12.168 7.44129 12.484 6.87868 13.0466C6.31607 13.6093 6 14.3723 6 15.168V24.168C6 27.3506 7.26428 30.4028 9.51472 32.6533C11.7652 34.9037 14.8174 36.168 18 36.168H22.62C25.3336 39.1954 28.9922 41.215 33 41.898V48.168H30C27.6131 48.168 25.3239 49.1162 23.636 50.804C21.9482 52.4918 21 54.781 21 57.168V63.168C21 63.9636 21.3161 64.7267 21.8787 65.2893C22.4413 65.8519 23.2044 66.168 24 66.168H48C48.7957 66.168 49.5587 65.8519 50.1213 65.2893C50.6839 64.7267 51 63.9636 51 63.168V57.168C51 54.781 50.0518 52.4918 48.364 50.804C46.6761 49.1162 44.3869 48.168 42 48.168H39V41.898C43.0078 41.215 46.6664 39.1954 49.38 36.168H54C57.1826 36.168 60.2348 34.9037 62.4853 32.6533C64.7357 30.4028 66 27.3506 66 24.168V15.168C66 14.3723 65.6839 13.6093 65.1213 13.0466C64.5587 12.484 63.7957 12.168 63 12.168ZM18 30.168C16.4087 30.168 14.8826 29.5358 13.7574 28.4106C12.6321 27.2854 12 25.7593 12 24.168V18.168H18V24.168C18.0066 26.2131 18.3617 28.2421 19.05 30.168H18ZM60 24.168C60 25.7593 59.3679 27.2854 58.2426 28.4106C57.1174 29.5358 55.5913 30.168 54 30.168H52.95C53.6383 28.2421 53.9934 26.2131 54 24.168V18.168H60V24.168Z" fill="#CBCBCB"/>
</svg>
