<svg width="60" height="61" viewBox="0 0 60 61" fill="none" xmlns="http://www.w3.org/2000/svg">
<path d="M57 6.16797H48V3.16797C48 2.37232 47.6839 1.60926 47.1213 1.04665C46.5587 0.484039 45.7957 0.167969 45 0.167969H15C14.2044 0.167969 13.4413 0.484039 12.8787 1.04665C12.3161 1.60926 12 2.37232 12 3.16797V6.16797H3C2.20435 6.16797 1.44129 6.48404 0.87868 7.04665C0.31607 7.60926 0 8.37232 0 9.16797V18.168C0 21.3506 1.26428 24.4028 3.51472 26.6533C5.76516 28.9037 8.8174 30.168 12 30.168H16.62C19.3336 33.1954 22.9922 35.215 27 35.898V42.168H24C21.6131 42.168 19.3239 43.1162 17.636 44.804C15.9482 46.4918 15 48.781 15 51.168V57.168C15 57.9636 15.3161 58.7267 15.8787 59.2893C16.4413 59.8519 17.2044 60.168 18 60.168H42C42.7957 60.168 43.5587 59.8519 44.1213 59.2893C44.6839 58.7267 45 57.9636 45 57.168V51.168C45 48.781 44.0518 46.4918 42.364 44.804C40.6761 43.1162 38.3869 42.168 36 42.168H33V35.898C37.0078 35.215 40.6664 33.1954 43.38 30.168H48C51.1826 30.168 54.2348 28.9037 56.4853 26.6533C58.7357 24.4028 60 21.3506 60 18.168V9.16797C60 8.37232 59.6839 7.60926 59.1213 7.04665C58.5587 6.48404 57.7957 6.16797 57 6.16797ZM12 24.168C10.4087 24.168 8.88258 23.5358 7.75736 22.4106C6.63214 21.2854 6 19.7593 6 18.168V12.168H12V18.168C12.0066 20.2131 12.3617 22.2421 13.05 24.168H12ZM54 18.168C54 19.7593 53.3679 21.2854 52.2426 22.4106C51.1174 23.5358 49.5913 24.168 48 24.168H46.95C47.6383 22.2421 47.9934 20.2131 48 18.168V12.168H54V18.168Z" fill="#FF3044"/>
</svg>
