<svg width="24" height="24" viewBox="0 0 24 24" fill="none" xmlns="http://www.w3.org/2000/svg">
<g clip-path="url(#clip0_9_671)">
<path d="M20.3173 4.36007C18.7612 3.64545 17.119 3.13569 15.4318 2.84357C15.4165 2.841 15.4008 2.84322 15.3868 2.84994C15.3728 2.85665 15.3613 2.86753 15.3538 2.88107C15.1423 3.25607 14.9083 3.74657 14.7448 4.13057C12.9262 3.85481 11.0764 3.85481 9.25776 4.13057C9.07615 3.70245 8.8698 3.28524 8.63976 2.88107C8.63223 2.86753 8.62069 2.85665 8.60672 2.84994C8.59275 2.84322 8.57705 2.841 8.56177 2.84357C6.87426 3.13457 5.23176 3.64457 3.67626 4.36007C3.66289 4.36504 3.65172 4.37461 3.64476 4.38707C0.533765 9.03557 -0.319735 13.5701 0.0987651 18.0476C0.101765 18.0696 0.112265 18.0881 0.130265 18.1031C1.94222 19.4444 3.96841 20.4689 6.12276 21.1331C6.13798 21.1379 6.15432 21.1377 6.16943 21.1326C6.18454 21.1274 6.19761 21.1176 6.20676 21.1046C6.66976 20.4746 7.07876 19.8101 7.43376 19.1111C7.44114 19.0967 7.44367 19.0803 7.44097 19.0643C7.43826 19.0484 7.43047 19.0337 7.41876 19.0226L7.39176 19.0061C6.7458 18.757 6.11996 18.4586 5.51976 18.1136C5.50301 18.1041 5.49055 18.0885 5.48497 18.0701C5.47938 18.0516 5.4811 18.0318 5.48976 18.0146L5.51226 17.9861C5.63926 17.8911 5.76326 17.7936 5.88426 17.6936C5.89487 17.685 5.90758 17.6796 5.92106 17.6777C5.93454 17.6759 5.94826 17.6777 5.96076 17.6831C9.88926 19.4771 14.1418 19.4771 18.0223 17.6831C18.0352 17.6771 18.0495 17.6749 18.0635 17.6768C18.0776 17.6787 18.0909 17.6845 18.1018 17.6936C18.2228 17.7936 18.3468 17.8911 18.4738 17.9861C18.4843 17.9933 18.4929 18.0031 18.4986 18.0145C18.5043 18.026 18.5069 18.0387 18.5063 18.0515C18.5057 18.0643 18.5019 18.0767 18.4951 18.0875C18.4884 18.0984 18.479 18.1074 18.4678 18.1136C17.8702 18.4641 17.2433 18.7622 16.5943 19.0046C16.5839 19.0083 16.5745 19.0143 16.5668 19.0221C16.559 19.0298 16.553 19.0392 16.5493 19.0496C16.5456 19.0596 16.5441 19.0702 16.5449 19.0808C16.5457 19.0914 16.5487 19.1017 16.5538 19.1111C16.9138 19.8086 17.3263 20.4746 17.7793 21.1046C17.7884 21.1176 17.8015 21.1274 17.8166 21.1326C17.8317 21.1377 17.8481 21.1379 17.8633 21.1331C20.0219 20.4726 22.0516 19.4478 23.8648 18.1031C23.8738 18.0967 23.8813 18.0884 23.8867 18.0788C23.8922 18.0692 23.8954 18.0586 23.8963 18.0476C24.3973 12.8711 23.0578 8.37407 20.3473 4.38857C20.3449 4.38177 20.341 4.37563 20.3357 4.37067C20.3305 4.36571 20.3242 4.36208 20.3173 4.36007ZM8.02027 15.3206C6.83676 15.3206 5.86326 14.2346 5.86326 12.9026C5.86326 11.5706 6.81876 10.4831 8.02027 10.4831C9.23076 10.4831 10.1953 11.5781 10.1773 12.9026C10.1773 14.2346 9.22176 15.3206 8.02027 15.3206ZM15.9943 15.3206C14.8123 15.3206 13.8373 14.2346 13.8373 12.9026C13.8373 11.5706 14.7928 10.4831 15.9943 10.4831C17.2048 10.4831 18.1708 11.5781 18.1513 12.9026C18.1513 14.2346 17.2048 15.3206 15.9943 15.3206Z" fill="white"/>
</g>
<defs>
<clipPath id="clip0_9_671">
<rect width="24" height="24" fill="white"/>
</clipPath>
</defs>
</svg>
