<svg width="80" height="80" viewBox="0 0 80 80" fill="none" xmlns="http://www.w3.org/2000/svg">
<g clip-path="url(#clip0_680_5876)">
<path d="M40.0034 80.0068C62.0967 80.0068 80.0068 62.0967 80.0068 40.0034C80.0068 17.9101 62.0967 0 40.0034 0C17.9101 0 0 17.9101 0 40.0034C0 62.0967 17.9101 80.0068 40.0034 80.0068Z" fill="#0275F6"/>
<path d="M42.8392 57.3652C41.6687 55.0513 38.8648 56.603 38.2523 55.3099C35.9384 54.2074 32.9984 48.6677 29.7318 47.1297L19.9182 42.5155L69.9117 23.3647L50.897 73.2901L42.8256 57.3652H42.8392Z" fill="#F5F0D8"/>
<path d="M34.6731 64.7149L50.9111 73.2899L39.8317 44.5978L34.6731 64.7149Z" fill="#F5F0D8"/>
<path d="M26.6015 48.7905C25.431 46.4766 24.5735 44.7752 23.961 43.4822C21.6471 42.3797 16.7743 40.093 13.5077 38.555L3.69409 33.9408L53.6875 14.79L34.6729 64.7154L26.6015 48.7905Z" fill="#F5F0D8"/>
<path d="M45.7386 22.766L34.0739 53.3909C34.0739 53.3909 27.282 39.984 27.3092 39.984C27.3364 39.984 15.4268 34.3762 15.4268 34.3762L45.725 22.766H45.7386Z" fill="#0275F6"/>
<path d="M3.69409 33.927L19.9185 42.5156L24.4646 41.8486L3.69409 33.927Z" fill="#F5F0D8"/>
<path d="M53.6868 14.7762L69.9248 23.7868L43.2471 38.8134L53.3329 14.9124" fill="#F5F0D8"/>
</g>
<defs>
<clipPath id="clip0_680_5876">
<rect width="80" height="80" fill="white"/>
</clipPath>
</defs>
</svg>
