<svg width="64" height="64" viewBox="0 0 64 64" fill="none" xmlns="http://www.w3.org/2000/svg">
<rect width="64" height="64" rx="8" fill="white"/>
<g clip-path="url(#clip0_431_591)">
<path d="M28.5619 39.3507C28.2204 39.0112 28.1282 38.5596 28.3467 38.3321L28.8248 37.8466H27.8789L26.4686 46.3347H32.103L32.7586 42.3691C32.4171 42.0635 32.0108 41.982 31.8059 42.1891L31.3381 42.6645C31.1229 42.8818 30.6756 42.7833 30.3376 42.4438C29.9995 42.1043 29.9073 41.6527 30.1224 41.4252L33.4723 38.03L33.5065 37.8195H31.2425L29.5351 39.5171C29.3302 39.7853 28.8795 39.6902 28.5619 39.3507Z" fill="url(#paint0_linear_431_591)"/>
<path d="M19.5469 24.3573C19.6321 24.2877 19.7355 24.2438 19.845 24.2306C19.9544 24.2173 20.0654 24.2354 20.1649 24.2826L20.1445 24.2656C19.803 23.9261 19.7142 23.4745 19.9293 23.247L21.565 21.5935C21.6141 21.5376 21.649 21.4709 21.6668 21.3988C21.6846 21.3267 21.6848 21.2515 21.6674 21.1793C21.586 21.1315 21.4919 21.1092 21.3975 21.1152C21.3031 21.1213 21.2128 21.1554 21.1381 21.2133L19.6425 22.7276C19.4581 22.9143 19.0756 22.8294 18.7888 22.5408C18.687 22.4376 18.6069 22.3152 18.5532 22.1809L16.0433 24.7172L15.3809 28.581L19.5469 24.3573Z" fill="url(#paint1_linear_431_591)"/>
<path d="M22.9138 33.2392C22.7165 33.1469 22.5373 33.0205 22.3845 32.8658C22.2172 32.696 22.1694 32.4685 22.2752 32.3599L23.887 30.7336H20.6327L20.6532 30.6113L17.9453 33.3343L18.6283 34.0371C18.9151 34.3257 18.9971 34.7162 18.8127 34.8995L18.0512 35.6669C17.8668 35.8536 17.9521 36.2373 18.2356 36.5292L18.4166 36.7092C18.7034 36.9978 19.0995 37.0827 19.2668 36.8959L19.6834 36.5157L19.8303 35.6295H20.561L22.9138 33.2392Z" fill="url(#paint2_linear_431_591)"/>
<path d="M32.5025 34.3122C32.46 34.3545 32.407 34.385 32.3489 34.4004C32.6904 34.74 32.7689 35.1678 32.5606 35.3817C32.5007 35.4422 32.4634 35.5213 32.4547 35.6058H33.6192L33.6909 35.5345L34.1792 32.584L32.5025 34.3122Z" fill="url(#paint3_linear_431_591)"/>
<path d="M31.4952 34.088C31.1537 33.7485 31.0718 33.3004 31.2869 33.0695L32.9226 31.4194C33.1377 31.1987 33.0421 30.7403 32.704 30.4008C32.6347 30.3302 32.5567 30.2686 32.4718 30.2175L27.1448 35.6227H29.9278L31.3654 34.1695C31.4023 34.1335 31.4466 34.1057 31.4952 34.088Z" fill="url(#paint4_linear_431_591)"/>
<path d="M20.5986 24.5576L20.6396 24.595C20.9435 24.9039 21.0323 25.3114 20.8377 25.5117L20.6806 25.6679C20.486 25.8648 20.5747 26.2722 20.8787 26.5812L20.9913 26.6966C21.0791 26.7847 21.1806 26.858 21.2918 26.9139L21.8348 23.7903L21.1518 24.4863C21.0758 24.5489 20.9835 24.5889 20.8856 24.6015C20.7877 24.6141 20.6882 24.5989 20.5986 24.5576Z" fill="url(#paint5_linear_431_591)"/>
<path d="M16.914 41.7579L15.0496 43.6423C14.8345 43.8596 14.3871 43.7611 14.0491 43.4216C13.711 43.0821 13.2671 42.987 13.052 43.2043L12.9222 43.3333L12.7378 44.4538L12.8368 44.3553C13.0554 44.1346 13.5027 44.2331 13.8373 44.5726C14.172 44.9121 14.271 45.3637 14.0525 45.5912L13.2227 46.4332H14.7286L18.1434 42.9938L16.914 41.7579Z" fill="url(#paint6_linear_431_591)"/>
<path d="M13.455 40.1248L13.2262 41.5135L13.6394 41.0959C13.8477 40.8786 13.7623 40.4643 13.455 40.1248Z" fill="url(#paint7_linear_431_591)"/>
<path d="M14.5784 36.4512C14.2369 36.1116 14.1481 35.6601 14.3633 35.4326L15.5619 34.2239C15.777 34.0032 15.6814 33.5448 15.3433 33.2053C15.0053 32.8658 14.9131 32.4142 15.1282 32.1867L15.3297 31.983C15.4219 31.888 15.3809 31.6944 15.2375 31.5518L14.5545 30.8456C14.4111 30.703 14.213 30.6589 14.1277 30.7539L11.6793 33.2257C11.4949 33.4124 11.1124 33.3309 10.829 33.0389C10.5456 32.747 10.146 32.6689 9.97531 32.8522L8.52062 34.3529C8.30549 34.5702 7.85816 34.4717 7.52351 34.1356C7.18203 33.7961 7.08983 33.3445 7.30496 33.117L9.65432 30.7404H5.89808L5.77515 31.3956C5.94212 31.4577 6.09358 31.555 6.21907 31.6808C6.56055 32.0204 6.64933 32.4753 6.4342 32.6994L5.34148 33.7927L5 35.6227H14.1994L13.9603 37.0487L14.1208 37.2117L13.8989 37.4358L13.7145 38.5562L14.797 37.463C15.0121 37.2457 14.9028 36.7907 14.5784 36.4512Z" fill="url(#paint8_linear_431_591)"/>
<path d="M23.8836 33.1917L24.1944 32.8794C24.4027 32.6689 24.8227 32.7537 25.1539 33.0593C25.1332 32.9833 25.1313 32.9034 25.1486 32.8265C25.1658 32.7496 25.2016 32.678 25.2529 32.6179L25.6798 32.1867C25.6128 32.144 25.5509 32.0939 25.4954 32.0373L25.3178 31.8574C25.031 31.5688 24.6349 31.4839 24.4641 31.6707L22.9138 33.2393C23.0605 33.3321 23.2326 33.3774 23.4063 33.3689C23.58 33.3604 23.7468 33.2985 23.8836 33.1917Z" fill="url(#paint9_linear_431_591)"/>
<path d="M32.3488 34.4004C32.25 34.2796 32.1197 34.1882 31.9722 34.1361C31.8246 34.084 31.6655 34.0733 31.5122 34.105C31.6133 34.2229 31.7439 34.3123 31.8907 34.3642C32.0376 34.416 32.1956 34.4285 32.3488 34.4004Z" fill="url(#paint10_linear_431_591)"/>
<path d="M18.0273 46.423L18.5054 43.5405L15.6541 46.423H18.0273Z" fill="url(#paint11_linear_431_591)"/>
<path d="M25.6866 34.6381C25.8915 34.4276 25.813 34.01 25.5125 33.6772C25.5313 33.752 25.5319 33.8302 25.514 33.9052C25.4962 33.9803 25.4605 34.0499 25.41 34.1084L24.2695 35.2594C24.2253 35.3095 24.1927 35.3686 24.1738 35.4325C24.1549 35.4964 24.1503 35.5636 24.1602 35.6295H24.7305C24.7481 35.5945 24.7712 35.5624 24.7988 35.5344L25.6866 34.6381Z" fill="url(#paint12_linear_431_591)"/>
<path d="M32.3659 34.4174C32.2101 34.4462 32.0495 34.4331 31.9006 34.3793C31.7517 34.3256 31.6199 34.2332 31.519 34.1118C31.4692 34.129 31.4237 34.1568 31.3858 34.1933L29.9277 35.6227H32.4751C32.4838 35.5382 32.5211 35.4592 32.581 35.3986C32.7859 35.1847 32.6937 34.7467 32.3659 34.4174Z" fill="url(#paint13_linear_431_591)"/>
<path d="M32.3659 34.4174C32.2101 34.4462 32.0495 34.4331 31.9006 34.3793C31.7517 34.3256 31.6199 34.2332 31.519 34.1118C31.4692 34.129 31.4237 34.1568 31.3858 34.1933L29.9277 35.6227H32.4751C32.4838 35.5382 32.5211 35.4592 32.581 35.3986C32.7859 35.1847 32.6937 34.7467 32.3659 34.4174Z" fill="url(#paint14_linear_431_591)"/>
<path d="M24.2694 35.2595L25.41 34.1085C25.4605 34.05 25.4961 33.9803 25.514 33.9053C25.5318 33.8302 25.5313 33.7521 25.5124 33.6773L25.4885 33.6263C25.3189 33.4766 25.1997 33.2787 25.147 33.0593C24.8056 32.7538 24.3958 32.6689 24.1875 32.8794L23.8768 33.1918C23.7399 33.2985 23.5732 33.3604 23.3995 33.3689C23.2258 33.3775 23.0537 33.3322 22.907 33.2393L20.5405 35.616H24.1602C24.1523 35.5522 24.1579 35.4876 24.1767 35.4262C24.1956 35.3648 24.2271 35.308 24.2694 35.2595Z" fill="url(#paint15_linear_431_591)"/>
<path d="M24.2694 35.2595L25.41 34.1085C25.4605 34.05 25.4961 33.9803 25.514 33.9053C25.5318 33.8302 25.5313 33.7521 25.5124 33.6773L25.4885 33.6263C25.3189 33.4766 25.1997 33.2787 25.147 33.0593C24.8056 32.7538 24.3958 32.6689 24.1875 32.8794L23.8768 33.1918C23.7399 33.2985 23.5732 33.3604 23.3995 33.3689C23.2258 33.3775 23.0537 33.3322 22.907 33.2393L20.5405 35.616H24.1602C24.1523 35.5522 24.1579 35.4876 24.1767 35.4262C24.1956 35.3648 24.2271 35.308 24.2694 35.2595Z" fill="url(#paint16_linear_431_591)"/>
<path d="M18.4303 36.7296L18.2493 36.5496C17.9659 36.2576 17.8805 35.8706 18.0649 35.6872L18.8264 34.9199C19.0108 34.7332 18.9289 34.3461 18.642 34.0575L17.9591 33.3547L20.6533 30.6181L21.2919 26.9207C21.1806 26.8648 21.0791 26.7914 20.9914 26.7034L20.8787 26.588C20.5748 26.279 20.486 25.8716 20.6806 25.6746L20.8377 25.5185C21.0324 25.3181 20.9436 24.9107 20.6397 24.6017L20.5987 24.5644C20.4353 24.506 20.2871 24.412 20.165 24.2894C20.0655 24.2422 19.9545 24.2241 19.8451 24.2374C19.7356 24.2506 19.6322 24.2945 19.5469 24.3641L15.3809 28.581L15.0053 30.7471H9.65437L7.30502 33.1238C7.08989 33.3445 7.1855 33.8029 7.52356 34.1424C7.86504 34.4819 8.30554 34.577 8.52067 34.3597L9.9617 32.9031C10.1461 32.7198 10.5286 32.8013 10.8154 33.0899C11.1022 33.3785 11.4813 33.4633 11.6657 33.2766L14.1141 30.8049C14.2063 30.7098 14.3975 30.7539 14.5409 30.8965L15.2239 31.6027C15.3673 31.7453 15.4082 31.9423 15.316 32.0339L15.1146 32.2377C14.8994 32.4549 14.9951 32.9167 15.3297 33.2562C15.6644 33.5958 15.7634 34.0473 15.5483 34.2748L14.3497 35.4835C14.1345 35.7008 14.2302 36.1626 14.5648 36.5021C14.8994 36.8416 14.9985 37.2966 14.7833 37.5207L13.7009 38.6139L13.455 40.1248C13.7623 40.4643 13.8477 40.8853 13.6394 41.0959L13.2262 41.5135L12.9223 43.3401L13.0521 43.2111C13.2672 42.9938 13.7145 43.0923 14.0492 43.4284C14.3838 43.7645 14.8346 43.8664 15.0497 43.6491L16.9142 41.7647L18.1298 42.9904L14.7151 46.4298H15.6541L18.5054 43.5472L19.6835 36.5157L19.2942 36.9095C19.0962 37.0963 18.7172 37.0114 18.4303 36.7296Z" fill="url(#paint17_linear_431_591)"/>
<path d="M18.4303 36.7296L18.2493 36.5496C17.9659 36.2576 17.8805 35.8706 18.0649 35.6872L18.8264 34.9199C19.0108 34.7332 18.9289 34.3461 18.642 34.0575L17.9591 33.3547L20.6533 30.6181L21.2919 26.9207C21.1806 26.8648 21.0791 26.7914 20.9914 26.7034L20.8787 26.588C20.5748 26.279 20.486 25.8716 20.6806 25.6746L20.8377 25.5185C21.0324 25.3181 20.9436 24.9107 20.6397 24.6017L20.5987 24.5644C20.4353 24.506 20.2871 24.412 20.165 24.2894C20.0655 24.2422 19.9545 24.2241 19.8451 24.2374C19.7356 24.2506 19.6322 24.2945 19.5469 24.3641L15.3809 28.581L15.0053 30.7471H9.65437L7.30502 33.1238C7.08989 33.3445 7.1855 33.8029 7.52356 34.1424C7.86504 34.4819 8.30554 34.577 8.52067 34.3597L9.9617 32.9031C10.1461 32.7198 10.5286 32.8013 10.8154 33.0899C11.1022 33.3785 11.4813 33.4633 11.6657 33.2766L14.1141 30.8049C14.2063 30.7098 14.3975 30.7539 14.5409 30.8965L15.2239 31.6027C15.3673 31.7453 15.4082 31.9423 15.316 32.0339L15.1146 32.2377C14.8994 32.4549 14.9951 32.9167 15.3297 33.2562C15.6644 33.5958 15.7634 34.0473 15.5483 34.2748L14.3497 35.4835C14.1345 35.7008 14.2302 36.1626 14.5648 36.5021C14.8994 36.8416 14.9985 37.2966 14.7833 37.5207L13.7009 38.6139L13.455 40.1248C13.7623 40.4643 13.8477 40.8853 13.6394 41.0959L13.2262 41.5135L12.9223 43.3401L13.0521 43.2111C13.2672 42.9938 13.7145 43.0923 14.0492 43.4284C14.3838 43.7645 14.8346 43.8664 15.0497 43.6491L16.9142 41.7647L18.1298 42.9904L14.7151 46.4298H15.6541L18.5054 43.5472L19.6835 36.5157L19.2942 36.9095C19.0962 37.0963 18.7172 37.0114 18.4303 36.7296Z" fill="url(#paint18_linear_431_591)"/>
<path d="M18.6044 21.692C18.5496 21.762 18.5157 21.846 18.5066 21.9343C18.4975 22.0226 18.5137 22.1116 18.5532 22.1911L20.3665 20.3747C20.5816 20.1574 21.0289 20.2559 21.367 20.5954C21.5332 20.7552 21.6444 20.9631 21.6846 21.1896C21.806 21.2416 21.9162 21.3165 22.009 21.4102L22.2241 21.6309L22.9753 17.2918L18.6044 21.692Z" fill="url(#paint19_linear_431_591)"/>
<path d="M19.2156 17.2103L19.3932 17.3903C19.68 17.6788 20.0761 17.7637 20.2469 17.577L21.8347 15.971C22.0191 15.7843 22.4016 15.8658 22.6884 16.1544L22.866 16.3377C22.9522 16.4234 23.0227 16.5233 23.0743 16.6331L23.3577 15H17.7234L17.1667 18.2323L18.3619 17.0371C18.5463 16.8368 18.9288 16.9183 19.2156 17.2103Z" fill="url(#paint20_linear_431_591)"/>
<path d="M31.7068 30.2039C31.8196 30.1233 31.9564 30.0828 32.0952 30.089C32.234 30.0951 32.3666 30.1476 32.4717 30.2379L35.0089 27.6745L36.1734 20.6191H30.5595L28.8794 30.7336H28.7121L28.7906 30.8049L28.9682 30.9848C29.255 31.2734 29.337 31.6639 29.1526 31.8472L25.3964 35.6295H26.3218L31.7068 30.2039Z" fill="url(#paint21_linear_431_591)"/>
<path d="M26.3491 32.2241L27.8243 30.7336H27.1174L25.6798 32.1867C25.7705 32.2677 25.8862 32.3155 26.0079 32.3223C26.1295 32.329 26.2499 32.2944 26.3491 32.2241Z" fill="url(#paint22_linear_431_591)"/>
<path d="M21.6674 21.1895C21.6848 21.2617 21.6846 21.3369 21.6668 21.409C21.649 21.481 21.6141 21.5478 21.565 21.6037L19.9293 23.2572C19.7142 23.4745 19.8098 23.9363 20.1445 24.2758L20.1649 24.2928C20.3266 24.3546 20.4741 24.4481 20.5986 24.5678C20.6873 24.6077 20.7855 24.6222 20.882 24.6096C20.9786 24.597 21.0696 24.5578 21.145 24.4965L21.8279 23.8005L22.2001 21.6411L21.985 21.4204C21.8951 21.3238 21.7873 21.2454 21.6674 21.1895Z" fill="url(#paint23_linear_431_591)"/>
<path d="M21.6674 21.1895C21.6848 21.2617 21.6846 21.3369 21.6668 21.409C21.649 21.481 21.6141 21.5478 21.565 21.6037L19.9293 23.2572C19.7142 23.4745 19.8098 23.9363 20.1445 24.2758L20.1649 24.2928C20.3266 24.3546 20.4741 24.4481 20.5986 24.5678C20.6873 24.6077 20.7855 24.6222 20.882 24.6096C20.9786 24.597 21.0696 24.5578 21.145 24.4965L21.8279 23.8005L22.2001 21.6411L21.985 21.4204C21.8951 21.3238 21.7873 21.2454 21.6674 21.1895Z" fill="url(#paint24_linear_431_591)"/>
<path d="M32.4718 30.2379C32.3667 30.1476 32.234 30.0951 32.0952 30.0889C31.9565 30.0828 31.8197 30.1233 31.7069 30.2039L26.3354 35.6363H26.6291H27.1447L32.4718 30.2379Z" fill="url(#paint25_linear_431_591)"/>
<path d="M32.4718 30.2379C32.3667 30.1476 32.234 30.0951 32.0952 30.0889C31.9565 30.0828 31.8197 30.1233 31.7069 30.2039L26.3354 35.6363H26.6291H27.1447L32.4718 30.2379Z" fill="url(#paint26_linear_431_591)"/>
<path d="M18.5532 22.1911C18.5137 22.1116 18.4975 22.0225 18.5066 21.9343C18.5156 21.846 18.5495 21.762 18.6044 21.692L22.9582 17.2782L23.0743 16.6195C23.0227 16.5097 22.9522 16.4098 22.866 16.3241L22.6884 16.1544C22.4016 15.8658 22.0055 15.7843 21.8348 15.971L20.2469 17.577C20.0625 17.7637 19.68 17.6788 19.3932 17.3903L19.2156 17.2103C18.9288 16.9183 18.5327 16.8368 18.3619 17.0236L17.1668 18.2323L16.8834 19.8688C17.1471 19.8881 17.3925 20.0101 17.5663 20.2083C17.9078 20.5478 18 20.9994 17.7849 21.2269L16.395 22.6325L16.0297 24.7444L18.5532 22.1911Z" fill="url(#paint27_linear_431_591)"/>
<path d="M18.5532 22.1911C18.5137 22.1116 18.4975 22.0225 18.5066 21.9343C18.5156 21.846 18.5495 21.762 18.6044 21.692L22.9582 17.2782L23.0743 16.6195C23.0227 16.5097 22.9522 16.4098 22.866 16.3241L22.6884 16.1544C22.4016 15.8658 22.0055 15.7843 21.8348 15.971L20.2469 17.577C20.0625 17.7637 19.68 17.6788 19.3932 17.3903L19.2156 17.2103C18.9288 16.9183 18.5327 16.8368 18.3619 17.0236L17.1668 18.2323L16.8834 19.8688C17.1471 19.8881 17.3925 20.0101 17.5663 20.2083C17.9078 20.5478 18 20.9994 17.7849 21.2269L16.395 22.6325L16.0297 24.7444L18.5532 22.1911Z" fill="url(#paint28_linear_431_591)"/>
<path d="M28.9682 30.9848L28.7906 30.8049L28.7121 30.7336H27.8242L26.3491 32.2241C26.2487 32.2979 26.1255 32.3346 26.0008 32.3278C25.8761 32.321 25.7578 32.2711 25.6661 32.1867L25.2393 32.6179C25.188 32.678 25.1522 32.7496 25.1349 32.8265C25.1177 32.9034 25.1195 32.9833 25.1402 33.0593L25.1812 33.0967C25.347 33.252 25.4623 33.453 25.5125 33.6739C25.813 34.0134 25.8915 34.4242 25.6866 34.6347L24.8056 35.5345C24.778 35.5624 24.7549 35.5945 24.7373 35.6295H25.4203L29.1765 31.8472C29.337 31.6605 29.2448 31.2734 28.9682 30.9848Z" fill="url(#paint29_linear_431_591)"/>
<path d="M28.9682 30.9848L28.7906 30.8049L28.7121 30.7336H27.8242L26.3491 32.2241C26.2487 32.2979 26.1255 32.3346 26.0008 32.3278C25.8761 32.321 25.7578 32.2711 25.6661 32.1867L25.2393 32.6179C25.188 32.678 25.1522 32.7496 25.1349 32.8265C25.1177 32.9034 25.1195 32.9833 25.1402 33.0593L25.1812 33.0967C25.347 33.252 25.4623 33.453 25.5125 33.6739C25.813 34.0134 25.8915 34.4242 25.6866 34.6347L24.8056 35.5345C24.778 35.5624 24.7549 35.5945 24.7373 35.6295H25.4203L29.1765 31.8472C29.337 31.6605 29.2448 31.2734 28.9682 30.9848Z" fill="url(#paint30_linear_431_591)"/>
<path d="M17.58 20.2015C17.4062 20.0033 17.1608 19.8813 16.897 19.862L16.4224 22.6088L17.8122 21.2031C18.0136 20.9926 17.918 20.541 17.58 20.2015Z" fill="url(#paint31_linear_431_591)"/>
<path d="M17.58 20.2015C17.4062 20.0033 17.1608 19.8813 16.897 19.862L16.4224 22.6088L17.8122 21.2031C18.0136 20.9926 17.918 20.541 17.58 20.2015Z" fill="url(#paint32_linear_431_591)"/>
<path d="M17.58 20.2015C17.4062 20.0033 17.1608 19.8813 16.897 19.862L16.4224 22.6088L17.8122 21.2031C18.0136 20.9926 17.918 20.541 17.58 20.2015Z" fill="url(#paint33_linear_431_591)"/>
<path d="M20.5986 24.5576C20.4741 24.4379 20.3266 24.3444 20.1649 24.2826C20.287 24.4053 20.4352 24.4992 20.5986 24.5576Z" fill="url(#paint34_linear_431_591)"/>
<path d="M20.5986 24.5576C20.4741 24.4379 20.3266 24.3444 20.1649 24.2826C20.287 24.4053 20.4352 24.4992 20.5986 24.5576Z" fill="url(#paint35_linear_431_591)"/>
<path d="M20.5986 24.5576C20.4741 24.4379 20.3266 24.3444 20.1649 24.2826C20.287 24.4053 20.4352 24.4992 20.5986 24.5576Z" fill="url(#paint36_linear_431_591)"/>
<path d="M25.5125 33.6739C25.4667 33.4534 25.3562 33.2513 25.1949 33.0933L25.1471 33.0593C25.1998 33.2787 25.319 33.4766 25.4886 33.6263L25.5125 33.6739Z" fill="url(#paint37_linear_431_591)"/>
<path d="M25.5125 33.6739C25.4667 33.4534 25.3562 33.2513 25.1949 33.0933L25.1471 33.0593C25.1998 33.2787 25.319 33.4766 25.4886 33.6263L25.5125 33.6739Z" fill="url(#paint38_linear_431_591)"/>
<path d="M25.5125 33.6739C25.4667 33.4534 25.3562 33.2513 25.1949 33.0933L25.1471 33.0593C25.1998 33.2787 25.319 33.4766 25.4886 33.6263L25.5125 33.6739Z" fill="url(#paint39_linear_431_591)"/>
<path d="M54.8555 31.8201L54.4082 32.2716C54.6861 32.1028 54.9499 31.9121 55.197 31.7012C55.1348 31.6947 55.0719 31.702 55.0129 31.7226C54.9538 31.7431 54.9001 31.7764 54.8555 31.8201Z" fill="url(#paint40_linear_431_591)"/>
<path d="M48.791 33.0389L55.9312 25.824L54.7156 24.595L52.3901 26.9479C52.175 27.1652 51.7277 27.0667 51.3896 26.7272C51.0515 26.3877 50.9593 25.9361 51.1745 25.7086L51.2564 25.6271C51.4715 25.4064 51.3759 24.9481 51.0379 24.6085C50.6998 24.269 50.2559 24.174 50.0408 24.3912L49.9554 24.4761C50.2654 24.5373 50.547 24.697 50.7579 24.9311C50.9081 25.0839 50.9525 25.2706 50.8569 25.3827L50.0749 26.1568C50.3319 26.4178 50.5311 26.7293 50.6599 27.0713C50.7887 27.4134 50.8441 27.7784 50.8227 28.143C50.8566 28.8476 50.6443 29.5422 50.2217 30.1088C49.872 30.5701 49.3785 30.9032 48.8183 31.0561C48.4947 31.1291 48.1659 31.1768 47.8348 31.1987C48.1763 31.5382 48.2514 31.9796 48.0397 32.1935L47.8109 32.4244C47.8471 32.5049 47.8602 32.5939 47.8487 32.6813C47.8373 32.7688 47.8017 32.8514 47.746 32.9201L47.3431 33.3343C47.4026 33.4336 47.4311 33.5483 47.425 33.6637C47.419 33.7792 47.3786 33.8902 47.309 33.9828L47.0392 34.251C47.0658 34.2854 47.0943 34.3183 47.1246 34.3495C47.466 34.689 47.9065 34.7875 48.1251 34.5668L48.849 33.8334C48.7534 33.7255 48.696 33.5894 48.6855 33.4459C48.675 33.3024 48.7121 33.1595 48.791 33.0389Z" fill="url(#paint41_linear_431_591)"/>
<path d="M54.6507 45.9239C54.9808 45.5038 55.2777 45.0588 55.5385 44.593L54.8556 45.272C54.6814 45.452 54.316 45.3705 54.0428 45.0955L53.9404 44.9902C53.6672 44.7152 53.5989 44.3485 53.7628 44.1686L56.5254 41.3811C56.5833 40.6246 56.5466 39.8639 56.4161 39.1165C56.3358 38.6405 56.2216 38.1708 56.0746 37.7108C55.9902 37.7067 55.907 37.6884 55.8288 37.6565L54.3399 39.1606C54.176 39.327 53.8345 39.2523 53.575 38.9942L53.4145 38.8313C53.1584 38.5698 52.8135 38.4917 52.6496 38.6615L51.2222 40.1045C51.0549 40.2742 50.7134 40.1995 50.4573 39.9381L50.3139 39.7853C50.0544 39.5273 49.9724 39.181 50.1466 39.0112L54.1384 34.9675C54.1638 34.9437 54.1836 34.9147 54.1965 34.8826C53.8374 34.6153 53.4545 34.3811 53.0526 34.1832L51.8642 35.3715C51.7866 35.4286 51.6927 35.4594 51.5962 35.4594C51.4997 35.4594 51.4057 35.4286 51.3281 35.3715L49.7949 36.9231C49.7202 36.9845 49.6297 37.0238 49.5337 37.0364C49.4377 37.049 49.34 37.0344 49.2519 36.9944C49.5922 37.5431 49.7598 38.1804 49.7334 38.8245C49.7334 39.5035 49.7334 40.8854 48.1251 41.6289C48.1442 41.7026 48.1449 41.7798 48.127 41.8538C48.1091 41.9278 48.0733 41.9963 48.0226 42.0533L44.362 45.7542C44.1434 45.9715 44.2425 46.4332 44.5771 46.7727C44.9118 47.1123 45.3591 47.2073 45.5776 46.99L46.0421 46.5181C46.2606 46.2974 46.7079 46.3959 47.0426 46.7354C47.3772 47.0749 47.8246 47.1734 48.0431 46.9561L50.7578 44.1991C50.9764 43.9818 51.4408 44.0803 51.7584 44.4164C52.0998 44.756 52.192 45.2109 51.9735 45.435L50.1603 47.2549C49.9417 47.4722 50.0407 47.9339 50.3754 48.2734C50.4435 48.3428 50.5042 48.419 50.5564 48.5009C52.1699 48.1152 53.6096 47.209 54.6507 45.9239Z" fill="url(#paint42_linear_431_591)"/>
<path d="M43.7371 31.4466C44.0786 31.7861 44.5225 31.8846 44.7376 31.6639L45.1371 31.2632H43.5083C43.5915 31.3153 43.6683 31.3768 43.7371 31.4466Z" fill="url(#paint43_linear_431_591)"/>
<path d="M41.2818 26.2043L42.7502 24.7206C42.8008 24.6609 42.8349 24.5891 42.8493 24.5123C42.8636 24.4356 42.8577 24.3564 42.8321 24.2826C42.6694 24.3342 42.4947 24.3348 42.3317 24.2844C42.1686 24.234 42.025 24.135 41.9204 24.0008C41.8094 23.8904 41.7202 23.7603 41.6575 23.6171L40.633 24.6357L40.6808 24.6764C41.0223 25.016 41.1145 25.4675 40.8994 25.695L39.2637 27.3451C39.0452 27.5658 39.1442 28.0242 39.4789 28.3637C39.8135 28.7032 40.2608 28.8017 40.4794 28.581L41.7326 27.3146C41.6353 27.2613 41.5467 27.1938 41.4697 27.1142C41.1726 26.8188 41.0872 26.4148 41.2818 26.2043Z" fill="url(#paint44_linear_431_591)"/>
<path d="M37.8568 25.2638L41.1452 21.9399C41.3399 21.7464 41.2545 21.3389 40.9506 21.0334C40.9096 20.9926 40.8652 20.9553 40.8242 20.9213H39.9705L39.6291 21.2609C39.4344 21.4578 39.0349 21.3695 38.731 21.0673C38.6787 21.0122 38.6203 20.9632 38.5568 20.9213H37.7817L37.7578 20.9451L36.6719 27.5285L38.0378 26.1704C37.7475 25.8648 37.6656 25.4574 37.8568 25.2638Z" fill="url(#paint45_linear_431_591)"/>
<path d="M46.8854 34.9335L46.8513 34.8996C46.7751 34.8221 46.7107 34.7341 46.66 34.6381L45.6356 35.6567C46.1156 35.6719 46.5938 35.7219 47.0664 35.8061C47.261 35.616 47.1757 35.2255 46.8854 34.9335Z" fill="url(#paint46_linear_431_591)"/>
<path d="M42.1629 29.8882C42.0812 29.9498 41.9835 29.987 41.8813 29.9955C41.7791 30.0039 41.6766 29.9832 41.5858 29.9357L41.0565 30.4722C40.8414 30.6895 40.937 31.1512 41.2717 31.4907C41.6063 31.8303 42.057 31.9287 42.2722 31.7114L42.7059 31.2734H41.9375L42.1629 29.8882Z" fill="url(#paint47_linear_431_591)"/>
<path d="M42.7775 43.6559C43.119 43.9954 43.5595 44.0938 43.7746 43.8732L45.5196 42.111H44.1229L42.6921 43.5574C42.7195 43.5914 42.7468 43.6253 42.7775 43.6559Z" fill="url(#paint48_linear_431_591)"/>
<path d="M37.0988 40.6069C36.7573 40.2674 36.3134 40.1689 36.0983 40.3896L34.3909 42.0873L34.2714 43.0006C34.3541 43.0691 34.4574 43.1082 34.5649 43.1119C34.6725 43.1156 34.7783 43.0836 34.8655 43.021L35.4563 42.4234C35.6509 42.2265 36.0368 42.291 36.3578 42.5558L37.3071 41.6017C37.5359 41.398 37.4403 40.9465 37.0988 40.6069Z" fill="url(#paint49_linear_431_591)"/>
<path d="M47.5548 32.0136C47.4253 31.8856 47.3312 31.7265 47.2816 31.5518L46.8684 31.9762C46.6533 32.1935 46.7489 32.6553 47.0835 32.9948L47.1689 33.0933L47.8143 32.4414C47.7617 32.281 47.6729 32.1346 47.5548 32.0136Z" fill="url(#paint50_linear_431_591)"/>
<path d="M35.8115 44.5386L35.47 44.8782C35.3027 45.0513 35.3778 45.4078 35.6407 45.6726L35.6817 45.7134L35.9549 45.4384C36.1393 45.2652 36.0744 44.8782 35.8115 44.5386Z" fill="url(#paint51_linear_431_591)"/>
<path d="M51.8642 35.3715L53.0526 34.1696L52.6906 33.9998L51.3247 35.3579C51.4011 35.4178 51.495 35.4514 51.5922 35.4539C51.6894 35.4563 51.7849 35.4274 51.8642 35.3715Z" fill="url(#paint52_linear_431_591)"/>
<path d="M51.8642 35.3715L53.0526 34.1696L52.6906 33.9998L51.3247 35.3579C51.4011 35.4178 51.495 35.4514 51.5922 35.4539C51.6894 35.4563 51.7849 35.4274 51.8642 35.3715Z" fill="url(#paint53_linear_431_591)"/>
<path d="M39.6325 21.2609L39.974 20.9213H38.5603C38.6238 20.9632 38.6822 21.0122 38.7345 21.0673C39.0384 21.3695 39.4379 21.451 39.6325 21.2609Z" fill="url(#paint54_linear_431_591)"/>
<path d="M39.6325 21.2609L39.974 20.9213H38.5603C38.6238 20.9632 38.6822 21.0122 38.7345 21.0673C39.0384 21.3695 39.4379 21.451 39.6325 21.2609Z" fill="url(#paint55_linear_431_591)"/>
<path d="M48.5793 35.711L49.2246 35.0591C49.4398 34.8418 49.3442 34.38 49.0061 34.0405C48.9454 33.9752 48.8905 33.9048 48.8422 33.83L48.1183 34.5634C47.8997 34.7841 47.4353 34.6856 47.1177 34.3461C47.0875 34.3149 47.059 34.282 47.0324 34.2476L46.6602 34.6381C46.7108 34.734 46.7752 34.8221 46.8514 34.8995L46.8855 34.9335C47.1758 35.2255 47.2612 35.6125 47.0768 35.8094C47.587 35.8881 48.0781 36.0609 48.5246 36.3187C48.4745 36.2228 48.453 36.1146 48.4627 36.0069C48.4724 35.8993 48.5128 35.7966 48.5793 35.711Z" fill="url(#paint56_linear_431_591)"/>
<path d="M48.5793 35.711L49.2246 35.0591C49.4398 34.8418 49.3442 34.38 49.0061 34.0405C48.9454 33.9752 48.8905 33.9048 48.8422 33.83L48.1183 34.5634C47.8997 34.7841 47.4353 34.6856 47.1177 34.3461C47.0875 34.3149 47.059 34.282 47.0324 34.2476L46.6602 34.6381C46.7108 34.734 46.7752 34.8221 46.8514 34.8995L46.8855 34.9335C47.1758 35.2255 47.2612 35.6125 47.0768 35.8094C47.587 35.8881 48.0781 36.0609 48.5246 36.3187C48.4745 36.2228 48.453 36.1146 48.4627 36.0069C48.4724 35.8993 48.5128 35.7966 48.5793 35.711Z" fill="url(#paint57_linear_431_591)"/>
<path d="M50.1466 39.001C49.9827 39.1708 50.0544 39.5171 50.3139 39.7751L50.4744 39.9381C50.7305 40.1995 51.072 40.2776 51.2393 40.1045L52.6667 38.6615C52.8306 38.4951 53.1755 38.5698 53.4316 38.8313L53.5921 38.9942C53.8516 39.2523 54.1931 39.3338 54.357 39.1606L55.8458 37.6565C55.6919 37.5935 55.5525 37.4999 55.4361 37.3815C55.0946 37.042 55.0058 36.587 55.2209 36.3629L55.4019 36.1796C55.0823 35.6764 54.6739 35.2348 54.1965 34.8758C54.1836 34.908 54.1638 34.9369 54.1385 34.9607L50.1466 39.001Z" fill="url(#paint58_linear_431_591)"/>
<path d="M50.1466 39.001C49.9827 39.1708 50.0544 39.5171 50.3139 39.7751L50.4744 39.9381C50.7305 40.1995 51.072 40.2776 51.2393 40.1045L52.6667 38.6615C52.8306 38.4951 53.1755 38.5698 53.4316 38.8313L53.5921 38.9942C53.8516 39.2523 54.1931 39.3338 54.357 39.1606L55.8458 37.6565C55.6919 37.5935 55.5525 37.4999 55.4361 37.3815C55.0946 37.042 55.0058 36.587 55.2209 36.3629L55.4019 36.1796C55.0823 35.6764 54.6739 35.2348 54.1965 34.8758C54.1836 34.908 54.1638 34.9369 54.1385 34.9607L50.1466 39.001Z" fill="url(#paint59_linear_431_591)"/>
<path d="M47.8143 32.4244L48.0431 32.1935C48.2548 31.9796 48.1626 31.5349 47.8382 31.1987H47.6128L47.2714 31.5383C47.321 31.713 47.4151 31.872 47.5445 32C47.666 32.1191 47.7583 32.2643 47.8143 32.4244Z" fill="url(#paint60_linear_431_591)"/>
<path d="M47.8143 32.4244L48.0431 32.1935C48.2548 31.9796 48.1626 31.5349 47.8382 31.1987H47.6128L47.2714 31.5383C47.321 31.713 47.4151 31.872 47.5445 32C47.666 32.1191 47.7583 32.2643 47.8143 32.4244Z" fill="url(#paint61_linear_431_591)"/>
<path d="M41.1452 21.9399L37.8568 25.2639C37.6656 25.4574 37.7476 25.8512 38.0344 26.1534L39.6906 24.4829C39.8954 24.2724 40.312 24.3573 40.6399 24.6595L41.6643 23.6409C41.6097 23.5432 41.5849 23.4318 41.5928 23.3203C41.6006 23.2088 41.6409 23.102 41.7087 23.0128L43.7575 20.9315H40.8208C40.8618 20.9655 40.9062 21.0028 40.9472 21.0436C41.2545 21.3389 41.3399 21.7464 41.1452 21.9399Z" fill="url(#paint62_linear_431_591)"/>
<path d="M41.1452 21.9399L37.8568 25.2639C37.6656 25.4574 37.7476 25.8512 38.0344 26.1534L39.6906 24.4829C39.8954 24.2724 40.312 24.3573 40.6399 24.6595L41.6643 23.6409C41.6097 23.5432 41.5849 23.4318 41.5928 23.3203C41.6006 23.2088 41.6409 23.102 41.7087 23.0128L43.7575 20.9315H40.8208C40.8618 20.9655 40.9062 21.0028 40.9472 21.0436C41.2545 21.3389 41.3399 21.7464 41.1452 21.9399Z" fill="url(#paint63_linear_431_591)"/>
<path d="M37.7648 20.9213L37.7612 20.9497L37.786 20.9213H37.7648Z" fill="url(#paint64_linear_431_591)"/>
<path d="M37.7648 20.9213L37.7612 20.9497L37.786 20.9213H37.7648Z" fill="url(#paint65_linear_431_591)"/>
<path d="M53.9437 44.9902L54.0462 45.0954C54.3194 45.3705 54.6847 45.435 54.8589 45.272L55.5419 44.5929C56.1029 43.6062 56.443 42.5106 56.539 41.381L53.7764 44.1685C53.592 44.3485 53.6706 44.7152 53.9437 44.9902Z" fill="url(#paint66_linear_431_591)"/>
<path d="M53.9437 44.9902L54.0462 45.0954C54.3194 45.3705 54.6847 45.435 54.8589 45.272L55.5419 44.5929C56.1029 43.6062 56.443 42.5106 56.539 41.381L53.7764 44.1685C53.592 44.3485 53.6706 44.7152 53.9437 44.9902Z" fill="url(#paint67_linear_431_591)"/>
<path d="M42.8321 24.2962C42.8577 24.37 42.8636 24.4492 42.8493 24.5259C42.8349 24.6027 42.8008 24.6744 42.7502 24.7342L41.2818 26.2043C41.0872 26.4012 41.1726 26.8053 41.4765 27.1108C41.5535 27.1904 41.6421 27.2579 41.7394 27.3112L42.7638 26.2926L42.938 25.2468H44.3312L48.2582 21.2948C48.3033 21.2439 48.3365 21.1837 48.3554 21.1186C48.3743 21.0534 48.3784 20.9849 48.3675 20.9179H46.2025L42.9038 24.2317C42.8834 24.2567 42.8592 24.2785 42.8321 24.2962Z" fill="url(#paint68_linear_431_591)"/>
<path d="M42.8321 24.2962C42.8577 24.37 42.8636 24.4492 42.8493 24.5259C42.8349 24.6027 42.8008 24.6744 42.7502 24.7342L41.2818 26.2043C41.0872 26.4012 41.1726 26.8053 41.4765 27.1108C41.5535 27.1904 41.6421 27.2579 41.7394 27.3112L42.7638 26.2926L42.938 25.2468H44.3312L48.2582 21.2948C48.3033 21.2439 48.3365 21.1837 48.3554 21.1186C48.3743 21.0534 48.3784 20.9849 48.3675 20.9179H46.2025L42.9038 24.2317C42.8834 24.2567 42.8592 24.2785 42.8321 24.2962Z" fill="url(#paint69_linear_431_591)"/>
<path d="M45.4137 31.2633C45.8303 31.5043 46.2708 31.5247 46.5133 31.2802L46.5372 31.2565H45.9601L45.4137 31.2633Z" fill="url(#paint70_linear_431_591)"/>
<path d="M36.6856 43.6695C36.9008 43.4488 36.8051 42.9904 36.4671 42.6509L36.3715 42.566L35.511 43.4386C35.2958 43.6559 35.3914 44.1177 35.7295 44.4572C35.7586 44.4885 35.786 44.5213 35.8115 44.5557L36.6856 43.6695Z" fill="url(#paint71_linear_431_591)"/>
<path d="M36.6754 46.1344C36.508 46.3076 36.1529 46.2295 35.89 45.9613L35.6714 45.7406L33.6601 47.7777L33.4996 49.0068H37.3071L42.6922 43.5744C42.4292 43.2349 42.3507 42.858 42.559 42.6611L43.0849 42.1281H40.6536L36.6754 46.1344Z" fill="url(#paint72_linear_431_591)"/>
<path d="M37.2115 34.5396C36.87 34.2001 36.7778 33.7485 36.993 33.521L38.1915 32.3157C38.4067 32.0984 38.3111 31.6367 37.9764 31.2972C37.6418 30.9576 37.5427 30.5061 37.7579 30.2786L37.9593 30.0749C38.0515 29.9832 38.0106 29.7897 37.8671 29.6437L37.1842 28.9409C37.0408 28.7949 36.8427 28.7541 36.7573 28.8458L36.4159 29.1853L35.3368 35.6023H37.3856L37.4403 35.548C37.6418 35.3307 37.5461 34.8791 37.2115 34.5396Z" fill="url(#paint73_linear_431_591)"/>
<path d="M36.0539 38.1658C35.9789 38.089 35.9136 38.0035 35.8593 37.9111H34.9578L34.5651 40.8989L36.2724 39.1742C36.4842 38.9569 36.3885 38.5053 36.0539 38.1658Z" fill="url(#paint74_linear_431_591)"/>
<path d="M47.1689 33.0763L46.9026 33.3479C46.8433 33.4186 46.8044 33.5038 46.79 33.5947C46.7755 33.6856 46.7861 33.7786 46.8206 33.864L47.3431 33.3343C47.2962 33.2413 47.2377 33.1546 47.1689 33.0763Z" fill="url(#paint75_linear_431_591)"/>
<path d="M47.343 33.3344L46.8274 33.8572C46.8706 34.0013 46.9426 34.1353 47.0391 34.2511L47.3089 33.9828C47.3785 33.8902 47.4189 33.7792 47.425 33.6638C47.431 33.5483 47.4025 33.4337 47.343 33.3344Z" fill="url(#paint76_linear_431_591)"/>
<path d="M47.343 33.3344L46.8274 33.8572C46.8706 34.0013 46.9426 34.1353 47.0391 34.2511L47.3089 33.9828C47.3785 33.8902 47.4189 33.7792 47.425 33.6638C47.431 33.5483 47.4025 33.4337 47.343 33.3344Z" fill="url(#paint77_linear_431_591)"/>
<path d="M42.6922 43.5608L44.1229 42.1144H43.0985L42.5624 42.6475C42.3643 42.841 42.4292 43.2349 42.6922 43.5608Z" fill="url(#paint78_linear_431_591)"/>
<path d="M42.6922 43.5608L44.1229 42.1144H43.0985L42.5624 42.6475C42.3643 42.841 42.4292 43.2349 42.6922 43.5608Z" fill="url(#paint79_linear_431_591)"/>
<path d="M36.0539 38.1657C36.3953 38.5053 36.4841 38.9568 36.269 39.1843L34.5616 40.9091L34.4011 42.1144L36.1085 40.4168C36.3236 40.1961 36.771 40.2946 37.109 40.6341C37.4505 40.9736 37.5393 41.4252 37.3242 41.6527L36.3749 42.6067L36.4705 42.6916C36.8119 43.0311 36.9041 43.4827 36.689 43.7102L35.8114 44.5386C36.0778 44.8612 36.1529 45.2516 35.9446 45.4519L35.6714 45.727L35.89 45.9477C36.1529 46.2159 36.508 46.2872 36.6754 46.1208L40.6536 42.1008H40.1448L40.8277 37.8975H35.8592C35.9126 37.9946 35.978 38.0848 36.0539 38.1657Z" fill="url(#paint80_linear_431_591)"/>
<path d="M36.0539 38.1657C36.3953 38.5053 36.4841 38.9568 36.269 39.1843L34.5616 40.9091L34.4011 42.1144L36.1085 40.4168C36.3236 40.1961 36.771 40.2946 37.109 40.6341C37.4505 40.9736 37.5393 41.4252 37.3242 41.6527L36.3749 42.6067L36.4705 42.6916C36.8119 43.0311 36.9041 43.4827 36.689 43.7102L35.8114 44.5386C36.0778 44.8612 36.1529 45.2516 35.9446 45.4519L35.6714 45.727L35.89 45.9477C36.1529 46.2159 36.508 46.2872 36.6754 46.1208L40.6536 42.1008H40.1448L40.8277 37.8975H35.8592C35.9126 37.9946 35.978 38.0848 36.0539 38.1657Z" fill="url(#paint81_linear_431_591)"/>
<path d="M46.6601 34.0134L46.8172 33.8572C46.7827 33.7718 46.7721 33.6788 46.7866 33.5879C46.801 33.497 46.8399 33.4117 46.8992 33.3411L47.1655 33.0695L47.0802 32.971C46.7387 32.6315 46.6499 32.1799 46.865 31.9524L47.2782 31.5348C47.2472 31.4318 47.2472 31.3221 47.2782 31.2191C47.0506 31.2191 46.8013 31.2259 46.5304 31.2394L46.5065 31.2632C46.264 31.5077 45.8235 31.4873 45.4069 31.2462H45.1303L44.7308 31.6469C44.5157 31.8676 44.0683 31.7691 43.7303 31.4296C43.6615 31.3598 43.5847 31.2983 43.5015 31.2462H42.699L42.2653 31.6842C42.0502 31.9015 41.6029 31.803 41.2648 31.4635C40.9268 31.124 40.8346 30.6724 41.0497 30.4449L41.5858 29.9391C41.4289 29.8762 41.287 29.7813 41.1692 29.6606C40.8277 29.3211 40.7355 28.8628 40.9541 28.6421L42.1697 27.4198C42.0199 27.4322 41.8699 27.3991 41.7395 27.3247L40.4862 28.581C40.2677 28.8016 39.8033 28.7032 39.4857 28.3637C39.1681 28.0241 39.052 27.5726 39.2706 27.3451L40.9063 25.695C41.1214 25.4743 41.0258 25.0159 40.6877 24.6764L40.6399 24.6357L38.9325 26.3333C38.7379 26.5302 38.3349 26.442 38.0344 26.1398L38.0174 26.1194L36.6515 27.4775L36.3715 29.1751L36.7129 28.8356C36.8051 28.7439 36.9964 28.7847 37.1398 28.9307L37.8227 29.6335C37.9662 29.7795 38.0071 29.973 37.9149 30.0647L37.7135 30.2684C37.4983 30.4891 37.5939 30.9474 37.932 31.287C38.2701 31.6265 38.3623 32.0781 38.1471 32.3055L36.9486 33.5176C36.7334 33.7349 36.829 34.1967 37.1671 34.5362C37.5052 34.8757 37.5974 35.3273 37.3822 35.5548L37.3276 35.6091H43.0063L45.0552 35.6567C45.2419 35.6567 45.4229 35.6567 45.5981 35.6567L46.6226 34.6381C46.5618 34.5433 46.5327 34.4319 46.5394 34.3197C46.5462 34.2075 46.5884 34.1002 46.6601 34.0134Z" fill="url(#paint82_linear_431_591)"/>
<path d="M46.6601 34.0134L46.8172 33.8572C46.7827 33.7718 46.7721 33.6788 46.7866 33.5879C46.801 33.497 46.8399 33.4117 46.8992 33.3411L47.1655 33.0695L47.0802 32.971C46.7387 32.6315 46.6499 32.1799 46.865 31.9524L47.2782 31.5348C47.2472 31.4318 47.2472 31.3221 47.2782 31.2191C47.0506 31.2191 46.8013 31.2259 46.5304 31.2394L46.5065 31.2632C46.264 31.5077 45.8235 31.4873 45.4069 31.2462H45.1303L44.7308 31.6469C44.5157 31.8676 44.0683 31.7691 43.7303 31.4296C43.6615 31.3598 43.5847 31.2983 43.5015 31.2462H42.699L42.2653 31.6842C42.0502 31.9015 41.6029 31.803 41.2648 31.4635C40.9268 31.124 40.8346 30.6724 41.0497 30.4449L41.5858 29.9391C41.4289 29.8762 41.287 29.7813 41.1692 29.6606C40.8277 29.3211 40.7355 28.8628 40.9541 28.6421L42.1697 27.4198C42.0199 27.4322 41.8699 27.3991 41.7395 27.3247L40.4862 28.581C40.2677 28.8016 39.8033 28.7032 39.4857 28.3637C39.1681 28.0241 39.052 27.5726 39.2706 27.3451L40.9063 25.695C41.1214 25.4743 41.0258 25.0159 40.6877 24.6764L40.6399 24.6357L38.9325 26.3333C38.7379 26.5302 38.3349 26.442 38.0344 26.1398L38.0174 26.1194L36.6515 27.4775L36.3715 29.1751L36.7129 28.8356C36.8051 28.7439 36.9964 28.7847 37.1398 28.9307L37.8227 29.6335C37.9662 29.7795 38.0071 29.973 37.9149 30.0647L37.7135 30.2684C37.4983 30.4891 37.5939 30.9474 37.932 31.287C38.2701 31.6265 38.3623 32.0781 38.1471 32.3055L36.9486 33.5176C36.7334 33.7349 36.829 34.1967 37.1671 34.5362C37.5052 34.8757 37.5974 35.3273 37.3822 35.5548L37.3276 35.6091H43.0063L45.0552 35.6567C45.2419 35.6567 45.4229 35.6567 45.5981 35.6567L46.6226 34.6381C46.5618 34.5433 46.5327 34.4319 46.5394 34.3197C46.5462 34.2075 46.5884 34.1002 46.6601 34.0134Z" fill="url(#paint83_linear_431_591)"/>
<path d="M47.285 31.236C47.254 31.339 47.254 31.4488 47.285 31.5518L47.6265 31.2123L47.285 31.236Z" fill="url(#paint84_linear_431_591)"/>
<path d="M47.285 31.236C47.254 31.339 47.254 31.4488 47.285 31.5518L47.6265 31.2123L47.285 31.236Z" fill="url(#paint85_linear_431_591)"/>
<path d="M47.285 31.236C47.254 31.339 47.254 31.4488 47.285 31.5518L47.6265 31.2123L47.285 31.236Z" fill="url(#paint86_linear_431_591)"/>
<path d="M42.757 26.296L41.7325 27.3145C41.8629 27.3889 42.013 27.422 42.1628 27.4096L42.6443 26.9207L42.757 26.296Z" fill="url(#paint87_linear_431_591)"/>
<path d="M42.757 26.296L41.7325 27.3145C41.8629 27.3889 42.013 27.422 42.1628 27.4096L42.6443 26.9207L42.757 26.296Z" fill="url(#paint88_linear_431_591)"/>
<path d="M42.757 26.296L41.7325 27.3145C41.8629 27.3889 42.013 27.422 42.1628 27.4096L42.6443 26.9207L42.757 26.296Z" fill="url(#paint89_linear_431_591)"/>
<path d="M39.6906 24.4829L38.0344 26.1534L38.0515 26.1737C38.352 26.4759 38.7549 26.5642 38.9496 26.3673L40.657 24.6697C40.3121 24.3573 39.8955 24.2724 39.6906 24.4829Z" fill="url(#paint90_linear_431_591)"/>
<path d="M39.6906 24.4829L38.0344 26.1534L38.0515 26.1737C38.352 26.4759 38.7549 26.5642 38.9496 26.3673L40.657 24.6697C40.3121 24.3573 39.8955 24.2724 39.6906 24.4829Z" fill="url(#paint91_linear_431_591)"/>
<path d="M39.6906 24.4829L38.0344 26.1534L38.0515 26.1737C38.352 26.4759 38.7549 26.5642 38.9496 26.3673L40.657 24.6697C40.3121 24.3573 39.8955 24.2724 39.6906 24.4829Z" fill="url(#paint92_linear_431_591)"/>
<path d="M46.6602 34.0134C46.5956 34.1036 46.5609 34.2116 46.5609 34.3223C46.5609 34.4331 46.5956 34.5411 46.6602 34.6313L47.0324 34.251C46.9358 34.1353 46.8638 34.0013 46.8206 33.8572L46.6602 34.0134Z" fill="url(#paint93_linear_431_591)"/>
<path d="M46.6602 34.0134C46.5956 34.1036 46.5609 34.2116 46.5609 34.3223C46.5609 34.4331 46.5956 34.5411 46.6602 34.6313L47.0324 34.251C46.9358 34.1353 46.8638 34.0013 46.8206 33.8572L46.6602 34.0134Z" fill="url(#paint94_linear_431_591)"/>
<path d="M46.6602 34.0134C46.5956 34.1036 46.5609 34.2116 46.5609 34.3223C46.5609 34.4331 46.5956 34.5411 46.6602 34.6313L47.0324 34.251C46.9358 34.1353 46.8638 34.0013 46.8206 33.8572L46.6602 34.0134Z" fill="url(#paint95_linear_431_591)"/>
<path d="M48.9445 25.5252L49.969 24.5067C49.8715 24.4841 49.77 24.4853 49.6731 24.5101C49.5762 24.535 49.4867 24.5827 49.4124 24.6493L49.1324 24.9311C48.9377 25.128 48.5382 25.0397 48.2343 24.7342L48.1967 24.6934L47.6094 25.2876C48.0625 25.3127 48.5108 25.3925 48.9445 25.5252Z" fill="url(#paint96_linear_431_591)"/>
<path d="M48.5655 23.0637L48.6612 23.1724L49.0504 22.7785C49.2451 22.585 49.1597 22.1776 48.8558 21.872C48.8019 21.8159 48.7411 21.7669 48.6748 21.726L48.3333 22.0655C48.1353 22.2726 48.2309 22.7242 48.5655 23.0637Z" fill="url(#paint97_linear_431_591)"/>
<path d="M48.8558 21.872C49.1597 22.1775 49.2451 22.585 49.0505 22.7785L48.6612 23.1723C48.9173 23.4949 48.9753 23.8786 48.7841 24.0755L48.1831 24.6798L48.2207 24.7206C48.5246 25.0261 48.9241 25.1144 49.1187 24.9175L49.3988 24.6357C49.4731 24.5691 49.5626 24.5214 49.6595 24.4966C49.7564 24.4717 49.8579 24.4706 49.9554 24.4931L50.0407 24.4082C50.2559 24.1909 50.7032 24.286 51.0378 24.6255C51.3725 24.965 51.4715 25.4166 51.2564 25.6441L51.1744 25.7256C50.9593 25.9429 51.0549 26.4046 51.3896 26.7441C51.7242 27.0837 52.175 27.1821 52.3901 26.9648L54.7155 24.6119L55.9312 25.841L48.7909 33.0389C48.7095 33.1594 48.6703 33.3033 48.6796 33.4482C48.6888 33.5931 48.746 33.7309 48.8422 33.8402L54.3365 28.289C54.5516 28.0717 54.999 28.1701 55.337 28.5097C55.6751 28.8492 55.7673 29.3008 55.5522 29.5282L53.9165 31.1817C53.7014 31.399 53.797 31.8608 54.1316 32.2003C54.1892 32.257 54.2521 32.3082 54.3194 32.3531L54.415 32.292L54.8556 31.82C54.9001 31.7764 54.9538 31.7431 55.0129 31.7225C55.0719 31.702 55.1348 31.6947 55.197 31.7012C56.4013 30.6464 57.0046 29.1966 57.0069 27.3519C57.0214 26.1941 56.7306 25.0528 56.1634 24.0415C55.5957 23.0403 54.7344 22.2349 53.6945 21.7328C52.7282 21.2506 51.3042 20.9858 49.4671 20.9349L48.6817 21.726C48.7456 21.7673 48.8041 21.8163 48.8558 21.872Z" fill="url(#paint98_linear_431_591)"/>
<path d="M48.8558 21.872C49.1597 22.1775 49.2451 22.585 49.0505 22.7785L48.6612 23.1723C48.9173 23.4949 48.9753 23.8786 48.7841 24.0755L48.1831 24.6798L48.2207 24.7206C48.5246 25.0261 48.9241 25.1144 49.1187 24.9175L49.3988 24.6357C49.4731 24.5691 49.5626 24.5214 49.6595 24.4966C49.7564 24.4717 49.8579 24.4706 49.9554 24.4931L50.0407 24.4082C50.2559 24.1909 50.7032 24.286 51.0378 24.6255C51.3725 24.965 51.4715 25.4166 51.2564 25.6441L51.1744 25.7256C50.9593 25.9429 51.0549 26.4046 51.3896 26.7441C51.7242 27.0837 52.175 27.1821 52.3901 26.9648L54.7155 24.6119L55.9312 25.841L48.7909 33.0389C48.7095 33.1594 48.6703 33.3033 48.6796 33.4482C48.6888 33.5931 48.746 33.7309 48.8422 33.8402L54.3365 28.289C54.5516 28.0717 54.999 28.1701 55.337 28.5097C55.6751 28.8492 55.7673 29.3008 55.5522 29.5282L53.9165 31.1817C53.7014 31.399 53.797 31.8608 54.1316 32.2003C54.1892 32.257 54.2521 32.3082 54.3194 32.3531L54.415 32.292L54.8556 31.82C54.9001 31.7764 54.9538 31.7431 55.0129 31.7225C55.0719 31.702 55.1348 31.6947 55.197 31.7012C56.4013 30.6464 57.0046 29.1966 57.0069 27.3519C57.0214 26.1941 56.7306 25.0528 56.1634 24.0415C55.5957 23.0403 54.7344 22.2349 53.6945 21.7328C52.7282 21.2506 51.3042 20.9858 49.4671 20.9349L48.6817 21.726C48.7456 21.7673 48.8041 21.8163 48.8558 21.872Z" fill="url(#paint99_linear_431_591)"/>
<path d="M47.5958 25.274L48.1831 24.6798C47.9168 24.381 47.8416 24.0008 48.026 23.814L48.6612 23.1723L48.5656 23.0637C48.2241 22.7242 48.1353 22.2726 48.3504 22.0451L48.6919 21.7056C48.5967 21.6174 48.4739 21.5642 48.3441 21.555C48.2143 21.5457 48.0852 21.5809 47.9782 21.6547L44.4235 25.2502H46.9709C47.1894 25.2502 47.3977 25.2604 47.5958 25.274Z" fill="url(#paint100_linear_431_591)"/>
<path d="M47.5958 25.274L48.1831 24.6798C47.9168 24.381 47.8416 24.0008 48.026 23.814L48.6612 23.1723L48.5656 23.0637C48.2241 22.7242 48.1353 22.2726 48.3504 22.0451L48.6919 21.7056C48.5967 21.6174 48.4739 21.5642 48.3441 21.555C48.2143 21.5457 48.0852 21.5809 47.9782 21.6547L44.4235 25.2502H46.9709C47.1894 25.2502 47.3977 25.2604 47.5958 25.274Z" fill="url(#paint101_linear_431_591)"/>
<path d="M56.0917 37.7108L56.02 37.4833L55.8458 37.6565C55.9241 37.6884 56.0072 37.7067 56.0917 37.7108Z" fill="url(#paint102_linear_431_591)"/>
<path d="M56.0917 37.7108L56.02 37.4833L55.8458 37.6565C55.9241 37.6884 56.0072 37.7067 56.0917 37.7108Z" fill="url(#paint103_linear_431_591)"/>
<path d="M41.9204 24.0144C42.025 24.1486 42.1686 24.2476 42.3317 24.298C42.4947 24.3484 42.6695 24.3478 42.8322 24.2962C42.7847 24.1193 42.6918 23.9578 42.5624 23.8276C42.2619 23.5221 41.8589 23.4338 41.6643 23.6307C41.727 23.7739 41.8162 23.904 41.9272 24.0144H41.9204Z" fill="url(#paint104_linear_431_591)"/>
<path d="M41.9204 24.0144C42.025 24.1486 42.1686 24.2476 42.3317 24.298C42.4947 24.3484 42.6695 24.3478 42.8322 24.2962C42.7847 24.1193 42.6918 23.9578 42.5624 23.8276C42.2619 23.5221 41.8589 23.4338 41.6643 23.6307C41.727 23.7739 41.8162 23.904 41.9272 24.0144H41.9204Z" fill="url(#paint105_linear_431_591)"/>
<path d="M49.7948 36.9401L51.3281 35.3885C51.2436 35.3437 51.1665 35.2864 51.0993 35.2187L50.471 34.5838L48.668 36.407C48.8984 36.571 49.0964 36.7759 49.2519 37.0114C49.34 37.0514 49.4377 37.066 49.5337 37.0533C49.6297 37.0407 49.7202 37.0015 49.7948 36.9401Z" fill="url(#paint106_linear_431_591)"/>
<path d="M49.7948 36.9401L51.3281 35.3885C51.2436 35.3437 51.1665 35.2864 51.0993 35.2187L50.471 34.5838L48.668 36.407C48.8984 36.571 49.0964 36.7759 49.2519 37.0114C49.34 37.0514 49.4377 37.066 49.5337 37.0533C49.6297 37.0407 49.7202 37.0015 49.7948 36.9401Z" fill="url(#paint107_linear_431_591)"/>
<path d="M42.1629 29.8882L42.2688 29.2465L41.5858 29.9255C41.6757 29.9744 41.7776 29.9968 41.8798 29.9902C41.982 29.9836 42.0802 29.9482 42.1629 29.8882Z" fill="url(#paint108_linear_431_591)"/>
<path d="M42.1629 29.8882L42.2688 29.2465L41.5858 29.9255C41.6757 29.9744 41.7776 29.9968 41.8798 29.9902C41.982 29.9836 42.0802 29.9482 42.1629 29.8882Z" fill="url(#paint109_linear_431_591)"/>
<path d="M55.4361 37.3815C55.5525 37.4999 55.6919 37.5934 55.8458 37.6565L56.02 37.4833C55.8665 37.0281 55.659 36.5927 55.4019 36.1863L55.221 36.3697C55.0058 36.587 55.1014 37.0419 55.4361 37.3815Z" fill="url(#paint110_linear_431_591)"/>
<path d="M55.4361 37.3815C55.5525 37.4999 55.6919 37.5934 55.8458 37.6565L56.02 37.4833C55.8665 37.0281 55.659 36.5927 55.4019 36.1863L55.221 36.3697C55.0058 36.587 55.1014 37.0419 55.4361 37.3815Z" fill="url(#paint111_linear_431_591)"/>
<path d="M55.4361 37.3815C55.5525 37.4999 55.6919 37.5934 55.8458 37.6565L56.02 37.4833C55.8665 37.0281 55.659 36.5927 55.4019 36.1863L55.221 36.3697C55.0058 36.587 55.1014 37.0419 55.4361 37.3815Z" fill="url(#paint112_linear_431_591)"/>
<path d="M51.0992 35.2187C51.1665 35.2864 51.2436 35.3436 51.328 35.3884L52.6939 34.0303C52.2534 33.8334 51.7788 33.6501 51.2597 33.4701C52.3413 33.2751 53.381 32.896 54.333 32.3497C54.2657 32.3048 54.2028 32.2536 54.1452 32.1969C53.8037 31.8574 53.7149 31.4058 53.9301 31.1783L55.5384 29.5181C55.7536 29.3008 55.6579 28.839 55.3233 28.4995C54.9886 28.16 54.5379 28.0615 54.3228 28.2788L48.8421 33.8402C48.8904 33.915 48.9453 33.9854 49.006 34.0507C49.3475 34.3902 49.4397 34.8418 49.2245 35.0693L48.5791 35.711C48.5127 35.7966 48.4723 35.8993 48.4626 36.0069C48.4529 36.1146 48.4744 36.2228 48.5245 36.3187C48.5694 36.342 48.6127 36.3681 48.6543 36.3968L50.4573 34.5736L51.0992 35.2187Z" fill="url(#paint113_linear_431_591)"/>
<path d="M51.0992 35.2187C51.1665 35.2864 51.2436 35.3436 51.328 35.3884L52.6939 34.0303C52.2534 33.8334 51.7788 33.6501 51.2597 33.4701C52.3413 33.2751 53.381 32.896 54.333 32.3497C54.2657 32.3048 54.2028 32.2536 54.1452 32.1969C53.8037 31.8574 53.7149 31.4058 53.9301 31.1783L55.5384 29.5181C55.7536 29.3008 55.6579 28.839 55.3233 28.4995C54.9886 28.16 54.5379 28.0615 54.3228 28.2788L48.8421 33.8402C48.8904 33.915 48.9453 33.9854 49.006 34.0507C49.3475 34.3902 49.4397 34.8418 49.2245 35.0693L48.5791 35.711C48.5127 35.7966 48.4723 35.8993 48.4626 36.0069C48.4529 36.1146 48.4744 36.2228 48.5245 36.3187C48.5694 36.342 48.6127 36.3681 48.6543 36.3968L50.4573 34.5736L51.0992 35.2187Z" fill="url(#paint114_linear_431_591)"/>
<path d="M51.0992 35.2187C51.1665 35.2864 51.2436 35.3436 51.328 35.3884L52.6939 34.0303C52.2534 33.8334 51.7788 33.6501 51.2597 33.4701C52.3413 33.2751 53.381 32.896 54.333 32.3497C54.2657 32.3048 54.2028 32.2536 54.1452 32.1969C53.8037 31.8574 53.7149 31.4058 53.9301 31.1783L55.5384 29.5181C55.7536 29.3008 55.6579 28.839 55.3233 28.4995C54.9886 28.16 54.5379 28.0615 54.3228 28.2788L48.8421 33.8402C48.8904 33.915 48.9453 33.9854 49.006 34.0507C49.3475 34.3902 49.4397 34.8418 49.2245 35.0693L48.5791 35.711C48.5127 35.7966 48.4723 35.8993 48.4626 36.0069C48.4529 36.1146 48.4744 36.2228 48.5245 36.3187C48.5694 36.342 48.6127 36.3681 48.6543 36.3968L50.4573 34.5736L51.0992 35.2187Z" fill="url(#paint115_linear_431_591)"/>
<path d="M48.1831 24.6799L48.7841 24.0755C48.9753 23.8786 48.9173 23.4949 48.6611 23.1724L48.026 23.8276C47.8416 24.0008 47.9167 24.3811 48.1831 24.6799Z" fill="url(#paint116_linear_431_591)"/>
<path d="M48.1831 24.6799L48.7841 24.0755C48.9753 23.8786 48.9173 23.4949 48.6611 23.1724L48.026 23.8276C47.8416 24.0008 47.9167 24.3811 48.1831 24.6799Z" fill="url(#paint117_linear_431_591)"/>
<path d="M48.1831 24.6799L48.7841 24.0755C48.9753 23.8786 48.9173 23.4949 48.6611 23.1724L48.026 23.8276C47.8416 24.0008 47.9167 24.3811 48.1831 24.6799Z" fill="url(#paint118_linear_431_591)"/>
<path d="M41.6575 23.6307C41.8521 23.4338 42.255 23.5221 42.5555 23.8277C42.6874 23.9571 42.7828 24.1186 42.8321 24.2962C42.8641 24.2797 42.893 24.2579 42.9175 24.2317L46.1957 20.9213H43.761L41.7121 23.0026C41.6427 23.0908 41.6006 23.1971 41.5909 23.3086C41.5812 23.4201 41.6043 23.532 41.6575 23.6307Z" fill="url(#paint119_linear_431_591)"/>
<path d="M41.6575 23.6307C41.8521 23.4338 42.255 23.5221 42.5555 23.8277C42.6874 23.9571 42.7828 24.1186 42.8321 24.2962C42.8641 24.2797 42.893 24.2579 42.9175 24.2317L46.1957 20.9213H43.761L41.7121 23.0026C41.6427 23.0908 41.6006 23.1971 41.5909 23.3086C41.5812 23.4201 41.6043 23.532 41.6575 23.6307Z" fill="url(#paint120_linear_431_591)"/>
<path d="M41.6575 23.6307C41.8521 23.4338 42.255 23.5221 42.5555 23.8277C42.6874 23.9571 42.7828 24.1186 42.8321 24.2962C42.8641 24.2797 42.893 24.2579 42.9175 24.2317L46.1957 20.9213H43.761L41.7121 23.0026C41.6427 23.0908 41.6006 23.1971 41.5909 23.3086C41.5812 23.4201 41.6043 23.532 41.6575 23.6307Z" fill="url(#paint121_linear_431_591)"/>
<path d="M48.2514 21.2982L44.3245 25.2502H44.4235L47.9612 21.675C48.0681 21.6013 48.1972 21.5661 48.3271 21.5754C48.4569 21.5846 48.5796 21.6378 48.6749 21.726L49.4603 20.9349C49.2349 20.9349 49.0061 20.9349 48.7773 20.9349H48.3675C48.3755 21.0002 48.3693 21.0664 48.3493 21.1291C48.3292 21.1918 48.2959 21.2494 48.2514 21.2982Z" fill="url(#paint122_linear_431_591)"/>
<path d="M48.2514 21.2982L44.3245 25.2502H44.4235L47.9612 21.675C48.0681 21.6013 48.1972 21.5661 48.3271 21.5754C48.4569 21.5846 48.5796 21.6378 48.6749 21.726L49.4603 20.9349C49.2349 20.9349 49.0061 20.9349 48.7773 20.9349H48.3675C48.3755 21.0002 48.3693 21.0664 48.3493 21.1291C48.3292 21.1918 48.2959 21.2494 48.2514 21.2982Z" fill="url(#paint123_linear_431_591)"/>
<path d="M48.2514 21.2982L44.3245 25.2502H44.4235L47.9612 21.675C48.0681 21.6013 48.1972 21.5661 48.3271 21.5754C48.4569 21.5846 48.5796 21.6378 48.6749 21.726L49.4603 20.9349C49.2349 20.9349 49.0061 20.9349 48.7773 20.9349H48.3675C48.3755 21.0002 48.3693 21.0664 48.3493 21.1291C48.3292 21.1918 48.2959 21.2494 48.2514 21.2982Z" fill="url(#paint124_linear_431_591)"/>
<path d="M42.6307 27.0599L42.3746 27.3214C42.3183 27.3747 42.2466 27.4091 42.1697 27.4198L40.954 28.6421C40.7355 28.8594 40.8311 29.3212 41.1692 29.6607C41.287 29.7814 41.4289 29.8762 41.5858 29.9391L42.2687 29.2601L42.6307 27.0599Z" fill="url(#paint125_linear_431_591)"/>
<path d="M42.6307 27.0599L42.3746 27.3214C42.3183 27.3747 42.2466 27.4091 42.1697 27.4198L40.954 28.6421C40.7355 28.8594 40.8311 29.3212 41.1692 29.6607C41.287 29.7814 41.4289 29.8762 41.5858 29.9391L42.2687 29.2601L42.6307 27.0599Z" fill="url(#paint126_linear_431_591)"/>
<path d="M42.6307 27.0599L42.3746 27.3214C42.3183 27.3747 42.2466 27.4091 42.1697 27.4198L40.954 28.6421C40.7355 28.8594 40.8311 29.3212 41.1692 29.6607C41.287 29.7814 41.4289 29.8762 41.5858 29.9391L42.2687 29.2601L42.6307 27.0599Z" fill="url(#paint127_linear_431_591)"/>
<path d="M42.6307 27.0599L42.6512 26.9309L42.1697 27.4198C42.2466 27.4091 42.3183 27.3746 42.3746 27.3214L42.6307 27.0599Z" fill="url(#paint128_linear_431_591)"/>
<path d="M42.6307 27.0599L42.6512 26.9309L42.1697 27.4198C42.2466 27.4091 42.3183 27.3746 42.3746 27.3214L42.6307 27.0599Z" fill="url(#paint129_linear_431_591)"/>
<path d="M42.6307 27.0599L42.6512 26.9309L42.1697 27.4198C42.2466 27.4091 42.3183 27.3746 42.3746 27.3214L42.6307 27.0599Z" fill="url(#paint130_linear_431_591)"/>
<path d="M42.6307 27.0599L42.6512 26.9309L42.1697 27.4198C42.2466 27.4091 42.3183 27.3746 42.3746 27.3214L42.6307 27.0599Z" fill="url(#paint131_linear_431_591)"/>
</g>
<defs>
<linearGradient id="paint0_linear_431_591" x1="-6.44969" y1="21.7294" x2="34.8535" y2="45.0941" gradientUnits="userSpaceOnUse">
<stop stop-color="#10202E"/>
<stop offset="1" stop-color="#235F8D"/>
</linearGradient>
<linearGradient id="paint1_linear_431_591" x1="-1.81247" y1="13.5027" x2="39.4873" y2="36.8707" gradientUnits="userSpaceOnUse">
<stop stop-color="#10202E"/>
<stop offset="1" stop-color="#235F8D"/>
</linearGradient>
<linearGradient id="paint2_linear_431_591" x1="-4.99506" y1="19.1286" x2="36.3047" y2="42.4933" gradientUnits="userSpaceOnUse">
<stop stop-color="#10202E"/>
<stop offset="1" stop-color="#235F8D"/>
</linearGradient>
<linearGradient id="paint3_linear_431_591" x1="-2.22217" y1="14.2293" x2="39.0776" y2="37.5939" gradientUnits="userSpaceOnUse">
<stop stop-color="#10202E"/>
<stop offset="1" stop-color="#235F8D"/>
</linearGradient>
<linearGradient id="paint4_linear_431_591" x1="-2.56024" y1="14.8268" x2="38.7396" y2="38.1915" gradientUnits="userSpaceOnUse">
<stop stop-color="#10202E"/>
<stop offset="1" stop-color="#235F8D"/>
</linearGradient>
<linearGradient id="paint5_linear_431_591" x1="-1.28657" y1="12.5758" x2="40.0132" y2="35.9405" gradientUnits="userSpaceOnUse">
<stop stop-color="#10202E"/>
<stop offset="1" stop-color="#235F8D"/>
</linearGradient>
<linearGradient id="paint6_linear_431_591" x1="-10.8992" y1="29.569" x2="30.4006" y2="52.9337" gradientUnits="userSpaceOnUse">
<stop stop-color="#10202E"/>
<stop offset="1" stop-color="#235F8D"/>
</linearGradient>
<linearGradient id="paint7_linear_431_591" x1="1.02525" y1="33.9251" x2="42.325" y2="57.2898" gradientUnits="userSpaceOnUse">
<stop stop-color="#10202E"/>
<stop offset="1" stop-color="#235F8D"/>
</linearGradient>
<linearGradient id="paint8_linear_431_591" x1="3.42238" y1="29.6878" x2="44.7222" y2="53.0525" gradientUnits="userSpaceOnUse">
<stop stop-color="#10202E"/>
<stop offset="1" stop-color="#235F8D"/>
</linearGradient>
<linearGradient id="paint9_linear_431_591" x1="7.17517" y1="23.0501" x2="48.4784" y2="46.4182" gradientUnits="userSpaceOnUse">
<stop stop-color="#10202E"/>
<stop offset="1" stop-color="#235F8D"/>
</linearGradient>
<linearGradient id="paint10_linear_431_591" x1="8.31576" y1="21.0401" x2="49.6155" y2="44.4047" gradientUnits="userSpaceOnUse">
<stop stop-color="#10202E"/>
<stop offset="1" stop-color="#235F8D"/>
</linearGradient>
<linearGradient id="paint11_linear_431_591" x1="0.130546" y1="35.5039" x2="41.4303" y2="58.872" gradientUnits="userSpaceOnUse">
<stop stop-color="#10202E"/>
<stop offset="1" stop-color="#235F8D"/>
</linearGradient>
<linearGradient id="paint12_linear_431_591" x1="6.43421" y1="24.3641" x2="47.734" y2="47.7288" gradientUnits="userSpaceOnUse">
<stop stop-color="#10202E"/>
<stop offset="1" stop-color="#235F8D"/>
</linearGradient>
<linearGradient id="paint13_linear_431_591" x1="-3.1374" y1="15.8454" x2="38.1624" y2="39.21" gradientUnits="userSpaceOnUse">
<stop stop-color="#10202E"/>
<stop offset="1" stop-color="#235F8D"/>
</linearGradient>
<linearGradient id="paint14_linear_431_591" x1="7.79325" y1="21.9602" x2="49.0965" y2="45.3249" gradientUnits="userSpaceOnUse">
<stop stop-color="#10202E"/>
<stop offset="1" stop-color="#235F8D"/>
</linearGradient>
<linearGradient id="paint15_linear_431_591" x1="-4.83458" y1="18.8434" x2="36.4686" y2="42.2081" gradientUnits="userSpaceOnUse">
<stop stop-color="#10202E"/>
<stop offset="1" stop-color="#235F8D"/>
</linearGradient>
<linearGradient id="paint16_linear_431_591" x1="6.09949" y1="24.9583" x2="47.3993" y2="48.3229" gradientUnits="userSpaceOnUse">
<stop stop-color="#10202E"/>
<stop offset="1" stop-color="#235F8D"/>
</linearGradient>
<linearGradient id="paint17_linear_431_591" x1="-6.57599" y1="21.9195" x2="34.7272" y2="45.2876" gradientUnits="userSpaceOnUse">
<stop stop-color="#10202E"/>
<stop offset="1" stop-color="#235F8D"/>
</linearGradient>
<linearGradient id="paint18_linear_431_591" x1="4.35808" y1="28.0343" x2="45.6579" y2="51.399" gradientUnits="userSpaceOnUse">
<stop stop-color="#10202E"/>
<stop offset="1" stop-color="#235F8D"/>
</linearGradient>
<linearGradient id="paint19_linear_431_591" x1="-8.22535" y1="3.53427" x2="33.0779" y2="26.8989" gradientUnits="userSpaceOnUse">
<stop stop-color="#10202E"/>
<stop offset="1" stop-color="#235F8D"/>
</linearGradient>
<linearGradient id="paint20_linear_431_591" x1="-6.99952" y1="1.37148" x2="34.3003" y2="24.7361" gradientUnits="userSpaceOnUse">
<stop stop-color="#10202E"/>
<stop offset="1" stop-color="#235F8D"/>
</linearGradient>
<linearGradient id="paint21_linear_431_591" x1="-9.41372" y1="5.63931" x2="31.8861" y2="29.004" gradientUnits="userSpaceOnUse">
<stop stop-color="#10202E"/>
<stop offset="1" stop-color="#235F8D"/>
</linearGradient>
<linearGradient id="paint22_linear_431_591" x1="-11.8211" y1="9.89016" x2="29.4821" y2="33.2548" gradientUnits="userSpaceOnUse">
<stop stop-color="#10202E"/>
<stop offset="1" stop-color="#235F8D"/>
</linearGradient>
<linearGradient id="paint23_linear_431_591" x1="-0.323625" y1="10.8714" x2="40.9762" y2="34.236" gradientUnits="userSpaceOnUse">
<stop stop-color="#10202E"/>
<stop offset="1" stop-color="#235F8D"/>
</linearGradient>
<linearGradient id="paint24_linear_431_591" x1="-9.4786" y1="5.75133" x2="31.8212" y2="29.116" gradientUnits="userSpaceOnUse">
<stop stop-color="#10202E"/>
<stop offset="1" stop-color="#235F8D"/>
</linearGradient>
<linearGradient id="paint25_linear_431_591" x1="-2.65929" y1="15.0034" x2="38.6405" y2="38.368" gradientUnits="userSpaceOnUse">
<stop stop-color="#10202E"/>
<stop offset="1" stop-color="#235F8D"/>
</linearGradient>
<linearGradient id="paint26_linear_431_591" x1="-11.8143" y1="9.88335" x2="29.4855" y2="33.248" gradientUnits="userSpaceOnUse">
<stop stop-color="#10202E"/>
<stop offset="1" stop-color="#235F8D"/>
</linearGradient>
<linearGradient id="paint27_linear_431_591" x1="0.304683" y1="9.75774" x2="41.6079" y2="33.1224" gradientUnits="userSpaceOnUse">
<stop stop-color="#10202E"/>
<stop offset="1" stop-color="#235F8D"/>
</linearGradient>
<linearGradient id="paint28_linear_431_591" x1="-8.84688" y1="4.6377" x2="32.4529" y2="28.0024" gradientUnits="userSpaceOnUse">
<stop stop-color="#10202E"/>
<stop offset="1" stop-color="#235F8D"/>
</linearGradient>
<linearGradient id="paint29_linear_431_591" x1="7.52007" y1="22.4458" x2="48.8199" y2="45.8105" gradientUnits="userSpaceOnUse">
<stop stop-color="#10202E"/>
<stop offset="1" stop-color="#235F8D"/>
</linearGradient>
<linearGradient id="paint30_linear_431_591" x1="-12.5656" y1="11.2109" x2="28.7342" y2="34.5756" gradientUnits="userSpaceOnUse">
<stop stop-color="#10202E"/>
<stop offset="1" stop-color="#235F8D"/>
</linearGradient>
<linearGradient id="paint31_linear_431_591" x1="-0.678769" y1="11.4961" x2="40.6244" y2="34.8608" gradientUnits="userSpaceOnUse">
<stop stop-color="#10202E"/>
<stop offset="1" stop-color="#235F8D"/>
</linearGradient>
<linearGradient id="paint32_linear_431_591" x1="10.2553" y1="17.611" x2="51.5551" y2="40.9756" gradientUnits="userSpaceOnUse">
<stop stop-color="#10202E"/>
<stop offset="1" stop-color="#235F8D"/>
</linearGradient>
<linearGradient id="paint33_linear_431_591" x1="-9.83033" y1="6.37608" x2="31.4695" y2="29.7407" gradientUnits="userSpaceOnUse">
<stop stop-color="#10202E"/>
<stop offset="1" stop-color="#235F8D"/>
</linearGradient>
<linearGradient id="paint34_linear_431_591" x1="-1.17053" y1="12.3687" x2="40.1292" y2="35.7368" gradientUnits="userSpaceOnUse">
<stop stop-color="#10202E"/>
<stop offset="1" stop-color="#235F8D"/>
</linearGradient>
<linearGradient id="paint35_linear_431_591" x1="9.76013" y1="18.4835" x2="51.0599" y2="41.8482" gradientUnits="userSpaceOnUse">
<stop stop-color="#10202E"/>
<stop offset="1" stop-color="#235F8D"/>
</linearGradient>
<linearGradient id="paint36_linear_431_591" x1="-10.3255" y1="7.24865" x2="30.9743" y2="30.6133" gradientUnits="userSpaceOnUse">
<stop stop-color="#10202E"/>
<stop offset="1" stop-color="#235F8D"/>
</linearGradient>
<linearGradient id="paint37_linear_431_591" x1="-3.82715" y1="17.0609" x2="37.476" y2="40.429" gradientUnits="userSpaceOnUse">
<stop stop-color="#10202E"/>
<stop offset="1" stop-color="#235F8D"/>
</linearGradient>
<linearGradient id="paint38_linear_431_591" x1="7.10691" y1="23.1758" x2="48.4067" y2="46.5404" gradientUnits="userSpaceOnUse">
<stop stop-color="#10202E"/>
<stop offset="1" stop-color="#235F8D"/>
</linearGradient>
<linearGradient id="paint39_linear_431_591" x1="-12.9821" y1="11.9409" x2="28.3211" y2="35.3055" gradientUnits="userSpaceOnUse">
<stop stop-color="#10202E"/>
<stop offset="1" stop-color="#235F8D"/>
</linearGradient>
<linearGradient id="paint40_linear_431_591" x1="72.6703" y1="41.982" x2="35.5727" y2="20.9943" gradientUnits="userSpaceOnUse">
<stop stop-color="#10202E"/>
<stop offset="1" stop-color="#235F8D"/>
</linearGradient>
<linearGradient id="paint41_linear_431_591" x1="72.8036" y1="41.7444" x2="35.7059" y2="20.76" gradientUnits="userSpaceOnUse">
<stop stop-color="#10202E"/>
<stop offset="1" stop-color="#235F8D"/>
</linearGradient>
<linearGradient id="paint42_linear_431_591" x1="15.1214" y1="21.6581" x2="56.4211" y2="45.0262" gradientUnits="userSpaceOnUse">
<stop stop-color="#10202E"/>
<stop offset="1" stop-color="#235F8D"/>
</linearGradient>
<linearGradient id="paint43_linear_431_591" x1="17.9898" y1="16.5924" x2="59.2896" y2="39.9571" gradientUnits="userSpaceOnUse">
<stop stop-color="#10202E"/>
<stop offset="1" stop-color="#235F8D"/>
</linearGradient>
<linearGradient id="paint44_linear_431_591" x1="19.3591" y1="14.1682" x2="60.6589" y2="37.5328" gradientUnits="userSpaceOnUse">
<stop stop-color="#10202E"/>
<stop offset="1" stop-color="#235F8D"/>
</linearGradient>
<linearGradient id="paint45_linear_431_591" x1="19.6971" y1="13.574" x2="60.9969" y2="36.9387" gradientUnits="userSpaceOnUse">
<stop stop-color="#10202E"/>
<stop offset="1" stop-color="#235F8D"/>
</linearGradient>
<linearGradient id="paint46_linear_431_591" x1="16.7843" y1="18.7246" x2="58.0841" y2="42.0893" gradientUnits="userSpaceOnUse">
<stop stop-color="#10202E"/>
<stop offset="1" stop-color="#235F8D"/>
</linearGradient>
<linearGradient id="paint47_linear_431_591" x1="17.621" y1="17.2375" x2="58.9242" y2="40.6056" gradientUnits="userSpaceOnUse">
<stop stop-color="#10202E"/>
<stop offset="1" stop-color="#235F8D"/>
</linearGradient>
<linearGradient id="paint48_linear_431_591" x1="12.9632" y1="25.4743" x2="54.2664" y2="48.839" gradientUnits="userSpaceOnUse">
<stop stop-color="#10202E"/>
<stop offset="1" stop-color="#235F8D"/>
</linearGradient>
<linearGradient id="paint49_linear_431_591" x1="11.4164" y1="28.2075" x2="52.7196" y2="51.5721" gradientUnits="userSpaceOnUse">
<stop stop-color="#10202E"/>
<stop offset="1" stop-color="#235F8D"/>
</linearGradient>
<linearGradient id="paint50_linear_431_591" x1="18.2596" y1="16.1136" x2="59.5593" y2="39.4783" gradientUnits="userSpaceOnUse">
<stop stop-color="#10202E"/>
<stop offset="1" stop-color="#235F8D"/>
</linearGradient>
<linearGradient id="paint51_linear_431_591" x1="9.9822" y1="30.7404" x2="51.2854" y2="54.1084" gradientUnits="userSpaceOnUse">
<stop stop-color="#10202E"/>
<stop offset="1" stop-color="#235F8D"/>
</linearGradient>
<linearGradient id="paint52_linear_431_591" x1="70.8401" y1="45.2177" x2="33.7425" y2="24.2299" gradientUnits="userSpaceOnUse">
<stop stop-color="#10202E"/>
<stop offset="1" stop-color="#235F8D"/>
</linearGradient>
<linearGradient id="paint53_linear_431_591" x1="18.3893" y1="15.8828" x2="59.6891" y2="39.2508" gradientUnits="userSpaceOnUse">
<stop stop-color="#10202E"/>
<stop offset="1" stop-color="#235F8D"/>
</linearGradient>
<linearGradient id="paint54_linear_431_591" x1="73.6709" y1="40.2131" x2="36.5732" y2="19.2288" gradientUnits="userSpaceOnUse">
<stop stop-color="#10202E"/>
<stop offset="1" stop-color="#235F8D"/>
</linearGradient>
<linearGradient id="paint55_linear_431_591" x1="21.2201" y1="10.8816" x2="62.5199" y2="34.2462" gradientUnits="userSpaceOnUse">
<stop stop-color="#10202E"/>
<stop offset="1" stop-color="#235F8D"/>
</linearGradient>
<linearGradient id="paint56_linear_431_591" x1="69.8054" y1="47.0443" x2="32.7112" y2="26.0566" gradientUnits="userSpaceOnUse">
<stop stop-color="#10202E"/>
<stop offset="1" stop-color="#235F8D"/>
</linearGradient>
<linearGradient id="paint57_linear_431_591" x1="17.3547" y1="17.7094" x2="58.6579" y2="41.0774" gradientUnits="userSpaceOnUse">
<stop stop-color="#10202E"/>
<stop offset="1" stop-color="#235F8D"/>
</linearGradient>
<linearGradient id="paint58_linear_431_591" x1="69.7371" y1="47.1666" x2="32.6395" y2="26.1788" gradientUnits="userSpaceOnUse">
<stop stop-color="#10202E"/>
<stop offset="1" stop-color="#235F8D"/>
</linearGradient>
<linearGradient id="paint59_linear_431_591" x1="17.2864" y1="17.8317" x2="58.5861" y2="41.1997" gradientUnits="userSpaceOnUse">
<stop stop-color="#10202E"/>
<stop offset="1" stop-color="#235F8D"/>
</linearGradient>
<linearGradient id="paint60_linear_431_591" x1="71.0688" y1="44.8103" x2="33.9712" y2="23.8259" gradientUnits="userSpaceOnUse">
<stop stop-color="#10202E"/>
<stop offset="1" stop-color="#235F8D"/>
</linearGradient>
<linearGradient id="paint61_linear_431_591" x1="18.6181" y1="15.4787" x2="59.9213" y2="38.8434" gradientUnits="userSpaceOnUse">
<stop stop-color="#10202E"/>
<stop offset="1" stop-color="#235F8D"/>
</linearGradient>
<linearGradient id="paint62_linear_431_591" x1="72.9606" y1="41.4694" x2="35.863" y2="20.4816" gradientUnits="userSpaceOnUse">
<stop stop-color="#10202E"/>
<stop offset="1" stop-color="#235F8D"/>
</linearGradient>
<linearGradient id="paint63_linear_431_591" x1="20.5098" y1="12.1378" x2="61.8096" y2="35.5025" gradientUnits="userSpaceOnUse">
<stop stop-color="#10202E"/>
<stop offset="1" stop-color="#235F8D"/>
</linearGradient>
<linearGradient id="paint64_linear_431_591" x1="74.6879" y1="41.7091" x2="36.0567" y2="19.9916" gradientUnits="userSpaceOnUse">
<stop stop-color="#10202E"/>
<stop offset="1" stop-color="#235F8D"/>
</linearGradient>
<linearGradient id="paint65_linear_431_591" x1="20.2321" y1="11.0631" x2="63.2432" y2="35.244" gradientUnits="userSpaceOnUse">
<stop stop-color="#10202E"/>
<stop offset="1" stop-color="#235F8D"/>
</linearGradient>
<linearGradient id="paint66_linear_431_591" x1="67.9408" y1="50.3411" x2="30.8467" y2="29.3534" gradientUnits="userSpaceOnUse">
<stop stop-color="#10202E"/>
<stop offset="1" stop-color="#235F8D"/>
</linearGradient>
<linearGradient id="paint67_linear_431_591" x1="15.4901" y1="21.0062" x2="56.7933" y2="44.3708" gradientUnits="userSpaceOnUse">
<stop stop-color="#10202E"/>
<stop offset="1" stop-color="#235F8D"/>
</linearGradient>
<linearGradient id="paint68_linear_431_591" x1="73.705" y1="40.1486" x2="36.6108" y2="19.1642" gradientUnits="userSpaceOnUse">
<stop stop-color="#10202E"/>
<stop offset="1" stop-color="#235F8D"/>
</linearGradient>
<linearGradient id="paint69_linear_431_591" x1="21.2542" y1="10.817" x2="62.5575" y2="34.1817" gradientUnits="userSpaceOnUse">
<stop stop-color="#10202E"/>
<stop offset="1" stop-color="#235F8D"/>
</linearGradient>
<linearGradient id="paint70_linear_431_591" x1="5.64877" y1="8.70863" x2="46.9486" y2="32.0733" gradientUnits="userSpaceOnUse">
<stop stop-color="#10202E"/>
<stop offset="1" stop-color="#235F8D"/>
</linearGradient>
<linearGradient id="paint71_linear_431_591" x1="-2.0139" y1="22.2523" x2="39.2859" y2="45.617" gradientUnits="userSpaceOnUse">
<stop stop-color="#10202E"/>
<stop offset="1" stop-color="#235F8D"/>
</linearGradient>
<linearGradient id="paint72_linear_431_591" x1="-2.34171" y1="22.8329" x2="38.9581" y2="46.1975" gradientUnits="userSpaceOnUse">
<stop stop-color="#10202E"/>
<stop offset="1" stop-color="#235F8D"/>
</linearGradient>
<linearGradient id="paint73_linear_431_591" x1="2.87606" y1="13.6045" x2="44.1793" y2="36.9692" gradientUnits="userSpaceOnUse">
<stop stop-color="#10202E"/>
<stop offset="1" stop-color="#235F8D"/>
</linearGradient>
<linearGradient id="paint74_linear_431_591" x1="-0.439668" y1="19.4682" x2="40.8601" y2="42.8328" gradientUnits="userSpaceOnUse">
<stop stop-color="#10202E"/>
<stop offset="1" stop-color="#235F8D"/>
</linearGradient>
<linearGradient id="paint75_linear_431_591" x1="4.94201" y1="9.95127" x2="46.2452" y2="33.3193" gradientUnits="userSpaceOnUse">
<stop stop-color="#10202E"/>
<stop offset="1" stop-color="#235F8D"/>
</linearGradient>
<linearGradient id="paint76_linear_431_591" x1="70.0614" y1="46.5962" x2="32.9638" y2="25.6084" gradientUnits="userSpaceOnUse">
<stop stop-color="#10202E"/>
<stop offset="1" stop-color="#235F8D"/>
</linearGradient>
<linearGradient id="paint77_linear_431_591" x1="4.8463" y1="10.1244" x2="46.1461" y2="33.4891" gradientUnits="userSpaceOnUse">
<stop stop-color="#10202E"/>
<stop offset="1" stop-color="#235F8D"/>
</linearGradient>
<linearGradient id="paint78_linear_431_591" x1="12.8198" y1="25.7324" x2="54.1196" y2="49.097" gradientUnits="userSpaceOnUse">
<stop stop-color="#10202E"/>
<stop offset="1" stop-color="#235F8D"/>
</linearGradient>
<linearGradient id="paint79_linear_431_591" x1="0.055435" y1="18.5922" x2="41.3552" y2="41.9568" gradientUnits="userSpaceOnUse">
<stop stop-color="#10202E"/>
<stop offset="1" stop-color="#235F8D"/>
</linearGradient>
<linearGradient id="paint80_linear_431_591" x1="11.9832" y1="27.2059" x2="53.283" y2="50.574" gradientUnits="userSpaceOnUse">
<stop stop-color="#10202E"/>
<stop offset="1" stop-color="#235F8D"/>
</linearGradient>
<linearGradient id="paint81_linear_431_591" x1="-0.781173" y1="20.0691" x2="40.522" y2="43.4338" gradientUnits="userSpaceOnUse">
<stop stop-color="#10202E"/>
<stop offset="1" stop-color="#235F8D"/>
</linearGradient>
<linearGradient id="paint82_linear_431_591" x1="17.2215" y1="17.947" x2="58.5212" y2="41.3151" gradientUnits="userSpaceOnUse">
<stop stop-color="#10202E"/>
<stop offset="1" stop-color="#235F8D"/>
</linearGradient>
<linearGradient id="paint83_linear_431_591" x1="4.4571" y1="10.8102" x2="45.7603" y2="34.1749" gradientUnits="userSpaceOnUse">
<stop stop-color="#10202E"/>
<stop offset="1" stop-color="#235F8D"/>
</linearGradient>
<linearGradient id="paint84_linear_431_591" x1="71.161" y1="44.6473" x2="34.0668" y2="23.6595" gradientUnits="userSpaceOnUse">
<stop stop-color="#10202E"/>
<stop offset="1" stop-color="#235F8D"/>
</linearGradient>
<linearGradient id="paint85_linear_431_591" x1="18.7103" y1="15.3123" x2="60.0135" y2="38.6804" gradientUnits="userSpaceOnUse">
<stop stop-color="#10202E"/>
<stop offset="1" stop-color="#235F8D"/>
</linearGradient>
<linearGradient id="paint86_linear_431_591" x1="5.9493" y1="8.17553" x2="47.2491" y2="31.5402" gradientUnits="userSpaceOnUse">
<stop stop-color="#10202E"/>
<stop offset="1" stop-color="#235F8D"/>
</linearGradient>
<linearGradient id="paint87_linear_431_591" x1="71.8781" y1="43.3808" x2="34.7805" y2="22.393" gradientUnits="userSpaceOnUse">
<stop stop-color="#10202E"/>
<stop offset="1" stop-color="#235F8D"/>
</linearGradient>
<linearGradient id="paint88_linear_431_591" x1="19.4273" y1="14.0493" x2="60.7271" y2="37.414" gradientUnits="userSpaceOnUse">
<stop stop-color="#10202E"/>
<stop offset="1" stop-color="#235F8D"/>
</linearGradient>
<linearGradient id="paint89_linear_431_591" x1="6.66635" y1="6.90911" x2="47.9661" y2="30.2772" gradientUnits="userSpaceOnUse">
<stop stop-color="#10202E"/>
<stop offset="1" stop-color="#235F8D"/>
</linearGradient>
<linearGradient id="paint90_linear_431_591" x1="71.7757" y1="43.5608" x2="34.6815" y2="22.573" gradientUnits="userSpaceOnUse">
<stop stop-color="#10202E"/>
<stop offset="1" stop-color="#235F8D"/>
</linearGradient>
<linearGradient id="paint91_linear_431_591" x1="19.3249" y1="14.2259" x2="60.6281" y2="37.594" gradientUnits="userSpaceOnUse">
<stop stop-color="#10202E"/>
<stop offset="1" stop-color="#235F8D"/>
</linearGradient>
<linearGradient id="paint92_linear_431_591" x1="6.56397" y1="7.08907" x2="47.8638" y2="30.4537" gradientUnits="userSpaceOnUse">
<stop stop-color="#10202E"/>
<stop offset="1" stop-color="#235F8D"/>
</linearGradient>
<linearGradient id="paint93_linear_431_591" x1="69.761" y1="47.1258" x2="32.6634" y2="26.1381" gradientUnits="userSpaceOnUse">
<stop stop-color="#10202E"/>
<stop offset="1" stop-color="#235F8D"/>
</linearGradient>
<linearGradient id="paint94_linear_431_591" x1="17.3103" y1="17.7909" x2="58.6101" y2="41.1555" gradientUnits="userSpaceOnUse">
<stop stop-color="#10202E"/>
<stop offset="1" stop-color="#235F8D"/>
</linearGradient>
<linearGradient id="paint95_linear_431_591" x1="4.54596" y1="10.6541" x2="45.8491" y2="34.0187" gradientUnits="userSpaceOnUse">
<stop stop-color="#10202E"/>
<stop offset="1" stop-color="#235F8D"/>
</linearGradient>
<linearGradient id="paint96_linear_431_591" x1="43.2555" y1="21.7973" x2="84.5553" y2="45.1654" gradientUnits="userSpaceOnUse">
<stop stop-color="#10202E"/>
<stop offset="1" stop-color="#235F8D"/>
</linearGradient>
<linearGradient id="paint97_linear_431_591" x1="44.2766" y1="19.9944" x2="85.5764" y2="43.3591" gradientUnits="userSpaceOnUse">
<stop stop-color="#10202E"/>
<stop offset="1" stop-color="#235F8D"/>
</linearGradient>
<linearGradient id="paint98_linear_431_591" x1="73.6265" y1="40.2912" x2="36.5289" y2="19.3034" gradientUnits="userSpaceOnUse">
<stop stop-color="#10202E"/>
<stop offset="1" stop-color="#235F8D"/>
</linearGradient>
<linearGradient id="paint99_linear_431_591" x1="42.6068" y1="22.9415" x2="83.91" y2="46.3096" gradientUnits="userSpaceOnUse">
<stop stop-color="#10202E"/>
<stop offset="1" stop-color="#235F8D"/>
</linearGradient>
<linearGradient id="paint100_linear_431_591" x1="21.8894" y1="9.6966" x2="63.1927" y2="33.0613" gradientUnits="userSpaceOnUse">
<stop stop-color="#10202E"/>
<stop offset="1" stop-color="#235F8D"/>
</linearGradient>
<linearGradient id="paint101_linear_431_591" x1="43.3205" y1="21.6818" x2="84.6237" y2="45.0465" gradientUnits="userSpaceOnUse">
<stop stop-color="#10202E"/>
<stop offset="1" stop-color="#235F8D"/>
</linearGradient>
<linearGradient id="paint102_linear_431_591" x1="18.0922" y1="16.4091" x2="59.3953" y2="39.7739" gradientUnits="userSpaceOnUse">
<stop stop-color="#10202E"/>
<stop offset="1" stop-color="#235F8D"/>
</linearGradient>
<linearGradient id="paint103_linear_431_591" x1="39.5232" y1="28.3943" x2="80.823" y2="51.759" gradientUnits="userSpaceOnUse">
<stop stop-color="#10202E"/>
<stop offset="1" stop-color="#235F8D"/>
</linearGradient>
<linearGradient id="paint104_linear_431_591" x1="20.6669" y1="11.8594" x2="61.9667" y2="35.224" gradientUnits="userSpaceOnUse">
<stop stop-color="#10202E"/>
<stop offset="1" stop-color="#235F8D"/>
</linearGradient>
<linearGradient id="paint105_linear_431_591" x1="42.098" y1="23.8446" x2="83.3977" y2="47.2127" gradientUnits="userSpaceOnUse">
<stop stop-color="#10202E"/>
<stop offset="1" stop-color="#235F8D"/>
</linearGradient>
<linearGradient id="paint106_linear_431_591" x1="17.3956" y1="17.6415" x2="58.6954" y2="41.0062" gradientUnits="userSpaceOnUse">
<stop stop-color="#10202E"/>
<stop offset="1" stop-color="#235F8D"/>
</linearGradient>
<linearGradient id="paint107_linear_431_591" x1="38.8266" y1="29.6267" x2="80.1264" y2="52.9948" gradientUnits="userSpaceOnUse">
<stop stop-color="#10202E"/>
<stop offset="1" stop-color="#235F8D"/>
</linearGradient>
<linearGradient id="paint108_linear_431_591" x1="18.1537" y1="16.297" x2="59.4569" y2="39.6616" gradientUnits="userSpaceOnUse">
<stop stop-color="#10202E"/>
<stop offset="1" stop-color="#235F8D"/>
</linearGradient>
<linearGradient id="paint109_linear_431_591" x1="39.5848" y1="28.2822" x2="80.888" y2="51.6503" gradientUnits="userSpaceOnUse">
<stop stop-color="#10202E"/>
<stop offset="1" stop-color="#235F8D"/>
</linearGradient>
<linearGradient id="paint110_linear_431_591" x1="70.7445" y1="45.3841" x2="33.6503" y2="24.3963" gradientUnits="userSpaceOnUse">
<stop stop-color="#10202E"/>
<stop offset="1" stop-color="#235F8D"/>
</linearGradient>
<linearGradient id="paint111_linear_431_591" x1="18.2937" y1="16.0491" x2="59.5969" y2="39.4172" gradientUnits="userSpaceOnUse">
<stop stop-color="#10202E"/>
<stop offset="1" stop-color="#235F8D"/>
</linearGradient>
<linearGradient id="paint112_linear_431_591" x1="39.7248" y1="28.0377" x2="81.028" y2="51.4024" gradientUnits="userSpaceOnUse">
<stop stop-color="#10202E"/>
<stop offset="1" stop-color="#235F8D"/>
</linearGradient>
<linearGradient id="paint113_linear_431_591" x1="71.8063" y1="43.5065" x2="34.7122" y2="22.5187" gradientUnits="userSpaceOnUse">
<stop stop-color="#10202E"/>
<stop offset="1" stop-color="#235F8D"/>
</linearGradient>
<linearGradient id="paint114_linear_431_591" x1="19.359" y1="14.1715" x2="60.6588" y2="37.5362" gradientUnits="userSpaceOnUse">
<stop stop-color="#10202E"/>
<stop offset="1" stop-color="#235F8D"/>
</linearGradient>
<linearGradient id="paint115_linear_431_591" x1="40.7901" y1="26.1568" x2="82.0898" y2="49.5248" gradientUnits="userSpaceOnUse">
<stop stop-color="#10202E"/>
<stop offset="1" stop-color="#235F8D"/>
</linearGradient>
<linearGradient id="paint116_linear_431_591" x1="74.5997" y1="38.5664" x2="37.5055" y2="17.582" gradientUnits="userSpaceOnUse">
<stop stop-color="#10202E"/>
<stop offset="1" stop-color="#235F8D"/>
</linearGradient>
<linearGradient id="paint117_linear_431_591" x1="22.1523" y1="9.23487" x2="63.4521" y2="32.5995" gradientUnits="userSpaceOnUse">
<stop stop-color="#10202E"/>
<stop offset="1" stop-color="#235F8D"/>
</linearGradient>
<linearGradient id="paint118_linear_431_591" x1="43.5834" y1="21.2201" x2="84.8832" y2="44.5848" gradientUnits="userSpaceOnUse">
<stop stop-color="#10202E"/>
<stop offset="1" stop-color="#235F8D"/>
</linearGradient>
<linearGradient id="paint119_linear_431_591" x1="74.2275" y1="39.2285" x2="37.1298" y2="18.2407" gradientUnits="userSpaceOnUse">
<stop stop-color="#10202E"/>
<stop offset="1" stop-color="#235F8D"/>
</linearGradient>
<linearGradient id="paint120_linear_431_591" x1="21.7767" y1="9.89696" x2="63.0765" y2="33.2616" gradientUnits="userSpaceOnUse">
<stop stop-color="#10202E"/>
<stop offset="1" stop-color="#235F8D"/>
</linearGradient>
<linearGradient id="paint121_linear_431_591" x1="43.2078" y1="21.8822" x2="84.5075" y2="45.2468" gradientUnits="userSpaceOnUse">
<stop stop-color="#10202E"/>
<stop offset="1" stop-color="#235F8D"/>
</linearGradient>
<linearGradient id="paint122_linear_431_591" x1="74.5929" y1="38.5834" x2="37.4953" y2="17.599" gradientUnits="userSpaceOnUse">
<stop stop-color="#10202E"/>
<stop offset="1" stop-color="#235F8D"/>
</linearGradient>
<linearGradient id="paint123_linear_431_591" x1="22.1422" y1="9.25183" x2="63.442" y2="32.6165" gradientUnits="userSpaceOnUse">
<stop stop-color="#10202E"/>
<stop offset="1" stop-color="#235F8D"/>
</linearGradient>
<linearGradient id="paint124_linear_431_591" x1="43.5732" y1="21.2371" x2="84.873" y2="44.6017" gradientUnits="userSpaceOnUse">
<stop stop-color="#10202E"/>
<stop offset="1" stop-color="#235F8D"/>
</linearGradient>
<linearGradient id="paint125_linear_431_591" x1="18.6659" y1="15.3939" x2="59.9656" y2="38.7619" gradientUnits="userSpaceOnUse">
<stop stop-color="#10202E"/>
<stop offset="1" stop-color="#235F8D"/>
</linearGradient>
<linearGradient id="paint126_linear_431_591" x1="5.90152" y1="8.25706" x2="47.2047" y2="31.6217" gradientUnits="userSpaceOnUse">
<stop stop-color="#10202E"/>
<stop offset="1" stop-color="#235F8D"/>
</linearGradient>
<linearGradient id="paint127_linear_431_591" x1="40.0969" y1="27.3825" x2="81.3967" y2="50.7471" gradientUnits="userSpaceOnUse">
<stop stop-color="#10202E"/>
<stop offset="1" stop-color="#235F8D"/>
</linearGradient>
<linearGradient id="paint128_linear_431_591" x1="71.7587" y1="43.5914" x2="34.6644" y2="22.6036" gradientUnits="userSpaceOnUse">
<stop stop-color="#10202E"/>
<stop offset="1" stop-color="#235F8D"/>
</linearGradient>
<linearGradient id="paint129_linear_431_591" x1="19.3112" y1="14.2564" x2="60.6111" y2="37.6212" gradientUnits="userSpaceOnUse">
<stop stop-color="#10202E"/>
<stop offset="1" stop-color="#235F8D"/>
</linearGradient>
<linearGradient id="paint130_linear_431_591" x1="6.54678" y1="7.11961" x2="47.8467" y2="30.4843" gradientUnits="userSpaceOnUse">
<stop stop-color="#10202E"/>
<stop offset="1" stop-color="#235F8D"/>
</linearGradient>
<linearGradient id="paint131_linear_431_591" x1="40.7423" y1="26.2417" x2="82.0422" y2="49.6098" gradientUnits="userSpaceOnUse">
<stop stop-color="#10202E"/>
<stop offset="1" stop-color="#235F8D"/>
</linearGradient>
<clipPath id="clip0_431_591">
<rect x="5" y="15" width="52" height="34" rx="8" fill="white"/>
</clipPath>
</defs>
</svg>
