<svg width="53" height="36" viewBox="0 0 53 36" fill="none" xmlns="http://www.w3.org/2000/svg">
<path d="M51.2965 15.4993C51.6107 14.672 51.8201 13.6772 51.8411 12.5148C51.883 10.2843 51.2442 8.4831 49.9561 7.1636C49.6105 6.818 49.2335 6.51439 48.8251 6.25259H48.8356L40.2905 1.52968H40.28C38.9815 0.650025 37.3059 0.210205 35.2011 0.210205C34.1748 0.210205 33.0334 0.314925 31.7244 0.513885L20.3203 2.31509V2.68159L0.559675 5.8127L0.109375 30.7152L8.83257 35.5532L33.0229 31.7309V31.3644L42.4058 29.8879C48.9299 28.8616 52.2914 25.4373 52.3961 19.7091V19.3949C52.3856 17.9288 51.9982 16.5884 51.2965 15.4993Z" fill="#DED9C6"/>
<path d="M15.5671 13.6773L9.31529 14.6617L9.44099 7.94911L3.70229 8.84971L3.36719 27.2176L9.10579 26.3066L9.22099 20.17L15.4624 19.1856L15.3472 25.3222L21.0963 24.4216L21.4314 6.05371L15.6823 6.96481L15.5671 13.6773Z" fill="black"/>
<path d="M38.3866 11.4575C39.4233 10.536 39.8422 9.28978 39.8632 7.89698C39.9365 4.09568 37.2871 3.17418 32.1977 3.98048L23.464 5.36278L23.1289 23.7202L33.1506 22.139C37.0357 21.5211 40.3344 20.0131 40.4182 15.0808V14.8714C40.3972 13.1226 39.5804 11.9706 38.3866 11.4575ZM29.1084 9.97048L31.4123 9.60398C33.0878 9.34218 33.737 9.46778 33.7266 10.1485C33.7161 10.8082 33.0773 11.1957 31.3704 11.4575L29.0665 11.824L29.098 9.95998L29.1084 9.97048ZM31.695 17.1229L28.9723 17.5522L29.0037 15.7196L31.7264 15.2903C33.4019 15.0285 34.0617 15.1855 34.0407 15.8872C34.0303 16.5469 33.3915 16.8506 31.695 17.1229Z" fill="black"/>
</svg>
