<svg width="110" height="48" viewBox="0 0 110 48" fill="none" xmlns="http://www.w3.org/2000/svg">
<path d="M61.2965 23.4993C61.6107 22.672 61.8201 21.6772 61.8411 20.5148C61.883 18.2843 61.2442 16.4831 59.9561 15.1636C59.6105 14.818 59.2335 14.5144 58.8251 14.2526H58.8356L50.2905 9.52968H50.28C48.9815 8.65003 47.3059 8.21021 45.2011 8.21021C44.1748 8.21021 43.0334 8.31493 41.7244 8.51389L30.3203 10.3151V10.6816L10.5597 13.8127L10.1094 38.7152L18.8326 43.5532L43.0229 39.7309V39.3644L52.4058 37.8879C58.9299 36.8616 62.2914 33.4373 62.3961 27.7091V27.3949C62.3856 25.9288 61.9982 24.5884 61.2965 23.4993Z" fill="#DED9C6"/>
<path d="M84.2767 10.6098L67.0437 13.33C60.8625 14.3057 56.6422 20.1053 57.6174 26.2836C58.5926 32.462 64.3941 36.6797 70.5754 35.704L87.8084 32.9838C93.9896 32.0081 98.2099 26.2085 97.2347 20.0301C96.2594 13.8518 90.4579 9.63414 84.2767 10.6098Z" fill="#DED9C6"/>
<path d="M52.5527 25.0076L62.0823 33.6471L95.4984 15.5724L90.5975 9.33105L52.5527 25.0076Z" fill="#DED9C6"/>
<path d="M81.4243 26.9657L64.1874 29.6884C58.0089 30.6623 52.2074 26.4421 51.2335 20.2636C50.2596 14.0851 54.4798 8.28363 60.6583 7.30973L77.8952 4.58701C84.0737 3.61311 89.8752 7.83333 90.8491 14.0118C91.823 20.1903 87.6028 25.9918 81.4243 26.9657Z" fill="black" stroke="#DED9C6" stroke-width="5.71307" stroke-miterlimit="10"/>
<path d="M57.066 22.4314C57.2336 18.2635 64.5849 17.719 64.5535 15.5827C64.5221 14.2213 61.6632 14.8497 60.9616 16.6194L57.1498 17.2163C57.7781 14.1166 60.6998 12.0851 63.5901 11.6662C67.0668 11.153 68.6271 12.7343 68.5643 14.9858C68.4596 18.6301 63.3597 19.8658 62.0612 21.1852L68.47 20.1799L68.4072 23.4577L57.0137 25.2379L57.066 22.4209V22.4314Z" fill="#DED9C6"/>
<path d="M70.8676 19.5726C72.0195 19.3946 72.784 20.1381 72.763 21.112C72.7421 22.0859 71.9462 23.0807 70.7943 23.2587C69.6424 23.4368 68.8779 22.6933 68.8989 21.7194C68.9198 20.7455 69.7157 19.7506 70.8676 19.5726Z" fill="#DED9C6"/>
<path d="M79.0992 21.9599C70.8472 23.2584 71.0986 10.4826 79.34 9.18407C87.6758 7.87507 87.4349 20.6509 79.0992 21.9599ZM79.3086 12.8702C76.167 13.3624 76.0623 18.7555 79.2039 18.2633C82.3455 17.7711 82.4502 12.378 79.3086 12.8702Z" fill="#DED9C6"/>
<path d="M25.5671 21.6773L19.3153 22.6617L19.441 15.9491L13.7023 16.8497L13.3672 35.2176L19.1058 34.3066L19.221 28.17L25.4624 27.1856L25.3472 33.3222L31.0963 32.4216L31.4314 14.0537L25.6823 14.9648L25.5671 21.6773Z" fill="black"/>
<path d="M48.3866 19.4575C49.4233 18.536 49.8422 17.2898 49.8632 15.897C49.9365 12.0957 47.2871 11.1742 42.1977 11.9805L33.464 13.3628L33.1289 31.7202L43.1506 30.139C47.0357 29.5211 50.3344 28.0131 50.4182 23.0808V22.8714C50.3972 21.1226 49.5804 19.9706 48.3866 19.4575ZM39.1084 17.9705L41.4123 17.604C43.0878 17.3422 43.737 17.4678 43.7266 18.1485C43.7161 18.8082 43.0773 19.1957 41.3704 19.4575L39.0665 19.824L39.098 17.96L39.1084 17.9705ZM41.695 25.1229L38.9723 25.5522L39.0037 23.7196L41.7264 23.2903C43.4019 23.0285 44.0617 23.1855 44.0407 23.8872C44.0303 24.5469 43.3915 24.8506 41.695 25.1229Z" fill="black"/>
</svg>
