<svg xmlns="http://www.w3.org/2000/svg" xmlns:xlink="http://www.w3.org/1999/xlink" viewBox="0 0 152.28 100.14"><defs><style>.cls-1{fill:none;}.cls-2{fill:url(#linear-gradient);}.cls-3{fill:url(#linear-gradient-2);}.cls-4{fill:url(#linear-gradient-3);}.cls-5{fill:url(#linear-gradient-4);}.cls-6{fill:url(#linear-gradient-5);}.cls-7{fill:url(#linear-gradient-6);}.cls-8{fill:url(#linear-gradient-7);}.cls-9{fill:url(#linear-gradient-8);}.cls-10{fill:url(#linear-gradient-9);}.cls-11{fill:url(#linear-gradient-10);}.cls-12{fill:url(#linear-gradient-11);}.cls-13{fill:url(#linear-gradient-12);}.cls-14{fill:url(#linear-gradient-13);}.cls-15{fill:url(#linear-gradient-14);}.cls-16{fill:url(#linear-gradient-15);}.cls-17{fill:url(#linear-gradient-16);}.cls-18{fill:url(#linear-gradient-17);}.cls-19{fill:url(#linear-gradient-18);}.cls-20{fill:url(#linear-gradient-19);}.cls-21{fill:url(#linear-gradient-20);}.cls-22{fill:url(#linear-gradient-21);}.cls-23{fill:url(#linear-gradient-22);}.cls-24{fill:url(#linear-gradient-23);}.cls-25{fill:url(#linear-gradient-24);}.cls-26{fill:url(#linear-gradient-25);}.cls-27{fill:url(#linear-gradient-26);}.cls-28{fill:url(#linear-gradient-27);}.cls-29{fill:url(#linear-gradient-28);}.cls-30{fill:url(#linear-gradient-29);}.cls-31{fill:url(#linear-gradient-30);}.cls-32{fill:url(#linear-gradient-31);}.cls-33{fill:url(#linear-gradient-32);}.cls-34{fill:url(#linear-gradient-33);}.cls-35{fill:url(#linear-gradient-34);}.cls-36{fill:url(#linear-gradient-35);}.cls-37{fill:url(#linear-gradient-36);}.cls-38{fill:url(#linear-gradient-37);}.cls-39{fill:url(#linear-gradient-38);}.cls-40{fill:url(#linear-gradient-39);}.cls-41{fill:url(#linear-gradient-40);}.cls-42{fill:url(#linear-gradient-41);}.cls-43{fill:url(#linear-gradient-42);}.cls-44{fill:url(#linear-gradient-43);}.cls-45{fill:url(#linear-gradient-44);}.cls-46{fill:url(#linear-gradient-45);}.cls-47{fill:url(#linear-gradient-46);}.cls-48{fill:url(#linear-gradient-47);}.cls-49{fill:url(#linear-gradient-48);}.cls-50{fill:url(#linear-gradient-49);}.cls-51{fill:url(#linear-gradient-50);}.cls-52{fill:url(#linear-gradient-51);}.cls-53{fill:url(#linear-gradient-52);}.cls-54{fill:url(#linear-gradient-53);}.cls-55{fill:url(#linear-gradient-54);}.cls-56{fill:url(#linear-gradient-55);}.cls-57{fill:url(#linear-gradient-56);}.cls-58{fill:url(#linear-gradient-57);}.cls-59{fill:url(#linear-gradient-58);}.cls-60{fill:url(#linear-gradient-59);}.cls-61{fill:url(#linear-gradient-60);}.cls-62{fill:url(#linear-gradient-61);}.cls-63{fill:url(#linear-gradient-62);}.cls-64{fill:url(#linear-gradient-63);}.cls-65{fill:url(#linear-gradient-64);}.cls-66{fill:url(#linear-gradient-65);}.cls-67{fill:url(#linear-gradient-66);}.cls-68{fill:url(#linear-gradient-67);}.cls-69{fill:url(#linear-gradient-68);}.cls-70{fill:url(#linear-gradient-69);}.cls-71{fill:url(#linear-gradient-70);}.cls-72{fill:url(#linear-gradient-71);}.cls-73{fill:url(#linear-gradient-72);}.cls-74{fill:url(#linear-gradient-73);}.cls-75{fill:url(#linear-gradient-74);}.cls-76{fill:url(#linear-gradient-75);}.cls-77{fill:url(#linear-gradient-76);}.cls-78{fill:url(#linear-gradient-77);}.cls-79{fill:url(#linear-gradient-78);}.cls-80{fill:url(#linear-gradient-79);}.cls-81{fill:url(#linear-gradient-80);}.cls-82{fill:url(#linear-gradient-81);}.cls-83{fill:url(#linear-gradient-82);}.cls-84{fill:url(#linear-gradient-83);}.cls-85{fill:url(#linear-gradient-84);}.cls-86{fill:url(#linear-gradient-85);}.cls-87{fill:url(#linear-gradient-86);}.cls-88{fill:url(#linear-gradient-87);}.cls-89{fill:url(#linear-gradient-88);}.cls-90{fill:url(#linear-gradient-89);}.cls-91{fill:url(#linear-gradient-90);}.cls-92{fill:url(#linear-gradient-91);}.cls-93{fill:url(#linear-gradient-92);}.cls-94{fill:url(#linear-gradient-93);}.cls-95{fill:url(#linear-gradient-94);}.cls-96{fill:url(#linear-gradient-95);}.cls-97{fill:url(#linear-gradient-96);}.cls-98{fill:url(#linear-gradient-97);}.cls-99{fill:url(#linear-gradient-98);}.cls-100{fill:url(#linear-gradient-99);}.cls-101{fill:url(#linear-gradient-100);}.cls-102{fill:url(#linear-gradient-101);}.cls-103{fill:url(#linear-gradient-102);}.cls-104{fill:url(#linear-gradient-103);}.cls-105{fill:url(#linear-gradient-104);}.cls-106{fill:url(#linear-gradient-105);}.cls-107{fill:url(#linear-gradient-106);}.cls-108{fill:url(#linear-gradient-107);}.cls-109{fill:url(#linear-gradient-108);}.cls-110{fill:url(#linear-gradient-109);}.cls-111{fill:url(#linear-gradient-110);}.cls-112{fill:url(#linear-gradient-111);}.cls-113{fill:url(#linear-gradient-112);}.cls-114{fill:url(#linear-gradient-113);}.cls-115{fill:url(#linear-gradient-114);}.cls-116{fill:url(#linear-gradient-115);}.cls-117{fill:url(#linear-gradient-116);}.cls-118{fill:url(#linear-gradient-117);}.cls-119{fill:url(#linear-gradient-118);}.cls-120{fill:url(#linear-gradient-119);}.cls-121{fill:url(#linear-gradient-120);}.cls-122{fill:url(#linear-gradient-121);}.cls-123{fill:url(#linear-gradient-122);}.cls-124{fill:url(#linear-gradient-123);}.cls-125{fill:url(#linear-gradient-124);}.cls-126{fill:url(#linear-gradient-125);}.cls-127{fill:url(#linear-gradient-126);}.cls-128{fill:url(#linear-gradient-127);}.cls-129{fill:url(#linear-gradient-128);}.cls-130{fill:url(#linear-gradient-129);}.cls-131{fill:url(#linear-gradient-130);}.cls-132{fill:url(#linear-gradient-131);}.cls-133{fill:url(#linear-gradient-132);}.cls-134{fill:url(#linear-gradient-133);}</style><linearGradient id="linear-gradient" x1="442.17" y1="-67.86" x2="320.88" y2="-136.08" gradientTransform="translate(408.64 -48.04) rotate(180)" gradientUnits="userSpaceOnUse"><stop offset="0" stop-color="#10202e"/><stop offset="1" stop-color="#235f8d"/></linearGradient><linearGradient id="linear-gradient-2" x1="428.59" y1="-43.63" x2="307.31" y2="-111.86" xlink:href="#linear-gradient"/><linearGradient id="linear-gradient-3" x1="437.91" y1="-60.2" x2="316.63" y2="-128.42" xlink:href="#linear-gradient"/><linearGradient id="linear-gradient-4" x1="429.79" y1="-45.77" x2="308.51" y2="-113.99" xlink:href="#linear-gradient"/><linearGradient id="linear-gradient-5" x1="430.78" y1="-47.53" x2="309.5" y2="-115.75" xlink:href="#linear-gradient"/><linearGradient id="linear-gradient-6" x1="427.05" y1="-40.9" x2="305.77" y2="-109.12" xlink:href="#linear-gradient"/><linearGradient id="linear-gradient-7" x1="455.2" y1="-90.95" x2="333.92" y2="-159.17" xlink:href="#linear-gradient"/><linearGradient id="linear-gradient-8" x1="420.28" y1="-103.78" x2="299" y2="-172" xlink:href="#linear-gradient"/><linearGradient id="linear-gradient-9" x1="413.26" y1="-91.3" x2="291.98" y2="-159.52" xlink:href="#linear-gradient"/><linearGradient id="linear-gradient-10" x1="402.27" y1="-71.75" x2="280.98" y2="-139.98" xlink:href="#linear-gradient"/><linearGradient id="linear-gradient-11" x1="398.93" y1="-65.83" x2="277.65" y2="-134.05" xlink:href="#linear-gradient"/><linearGradient id="linear-gradient-12" x1="422.9" y1="-108.43" x2="301.62" y2="-176.66" xlink:href="#linear-gradient"/><linearGradient id="linear-gradient-13" x1="404.44" y1="-75.62" x2="283.16" y2="-143.84" xlink:href="#linear-gradient"/><linearGradient id="linear-gradient-14" x1="432.47" y1="-50.53" x2="311.19" y2="-118.75" xlink:href="#linear-gradient"/><linearGradient id="linear-gradient-15" x1="400.46" y1="-68.54" x2="279.17" y2="-136.76" xlink:href="#linear-gradient"/><linearGradient id="linear-gradient-16" x1="437.44" y1="-59.36" x2="316.15" y2="-127.58" xlink:href="#linear-gradient"/><linearGradient id="linear-gradient-17" x1="405.42" y1="-77.37" x2="284.14" y2="-145.59" xlink:href="#linear-gradient"/><linearGradient id="linear-gradient-18" x1="442.54" y1="-68.42" x2="321.25" y2="-136.65" xlink:href="#linear-gradient"/><linearGradient id="linear-gradient-19" x1="410.52" y1="-86.43" x2="289.24" y2="-154.65" xlink:href="#linear-gradient"/><linearGradient id="linear-gradient-20" x1="447.37" y1="-14.27" x2="326.08" y2="-82.49" xlink:href="#linear-gradient"/><linearGradient id="linear-gradient-21" x1="443.78" y1="-7.9" x2="322.5" y2="-76.12" xlink:href="#linear-gradient"/><linearGradient id="linear-gradient-22" x1="450.85" y1="-20.47" x2="329.57" y2="-88.69" xlink:href="#linear-gradient"/><linearGradient id="linear-gradient-23" x1="457.9" y1="-32.99" x2="336.61" y2="-101.21" xlink:href="#linear-gradient"/><linearGradient id="linear-gradient-24" x1="424.23" y1="-35.88" x2="302.95" y2="-104.1" xlink:href="#linear-gradient"/><linearGradient id="linear-gradient-25" x1="451.04" y1="-20.8" x2="329.76" y2="-89.02" xlink:href="#linear-gradient"/><linearGradient id="linear-gradient-26" x1="431.07" y1="-48.05" x2="309.79" y2="-116.27" xlink:href="#linear-gradient"/><linearGradient id="linear-gradient-27" x1="457.88" y1="-32.97" x2="336.6" y2="-101.19" xlink:href="#linear-gradient"/><linearGradient id="linear-gradient-28" x1="422.39" y1="-32.6" x2="301.1" y2="-100.82" xlink:href="#linear-gradient"/><linearGradient id="linear-gradient-29" x1="449.19" y1="-17.52" x2="327.91" y2="-85.74" xlink:href="#linear-gradient"/><linearGradient id="linear-gradient-30" x1="401.26" y1="-69.97" x2="279.98" y2="-138.19" xlink:href="#linear-gradient"/><linearGradient id="linear-gradient-31" x1="460.08" y1="-36.88" x2="338.8" y2="-105.1" xlink:href="#linear-gradient"/><linearGradient id="linear-gradient-32" x1="425.27" y1="-37.72" x2="303.98" y2="-105.94" xlink:href="#linear-gradient"/><linearGradient id="linear-gradient-33" x1="393.25" y1="-55.73" x2="271.97" y2="-123.95" xlink:href="#linear-gradient"/><linearGradient id="linear-gradient-34" x1="452.07" y1="-22.64" x2="330.79" y2="-90.86" xlink:href="#linear-gradient"/><linearGradient id="linear-gradient-35" x1="426.71" y1="-40.29" x2="305.43" y2="-108.52" xlink:href="#linear-gradient"/><linearGradient id="linear-gradient-36" x1="394.7" y1="-58.3" x2="273.42" y2="-126.52" xlink:href="#linear-gradient"/><linearGradient id="linear-gradient-37" x1="453.52" y1="-25.21" x2="332.24" y2="-93.43" xlink:href="#linear-gradient"/><linearGradient id="linear-gradient-38" x1="434.49" y1="-54.11" x2="313.2" y2="-122.34" xlink:href="#linear-gradient"/><linearGradient id="linear-gradient-39" x1="402.47" y1="-72.12" x2="281.19" y2="-140.34" xlink:href="#linear-gradient"/><linearGradient id="linear-gradient-40" x1="461.3" y1="-39.03" x2="340.01" y2="-107.25" xlink:href="#linear-gradient"/><linearGradient id="linear-gradient-41" x1="198.17" y1="79.47" x2="89.23" y2="18.19" gradientTransform="matrix(1, 0, 0, 1, 0, 0)" xlink:href="#linear-gradient"/><linearGradient id="linear-gradient-42" x1="198.56" y1="78.77" x2="89.62" y2="17.5" gradientTransform="matrix(1, 0, 0, 1, 0, 0)" xlink:href="#linear-gradient"/><linearGradient id="linear-gradient-43" x1="203.08" y1="70.73" x2="94.15" y2="9.45" gradientTransform="matrix(1, 0, 0, 1, 0, 0)" xlink:href="#linear-gradient"/><linearGradient id="linear-gradient-44" x1="379" y1="-67.65" x2="257.72" y2="-135.88" xlink:href="#linear-gradient"/><linearGradient id="linear-gradient-45" x1="370.6" y1="-52.73" x2="249.32" y2="-120.95" xlink:href="#linear-gradient"/><linearGradient id="linear-gradient-46" x1="366.59" y1="-45.59" x2="245.31" y2="-113.81" xlink:href="#linear-gradient"/><linearGradient id="linear-gradient-47" x1="365.6" y1="-43.84" x2="244.32" y2="-112.06" xlink:href="#linear-gradient"/><linearGradient id="linear-gradient-48" x1="374.13" y1="-59.01" x2="252.85" y2="-127.23" xlink:href="#linear-gradient"/><linearGradient id="linear-gradient-49" x1="371.68" y1="-54.63" x2="250.39" y2="-122.86" xlink:href="#linear-gradient"/><linearGradient id="linear-gradient-50" x1="385.32" y1="-78.89" x2="264.03" y2="-147.11" xlink:href="#linear-gradient"/><linearGradient id="linear-gradient-51" x1="389.85" y1="-86.94" x2="268.56" y2="-155.16" xlink:href="#linear-gradient"/><linearGradient id="linear-gradient-52" x1="369.81" y1="-51.32" x2="248.53" y2="-119.54" xlink:href="#linear-gradient"/><linearGradient id="linear-gradient-53" x1="394.05" y1="-94.4" x2="272.76" y2="-162.63" xlink:href="#linear-gradient"/><linearGradient id="linear-gradient-54" x1="192.81" y1="89" x2="83.87" y2="27.72" gradientTransform="matrix(1, 0, 0, 1, 0, 0)" xlink:href="#linear-gradient"/><linearGradient id="linear-gradient-55" x1="369.43" y1="-50.64" x2="248.15" y2="-118.87" xlink:href="#linear-gradient"/><linearGradient id="linear-gradient-56" x1="201.1" y1="74.26" x2="92.16" y2="12.99" gradientTransform="matrix(1, 0, 0, 1, 0, 0)" xlink:href="#linear-gradient"/><linearGradient id="linear-gradient-57" x1="361.14" y1="-35.91" x2="239.86" y2="-104.13" xlink:href="#linear-gradient"/><linearGradient id="linear-gradient-58" x1="189.78" y1="94.38" x2="80.85" y2="33.1" gradientTransform="matrix(1, 0, 0, 1, 0, 0)" xlink:href="#linear-gradient"/><linearGradient id="linear-gradient-59" x1="372.46" y1="-56.02" x2="251.17" y2="-124.25" xlink:href="#linear-gradient"/><linearGradient id="linear-gradient-60" x1="189.58" y1="94.74" x2="80.64" y2="33.46" gradientTransform="matrix(1, 0, 0, 1, 0, 0)" xlink:href="#linear-gradient"/><linearGradient id="linear-gradient-61" x1="372.66" y1="-56.38" x2="251.38" y2="-124.61" xlink:href="#linear-gradient"/><linearGradient id="linear-gradient-62" x1="193.48" y1="87.8" x2="84.54" y2="26.53" gradientTransform="matrix(1, 0, 0, 1, 0, 0)" xlink:href="#linear-gradient"/><linearGradient id="linear-gradient-63" x1="368.76" y1="-49.45" x2="247.47" y2="-117.67" xlink:href="#linear-gradient"/><linearGradient id="linear-gradient-64" x1="199.02" y1="77.96" x2="90.08" y2="16.68" gradientTransform="matrix(1, 0, 0, 1, 0, 0)" xlink:href="#linear-gradient"/><linearGradient id="linear-gradient-65" x1="363.22" y1="-39.61" x2="241.94" y2="-107.83" xlink:href="#linear-gradient"/><linearGradient id="linear-gradient-66" x1="200.09" y1="76.04" x2="91.16" y2="14.77" gradientTransform="matrix(1, 0, 0, 1, 0, 0)" xlink:href="#linear-gradient"/><linearGradient id="linear-gradient-67" x1="362.14" y1="-37.69" x2="240.86" y2="-105.91" xlink:href="#linear-gradient"/><linearGradient id="linear-gradient-68" x1="184.32" y1="104.09" x2="75.39" y2="42.81" gradientTransform="matrix(1, 0, 0, 1, 0, 0)" xlink:href="#linear-gradient"/><linearGradient id="linear-gradient-69" x1="377.92" y1="-65.73" x2="256.63" y2="-133.95" xlink:href="#linear-gradient"/><linearGradient id="linear-gradient-70" x1="201.2" y1="74.07" x2="92.27" y2="12.8" gradientTransform="matrix(1, 0, 0, 1, 0, 0)" xlink:href="#linear-gradient"/><linearGradient id="linear-gradient-71" x1="361.04" y1="-35.72" x2="239.75" y2="-103.94" xlink:href="#linear-gradient"/><linearGradient id="linear-gradient-72" x1="406.74" y1="-29.51" x2="285.46" y2="-97.73" xlink:href="#linear-gradient"/><linearGradient id="linear-gradient-73" x1="429.18" y1="-69.4" x2="307.9" y2="-137.62" xlink:href="#linear-gradient"/><linearGradient id="linear-gradient-74" x1="430.14" y1="-71.11" x2="308.86" y2="-139.33" xlink:href="#linear-gradient"/><linearGradient id="linear-gradient-75" x1="414.86" y1="-43.93" x2="293.57" y2="-112.15" xlink:href="#linear-gradient"/><linearGradient id="linear-gradient-76" x1="424.57" y1="-61.2" x2="303.29" y2="-129.42" xlink:href="#linear-gradient"/><linearGradient id="linear-gradient-77" x1="408.81" y1="-33.17" x2="287.52" y2="-101.4" xlink:href="#linear-gradient"/><linearGradient id="linear-gradient-78" x1="190.53" y1="93.06" x2="81.59" y2="31.78" gradientTransform="matrix(1, 0, 0, 1, 0, 0)" xlink:href="#linear-gradient"/><linearGradient id="linear-gradient-79" x1="409.09" y1="-33.68" x2="287.81" y2="-101.9" xlink:href="#linear-gradient"/><linearGradient id="linear-gradient-80" x1="385.74" y1="-79.65" x2="264.46" y2="-147.87" xlink:href="#linear-gradient"/><linearGradient id="linear-gradient-81" x1="423.12" y1="-58.62" x2="301.84" y2="-126.84" xlink:href="#linear-gradient"/><linearGradient id="linear-gradient-82" x1="388.19" y1="-83.99" x2="266.91" y2="-152.22" xlink:href="#linear-gradient"/><linearGradient id="linear-gradient-83" x1="425.57" y1="-62.97" x2="304.28" y2="-131.19" xlink:href="#linear-gradient"/><linearGradient id="linear-gradient-84" x1="372.85" y1="-56.72" x2="251.57" y2="-124.95" xlink:href="#linear-gradient"/><linearGradient id="linear-gradient-85" x1="410.23" y1="-35.7" x2="288.94" y2="-103.92" xlink:href="#linear-gradient"/><linearGradient id="linear-gradient-86" x1="193.75" y1="87.32" x2="84.82" y2="26.04" gradientTransform="matrix(1, 0, 0, 1, 0, 0)" xlink:href="#linear-gradient"/><linearGradient id="linear-gradient-87" x1="368.49" y1="-48.96" x2="247.2" y2="-117.19" xlink:href="#linear-gradient"/><linearGradient id="linear-gradient-88" x1="405.86" y1="-27.94" x2="284.58" y2="-96.16" xlink:href="#linear-gradient"/><linearGradient id="linear-gradient-89" x1="195.85" y1="83.59" x2="86.91" y2="22.31" gradientTransform="matrix(1, 0, 0, 1, 0, 0)" xlink:href="#linear-gradient"/><linearGradient id="linear-gradient-90" x1="366.39" y1="-45.24" x2="245.11" y2="-113.46" xlink:href="#linear-gradient"/><linearGradient id="linear-gradient-91" x1="403.76" y1="-24.21" x2="282.48" y2="-92.44" xlink:href="#linear-gradient"/><linearGradient id="linear-gradient-92" x1="195.55" y1="84.12" x2="86.62" y2="22.84" gradientTransform="matrix(1, 0, 0, 1, 0, 0)" xlink:href="#linear-gradient"/><linearGradient id="linear-gradient-93" x1="366.69" y1="-45.76" x2="245.4" y2="-113.99" xlink:href="#linear-gradient"/><linearGradient id="linear-gradient-94" x1="404.06" y1="-24.74" x2="282.78" y2="-92.96" xlink:href="#linear-gradient"/><linearGradient id="linear-gradient-95" x1="189.65" y1="94.62" x2="80.71" y2="33.34" gradientTransform="matrix(1, 0, 0, 1, 0, 0)" xlink:href="#linear-gradient"/><linearGradient id="linear-gradient-96" x1="372.59" y1="-56.26" x2="251.31" y2="-124.48" xlink:href="#linear-gradient"/><linearGradient id="linear-gradient-97" x1="409.97" y1="-35.24" x2="288.68" y2="-103.46" xlink:href="#linear-gradient"/><linearGradient id="linear-gradient-98" x1="296.61" y1="-68.06" x2="175.33" y2="-136.29" xlink:href="#linear-gradient"/><linearGradient id="linear-gradient-99" x1="293.62" y1="-62.75" x2="172.34" y2="-130.97" xlink:href="#linear-gradient"/><linearGradient id="linear-gradient-100" x1="200.97" y1="74.49" x2="92.03" y2="13.21" gradientTransform="matrix(1, 0, 0, 1, 0, 0)" xlink:href="#linear-gradient"/><linearGradient id="linear-gradient-101" x1="298.51" y1="-71.43" x2="177.22" y2="-139.66" xlink:href="#linear-gradient"/><linearGradient id="linear-gradient-102" x1="359.18" y1="-32.42" x2="237.89" y2="-100.64" xlink:href="#linear-gradient"/><linearGradient id="linear-gradient-103" x1="296.42" y1="-67.72" x2="175.13" y2="-135.94" xlink:href="#linear-gradient"/><linearGradient id="linear-gradient-104" x1="370.3" y1="-52.19" x2="249.01" y2="-120.41" xlink:href="#linear-gradient"/><linearGradient id="linear-gradient-105" x1="307.54" y1="-87.49" x2="186.26" y2="-155.71" xlink:href="#linear-gradient"/><linearGradient id="linear-gradient-106" x1="362.76" y1="-38.79" x2="241.48" y2="-107.01" xlink:href="#linear-gradient"/><linearGradient id="linear-gradient-107" x1="300" y1="-74.09" x2="178.72" y2="-142.32" xlink:href="#linear-gradient"/><linearGradient id="linear-gradient-108" x1="372.34" y1="-55.82" x2="251.06" y2="-124.04" xlink:href="#linear-gradient"/><linearGradient id="linear-gradient-109" x1="309.58" y1="-91.12" x2="188.3" y2="-159.35" xlink:href="#linear-gradient"/><linearGradient id="linear-gradient-110" x1="370.12" y1="-51.86" x2="248.83" y2="-120.08" xlink:href="#linear-gradient"/><linearGradient id="linear-gradient-111" x1="307.36" y1="-87.16" x2="186.07" y2="-155.39" xlink:href="#linear-gradient"/><linearGradient id="linear-gradient-112" x1="192.53" y1="89.49" x2="83.6" y2="28.21" gradientTransform="matrix(1, 0, 0, 1, 0, 0)" xlink:href="#linear-gradient"/><linearGradient id="linear-gradient-113" x1="369.71" y1="-51.13" x2="248.42" y2="-119.36" xlink:href="#linear-gradient"/><linearGradient id="linear-gradient-114" x1="306.95" y1="-86.44" x2="185.66" y2="-154.66" xlink:href="#linear-gradient"/><linearGradient id="linear-gradient-115" x1="195.64" y1="83.96" x2="86.71" y2="22.68" gradientTransform="matrix(1, 0, 0, 1, 0, 0)" xlink:href="#linear-gradient"/><linearGradient id="linear-gradient-116" x1="366.59" y1="-45.6" x2="245.31" y2="-113.82" xlink:href="#linear-gradient"/><linearGradient id="linear-gradient-117" x1="303.83" y1="-80.9" x2="182.55" y2="-149.13" xlink:href="#linear-gradient"/><linearGradient id="linear-gradient-118" x1="203.82" y1="69.41" x2="94.89" y2="8.14" gradientTransform="matrix(1, 0, 0, 1, 0, 0)" xlink:href="#linear-gradient"/><linearGradient id="linear-gradient-119" x1="358.41" y1="-31.06" x2="237.13" y2="-99.28" xlink:href="#linear-gradient"/><linearGradient id="linear-gradient-120" x1="295.65" y1="-66.36" x2="174.37" y2="-134.58" xlink:href="#linear-gradient"/><linearGradient id="linear-gradient-121" x1="202.73" y1="71.36" x2="93.79" y2="10.08" gradientTransform="matrix(1, 0, 0, 1, 0, 0)" xlink:href="#linear-gradient"/><linearGradient id="linear-gradient-122" x1="359.51" y1="-33.01" x2="238.23" y2="-101.23" xlink:href="#linear-gradient"/><linearGradient id="linear-gradient-123" x1="296.75" y1="-68.31" x2="175.47" y2="-136.53" xlink:href="#linear-gradient"/><linearGradient id="linear-gradient-124" x1="203.8" y1="69.46" x2="94.86" y2="8.19" gradientTransform="matrix(1, 0, 0, 1, 0, 0)" xlink:href="#linear-gradient"/><linearGradient id="linear-gradient-125" x1="358.44" y1="-31.11" x2="237.16" y2="-99.33" xlink:href="#linear-gradient"/><linearGradient id="linear-gradient-126" x1="295.68" y1="-66.41" x2="174.4" y2="-134.63" xlink:href="#linear-gradient"/><linearGradient id="linear-gradient-127" x1="368.62" y1="-49.2" x2="247.34" y2="-117.43" xlink:href="#linear-gradient"/><linearGradient id="linear-gradient-128" x1="406" y1="-28.18" x2="284.71" y2="-96.4" xlink:href="#linear-gradient"/><linearGradient id="linear-gradient-129" x1="305.86" y1="-84.51" x2="184.58" y2="-152.73" xlink:href="#linear-gradient"/><linearGradient id="linear-gradient-130" x1="195.5" y1="84.21" x2="86.57" y2="22.93" gradientTransform="matrix(1, 0, 0, 1, 0, 0)" xlink:href="#linear-gradient"/><linearGradient id="linear-gradient-131" x1="366.73" y1="-45.85" x2="245.45" y2="-114.07" xlink:href="#linear-gradient"/><linearGradient id="linear-gradient-132" x1="404.11" y1="-24.83" x2="282.83" y2="-93.05" xlink:href="#linear-gradient"/><linearGradient id="linear-gradient-133" x1="303.97" y1="-81.15" x2="182.69" y2="-149.38" xlink:href="#linear-gradient"/></defs><g id="Layer_2" data-name="Layer 2"><g id="Layer_1-2" data-name="Layer 1"><path class="cls-1" d="M125.45,47.71a18.59,18.59,0,0,0,2.88-.42,7.7,7.7,0,0,0,4.11-2.79,9,9,0,0,0,1.76-5.79A7.72,7.72,0,0,0,132,32.86l2.24-2.28c.28-.29.15-.88-.29-1.33A4.27,4.27,0,0,0,131.65,28l-3,3a16.4,16.4,0,0,0-4-.71c-.58,0-1.19-.07-1.83-.07H111.08l-.51,3.08-.31,1.87-.06.38L109.14,42l-.31,1.89-.66,4H120l1.69,0q1.19,0,2.19-.06l1-.06Z"/><path class="cls-1" d="M125.19,52.78a1.41,1.41,0,0,0,.19-1.46l-1.89,1.92A3.62,3.62,0,0,1,124,54Z"/><path class="cls-1" d="M45,15.83l-5.26,5.35a3.21,3.21,0,0,0,.69,1.06c.84.85,2,1.1,2.5.55l4.38-4.46a1.38,1.38,0,0,1,1.55-.1,3.21,3.21,0,0,0-.93-1.75C46.89,15.48,45.58,15.19,45,15.83Z"/><path class="cls-2" d="M69,71.72c-1-1-1.27-2.33-.63-3l1.4-1.43H67l-4.13,25h16.5l1.92-11.68c-1-.9-2.19-1.14-2.79-.53l-1.37,1.4c-.63.64-1.94.35-2.93-.65s-1.26-2.33-.63-3l9.81-10,.1-.62H76.85l-5,5C71.25,73,69.93,72.72,69,71.72Z"/><path class="cls-3" d="M42.6,27.56a1.7,1.7,0,0,1,1.81-.22l-.06-.05c-1-1-1.26-2.33-.63-3l4.79-4.87a1.37,1.37,0,0,0,.3-1.22,1.38,1.38,0,0,0-1.55.1l-4.38,4.46c-.54.55-1.66.3-2.5-.55a3.21,3.21,0,0,1-.69-1.06l-7.35,7.47L30.4,40Z"/><path class="cls-4" d="M52.46,53.72a5.39,5.39,0,0,1-1.55-1.1c-.49-.5-.63-1.17-.32-1.49l4.72-4.79H45.78l.06-.36L37.91,54l2,2.07c.84.85,1.08,2,.54,2.54l-2.23,2.26c-.54.55-.29,1.68.54,2.54l.53.53c.84.85,2,1.1,2.49.55L43,63.37l.43-2.61h2.14Z"/><path class="cls-5" d="M80.54,56.88a1,1,0,0,1-.45.26l0,0c1,1,1.23,2.26.62,2.89a1.1,1.1,0,0,0-.31.66h3.41l.21-.21,1.43-8.69Z"/><path class="cls-6" d="M77.59,56.22c-1-1-1.24-2.32-.61-3l4.79-4.86c.63-.65.35-2-.64-3a3.43,3.43,0,0,0-.68-.54L64.85,60.74H73l4.21-4.28A1.06,1.06,0,0,1,77.59,56.22Z"/><path class="cls-7" d="M45.68,28.15l.12.11c.89.91,1.15,2.11.58,2.7l-.46.46c-.57.58-.31,1.78.58,2.69l.33.34a3.39,3.39,0,0,0,.88.64l1.59-9.2-2,2.05A1.53,1.53,0,0,1,45.68,28.15Z"/><path class="cls-8" d="M34.89,78.81l-5.46,5.55c-.63.64-1.94.35-2.93-.65s-2.29-1.28-2.92-.64l-.38.38-.54,3.3.29-.29c.64-.65,1.95-.36,2.93.64s1.27,2.33.63,3l-2.43,2.48h4.41l10-10.13Z"/><path class="cls-9" d="M24.76,74l-.67,4.09,1.21-1.23C25.91,76.22,25.66,75,24.76,74Z"/><path class="cls-10" d="M28.05,63.18c-1-1-1.26-2.33-.63-3l3.51-3.56c.63-.65.35-2-.64-3s-1.26-2.33-.63-3l.59-.6c.27-.28.15-.85-.27-1.27l-2-2.08c-.42-.42-1-.55-1.25-.27l-7.17,7.28c-.54.55-1.66.31-2.49-.55s-2-1.09-2.5-.55L10.31,57c-.63.64-1.94.35-2.92-.64h0c-1-1-1.27-2.33-.64-3l6.88-7h-11l-.36,1.93a3.61,3.61,0,0,1,1.3.84h0c1,1,1.26,2.34.63,3L1,55.35,0,60.74H26.94l-.7,4.2.47.48-.65.66-.54,3.3,3.17-3.22C29.32,65.52,29,64.18,28.05,63.18Z"/><path class="cls-11" d="M55.3,53.58l.91-.92c.61-.62,1.84-.37,2.81.53a1.43,1.43,0,0,1,.29-1.3l1.25-1.27a3.07,3.07,0,0,1-.54-.44l-.52-.53c-.84-.85-2-1.1-2.5-.55l-4.54,4.62A2.46,2.46,0,0,0,55.3,53.58Z"/><path class="cls-12" d="M80.09,57.14l0,0a2.5,2.5,0,0,0-2.45-.87l0,0A2.6,2.6,0,0,0,80.09,57.14Z"/><polygon class="cls-13" points="38.15 92.55 39.55 84.06 31.2 92.55 38.15 92.55"/><path class="cls-14" d="M60.58,57.84c.6-.62.37-1.85-.51-2.83a1.42,1.42,0,0,1-.3,1.27l-3.34,3.39a1.35,1.35,0,0,0-.32,1.09h1.67a1.1,1.1,0,0,1,.2-.28Z"/><path class="cls-15" d="M80.14,57.19l0,0a2.6,2.6,0,0,1-2.48-.9l0,0a1.06,1.06,0,0,0-.39.24L73,60.74h7.46a1.1,1.1,0,0,1,.31-.66C81.37,59.45,81.1,58.16,80.14,57.19Z"/><path class="cls-16" d="M80.14,57.19l0,0a2.6,2.6,0,0,1-2.48-.9l0,0a1.06,1.06,0,0,0-.39.24L73,60.74h7.46a1.1,1.1,0,0,1,.31-.66C81.37,59.45,81.1,58.16,80.14,57.19Z"/><path class="cls-17" d="M56.43,59.67l3.34-3.39a1.42,1.42,0,0,0,.3-1.27L60,54.86A3.24,3.24,0,0,1,59,53.19c-1-.9-2.2-1.15-2.81-.53l-.91.92a2.46,2.46,0,0,1-2.84.14l-6.93,7H56.11A1.35,1.35,0,0,1,56.43,59.67Z"/><path class="cls-18" d="M56.43,59.67l3.34-3.39a1.42,1.42,0,0,0,.3-1.27L60,54.86A3.24,3.24,0,0,1,59,53.19c-1-.9-2.2-1.15-2.81-.53l-.91.92a2.46,2.46,0,0,1-2.84.14l-6.93,7H56.11A1.35,1.35,0,0,1,56.43,59.67Z"/><path class="cls-19" d="M39.33,64l-.53-.53c-.83-.86-1.08-2-.54-2.54l2.23-2.26c.54-.55.3-1.69-.54-2.54l-2-2.07L45.84,46l1.87-10.89a3.39,3.39,0,0,1-.88-.64l-.33-.34c-.89-.91-1.15-2.11-.58-2.69l.46-.46c.57-.59.31-1.79-.58-2.7l-.12-.11a3.41,3.41,0,0,1-1.27-.81,1.7,1.7,0,0,0-1.81.22L30.4,40l-1.1,6.38H13.63l-6.88,7c-.63.65-.35,2,.64,3h0c1,1,2.29,1.28,2.92.64l4.22-4.29c.54-.54,1.66-.3,2.5.55s1.95,1.1,2.49.55l7.17-7.28c.27-.28.83-.15,1.25.27l2,2.08c.42.42.54,1,.27,1.27l-.59.6c-.63.64-.35,2,.63,3s1.27,2.33.64,3l-3.51,3.56c-.63.64-.35,2,.63,3s1.27,2.34.64,3l-3.17,3.22L24.76,74c.9,1,1.15,2.24.54,2.86l-1.21,1.23-.89,5.38.38-.38c.63-.64,1.94-.35,2.92.64s2.3,1.29,2.93.65l5.46-5.55,3.56,3.61-10,10.13H31.2l8.35-8.49L43,63.37l-1.14,1.16C41.28,65.08,40.17,64.83,39.33,64Z"/><path class="cls-20" d="M39.33,64l-.53-.53c-.83-.86-1.08-2-.54-2.54l2.23-2.26c.54-.55.3-1.69-.54-2.54l-2-2.07L45.84,46l1.87-10.89a3.39,3.39,0,0,1-.88-.64l-.33-.34c-.89-.91-1.15-2.11-.58-2.69l.46-.46c.57-.59.31-1.79-.58-2.7l-.12-.11a3.41,3.41,0,0,1-1.27-.81,1.7,1.7,0,0,0-1.81.22L30.4,40l-1.1,6.38H13.63l-6.88,7c-.63.65-.35,2,.64,3h0c1,1,2.29,1.28,2.92.64l4.22-4.29c.54-.54,1.66-.3,2.5.55s1.95,1.1,2.49.55l7.17-7.28c.27-.28.83-.15,1.25.27l2,2.08c.42.42.54,1,.27,1.27l-.59.6c-.63.64-.35,2,.63,3s1.27,2.33.64,3l-3.51,3.56c-.63.64-.35,2,.63,3s1.27,2.34.64,3l-3.17,3.22L24.76,74c.9,1,1.15,2.24.54,2.86l-1.21,1.23-.89,5.38.38-.38c.63-.64,1.94-.35,2.92.64s2.3,1.29,2.93.65l5.46-5.55,3.56,3.61-10,10.13H31.2l8.35-8.49L43,63.37l-1.14,1.16C41.28,65.08,40.17,64.83,39.33,64Z"/><path class="cls-21" d="M39.84,19.71a1.39,1.39,0,0,0-.15,1.47L45,15.83c.63-.64,1.94-.35,2.93.65a3.21,3.21,0,0,1,.93,1.75,3,3,0,0,1,.95.65l.63.65,2.2-12.78Z"/><path class="cls-22" d="M41.63,6.51l.52.53c.84.85,2,1.1,2.5.55L49.3,2.86c.54-.55,1.66-.31,2.5.54l.52.54a3.06,3.06,0,0,1,.61.87L53.76,0H37.26L35.63,9.52,39.13,6C39.67,5.41,40.79,5.65,41.63,6.51Z"/><path class="cls-23" d="M78.21,44.78a1.81,1.81,0,0,1,2.24.1l7.43-7.55,3.41-20.78H74.85L69.93,46.34h-.49l.23.21.52.53c.84.85,1.08,2,.54,2.54l-11,11.14h2.71Z"/><path class="cls-24" d="M62.52,50.73l4.32-4.39H64.77l-4.21,4.28A1.57,1.57,0,0,0,62.52,50.73Z"/><path class="cls-25" d="M48.81,18.23a1.37,1.37,0,0,1-.3,1.22l-4.79,4.87c-.63.64-.35,2,.63,3l.06.05a3.78,3.78,0,0,1,1.27.81,1.53,1.53,0,0,0,1.6-.21l2-2.05,1.09-6.36-.63-.65A3,3,0,0,0,48.81,18.23Z"/><path class="cls-26" d="M48.81,18.23a1.37,1.37,0,0,1-.3,1.22l-4.79,4.87c-.63.64-.35,2,.63,3l.06.05a3.78,3.78,0,0,1,1.27.81,1.53,1.53,0,0,0,1.6-.21l2-2.05,1.09-6.36-.63-.65A3,3,0,0,0,48.81,18.23Z"/><path class="cls-27" d="M80.45,44.88a1.81,1.81,0,0,0-2.24-.1l-15.73,16h.86v0h1.51Z"/><path class="cls-28" d="M80.45,44.88a1.81,1.81,0,0,0-2.24-.1l-15.73,16h.86v0h1.51Z"/><path class="cls-29" d="M39.69,21.18a1.39,1.39,0,0,1,.15-1.47l12.75-13,.34-1.94a3.06,3.06,0,0,0-.61-.87L51.8,3.4c-.84-.85-2-1.09-2.5-.54L44.65,7.59c-.54.55-1.66.3-2.5-.55l-.52-.53c-.84-.86-2-1.1-2.5-.55l-3.5,3.56-.83,4.82a2.94,2.94,0,0,1,2,1c1,1,1.27,2.33.64,3l-4.07,4.14-1.07,6.22Z"/><path class="cls-30" d="M39.69,21.18a1.39,1.39,0,0,1,.15-1.47l12.75-13,.34-1.94a3.06,3.06,0,0,0-.61-.87L51.8,3.4c-.84-.85-2-1.09-2.5-.54L44.65,7.59c-.54.55-1.66.3-2.5-.55l-.52-.53c-.84-.86-2-1.1-2.5-.55l-3.5,3.56-.83,4.82a2.94,2.94,0,0,1,2,1c1,1,1.27,2.33.64,3l-4.07,4.14-1.07,6.22Z"/><path class="cls-31" d="M70.19,47.08l-.52-.53-.23-.21h-2.6l-4.32,4.39a1.57,1.57,0,0,1-2-.11l-1.25,1.27a1.43,1.43,0,0,0-.29,1.3l.12.11A3.35,3.35,0,0,1,60.07,55c.88,1,1.11,2.21.51,2.83L58,60.48a1.1,1.1,0,0,0-.2.28h2l11-11.14C71.27,49.07,71,47.93,70.19,47.08Z"/><path class="cls-32" d="M70.19,47.08l-.52-.53-.23-.21h-2.6l-4.32,4.39a1.57,1.57,0,0,1-2-.11l-1.25,1.27a1.43,1.43,0,0,0-.29,1.3l.12.11A3.35,3.35,0,0,1,60.07,55c.88,1,1.11,2.21.51,2.83L58,60.48a1.1,1.1,0,0,0-.2.28h2l11-11.14C71.27,49.07,71,47.93,70.19,47.08Z"/><path class="cls-33" d="M36.84,15.32a2.94,2.94,0,0,0-2-1l-1.39,8.09,4.07-4.14C38.11,17.65,37.83,16.32,36.84,15.32Z"/><path class="cls-34" d="M36.84,15.32a2.94,2.94,0,0,0-2-1l-1.39,8.09,4.07-4.14C38.11,17.65,37.83,16.32,36.84,15.32Z"/><path class="cls-35" d="M36.84,15.32a2.94,2.94,0,0,0-2-1l-1.39,8.09,4.07-4.14C38.11,17.65,37.83,16.32,36.84,15.32Z"/><path class="cls-36" d="M45.68,28.15a3.78,3.78,0,0,0-1.27-.81A3.41,3.41,0,0,0,45.68,28.15Z"/><path class="cls-37" d="M45.68,28.15a3.78,3.78,0,0,0-1.27-.81A3.41,3.41,0,0,0,45.68,28.15Z"/><path class="cls-38" d="M45.68,28.15a3.78,3.78,0,0,0-1.27-.81A3.41,3.41,0,0,0,45.68,28.15Z"/><path class="cls-39" d="M60.07,55a3.35,3.35,0,0,0-.93-1.71L59,53.19A3.24,3.24,0,0,0,60,54.86Z"/><path class="cls-40" d="M60.07,55a3.35,3.35,0,0,0-.93-1.71L59,53.19A3.24,3.24,0,0,0,60,54.86Z"/><path class="cls-41" d="M60.07,55a3.35,3.35,0,0,0-.93-1.71L59,53.19A3.24,3.24,0,0,0,60,54.86Z"/><path class="cls-42" d="M146,49.54l-1.31,1.33A17.79,17.79,0,0,0,147,49.19,1.24,1.24,0,0,0,146,49.54Z"/><path class="cls-43" d="M128.24,53.13l20.91-21.25-3.56-3.62-6.81,6.93c-.63.64-1.94.35-2.93-.65s-1.26-2.33-.63-3l.24-.24c.63-.65.35-2-.64-3s-2.29-1.28-2.92-.64l-.25.25A4.27,4.27,0,0,1,134,29.25c.44.45.57,1,.29,1.33L132,32.86a7.72,7.72,0,0,1,2.19,5.85,9,9,0,0,1-1.76,5.79,7.7,7.7,0,0,1-4.11,2.79,18.59,18.59,0,0,1-2.88.42c1,1,1.22,2.3.6,2.93l-.67.68a1.41,1.41,0,0,1-.19,1.46L124,54a1.72,1.72,0,0,1-.1,1.91l-.79.79a3.47,3.47,0,0,0,.25.29c1,1,2.29,1.29,2.93.64l2.12-2.16A1.94,1.94,0,0,1,128.24,53.13Z"/><path class="cls-44" d="M108.4,17.44h0Z"/><path class="cls-45" d="M145.4,91.08A30.33,30.33,0,0,0,148,87.16l-2,2c-.51.53-1.58.29-2.38-.52l-.3-.31c-.8-.81-1-1.89-.52-2.42l8.09-8.21a27,27,0,0,0-.32-6.67,30.14,30.14,0,0,0-1-4.14,2.18,2.18,0,0,1-.72-.16l-4.36,4.43c-.48.49-1.48.27-2.24-.49l-.47-.48c-.75-.77-1.76-1-2.24-.5l-4.18,4.25c-.49.5-1.49.28-2.24-.49L132.7,73c-.76-.76-1-1.78-.49-2.28L143.9,58.81a.7.7,0,0,0,.17-.25,21.54,21.54,0,0,0-3.35-2.06L137.24,60a1.32,1.32,0,0,1-1.57,0l-4.49,4.57a1.51,1.51,0,0,1-1.59.21A9.53,9.53,0,0,1,131,70.17c0,2,0,6.07-4.71,8.26a1.37,1.37,0,0,1-.3,1.25l-10.72,10.9c-.64.64-.35,2,.63,3s2.29,1.28,2.93.64l1.36-1.39c.64-.65,1.95-.36,2.93.64s2.29,1.29,2.93.65L134,86c.64-.64,2-.35,2.93.64h0c1,1,1.27,2.34.63,3L132.25,95c-.64.64-.35,2,.63,3a4.1,4.1,0,0,1,.53.67A22,22,0,0,0,145.4,91.08Z"/><path class="cls-46" d="M113.44,48.44c1,1,2.3,1.29,2.93.64l1.17-1.18h-4.77A3.69,3.69,0,0,1,113.44,48.44Z"/><path class="cls-47" d="M106.25,33l4.3-4.37a1.33,1.33,0,0,0,.24-1.29,2.44,2.44,0,0,1-2.67-.83h0a3.67,3.67,0,0,1-.77-1.13h0l-3,3,.14.12c1,1,1.27,2.33.64,3l-4.79,4.86c-.64.65-.35,2,.63,3s2.29,1.29,2.93.64l3.67-3.73a3.23,3.23,0,0,1-.77-.59C105.93,34.81,105.68,33.62,106.25,33Z"/><path class="cls-48" d="M96.22,30.23l9.63-9.79c.57-.57.32-1.77-.57-2.67-.12-.12-.25-.23-.37-.33h-2.5l-1,1c-.57.58-1.74.32-2.63-.57a2.91,2.91,0,0,0-.51-.43H96l-.07.07L92.75,36.9l4-4C95.9,32,95.66,30.8,96.22,30.23Z"/><path class="cls-49" d="M122.66,58.71l-.1-.1a3.28,3.28,0,0,1-.56-.77l-3,3a29,29,0,0,1,4.19.44C123.76,60.72,123.51,59.57,122.66,58.71Z"/><path class="cls-50" d="M108.83,43.85a1.58,1.58,0,0,1-1.69.14l-1.55,1.58c-.63.64-.35,2,.63,3s2.3,1.29,2.93.65l1.27-1.29h-2.25Z"/><path class="cls-51" d="M110.63,84.4c1,1,2.29,1.29,2.92.64l5.11-5.19h-4.09l-4.19,4.26C110.46,84.21,110.54,84.31,110.63,84.4Z"/><path class="cls-52" d="M94,75.42h0c-1-1-2.3-1.29-2.93-.64l-5,5-.35,2.69a1.42,1.42,0,0,0,1.74.06l1.73-1.76c.57-.58,1.7-.39,2.64.39l2.78-2.81C95.28,77.75,95,76.42,94,75.42Z"/><path class="cls-53" d="M124.62,50.11a3.11,3.11,0,0,1-.8-1.36L122.61,50c-.63.64-.35,2,.63,3l.25.29,1.89-1.92A3.26,3.26,0,0,0,124.62,50.11Z"/><path class="cls-54" d="M90.23,87l-1,1c-.49.51-.27,1.56.5,2.34l.12.12.8-.81C91.19,89.14,91,88,90.23,87Z"/><path class="cls-55" d="M137.24,60l3.48-3.54-1.06-.5-4,4A1.32,1.32,0,0,0,137.24,60Z"/><path class="cls-56" d="M137.24,60l3.48-3.54-1.06-.5-4,4A1.32,1.32,0,0,0,137.24,60Z"/><path class="cls-57" d="M101.42,18.44l1-1H98.28a2.91,2.91,0,0,1,.51.43C99.68,18.76,100.85,19,101.42,18.44Z"/><path class="cls-58" d="M101.42,18.44l1-1H98.28a2.91,2.91,0,0,1,.51.43C99.68,18.76,100.85,19,101.42,18.44Z"/><path class="cls-59" d="M127.62,61l1.89-1.92c.63-.64.35-2-.64-3a4.49,4.49,0,0,1-.48-.62l-2.12,2.16c-.64.65-2,.36-2.93-.64a3.47,3.47,0,0,1-.25-.29L122,57.84a3.28,3.28,0,0,0,.56.77l.1.1c.85.86,1.1,2,.56,2.58a12.15,12.15,0,0,1,4.24,1.5A1.67,1.67,0,0,1,127.62,61Z"/><path class="cls-60" d="M127.62,61l1.89-1.92c.63-.64.35-2-.64-3a4.49,4.49,0,0,1-.48-.62l-2.12,2.16c-.64.65-2,.36-2.93-.64a3.47,3.47,0,0,1-.25-.29L122,57.84a3.28,3.28,0,0,0,.56.77l.1.1c.85.86,1.1,2,.56,2.58a12.15,12.15,0,0,1,4.24,1.5A1.67,1.67,0,0,1,127.62,61Z"/><path class="cls-61" d="M132.21,70.69c-.48.5-.27,1.52.49,2.28l.47.48c.75.77,1.75,1,2.24.49l4.18-4.25c.48-.49,1.49-.27,2.24.5l.47.48c.76.76,1.76,1,2.24.49l4.36-4.43a3.59,3.59,0,0,1-1.2-.81c-1-1-1.26-2.34-.63-3l.53-.54a14.57,14.57,0,0,0-3.53-3.84.7.7,0,0,1-.17.25Z"/><path class="cls-62" d="M132.21,70.69c-.48.5-.27,1.52.49,2.28l.47.48c.75.77,1.75,1,2.24.49l4.18-4.25c.48-.49,1.49-.27,2.24.5l.47.48c.76.76,1.76,1,2.24.49l4.36-4.43a3.59,3.59,0,0,1-1.2-.81c-1-1-1.26-2.34-.63-3l.53-.54a14.57,14.57,0,0,0-3.53-3.84.7.7,0,0,1-.17.25Z"/><path class="cls-63" d="M125.38,51.32l.67-.68c.62-.63.35-1.94-.6-2.93l-.66,0-1,1a3.11,3.11,0,0,0,.8,1.36A3.26,3.26,0,0,1,125.38,51.32Z"/><path class="cls-64" d="M125.38,51.32l.67-.68c.62-.63.35-1.94-.6-2.93l-.66,0-1,1a3.11,3.11,0,0,0,.8,1.36A3.26,3.26,0,0,1,125.38,51.32Z"/><path class="cls-65" d="M105.85,20.44l-9.63,9.79c-.56.57-.32,1.73.52,2.62l4.85-4.92c.6-.62,1.82-.37,2.78.52l3-3h0a1.7,1.7,0,0,1,.13-1.85l6-6.13h-8.6c.12.1.25.21.37.33C106.17,18.67,106.42,19.87,105.85,20.44Z"/><path class="cls-66" d="M105.85,20.44l-9.63,9.79c-.56.57-.32,1.73.52,2.62l4.85-4.92c.6-.62,1.82-.37,2.78.52l3-3h0a1.7,1.7,0,0,1,.13-1.85l6-6.13h-8.6c.12.1.25.21.37.33C106.17,18.67,106.42,19.87,105.85,20.44Z"/><polygon class="cls-67" points="95.95 17.44 95.94 17.52 96.01 17.44 95.95 17.44"/><polygon class="cls-68" points="95.95 17.44 95.94 17.52 96.01 17.44 95.95 17.44"/><path class="cls-69" d="M143.33,88.33l.3.31c.8.81,1.87,1,2.38.52l2-2a23.19,23.19,0,0,0,2.92-9.46l-8.09,8.21C142.3,86.44,142.53,87.52,143.33,88.33Z"/><path class="cls-70" d="M143.33,88.33l.3.31c.8.81,1.87,1,2.38.52l2-2a23.19,23.19,0,0,0,2.92-9.46l-8.09,8.21C142.3,86.44,142.53,87.52,143.33,88.33Z"/><path class="cls-71" d="M110.79,27.38a1.33,1.33,0,0,1-.24,1.29L106.25,33c-.57.58-.32,1.77.57,2.67a3.23,3.23,0,0,0,.77.59l3-3,.51-3.08h4.08l11.5-11.64a1.35,1.35,0,0,0,.32-1.11h-6.34L111,27.19A.92.92,0,0,1,110.79,27.38Z"/><path class="cls-72" d="M110.79,27.38a1.33,1.33,0,0,1-.24,1.29L106.25,33c-.57.58-.32,1.77.57,2.67a3.23,3.23,0,0,0,.77.59l3-3,.51-3.08h4.08l11.5-11.64a1.35,1.35,0,0,0,.32-1.11h-6.34L111,27.19A.92.92,0,0,1,110.79,27.38Z"/><path class="cls-73" d="M118.35,47.9c1.22.71,2.51.77,3.22.05l.07-.07-1.69,0Z"/><path class="cls-74" d="M92.79,84.44c.63-.65.35-2-.64-3l-.28-.25-2.52,2.57c-.63.64-.35,2,.64,3a3.36,3.36,0,0,1,.24.29Z"/><path class="cls-75" d="M92.76,91.7c-.49.51-1.53.28-2.3-.51l-.64-.65-5.89,6-.47,3.62H94.61l15.77-16c-.77-1-1-2.11-.39-2.69l1.54-1.57h-7.12Z"/><path class="cls-76" d="M94.33,57.55c-1-1-1.27-2.33-.64-3L97.2,51c.63-.64.35-2-.63-3s-1.27-2.33-.64-3l.59-.6c.27-.27.15-.84-.27-1.27l-2-2.07c-.42-.43-1-.55-1.25-.28l-1,1L88.84,60.68h6l.16-.16C95.59,59.88,95.31,58.55,94.33,57.55Z"/><path class="cls-77" d="M90.94,68.23h0a3.91,3.91,0,0,1-.57-.75H87.73l-1.15,8.8,5-5.08C92.2,70.56,91.92,69.23,90.94,68.23Z"/><path class="cls-78" d="M123.49,53.24l-.78.8a1.5,1.5,0,0,0-.24,1.52L124,54A3.62,3.62,0,0,0,123.49,53.24Z"/><path class="cls-79" d="M124,54l-1.51,1.54a3.29,3.29,0,0,0,.62,1.16l.79-.79A1.72,1.72,0,0,0,124,54Z"/><path class="cls-80" d="M124,54l-1.51,1.54a3.29,3.29,0,0,0,.62,1.16l.79-.79A1.72,1.72,0,0,0,124,54Z"/><path class="cls-81" d="M110.38,84.12l4.19-4.26h-3L110,81.43C109.42,82,109.61,83.16,110.38,84.12Z"/><path class="cls-82" d="M110.38,84.12l4.19-4.26h-3L110,81.43C109.42,82,109.61,83.16,110.38,84.12Z"/><path class="cls-83" d="M90.94,68.23h0c1,1,1.26,2.33.63,3l-5,5.08-.47,3.55,5-5c.63-.65,1.94-.36,2.93.64h0c1,1,1.26,2.33.63,3l-2.78,2.81.28.25c1,1,1.27,2.33.64,3L90.23,87c.78.95,1,2.1.39,2.69l-.8.81.64.65c.77.79,1.81,1,2.3.51l11.65-11.84h-1.49l2-12.38H90.37A3.91,3.91,0,0,0,90.94,68.23Z"/><path class="cls-84" d="M90.94,68.23h0c1,1,1.26,2.33.63,3l-5,5.08-.47,3.55,5-5c.63-.65,1.94-.36,2.93.64h0c1,1,1.26,2.33.63,3l-2.78,2.81.28.25c1,1,1.27,2.33.64,3L90.23,87c.78.95,1,2.1.39,2.69l-.8.81.64.65c.77.79,1.81,1,2.3.51l11.65-11.84h-1.49l2-12.38H90.37A3.91,3.91,0,0,0,90.94,68.23Z"/><path class="cls-85" d="M122,56l.46-.46a1.5,1.5,0,0,1,.24-1.52l.78-.8-.25-.29c-1-1-1.26-2.33-.63-3l1.21-1.23a1.62,1.62,0,0,1,0-.93q-1,0-2.19.06l-.07.07c-.71.72-2,.66-3.22-.05h-.81l-1.17,1.18c-.63.65-1.94.36-2.93-.64a3.69,3.69,0,0,0-.67-.54h-2.35l-1.27,1.29c-.63.64-1.94.35-2.93-.65s-1.26-2.33-.63-3L107.14,44a3.55,3.55,0,0,1-1.22-.82c-1-1-1.27-2.35-.63-3l3.56-3.6a2.17,2.17,0,0,1-1.26-.28L103.92,40c-.64.65-2,.36-2.93-.64s-1.27-2.33-.63-3l4.79-4.86c.63-.65.35-2-.64-3l-.14-.12-5,5c-.57.58-1.75.32-2.63-.57l-.05-.06-4,4-.82,5,1-1c.27-.27.83-.15,1.25.28l2,2.07c.42.43.54,1,.27,1.27l-.59.6c-.63.65-.35,2,.64,3s1.26,2.33.63,3l-3.51,3.57c-.63.64-.35,2,.64,3s1.26,2.33.63,3l-.16.16h16.63l6,.14q.82,0,1.59,0l3-3A1.57,1.57,0,0,1,122,56Z"/><path class="cls-86" d="M122,56l.46-.46a1.5,1.5,0,0,1,.24-1.52l.78-.8-.25-.29c-1-1-1.26-2.33-.63-3l1.21-1.23a1.62,1.62,0,0,1,0-.93q-1,0-2.19.06l-.07.07c-.71.72-2,.66-3.22-.05h-.81l-1.17,1.18c-.63.65-1.94.36-2.93-.64a3.69,3.69,0,0,0-.67-.54h-2.35l-1.27,1.29c-.63.64-1.94.35-2.93-.65s-1.26-2.33-.63-3L107.14,44a3.55,3.55,0,0,1-1.22-.82c-1-1-1.27-2.35-.63-3l3.56-3.6a2.17,2.17,0,0,1-1.26-.28L103.92,40c-.64.65-2,.36-2.93-.64s-1.27-2.33-.63-3l4.79-4.86c.63-.65.35-2-.64-3l-.14-.12-5,5c-.57.58-1.75.32-2.63-.57l-.05-.06-4,4-.82,5,1-1c.27-.27.83-.15,1.25.28l2,2.07c.42.43.54,1,.27,1.27l-.59.6c-.63.65-.35,2,.64,3s1.26,2.33.63,3l-3.51,3.57c-.63.64-.35,2,.64,3s1.26,2.33.63,3l-.16.16h16.63l6,.14q.82,0,1.59,0l3-3A1.57,1.57,0,0,1,122,56Z"/><path class="cls-87" d="M123.83,47.82a1.62,1.62,0,0,0,0,.93l1-1Z"/><path class="cls-88" d="M123.83,47.82a1.62,1.62,0,0,0,0,.93l1-1Z"/><path class="cls-89" d="M123.83,47.82a1.62,1.62,0,0,0,0,.93l1-1Z"/><path class="cls-90" d="M110.57,33.27l-3,3a2.17,2.17,0,0,0,1.26.28l1.41-1.44Z"/><path class="cls-91" d="M110.57,33.27l-3,3a2.17,2.17,0,0,0,1.26.28l1.41-1.44Z"/><path class="cls-92" d="M110.57,33.27l-3,3a2.17,2.17,0,0,0,1.26.28l1.41-1.44Z"/><path class="cls-93" d="M101.59,27.93l-4.85,4.92.05.06c.88.89,2.06,1.15,2.63.57l5-5C103.41,27.56,102.19,27.31,101.59,27.93Z"/><path class="cls-94" d="M101.59,27.93l-4.85,4.92.05.06c.88.89,2.06,1.15,2.63.57l5-5C103.41,27.56,102.19,27.31,101.59,27.93Z"/><path class="cls-95" d="M101.59,27.93l-4.85,4.92.05.06c.88.89,2.06,1.15,2.63.57l5-5C103.41,27.56,102.19,27.31,101.59,27.93Z"/><path class="cls-96" d="M122,56a1.57,1.57,0,0,0,0,1.82l1.09-1.12a3.29,3.29,0,0,1-.62-1.16Z"/><path class="cls-97" d="M122,56a1.57,1.57,0,0,0,0,1.82l1.09-1.12a3.29,3.29,0,0,1-.62-1.16Z"/><path class="cls-98" d="M122,56a1.57,1.57,0,0,0,0,1.82l1.09-1.12a3.29,3.29,0,0,1-.62-1.16Z"/><path class="cls-99" d="M128.69,31l3-3a1.82,1.82,0,0,0-1.63.42l-.82.83c-.57.58-1.74.32-2.63-.58h0l-.11-.12-1.72,1.75A16.4,16.4,0,0,1,128.69,31Z"/><path class="cls-100" d="M127.58,23.75l.28.32L129,22.91c.57-.57.32-1.77-.57-2.67a2.7,2.7,0,0,0-.53-.43l-1,1C126.32,21.42,126.6,22.75,127.58,23.75Z"/><path class="cls-101" d="M128.43,20.24c.89.9,1.14,2.1.57,2.67l-1.14,1.16c.75.95.92,2.08.36,2.66l-1.76,1.78.11.12h0c.89.9,2.06,1.16,2.63.58l.82-.83a1.82,1.82,0,0,1,1.63-.42l.25-.25c.63-.64,1.94-.36,2.92.64s1.27,2.33.64,3l-.24.24c-.63.64-.35,2,.63,3s2.3,1.29,2.93.65l6.81-6.93,3.56,3.62L128.24,53.13a1.94,1.94,0,0,0,.15,2.36l16.09-16.35c.63-.64,1.94-.35,2.93.65s1.26,2.33.63,3l-4.79,4.87c-.63.64-.35,2,.63,3a3.74,3.74,0,0,0,.55.45l.28-.18L146,49.54a1.24,1.24,0,0,1,1-.35q5.29-4.66,5.3-12.81a19.52,19.52,0,0,0-2.47-9.75,16.65,16.65,0,0,0-7.23-6.8c-2.83-1.42-7-2.2-12.38-2.35l-2.3,2.33A2.7,2.7,0,0,1,128.43,20.24Z"/><path class="cls-102" d="M128.43,20.24c.89.9,1.14,2.1.57,2.67l-1.14,1.16c.75.95.92,2.08.36,2.66l-1.76,1.78.11.12h0c.89.9,2.06,1.16,2.63.58l.82-.83a1.82,1.82,0,0,1,1.63-.42l.25-.25c.63-.64,1.94-.36,2.92.64s1.27,2.33.64,3l-.24.24c-.63.64-.35,2,.63,3s2.3,1.29,2.93.65l6.81-6.93,3.56,3.62L128.24,53.13a1.94,1.94,0,0,0,.15,2.36l16.09-16.35c.63-.64,1.94-.35,2.93.65s1.26,2.33.63,3l-4.79,4.87c-.63.64-.35,2,.63,3a3.74,3.74,0,0,0,.55.45l.28-.18L146,49.54a1.24,1.24,0,0,1,1-.35q5.29-4.66,5.3-12.81a19.52,19.52,0,0,0-2.47-9.75,16.65,16.65,0,0,0-7.23-6.8c-2.83-1.42-7-2.2-12.38-2.35l-2.3,2.33A2.7,2.7,0,0,1,128.43,20.24Z"/><path class="cls-103" d="M124.74,30.26l1.72-1.75c-.78-.88-1-2-.46-2.55l1.86-1.89-.28-.32c-1-1-1.26-2.33-.63-3l1-1a1.67,1.67,0,0,0-2.09-.15L115.45,30.19h7.46C123.55,30.19,124.16,30.22,124.74,30.26Z"/><path class="cls-104" d="M124.74,30.26l1.72-1.75c-.78-.88-1-2-.46-2.55l1.86-1.89-.28-.32c-1-1-1.26-2.33-.63-3l1-1a1.67,1.67,0,0,0-2.09-.15L115.45,30.19h7.46C123.55,30.19,124.16,30.22,124.74,30.26Z"/><path class="cls-105" d="M149.62,66.89l-.21-.67-.51.51A2.18,2.18,0,0,0,149.62,66.89Z"/><path class="cls-106" d="M149.62,66.89l-.21-.67-.51.51A2.18,2.18,0,0,0,149.62,66.89Z"/><path class="cls-107" d="M108.12,26.55a2.44,2.44,0,0,0,2.67.83A3.1,3.1,0,0,0,110,26h0c-.88-.9-2.06-1.16-2.63-.58a3.67,3.67,0,0,0,.77,1.13Z"/><path class="cls-108" d="M108.12,26.55a2.44,2.44,0,0,0,2.67.83A3.1,3.1,0,0,0,110,26h0c-.88-.9-2.06-1.16-2.63-.58a3.67,3.67,0,0,0,.77,1.13Z"/><path class="cls-109" d="M131.18,64.62l4.49-4.57a2.78,2.78,0,0,1-.67-.5l-1.84-1.87-5.28,5.37a6.73,6.73,0,0,1,1.71,1.78A1.51,1.51,0,0,0,131.18,64.62Z"/><path class="cls-110" d="M131.18,64.62l4.49-4.57a2.78,2.78,0,0,1-.67-.5l-1.84-1.87-5.28,5.37a6.73,6.73,0,0,1,1.71,1.78A1.51,1.51,0,0,0,131.18,64.62Z"/><path class="cls-111" d="M108.83,43.85l.31-1.89-2,2A1.58,1.58,0,0,0,108.83,43.85Z"/><path class="cls-112" d="M108.83,43.85l.31-1.89-2,2A1.58,1.58,0,0,0,108.83,43.85Z"/><path class="cls-113" d="M147.7,65.92a3.59,3.59,0,0,0,1.2.81l.51-.51a17.8,17.8,0,0,0-1.81-3.82l-.53.54C146.44,63.58,146.72,64.92,147.7,65.92Z"/><path class="cls-114" d="M147.7,65.92a3.59,3.59,0,0,0,1.2.81l.51-.51a17.8,17.8,0,0,0-1.81-3.82l-.53.54C146.44,63.58,146.72,64.92,147.7,65.92Z"/><path class="cls-115" d="M147.7,65.92a3.59,3.59,0,0,0,1.2.81l.51-.51a17.8,17.8,0,0,0-1.81-3.82l-.53.54C146.44,63.58,146.72,64.92,147.7,65.92Z"/><path class="cls-116" d="M135,59.55a2.78,2.78,0,0,0,.67.5l4-4c-1.29-.58-2.68-1.12-4.2-1.65a28,28,0,0,0,9-3.3,3.74,3.74,0,0,1-.55-.45c-1-1-1.26-2.33-.63-3L148,42.76c.63-.64.35-2-.63-3s-2.3-1.29-2.93-.65L128.39,55.49a4.49,4.49,0,0,0,.48.62c1,1,1.27,2.33.64,3L127.62,61a1.67,1.67,0,0,0-.16,1.79,3.48,3.48,0,0,1,.38.23l0,0,5.28-5.37Z"/><path class="cls-117" d="M135,59.55a2.78,2.78,0,0,0,.67.5l4-4c-1.29-.58-2.68-1.12-4.2-1.65a28,28,0,0,0,9-3.3,3.74,3.74,0,0,1-.55-.45c-1-1-1.26-2.33-.63-3L148,42.76c.63-.64.35-2-.63-3s-2.3-1.29-2.93-.65L128.39,55.49a4.49,4.49,0,0,0,.48.62c1,1,1.27,2.33.64,3L127.62,61a1.67,1.67,0,0,0-.16,1.79,3.48,3.48,0,0,1,.38.23l0,0,5.28-5.37Z"/><path class="cls-118" d="M135,59.55a2.78,2.78,0,0,0,.67.5l4-4c-1.29-.58-2.68-1.12-4.2-1.65a28,28,0,0,0,9-3.3,3.74,3.74,0,0,1-.55-.45c-1-1-1.26-2.33-.63-3L148,42.76c.63-.64.35-2-.63-3s-2.3-1.29-2.93-.65L128.39,55.49a4.49,4.49,0,0,0,.48.62c1,1,1.27,2.33.64,3L127.62,61a1.67,1.67,0,0,0-.16,1.79,3.48,3.48,0,0,1,.38.23l0,0,5.28-5.37Z"/><path class="cls-119" d="M126.46,28.51l1.76-1.78c.56-.58.39-1.71-.36-2.66L126,26C125.46,26.51,125.68,27.63,126.46,28.51Z"/><path class="cls-120" d="M126.46,28.51l1.76-1.78c.56-.58.39-1.71-.36-2.66L126,26C125.46,26.51,125.68,27.63,126.46,28.51Z"/><path class="cls-121" d="M126.46,28.51l1.76-1.78c.56-.58.39-1.71-.36-2.66L126,26C125.46,26.51,125.68,27.63,126.46,28.51Z"/><path class="cls-122" d="M107.35,25.42c.57-.58,1.75-.32,2.63.58h0a3.1,3.1,0,0,1,.81,1.38.92.92,0,0,0,.25-.19l9.6-9.75h-7.13l-6,6.13A1.7,1.7,0,0,0,107.35,25.42Z"/><path class="cls-123" d="M107.35,25.42c.57-.58,1.75-.32,2.63.58h0a3.1,3.1,0,0,1,.81,1.38.92.92,0,0,0,.25-.19l9.6-9.75h-7.13l-6,6.13A1.7,1.7,0,0,0,107.35,25.42Z"/><path class="cls-124" d="M107.35,25.42c.57-.58,1.75-.32,2.63.58h0a3.1,3.1,0,0,1,.81,1.38.92.92,0,0,0,.25-.19l9.6-9.75h-7.13l-6,6.13A1.7,1.7,0,0,0,107.35,25.42Z"/><path class="cls-125" d="M126.66,18.55l-11.5,11.64h.29l10.36-10.53a1.67,1.67,0,0,1,2.09.15l2.3-2.33c-.66,0-1.33,0-2,0H127A1.35,1.35,0,0,1,126.66,18.55Z"/><path class="cls-126" d="M126.66,18.55l-11.5,11.64h.29l10.36-10.53a1.67,1.67,0,0,1,2.09.15l2.3-2.33c-.66,0-1.33,0-2,0H127A1.35,1.35,0,0,1,126.66,18.55Z"/><path class="cls-127" d="M126.66,18.55l-11.5,11.64h.29l10.36-10.53a1.67,1.67,0,0,1,2.09.15l2.3-2.33c-.66,0-1.33,0-2,0H127A1.35,1.35,0,0,1,126.66,18.55Z"/><path class="cls-128" d="M110.2,35.52l-.75.77a1.09,1.09,0,0,1-.6.29l-3.56,3.6c-.64.64-.36,2,.63,3a3.55,3.55,0,0,0,1.22.82l2-2Z"/><path class="cls-129" d="M110.2,35.52l-.75.77a1.09,1.09,0,0,1-.6.29l-3.56,3.6c-.64.64-.36,2,.63,3a3.55,3.55,0,0,0,1.22.82l2-2Z"/><path class="cls-130" d="M110.2,35.52l-.75.77a1.09,1.09,0,0,1-.6.29l-3.56,3.6c-.64.64-.36,2,.63,3a3.55,3.55,0,0,0,1.22.82l2-2Z"/><path class="cls-131" d="M110.2,35.52l.06-.38-1.41,1.44a1.09,1.09,0,0,0,.6-.29Z"/><path class="cls-132" d="M110.2,35.52l.06-.38-1.41,1.44a1.09,1.09,0,0,0,.6-.29Z"/><path class="cls-133" d="M110.2,35.52l.06-.38-1.41,1.44a1.09,1.09,0,0,0,.6-.29Z"/><path class="cls-134" d="M110.2,35.52l.06-.38-1.41,1.44a1.09,1.09,0,0,0,.6-.29Z"/></g></g></svg>