<svg width="55" height="94" viewBox="0 0 55 94" fill="none" xmlns="http://www.w3.org/2000/svg">
<g id="leaf left">
<path id="Vector" d="M54.1624 88.7193C50.9105 87.9083 47.7655 86.7727 44.7589 85.3279C44.5665 85.1367 44.0452 84.5564 43.624 83.5391C43.424 83.0556 43.2725 82.5356 43.1694 81.9848C43.2939 81.9697 43.4178 81.9477 43.5416 81.9188C46.2037 81.2869 47.6668 78.2268 47.0029 75.0422C45.7592 69.0779 41.651 66.8239 41.651 66.8239C41.651 66.8239 37.4679 72.1688 37.7339 76.5512C37.8678 78.7506 39.2793 80.7374 41.0071 81.5812C41.0933 82.325 41.2429 82.9864 41.4278 83.5686C40.6733 83.1323 39.9288 82.6758 39.1951 82.198C36.1193 80.1967 33.288 77.8741 30.7359 75.261C30.6209 75.0076 30.3656 74.3468 30.3046 73.3553C30.2751 72.8774 30.2908 72.2908 30.4033 71.6086C30.5253 71.6369 30.6492 71.6589 30.7749 71.6734C33.493 71.9896 35.9137 69.6149 36.3796 66.3951C37.251 60.3647 34.1613 56.8419 34.1613 56.8419C34.1613 56.8419 28.402 60.4339 27.154 64.6434C26.5271 66.756 27.1741 69.1056 28.5095 70.4894C28.3373 71.2138 28.2517 71.8828 28.2253 72.4901C27.9103 72.1154 27.601 71.7363 27.2967 71.3515C24.783 68.1763 22.6823 64.7326 21.023 61.0759C20.9991 60.8067 20.9715 60.0265 21.3035 58.9746C21.4613 58.4754 21.6795 57.9799 21.9542 57.4914C22.0592 57.5599 22.1686 57.6228 22.2818 57.68C24.7276 58.9073 27.8148 57.5033 29.3533 54.6369C32.2349 49.2686 30.536 44.9013 30.536 44.9013C30.536 44.9013 23.8958 46.3072 21.2827 49.8351C19.9711 51.6057 19.7756 54.0351 20.5571 55.7925C20.1434 56.4206 19.8316 57.0255 19.5989 57.592C19.5461 57.448 19.4946 57.3034 19.443 57.1588C17.9793 53.0279 17.0777 48.7361 16.7495 44.3556C16.8287 44.0714 17.0758 43.3502 17.7234 42.5064C18.0422 42.0915 18.4169 41.7004 18.8425 41.3357C18.918 41.4363 18.9991 41.5325 19.0859 41.6249C20.9646 43.6143 24.346 43.3515 26.7717 41.1842C31.315 37.125 31.2131 32.4402 31.2131 32.4402C31.2131 32.4402 24.4925 31.4902 20.8306 33.9121C18.9928 35.1275 17.978 37.3438 18.1113 39.2621C17.514 39.706 17.0192 40.1625 16.6086 40.6108C16.6086 40.6045 16.6086 40.5982 16.6086 40.5919C16.6086 36.0467 17.2198 31.5662 18.4269 27.2379C18.5816 27.016 19.062 26.4011 19.9919 25.8088C20.4333 25.5278 20.9193 25.2882 21.4437 25.0914C21.4801 25.2115 21.5229 25.3297 21.5732 25.4466C22.6578 27.9585 25.9254 28.8677 28.9465 27.6611C34.6046 25.4007 36.1105 20.9631 36.1105 20.9631C36.1105 20.9631 30.1198 17.7715 25.8506 18.7951C23.7078 19.3088 21.9963 21.0442 21.4657 22.8927C20.7451 23.1077 20.1176 23.3712 19.575 23.6553C20.7885 20.3148 22.356 17.1214 24.2573 14.1173C26.8327 15.1874 30.104 13.9708 32.1154 11.1948C36.3305 5.37327 35.0347 0 35.0347 0C35.0347 0 27.0502 0.594795 23.4387 4.30629C21.0803 6.73011 20.7533 10.756 22.566 12.9075C20.9218 15.4936 19.5147 18.2135 18.3572 21.0448C18.1446 20.3538 17.878 19.7766 17.6115 19.3094C17.548 19.1975 17.4826 19.0906 17.4178 18.9875C18.3484 17.2314 18.2333 14.6649 16.8928 12.7969C14.3332 9.23001 7.71498 7.72479 7.71498 7.72479C7.71498 7.72479 5.95072 12.0663 8.75116 17.4773C10.2469 20.3664 13.3127 21.8163 15.7761 20.626C15.8277 20.6009 15.8786 20.5745 15.9289 20.5468C16.5753 21.793 17.05 23.7314 16.4596 26.5627C15.8503 28.7262 15.3851 30.9256 15.0638 33.1519L14.9185 33.8385L14.9864 33.7103C14.7708 35.3299 14.6318 36.9628 14.5702 38.6051C14.1301 38.021 13.678 37.5645 13.2637 37.213C13.1656 37.13 13.0681 37.0514 12.9713 36.9772C13.2448 35.0093 12.2589 32.6364 10.3608 31.3399C6.7354 28.8639 0.000887 29.7127 0.000887 29.7127C0.000887 29.7127 -0.172018 34.3956 4.31032 38.5227C6.70396 40.7258 10.081 41.0402 11.9892 39.0791C12.0294 39.0376 12.0678 38.9955 12.1055 38.9521C13.1436 39.9053 14.2565 41.5734 14.6664 44.4562L14.684 44.5826C14.8531 46.7964 15.1625 48.9888 15.612 51.1511L15.702 51.7874L15.7202 51.6578C16.0673 53.248 16.4898 54.8217 16.9877 56.3747C16.381 55.9824 15.8063 55.7114 15.3014 55.5246C15.1807 55.48 15.0625 55.4398 14.9462 55.4027C14.5306 53.4592 12.7921 51.5673 10.5645 50.9983C6.31099 49.9112 0.273134 53.0122 0.273134 53.0122C0.273134 53.0122 1.71234 57.4719 7.33585 59.8171C10.3387 61.0689 13.6189 60.2088 14.7419 57.7133C14.7658 57.6611 14.7871 57.6077 14.8079 57.5542C16.1037 58.0931 17.7127 59.2726 19.0796 61.819C20.007 63.8757 21.0677 65.8675 22.2579 67.7858L22.5773 68.3857L22.5478 68.248C23.4223 69.6255 24.3642 70.9642 25.3715 72.2606C24.6597 72.0965 24.0215 72.0374 23.4789 72.0349C23.3507 72.0349 23.2255 72.0368 23.1036 72.0418C22.0479 70.358 19.7674 69.1741 17.4801 69.4011C13.1109 69.8343 8.4984 74.8133 8.4984 74.8133C8.4984 74.8133 11.3762 78.5116 17.4625 78.7921C20.7124 78.9417 23.5009 77.0114 23.7021 74.2827C23.7065 74.2255 23.7084 74.1683 23.7097 74.111C25.1174 74.1745 27.0427 74.736 29.2093 76.6814L29.3212 76.7819C30.8617 78.3526 32.4989 79.8226 34.2267 81.1851L34.2997 81.2505L34.2902 81.2347C35.5043 82.1892 36.7631 83.0908 38.064 83.9371C38.262 84.066 38.4607 84.193 38.6607 84.3187C37.9382 84.408 37.3202 84.5709 36.8109 84.7532C36.6895 84.7966 36.5732 84.8419 36.4607 84.8884C34.8932 83.6674 32.3455 83.3348 30.2732 84.3307C26.3158 86.232 23.6839 92.4887 23.6839 92.4887C23.6839 92.4887 27.6532 94.9798 33.4685 93.1614C36.5732 92.19 38.5336 89.4229 37.7892 86.7897C37.7735 86.7344 37.7559 86.6797 37.7377 86.6256C39.0788 86.205 41.0719 86.0742 43.7617 87.1506C45.8183 88.144 47.9372 88.9991 50.1095 89.7096L50.6521 89.9284L50.5559 89.8536C51.5801 90.1787 52.6151 90.4717 53.6613 90.7326L54.1637 88.7187L54.1624 88.7193Z" fill="url(#paint0_linear_634_10540)"/>
</g>
<defs>
<linearGradient id="paint0_linear_634_10540" x1="2.97901" y1="81.4994" x2="59.2814" y2="75.6253" gradientUnits="userSpaceOnUse">
<stop stop-color="#D06D30"/>
<stop offset="0.241139" stop-color="#FFD887"/>
<stop offset="0.653953" stop-color="#FFDCAD"/>
<stop offset="1" stop-color="#FAB858"/>
</linearGradient>
</defs>
</svg>
