<svg width="55" height="94" viewBox="0 0 55 94" fill="none" xmlns="http://www.w3.org/2000/svg">
<g id="leaf right">
<path id="Vector" d="M0.16658 88.7187C3.41846 87.9076 6.56346 86.7721 9.57012 85.3272C9.76252 85.1361 10.2838 84.5558 10.705 83.5385C10.905 83.055 11.0565 82.535 11.1596 81.9842C11.0351 81.9691 10.9112 81.9471 10.7874 81.9182C8.12525 81.2863 6.66217 78.2262 7.32613 75.0416C8.56979 69.0773 12.678 66.8232 12.678 66.8232C12.678 66.8232 16.8611 72.1682 16.5951 76.5506C16.4612 78.7499 15.0496 80.7368 13.3219 81.5806C13.2357 82.3244 13.0861 82.9858 12.9012 83.568C13.6557 83.1317 14.4002 82.6752 15.1339 82.1973C18.2097 80.196 21.041 77.8735 23.5931 75.2604C23.7081 75.007 23.9634 74.3462 24.0244 73.3546C24.0539 72.8768 24.0382 72.2902 23.9257 71.608C23.8037 71.6363 23.6798 71.6583 23.5541 71.6728C20.836 71.989 18.4153 69.6142 17.9494 66.3944C17.078 60.3641 20.1677 56.8412 20.1677 56.8412C20.1677 56.8412 25.927 60.4333 27.175 64.6427C27.8019 66.7553 27.1549 69.1049 25.8195 70.4888C25.9917 71.2131 26.0772 71.8821 26.1037 72.4895C26.4187 72.1148 26.728 71.7356 27.0323 71.3508C29.546 68.1757 31.6467 64.732 33.306 61.0752C33.3298 60.8061 33.3575 60.0258 33.0255 58.9739C32.8677 58.4747 32.6495 57.9793 32.3748 57.4907C32.2698 57.5593 32.1604 57.6221 32.0472 57.6794C29.6014 58.9067 26.5142 57.5027 24.9757 54.6362C22.0941 49.268 23.793 44.9007 23.793 44.9007C23.793 44.9007 30.4332 46.3066 33.0463 49.8345C34.3578 51.605 34.5534 54.0345 33.7718 55.7919C34.1856 56.42 34.4974 57.0248 34.7301 57.5913C34.7829 57.4473 34.8344 57.3027 34.886 57.1581C36.3497 53.0273 37.2513 48.7354 37.5795 44.355C37.5003 44.0708 37.2532 43.3496 36.6056 42.5058C36.2868 42.0908 35.9121 41.6998 35.4864 41.3351C35.411 41.4357 35.3299 41.5319 35.2431 41.6243C33.3644 43.6137 29.983 43.3508 27.5573 41.1836C23.014 37.1244 23.1158 32.4396 23.1158 32.4396C23.1158 32.4396 29.8365 31.4895 33.4983 33.9115C35.3362 35.1268 36.351 37.3432 36.2177 39.2615C36.815 39.7054 37.3098 40.1618 37.7204 40.6101C37.7204 40.6039 37.7204 40.5976 37.7204 40.5913C37.7204 36.0461 37.1092 31.5656 35.9021 27.2373C35.7474 27.0154 35.267 26.4005 34.3371 25.8082C33.8957 25.5271 33.4097 25.2876 32.8853 25.0908C32.8488 25.2109 32.8061 25.3291 32.7558 25.446C31.6712 27.9579 28.4036 28.867 25.3825 27.6605C19.7244 25.4001 18.2185 20.9624 18.2185 20.9624C18.2185 20.9624 24.2092 17.7709 28.4784 18.7945C30.6212 19.3082 32.3326 21.0435 32.8633 22.892C33.5839 23.1071 34.2113 23.3705 34.754 23.6547C33.5405 20.3142 31.973 17.1208 30.0717 14.1166C27.4963 15.1868 24.2249 13.9701 22.2136 11.1942C17.9978 5.37327 19.2937 0 19.2937 0C19.2937 0 27.2781 0.594795 30.8897 4.30629C33.2481 6.73011 33.5751 10.756 31.7624 12.9075C33.4065 15.4936 34.8137 18.2135 35.9712 21.0448C36.1837 20.3538 36.4503 19.7766 36.7169 19.3094C36.7804 19.1975 36.8458 19.0906 36.9105 18.9875C35.98 17.2314 36.0951 14.6649 37.4356 12.7969C39.9952 9.23001 46.6134 7.72479 46.6134 7.72479C46.6134 7.72479 48.3776 12.0663 45.5772 17.4773C44.0814 20.3664 41.0156 21.8163 38.5522 20.626C38.5007 20.6009 38.4497 20.5745 38.3994 20.5468C37.7531 21.793 37.2784 23.7314 37.8688 26.5627C38.478 28.7262 38.9433 30.9256 39.2646 33.1519L39.4098 33.8385L39.3419 33.7103C39.5576 35.3299 39.6965 36.9628 39.7581 38.6051C40.1983 38.021 40.6503 37.5645 41.0647 37.213C41.1628 37.13 41.2602 37.0514 41.3571 36.9772C41.0836 35.0093 42.0694 32.6364 43.9676 31.3399C47.593 28.8633 54.3268 29.7127 54.3268 29.7127C54.3268 29.7127 54.4998 34.3956 50.0174 38.5227C47.6238 40.7258 44.2468 41.0402 42.3385 39.0791C42.2983 39.0376 42.2599 38.9955 42.2222 38.9521C41.1841 39.9053 40.0713 41.5734 39.6613 44.4562L39.6437 44.5826C39.4746 46.7964 39.1652 48.9888 38.7157 51.1511L38.6258 51.7874L38.6075 51.6578C38.2605 53.248 37.838 54.8217 37.34 56.3747C37.9467 55.9824 38.5214 55.7114 39.0263 55.5246C39.147 55.48 39.2652 55.4398 39.3815 55.4027C39.7971 53.4592 41.5356 51.5673 43.7633 50.9983C48.0167 49.9112 54.0546 53.0122 54.0546 53.0122C54.0546 53.0122 52.6154 57.4719 46.9919 59.8171C43.989 61.0689 40.7088 60.2088 39.5859 57.7133C39.562 57.6611 39.5406 57.6077 39.5198 57.5542C38.224 58.0931 36.615 59.2726 35.2481 61.819C34.3207 63.8757 33.26 65.8675 32.0698 67.7858L31.7504 68.3857L31.78 68.248C30.9054 69.6255 29.9635 70.9642 28.9563 72.2606C29.668 72.0965 30.3062 72.0374 30.8488 72.0349C30.9771 72.0349 31.1022 72.0368 31.2242 72.0418C32.2798 70.358 34.5603 69.1741 36.8477 69.4011C41.2168 69.8343 45.8293 74.8133 45.8293 74.8133C45.8293 74.8133 42.9515 78.5116 36.8653 78.7921C33.6153 78.9417 30.8268 77.0114 30.6256 74.2827C30.6212 74.2255 30.6193 74.1683 30.6181 74.111C29.2103 74.1745 27.2851 74.736 25.1184 76.6814L25.0065 76.7819C23.4661 78.3526 21.8288 79.8226 20.101 81.1851L20.0281 81.2505L20.0375 81.2347C18.8234 82.1892 17.5646 83.0908 16.2638 83.9371C16.0657 84.066 15.867 84.193 15.6671 84.3187C16.3895 84.408 17.0076 84.5709 17.5168 84.7532C17.6382 84.7966 17.7545 84.8419 17.8671 84.8884C19.4345 83.6674 21.9822 83.3348 24.0546 84.3307C28.0119 86.232 30.6438 92.4887 30.6438 92.4887C30.6438 92.4887 26.6746 94.9798 20.8593 93.1614C17.7545 92.19 15.7941 89.4229 16.5385 86.7897C16.5542 86.7344 16.5718 86.6797 16.5901 86.6256C15.249 86.205 13.2558 86.0742 10.566 87.1506C8.50942 88.144 6.39054 88.9991 4.21822 89.7096L3.67562 89.9284L3.77182 89.8536C2.74759 90.1787 1.71267 90.4717 0.666431 90.7326L0.164062 88.7187H0.16658Z" fill="url(#paint0_linear_634_10542)"/>
</g>
<defs>
<linearGradient id="paint0_linear_634_10542" x1="3.14307" y1="81.4994" x2="59.4454" y2="75.6253" gradientUnits="userSpaceOnUse">
<stop stop-color="#D06D30"/>
<stop offset="0.241139" stop-color="#FFD887"/>
<stop offset="0.653953" stop-color="#FFDCAD"/>
<stop offset="1" stop-color="#FAB858"/>
</linearGradient>
</defs>
</svg>
