<svg width="80" height="80" viewBox="0 0 80 80" fill="none" xmlns="http://www.w3.org/2000/svg">
<rect width="80" height="80" rx="12" fill="#FFAE0C"/>
<rect x="12" y="12" width="56" height="56" rx="12" fill="#FFAE0C"/>
<path d="M47.0002 44.6673C40.7702 44.6673 28.3335 47.7706 28.3335 54.0006V57.6673C28.3335 58.2196 28.7812 58.6673 29.3335 58.6673H64.6668C65.2191 58.6673 65.6668 58.2196 65.6668 57.6673V54.0006C65.6668 47.7706 53.2302 44.6673 47.0002 44.6673ZM26.0002 35.334V28.334H21.3335V35.334H14.3335V40.0006H21.3335V47.0006H26.0002V40.0006H33.0002V35.334M47.0002 40.0006C49.4755 40.0006 51.8495 39.0173 53.5998 37.267C55.3502 35.5166 56.3335 33.1427 56.3335 30.6673C56.3335 28.192 55.3502 25.818 53.5998 24.0677C51.8495 22.3173 49.4755 21.334 47.0002 21.334C44.5248 21.334 42.1508 22.3173 40.4005 24.0677C38.6502 25.818 37.6668 28.192 37.6668 30.6673C37.6668 33.1427 38.6502 35.5166 40.4005 37.267C42.1508 39.0173 44.5248 40.0006 47.0002 40.0006Z" fill="white"/>
</svg>
