<svg width="80" height="80" viewBox="0 0 80 80" fill="none" xmlns="http://www.w3.org/2000/svg">
<rect width="80" height="80" rx="12" fill="#FF3044"/>
<path d="M31.9077 33.4866L40.3615 30.3164L48.8153 33.4866V40.0665C48.8153 41.6362 48.3782 43.1749 47.553 44.5103C46.7278 45.8456 45.5471 46.9248 44.1432 47.627L40.3615 49.5178L36.5799 47.6298C35.1751 46.9272 33.9938 45.8471 33.1686 44.5107C32.3433 43.1742 31.9067 41.6343 31.9077 40.0636V33.4866Z" fill="white"/>
<path fill-rule="evenodd" clip-rule="evenodd" d="M42.3396 12.3586C41.0642 11.8805 39.6587 11.8805 38.3832 12.3586L18.6577 19.7557C17.5832 20.1584 16.6572 20.8796 16.0036 21.8228C15.35 22.7659 14.9999 23.8861 15 25.0337V40.1462C14.9999 44.8562 16.3114 49.4732 18.7875 53.4798C21.2636 57.4863 24.8065 60.7242 29.0192 62.8306L38.4706 67.5535C39.0577 67.8471 39.705 68 40.3614 68C41.0178 68 41.6652 67.8471 42.2523 67.5535L51.7036 62.8278C55.9163 60.7214 59.4592 57.4835 61.9354 53.4769C64.4115 49.4704 65.723 44.8534 65.7229 40.1434V25.0365C65.723 23.889 65.3729 22.7688 64.7192 21.8256C64.0656 20.8824 63.1397 20.1613 62.0652 19.7585L42.3396 12.3586ZM41.8465 24.8561C40.889 24.4968 39.8338 24.4968 38.8764 24.8561L29.0136 28.5533C28.2079 28.8556 27.5136 29.3967 27.0237 30.1042C26.5337 30.8117 26.2714 31.6519 26.2717 32.5125V40.0645C26.2713 42.6816 26.9998 45.247 28.3755 47.4734C29.7512 49.6997 31.7197 51.4988 34.0605 52.6692L38.7862 55.0306C39.2753 55.2751 39.8146 55.4024 40.3614 55.4024C40.9082 55.4024 41.4476 55.2751 41.9367 55.0306L46.6623 52.6692C49.0027 51.499 50.971 49.7003 52.3466 47.4745C53.7223 45.2488 54.451 42.6839 54.4511 40.0673V32.5125C54.4515 31.6519 54.1891 30.8117 53.6992 30.1042C53.2092 29.3967 52.515 28.8556 51.7093 28.5533L41.8465 24.8561Z" fill="white"/>
</svg>
