<svg width="80" height="80" viewBox="0 0 80 80" fill="none" xmlns="http://www.w3.org/2000/svg">
<rect width="80" height="80" rx="12" fill="#0275F6"/>
<path d="M23.5 68C21.9875 68 20.6932 67.4521 19.617 66.3564C18.5408 65.2607 18.0018 63.9419 18 62.4V17.6C18 16.06 18.539 14.7421 19.617 13.6464C20.695 12.5507 21.9893 12.0019 23.5 12H56.5C58.0125 12 59.3077 12.5488 60.3857 13.6464C61.4637 14.744 62.0018 16.0619 62 17.6V62.4C62 63.94 61.4619 65.2588 60.3857 66.3564C59.3096 67.454 58.0143 68.0019 56.5 68H23.5ZM37.25 37.2L44.125 33L51 37.2V17.6H37.25V37.2Z" fill="white"/>
</svg>
