<svg width="80" height="80" viewBox="0 0 80 80" fill="none" xmlns="http://www.w3.org/2000/svg">
<rect width="80" height="80" rx="12" fill="#8514FE"/>
<path d="M40 34.4C42.9704 34.4 45.8192 33.22 47.9196 31.1196C50.02 29.0192 51.2 26.1704 51.2 23.2C51.2 20.2296 50.02 17.3808 47.9196 15.2804C45.8192 13.18 42.9704 12 40 12C37.0296 12 34.1808 13.18 32.0804 15.2804C29.98 17.3808 28.8 20.2296 28.8 23.2C28.8 26.1704 29.98 29.0192 32.0804 31.1196C34.1808 33.22 37.0296 34.4 40 34.4ZM21.8 42.8C23.6565 42.8 25.437 42.0625 26.7497 40.7497C28.0625 39.437 28.8 37.6565 28.8 35.8C28.8 33.9435 28.0625 32.163 26.7497 30.8503C25.437 29.5375 23.6565 28.8 21.8 28.8C19.9435 28.8 18.163 29.5375 16.8503 30.8503C15.5375 32.163 14.8 33.9435 14.8 35.8C14.8 37.6565 15.5375 39.437 16.8503 40.7497C18.163 42.0625 19.9435 42.8 21.8 42.8ZM65.2 35.8C65.2 37.6565 64.4625 39.437 63.1497 40.7497C61.837 42.0625 60.0565 42.8 58.2 42.8C56.3435 42.8 54.563 42.0625 53.2503 40.7497C51.9375 39.437 51.2 37.6565 51.2 35.8C51.2 33.9435 51.9375 32.163 53.2503 30.8503C54.563 29.5375 56.3435 28.8 58.2 28.8C60.0565 28.8 61.837 29.5375 63.1497 30.8503C64.4625 32.163 65.2 33.9435 65.2 35.8ZM40 37.2C43.713 37.2 47.274 38.675 49.8995 41.3005C52.525 43.926 54 47.487 54 51.2V67C54 67.5523 53.5523 68 53 68H27C26.4477 68 26 67.5523 26 67V51.2C26 47.487 27.475 43.926 30.1005 41.3005C32.726 38.675 36.287 37.2 40 37.2ZM20.4 51.2C20.4 49.2596 20.68 47.3864 21.2064 45.6168L20.7304 45.656C18.3305 45.9195 16.1123 47.0597 14.5011 48.8578C12.89 50.656 11.9994 52.9856 12 55.4V67C12 67.5523 12.4477 68 13 68H19.4C19.9523 68 20.4 67.5523 20.4 67V51.2ZM67 68C67.5523 68 68 67.5523 68 67V55.4C68.0003 52.9034 67.0478 50.5009 65.3368 48.6827C63.6259 46.8646 61.2856 45.768 58.7936 45.6168C59.3172 47.3864 59.6 49.2596 59.6 51.2V67C59.6 67.5523 60.0477 68 60.6 68H67Z" fill="white"/>
</svg>
