<svg width="80" height="80" viewBox="0 0 80 80" fill="none" xmlns="http://www.w3.org/2000/svg">
<rect width="80" height="80" rx="12" fill="#1EB848"/>
<path fill-rule="evenodd" clip-rule="evenodd" d="M18.3763 18.3773C14.667 22.0866 14.667 28.06 14.667 40.0013C14.667 51.9453 14.667 57.916 18.3763 61.6253C22.0857 65.3346 28.059 65.3346 40.0003 65.3346C51.9443 65.3346 57.915 65.3346 61.6243 61.6253C65.3337 57.916 65.3337 51.9426 65.3337 40.0013C65.3337 28.0573 65.3337 22.0866 61.6243 18.3773C57.915 14.668 51.9417 14.668 40.0003 14.668C28.0563 14.668 22.0857 14.668 18.3763 18.3773ZM54.7988 44.835C57.3108 42.699 58.5668 41.6297 58.6574 40.2217V40.2244C58.6681 40.075 58.6681 39.9266 58.6574 39.779C58.5668 38.3657 57.3108 37.299 54.7988 35.1657L54.7922 35.1601C50.8686 31.8252 48.9072 30.1581 47.2921 30.8057C47.1268 30.8715 46.9694 30.9524 46.8201 31.0484C45.6974 31.755 45.4228 33.4457 45.3534 36.5284H34.6441C34.5748 33.4457 34.3001 31.7524 33.1801 31.0457C33.029 30.9515 32.8708 30.8715 32.7054 30.8057C31.0942 30.1586 29.132 31.8226 25.2116 35.1472L25.1961 35.1604C22.6841 37.2964 21.4281 38.3657 21.3374 39.7737C21.325 39.9219 21.325 40.0709 21.3374 40.219C21.4281 41.6324 22.6841 42.699 25.1961 44.8324L25.2027 44.838C29.1263 48.1729 31.0877 49.84 32.7028 49.1924C32.8686 49.1284 33.0276 49.048 33.1774 48.9524C34.3294 48.2244 34.5881 46.451 34.6468 43.1924H45.3508C45.4041 46.451 45.6654 48.2244 46.8174 48.9524C46.9673 49.048 47.1263 49.1284 47.2921 49.1924C48.9053 49.8403 50.8704 48.1714 54.7976 44.8361L54.7988 44.835Z" fill="white"/>
</svg>
