<svg width="80" height="80" viewBox="0 0 80 80" fill="none" xmlns="http://www.w3.org/2000/svg">
<rect width="80" height="80" rx="12" fill="#FF3044"/>
<g clip-path="url(#clip0_209_6701)">
<path fill-rule="evenodd" clip-rule="evenodd" d="M21.3335 27.866V30.666H18.5335C17.4196 30.666 16.3513 31.1085 15.5636 31.8962C14.776 32.6838 14.3335 33.7521 14.3335 34.866V54.466C14.3335 55.5799 14.776 56.6482 15.5636 57.4359C16.3513 58.2235 17.4196 58.666 18.5335 58.666H56.8002C57.3517 58.666 57.8979 58.5574 58.4074 58.3463C58.917 58.1352 59.38 57.8259 59.77 57.4359C60.16 57.0459 60.4694 56.5829 60.6805 56.0733C60.8915 55.5637 61.0002 55.0176 61.0002 54.466V51.666H63.8002C66.1148 51.666 68.0002 49.7807 68.0002 47.466V27.866C68.0002 25.5513 66.1148 23.666 63.8002 23.666H25.5335C23.2188 23.666 21.3335 25.5513 21.3335 27.866ZM26.0002 28.3327V30.666H56.8002C57.3517 30.666 57.8979 30.7747 58.4074 30.9857C58.917 31.1968 59.38 31.5062 59.77 31.8962C60.16 32.2862 60.4694 32.7492 60.6805 33.2587C60.8915 33.7683 61.0002 34.3145 61.0002 34.866V46.9993H63.3335V28.3327H26.0002ZM33.0002 44.666C33.0002 43.4283 33.4918 42.2414 34.367 41.3662C35.2422 40.491 36.4292 39.9993 37.6668 39.9993C38.9045 39.9993 40.0915 40.491 40.9667 41.3662C41.8418 42.2414 42.3335 43.4283 42.3335 44.666C42.3335 45.9037 41.8418 47.0907 40.9667 47.9658C40.0915 48.841 38.9045 49.3327 37.6668 49.3327C36.4292 49.3327 35.2422 48.841 34.367 47.9658C33.4918 47.0907 33.0002 45.9037 33.0002 44.666Z" fill="white"/>
</g>
<defs>
<clipPath id="clip0_209_6701">
<rect width="56" height="56" fill="white" transform="translate(12 12)"/>
</clipPath>
</defs>
</svg>
