<svg width="80" height="80" viewBox="0 0 80 80" fill="none" xmlns="http://www.w3.org/2000/svg">
<rect width="80" height="80" rx="12" fill="#FFAE0C"/>
<path d="M54.1402 65.6673H58.0135C59.9735 65.6673 61.5835 64.1507 61.8168 62.2373L65.6668 23.784H54.0002V14.334H49.4035V23.784H37.8068L38.5068 29.244C42.4968 30.3407 46.2302 32.324 48.4702 34.5173C51.8302 37.8307 54.1402 41.2607 54.1402 46.8607V65.6673ZM14.3335 63.334V61.0007H49.4035V63.334C49.4035 64.594 48.3535 65.6673 47.0002 65.6673H16.6668C15.3835 65.6673 14.3335 64.594 14.3335 63.334ZM49.4035 47.0007C49.4035 28.334 14.3335 28.334 14.3335 47.0007H49.4035ZM14.3335 51.6673H49.3335V56.334H14.3335V51.6673Z" fill="white"/>
</svg>
