<svg width="80" height="80" viewBox="0 0 80 80" fill="none" xmlns="http://www.w3.org/2000/svg">
<rect width="80" height="80" rx="12" fill="#1EB848"/>
<g clip-path="url(#clip0_209_6708)">
<path fill-rule="evenodd" clip-rule="evenodd" d="M52.8521 22.152C49.2863 19.5855 45.0336 18.1456 40.642 18.0179C36.2505 17.8903 31.9213 19.0806 28.2124 21.4356C24.5035 23.7906 21.5847 27.2023 19.8323 31.2311C18.0799 35.2599 17.5741 39.7211 18.3801 44.04C18.5129 44.8159 18.3354 45.6129 17.8859 46.2591C17.4364 46.9054 16.7508 47.349 15.9772 47.4944C15.2035 47.6398 14.4037 47.4753 13.7503 47.0363C13.0968 46.5974 12.6421 45.9191 12.4841 45.148C11.4417 39.5694 12.1194 33.8058 14.4272 28.6211C16.735 23.4364 20.564 19.0755 25.4066 16.1165C30.2492 13.1575 35.8768 11.7401 41.5433 12.0521C47.2098 12.3642 52.6477 14.391 57.1361 17.864L59.5841 15.416C59.8636 15.1358 60.2199 14.9448 60.608 14.8672C60.996 14.7896 61.3984 14.8289 61.7641 14.9801C62.1299 15.1312 62.4425 15.3875 62.6625 15.7164C62.8826 16.0454 63 16.4322 63.0001 16.828V26C63.0001 26.5304 62.7894 27.0391 62.4143 27.4142C62.0393 27.7892 61.5306 28 61.0001 28H51.8281C51.4332 27.9991 51.0474 27.8813 50.7193 27.6615C50.3912 27.4417 50.1356 27.1296 49.9845 26.7647C49.8335 26.3998 49.7939 25.9984 49.8707 25.611C49.9475 25.2236 50.1373 24.8676 50.4161 24.588L52.8521 22.152ZM64.0161 32.46C64.798 32.3125 65.6064 32.4817 66.2635 32.9303C66.9206 33.3788 67.3727 34.0701 67.5201 34.852C68.5634 40.4312 67.8862 46.1957 65.5783 51.3813C63.2704 56.5668 59.4408 60.9283 54.5974 63.8876C49.7539 66.8469 44.1254 68.264 38.4581 67.9512C32.7908 67.6384 27.3524 65.6103 22.8641 62.136L20.4161 64.588C20.1364 64.8684 19.7797 65.0594 19.3913 65.1369C19.0029 65.2144 18.6002 65.1748 18.2343 65.0231C17.8684 64.8714 17.5558 64.6145 17.336 64.285C17.1163 63.9554 16.9994 63.568 17.0001 63.172V54C17.0001 53.4695 17.2108 52.9608 17.5859 52.5857C17.961 52.2107 18.4697 52 19.0001 52H28.1721C28.5682 51.9992 28.9556 52.1162 29.2851 52.3359C29.6147 52.5556 29.8716 52.8682 30.0233 53.2341C30.1749 53.6 30.2145 54.0027 30.1371 54.3911C30.0596 54.7796 29.8686 55.1362 29.5881 55.416L27.1481 57.852C30.714 60.4184 34.9667 61.8583 39.3582 61.986C43.7498 62.1136 48.0789 60.9233 51.7879 58.5683C55.4968 56.2133 58.4155 52.8016 60.1679 48.7728C61.9203 44.7441 62.4261 40.2828 61.6201 35.964C61.5472 35.5763 61.5515 35.178 61.6327 34.7919C61.7139 34.4059 61.8704 34.0396 62.0933 33.7142C62.3163 33.3887 62.6012 33.1104 62.9318 32.8952C63.2624 32.6799 63.6323 32.5321 64.0201 32.46H64.0161ZM46.0001 34C46.0001 34.7879 45.8449 35.5681 45.5434 36.2961C45.2419 37.024 44.7999 37.6854 44.2428 38.2426C43.6856 38.7997 43.0242 39.2417 42.2962 39.5432C41.5683 39.8448 40.7881 40 40.0001 40C39.2122 40 38.432 39.8448 37.704 39.5432C36.9761 39.2417 36.3146 38.7997 35.7575 38.2426C35.2003 37.6854 34.7584 37.024 34.4569 36.2961C34.1553 35.5681 34.0001 34.7879 34.0001 34C34.0001 32.4087 34.6323 30.8825 35.7575 29.7573C36.8827 28.6321 38.4088 28 40.0001 28C41.5914 28 43.1175 28.6321 44.2428 29.7573C45.368 30.8825 46.0001 32.4087 46.0001 34ZM40.0001 42.1C37.9991 42.0997 36.0298 42.5998 34.2714 43.5548C32.513 44.5098 31.0213 45.8894 29.9321 47.568C29.1801 48.728 30.1321 50.1 31.5121 50.1H48.4881C49.8681 50.1 50.8201 48.728 50.0681 47.568C48.9789 45.8894 47.4872 44.5098 45.7288 43.5548C43.9704 42.5998 42.0011 42.0997 40.0001 42.1Z" fill="white"/>
</g>
<defs>
<clipPath id="clip0_209_6708">
<rect width="56" height="56" fill="white" transform="translate(12 12)"/>
</clipPath>
</defs>
</svg>
