<svg width="80" height="80" viewBox="0 0 80 80" fill="none" xmlns="http://www.w3.org/2000/svg">
<rect width="80" height="80" rx="12" fill="#8514FE"/>
<path d="M54 60.2222H59.6V37.1111H42.8V60.2222H48.4V42.8889H54V60.2222ZM14.8 60.2222V16.8889C14.8 16.1227 15.095 15.3879 15.6201 14.8461C16.1452 14.3044 16.8574 14 17.6 14H56.8C57.5426 14 58.2548 14.3044 58.7799 14.8461C59.305 15.3879 59.6 16.1227 59.6 16.8889V31.3333H65.2V60.2222H68V66H12V60.2222H14.8ZM26 37.1111V42.8889H31.6V37.1111H26ZM26 48.6667V54.4444H31.6V48.6667H26ZM26 25.5556V31.3333H31.6V25.5556H26Z" fill="white"/>
</svg>
