<svg width="80" height="80" viewBox="0 0 80 80" fill="none" xmlns="http://www.w3.org/2000/svg">
<rect width="80" height="80" rx="12" fill="#FF3094"/>
<path d="M60 31.6C60 29.0261 59.4827 26.4774 58.4776 24.0994C57.4725 21.7214 55.9993 19.5607 54.1421 17.7407C52.285 15.9207 50.0802 14.477 47.6537 13.492C45.2272 12.507 42.6264 12 40 12C37.3736 12 34.7728 12.507 32.3463 13.492C29.9198 14.477 27.715 15.9207 25.8579 17.7407C24.0007 19.5607 22.5275 21.7214 21.5224 24.0994C20.5173 26.4774 20 29.0261 20 31.6C20 35.4836 21.1686 39.0956 23.1571 42.142H23.1343L39.1624 66.7158C39.557 67.3208 40.443 67.3208 40.8376 66.7158L56.8657 42.142H56.8457C58.9055 38.9965 60.0003 35.3375 60 31.6ZM40 40C37.7267 40 35.5465 39.115 33.9391 37.5397C32.3316 35.9644 31.4286 33.8278 31.4286 31.6C31.4286 29.3722 32.3316 27.2356 33.9391 25.6603C35.5465 24.085 37.7267 23.2 40 23.2C42.2733 23.2 44.4535 24.085 46.0609 25.6603C47.6684 27.2356 48.5714 29.3722 48.5714 31.6C48.5714 33.8278 47.6684 35.9644 46.0609 37.5397C44.4535 39.115 42.2733 40 40 40Z" fill="white"/>
</svg>
