<svg width="416" height="379" viewBox="0 0 416 379" fill="none" xmlns="http://www.w3.org/2000/svg">
<mask id="path-1-outside-1_675_12873" maskUnits="userSpaceOnUse" x="102.111" y="164.178" width="250.481" height="195.326" fill="black">
<rect fill="white" x="102.111" y="164.178" width="250.481" height="195.326"/>
<path fill-rule="evenodd" clip-rule="evenodd" d="M220.05 268.731C217.442 264.08 213.772 260.462 209.263 257.963C208.849 257.734 208.432 257.516 208.012 257.309L211.356 252.431C213.126 249.848 213.679 246.62 212.868 243.595L209.245 230.074C207.713 224.355 201.834 220.961 196.115 222.493L146.894 235.682C141.175 237.215 137.781 243.093 139.313 248.812L143.405 264.085C144.141 266.831 145.938 269.173 148.401 270.594C150.863 272.016 153.789 272.401 156.536 271.665L157.291 271.463C157.045 273.718 157.516 276.037 158.711 278.066L161.22 282.327C160.673 282.914 160.189 283.566 159.781 284.273L151.093 299.32C148.235 304.272 149.764 310.595 154.57 313.692C165.715 320.875 179.355 323.623 195.372 319.331C203.351 317.193 210.486 313.192 215.723 307.463C218.326 309.753 221.989 310.74 225.589 309.776L244.849 304.615C249.599 303.342 252.746 299.071 252.797 294.383C260.954 298.121 270.519 299.197 280.951 296.402C307.649 289.248 316.909 262.719 310.659 239.393L310.606 239.198C304.354 215.863 283.214 197.697 256.621 204.823C230.04 211.945 220.657 238.483 226.913 261.832L226.966 262.027C227.372 263.542 227.84 265.036 228.368 266.502L220.05 268.731ZM217.731 280.452L222.814 299.42L242.074 294.259L236.992 275.291L217.731 280.452ZM239.183 264.796C240.462 267.931 242.06 270.83 243.932 273.431C245.492 275.597 247.242 277.557 249.158 279.274C256.739 286.066 266.919 289.063 278.176 286.046C297.631 280.834 305.464 261.428 300.303 242.167L300.251 241.973C295.09 222.712 278.753 209.991 259.396 215.178C240.038 220.365 232.108 239.797 237.269 259.057L237.321 259.252C237.834 261.168 238.458 263.02 239.183 264.796ZM210.828 296.11C213.256 291.867 214.2 286.929 213.306 281.637C213.174 280.857 213.002 280.068 212.789 279.273L212.737 279.079C212.099 276.698 211.197 274.666 210.078 272.944C207.993 269.737 205.152 267.604 201.852 266.297C198.307 264.893 194.233 264.441 189.995 264.633L202.513 246.37L198.89 232.849L149.669 246.038L153.761 261.31L179.831 254.324L167.949 272.626L173.305 281.721L181.281 279.583C188.383 277.681 193.075 279.238 194.247 283.616L194.3 283.81C195.42 287.993 192.746 291.629 187.395 293.063C183.081 294.219 178.918 293.882 174.708 292.35C173.083 291.758 171.451 290.989 169.801 290.058C169.556 289.92 169.311 289.779 169.065 289.633L160.378 304.681C161.477 305.39 162.609 306.045 163.774 306.642C165.797 307.678 167.921 308.537 170.153 309.191C176.655 311.096 184.076 311.259 192.598 308.976C200.979 306.73 207.391 302.117 210.828 296.11ZM185.267 282.473C185.267 282.473 185.259 282.478 185.242 282.487C185.258 282.477 185.267 282.473 185.267 282.473ZM281.387 247.445C284.28 258.242 281.475 267.23 273.888 269.263C266.3 271.296 259.157 264.87 256.237 253.975L256.185 253.78C253.266 242.885 256.194 233.969 263.684 231.962C271.174 229.955 278.441 236.453 281.334 247.25L281.387 247.445Z"/>
</mask>
<path fill-rule="evenodd" clip-rule="evenodd" d="M220.05 268.731C217.442 264.08 213.772 260.462 209.263 257.963C208.849 257.734 208.432 257.516 208.012 257.309L211.356 252.431C213.126 249.848 213.679 246.62 212.868 243.595L209.245 230.074C207.713 224.355 201.834 220.961 196.115 222.493L146.894 235.682C141.175 237.215 137.781 243.093 139.313 248.812L143.405 264.085C144.141 266.831 145.938 269.173 148.401 270.594C150.863 272.016 153.789 272.401 156.536 271.665L157.291 271.463C157.045 273.718 157.516 276.037 158.711 278.066L161.22 282.327C160.673 282.914 160.189 283.566 159.781 284.273L151.093 299.32C148.235 304.272 149.764 310.595 154.57 313.692C165.715 320.875 179.355 323.623 195.372 319.331C203.351 317.193 210.486 313.192 215.723 307.463C218.326 309.753 221.989 310.74 225.589 309.776L244.849 304.615C249.599 303.342 252.746 299.071 252.797 294.383C260.954 298.121 270.519 299.197 280.951 296.402C307.649 289.248 316.909 262.719 310.659 239.393L310.606 239.198C304.354 215.863 283.214 197.697 256.621 204.823C230.04 211.945 220.657 238.483 226.913 261.832L226.966 262.027C227.372 263.542 227.84 265.036 228.368 266.502L220.05 268.731ZM217.731 280.452L222.814 299.42L242.074 294.259L236.992 275.291L217.731 280.452ZM239.183 264.796C240.462 267.931 242.06 270.83 243.932 273.431C245.492 275.597 247.242 277.557 249.158 279.274C256.739 286.066 266.919 289.063 278.176 286.046C297.631 280.834 305.464 261.428 300.303 242.167L300.251 241.973C295.09 222.712 278.753 209.991 259.396 215.178C240.038 220.365 232.108 239.797 237.269 259.057L237.321 259.252C237.834 261.168 238.458 263.02 239.183 264.796ZM210.828 296.11C213.256 291.867 214.2 286.929 213.306 281.637C213.174 280.857 213.002 280.068 212.789 279.273L212.737 279.079C212.099 276.698 211.197 274.666 210.078 272.944C207.993 269.737 205.152 267.604 201.852 266.297C198.307 264.893 194.233 264.441 189.995 264.633L202.513 246.37L198.89 232.849L149.669 246.038L153.761 261.31L179.831 254.324L167.949 272.626L173.305 281.721L181.281 279.583C188.383 277.681 193.075 279.238 194.247 283.616L194.3 283.81C195.42 287.993 192.746 291.629 187.395 293.063C183.081 294.219 178.918 293.882 174.708 292.35C173.083 291.758 171.451 290.989 169.801 290.058C169.556 289.92 169.311 289.779 169.065 289.633L160.378 304.681C161.477 305.39 162.609 306.045 163.774 306.642C165.797 307.678 167.921 308.537 170.153 309.191C176.655 311.096 184.076 311.259 192.598 308.976C200.979 306.73 207.391 302.117 210.828 296.11ZM185.267 282.473C185.267 282.473 185.259 282.478 185.242 282.487C185.258 282.477 185.267 282.473 185.267 282.473ZM281.387 247.445C284.28 258.242 281.475 267.23 273.888 269.263C266.3 271.296 259.157 264.87 256.237 253.975L256.185 253.78C253.266 242.885 256.194 233.969 263.684 231.962C271.174 229.955 278.441 236.453 281.334 247.25L281.387 247.445Z" fill="white"/>
<path d="M267.177 242.875L274.905 234.036L274.905 234.036L267.177 242.875ZM266.456 242.369L271.591 231.81C266.152 229.165 259.594 231.084 256.439 236.244L266.456 242.369ZM266.184 242.982L277.303 246.754L277.303 246.754L266.184 242.982ZM270.375 258.402L278.111 249.569L278.111 249.569L270.375 258.402ZM259.69 253.258C259.993 254.392 260.039 255.085 260.041 255.353C260.043 255.487 260.033 255.492 260.049 255.377C260.063 255.278 260.111 254.975 260.265 254.516L282.536 261.964C283.901 257.882 283.859 252.725 282.373 247.18L259.69 253.258ZM259.637 253.064L259.69 253.258L282.373 247.18L282.321 246.986L259.637 253.064ZM259.448 251.714C259.128 251.435 258.962 251.233 258.913 251.171C258.856 251.099 258.873 251.111 258.94 251.227C259.073 251.457 259.363 252.038 259.637 253.064L282.321 246.986C280.832 241.43 278.2 236.916 274.905 234.036L259.448 251.714ZM261.321 252.929C260.43 252.496 259.815 252.035 259.448 251.714L274.905 234.036C273.869 233.13 272.763 232.38 271.591 231.81L261.321 252.929ZM277.303 246.754C277.159 247.179 276.906 247.787 276.473 248.495L256.439 236.244C255.87 237.173 255.417 238.169 255.064 239.21L277.303 246.754ZM277.882 247.967C277.578 246.829 277.536 246.142 277.534 245.888C277.533 245.76 277.542 245.762 277.525 245.883C277.51 245.989 277.459 246.294 277.303 246.754L255.064 239.21C253.682 243.284 253.7 248.448 255.199 254.044L277.882 247.967ZM277.934 248.161L277.882 247.967L255.199 254.044L255.251 254.239L277.934 248.161ZM278.111 249.569C278.453 249.868 278.633 250.087 278.689 250.158C278.753 250.239 278.738 250.232 278.67 250.114C278.535 249.877 278.23 249.264 277.934 248.161L255.251 254.239C256.752 259.838 259.357 264.36 262.639 267.235L278.111 249.569ZM276.681 248.575C277.324 248.934 277.794 249.291 278.111 249.569L262.639 267.235C263.464 267.957 264.334 268.577 265.241 269.084L276.681 248.575ZM220.05 268.731L199.567 280.216C204.819 289.583 215.755 294.194 226.128 291.415L220.05 268.731ZM209.263 257.963L197.878 278.503L197.878 278.503L209.263 257.963ZM208.012 257.309L188.642 244.033C184.79 249.652 183.569 256.668 185.295 263.258C187.021 269.849 191.524 275.365 197.636 278.376L208.012 257.309ZM211.356 252.431L191.986 239.155L191.986 239.155L211.356 252.431ZM148.401 270.594L136.659 290.931L136.659 290.931L148.401 270.594ZM157.291 271.463L180.636 274.007C181.476 266.303 178.46 258.68 172.577 253.635C166.693 248.591 158.699 246.774 151.213 248.78L157.291 271.463ZM158.711 278.066L138.476 289.983L138.476 289.983L158.711 278.066ZM161.22 282.327L178.404 298.332C185.489 290.726 186.73 279.367 181.455 270.41L161.22 282.327ZM159.781 284.273L180.118 296.015L180.118 296.015L159.781 284.273ZM151.093 299.32L171.43 311.062L171.43 311.062L151.093 299.32ZM154.57 313.692L167.292 293.953L167.292 293.953L154.57 313.692ZM215.723 307.463L231.237 289.833C221.631 281.38 207.025 282.173 198.391 291.618L215.723 307.463ZM252.797 294.383L262.581 273.035C255.353 269.722 246.939 270.292 240.223 274.55C233.508 278.807 229.403 286.174 229.315 294.125L252.797 294.383ZM228.368 266.502L234.446 289.186C240.793 287.485 246.137 283.203 249.181 277.38C252.224 271.556 252.689 264.724 250.462 258.543L228.368 266.502ZM217.731 280.452L211.653 257.768C199.126 261.125 191.691 274.002 195.048 286.53L217.731 280.452ZM222.814 299.42L200.131 305.498C203.487 318.026 216.364 325.46 228.892 322.103L222.814 299.42ZM242.074 294.259L248.152 316.943C260.68 313.586 268.114 300.709 264.758 288.181L242.074 294.259ZM236.992 275.291L259.675 269.213C256.318 256.685 243.442 249.251 230.914 252.608L236.992 275.291ZM243.932 273.431L262.991 259.711L262.991 259.711L243.932 273.431ZM239.183 264.796L217.441 273.672L217.441 273.672L239.183 264.796ZM249.158 279.274L264.829 261.784L264.829 261.784L249.158 279.274ZM210.828 296.11L231.211 307.773L210.828 296.11ZM213.306 281.637L190.15 285.549L190.15 285.549L213.306 281.637ZM210.078 272.944L190.389 285.743L190.389 285.743L210.078 272.944ZM201.852 266.297L193.204 288.13L193.204 288.13L201.852 266.297ZM189.995 264.633L170.625 251.357C165.59 258.703 165.144 268.265 169.473 276.048C173.802 283.831 182.161 288.495 191.057 288.093L189.995 264.633ZM202.513 246.37L221.883 259.647C225.761 253.989 226.972 246.918 225.196 240.292L202.513 246.37ZM198.89 232.849L221.573 226.771C218.216 214.243 205.34 206.809 192.812 210.166L198.89 232.849ZM149.669 246.038L143.591 223.354C131.063 226.711 123.629 239.588 126.986 252.116L149.669 246.038ZM153.761 261.31L131.078 267.388C134.434 279.915 147.311 287.35 159.839 283.993L153.761 261.31ZM179.831 254.324L199.527 267.112C204.821 258.958 204.543 248.385 198.828 240.52C193.113 232.655 183.143 229.125 173.753 231.641L179.831 254.324ZM167.949 272.626L148.252 259.838C143.404 267.305 143.196 276.871 147.714 284.543L167.949 272.626ZM173.305 281.721L153.07 293.638C158.425 302.731 169.189 307.135 179.383 304.404L173.305 281.721ZM174.708 292.35L166.676 314.417L166.676 314.417L174.708 292.35ZM169.801 290.058L158.265 310.513L158.265 310.513L169.801 290.058ZM169.065 289.633L181.008 269.413C175.61 266.226 169.163 265.328 163.1 266.92C157.037 268.513 151.862 272.463 148.728 277.892L169.065 289.633ZM160.378 304.681L140.04 292.939C133.779 303.785 137.129 317.635 147.656 324.42L160.378 304.681ZM163.774 306.642L174.48 285.741L174.48 285.741L163.774 306.642ZM170.153 309.191L176.756 286.655L176.755 286.655L170.153 309.191ZM185.267 282.473L198.936 301.568C208.831 294.484 211.676 281.015 205.49 270.535C199.304 260.056 186.137 256.038 175.154 261.278L185.267 282.473ZM185.242 282.487L172.459 262.788C161.917 269.629 158.629 283.556 164.999 294.389C171.368 305.222 185.136 309.121 196.24 303.236L185.242 282.487ZM240.534 257.247C235.791 248.788 228.969 242.036 220.647 237.424L197.878 278.503C198.575 278.889 199.094 279.372 199.567 280.216L240.534 257.247ZM220.648 237.424C219.897 237.008 219.144 236.615 218.389 236.243L197.636 278.376C197.72 278.418 197.801 278.46 197.878 278.503L220.648 237.424ZM227.382 270.586L230.726 265.708L191.986 239.155L188.642 244.033L227.382 270.586ZM230.726 265.708C236.374 257.467 238.137 247.168 235.552 237.517L190.185 249.673C189.22 246.072 189.878 242.23 191.986 239.155L230.726 265.708ZM235.552 237.517L231.929 223.996L186.562 236.152L190.185 249.673L235.552 237.517ZM231.929 223.996C227.039 205.75 208.284 194.921 190.037 199.81L202.193 245.177C195.385 247.001 188.386 242.96 186.562 236.152L231.929 223.996ZM190.037 199.81L140.816 212.999L152.972 258.365L202.193 245.177L190.037 199.81ZM140.816 212.999C122.569 217.888 111.741 236.644 116.63 254.89L161.997 242.734C163.821 249.543 159.78 256.541 152.972 258.365L140.816 212.999ZM116.63 254.89L120.722 270.162L166.089 258.007L161.997 242.734L116.63 254.89ZM120.722 270.162C123.07 278.925 128.803 286.396 136.659 290.931L160.142 250.257C163.074 251.949 165.213 254.737 166.089 258.007L120.722 270.162ZM136.659 290.931C144.515 295.467 153.851 296.696 162.614 294.348L150.458 248.982C153.727 248.106 157.211 248.565 160.142 250.257L136.659 290.931ZM162.614 294.348L163.369 294.146L151.213 248.78L150.458 248.982L162.614 294.348ZM133.946 268.918C133.163 276.102 134.663 283.508 138.476 289.983L178.946 266.149C180.369 268.566 180.928 271.333 180.636 274.007L133.946 268.918ZM138.476 289.983L140.985 294.244L181.455 270.41L178.946 266.149L138.476 289.983ZM144.036 266.321C142.289 268.197 140.745 270.278 139.444 272.531L180.118 296.015C179.633 296.855 179.057 297.632 178.404 298.332L144.036 266.321ZM139.444 272.531L130.756 287.579L171.43 311.062L180.118 296.015L139.444 272.531ZM130.756 287.579C121.636 303.375 126.516 323.549 141.848 333.431L167.292 293.953C173.013 297.64 174.833 305.168 171.43 311.062L130.756 287.579ZM141.848 333.431C158.636 344.251 179.115 347.999 201.45 342.014L189.294 296.648C179.595 299.247 172.794 297.5 167.292 293.953L141.848 333.431ZM201.45 342.014C213.024 338.913 224.322 332.861 233.056 323.308L198.391 291.618C196.65 293.523 193.678 295.473 189.294 296.648L201.45 342.014ZM200.21 325.092C208.46 332.352 220.16 335.542 231.667 332.459L219.511 287.092C223.818 285.938 228.192 287.154 231.237 289.833L200.21 325.092ZM231.667 332.459L250.927 327.298L238.771 281.932L219.511 287.092L231.667 332.459ZM250.927 327.298C266.115 323.228 276.115 309.585 276.279 294.642L229.315 294.125C229.376 288.556 233.084 283.456 238.771 281.932L250.927 327.298ZM243.013 315.731C256.204 321.777 271.384 323.277 287.029 319.085L274.873 273.719C269.654 275.117 265.703 274.466 262.581 273.035L243.013 315.731ZM287.029 319.085C329.815 307.621 341.908 265.284 333.342 233.315L287.975 245.471C289.833 252.405 289.163 259.136 286.878 264.035C284.825 268.436 281.257 272.008 274.873 273.719L287.029 319.085ZM333.342 233.315L333.29 233.12L287.923 245.276L287.975 245.471L333.342 233.315ZM333.29 233.12C324.716 201.122 293.207 170.708 250.543 182.14L262.699 227.506C269.068 225.8 273.881 227.103 277.783 229.832C282.135 232.876 286.057 238.311 287.923 245.276L333.29 233.12ZM250.543 182.14C207.92 193.561 195.643 235.864 204.23 267.91L249.597 255.754C247.746 248.847 248.422 242.113 250.723 237.195C252.8 232.757 256.387 229.197 262.699 227.506L250.543 182.14ZM204.23 267.91L204.282 268.105L249.649 255.949L249.597 255.754L204.23 267.91ZM204.282 268.105C204.858 270.255 205.524 272.376 206.275 274.462L250.462 258.543C250.156 257.695 249.885 256.829 249.649 255.949L204.282 268.105ZM222.291 243.819L213.972 246.048L226.128 291.415L234.446 289.186L222.291 243.819ZM262.991 259.711C262.25 258.682 261.536 257.42 260.924 255.92L217.441 273.672C219.389 278.442 221.87 282.978 224.873 287.151L262.991 259.711ZM264.829 261.784C264.233 261.25 263.607 260.567 262.991 259.711L224.873 287.151C227.376 290.627 230.25 293.863 233.487 296.764L264.829 261.784ZM272.098 263.363C270.153 263.885 268.842 263.77 267.967 263.552C267.049 263.323 265.984 262.819 264.829 261.784L233.487 296.764C246.711 308.613 265 313.889 284.254 308.73L272.098 263.363ZM277.62 248.245C278.959 253.243 278.297 257.105 277.246 259.327C276.384 261.147 275.018 262.581 272.098 263.363L284.254 308.73C319.575 299.266 330.533 264.256 322.986 236.089L277.62 248.245ZM277.568 248.051L277.62 248.245L322.986 236.089L322.934 235.895L277.568 248.051ZM265.474 237.862C268.394 237.079 270.23 237.644 271.798 238.728C273.736 240.067 276.219 243.017 277.568 248.051L322.934 235.895C315.382 207.708 288.524 183.062 253.318 192.495L265.474 237.862ZM259.952 252.979C258.625 248.026 259.284 244.161 260.352 241.912C261.238 240.045 262.627 238.624 265.474 237.862L253.318 192.495C218.137 201.922 207.025 236.919 214.586 265.135L259.952 252.979ZM260.004 253.174L259.952 252.979L214.586 265.135L214.638 265.33L260.004 253.174ZM260.924 255.92C260.578 255.073 260.267 254.156 260.004 253.174L214.638 265.33C215.401 268.18 216.337 270.967 217.441 273.672L260.924 255.92ZM231.211 307.773C236.364 298.766 238.25 288.317 236.461 277.726L190.15 285.549C190.167 285.645 190.131 285.499 190.186 285.191C190.24 284.884 190.347 284.62 190.445 284.448L231.211 307.773ZM236.461 277.726C236.203 276.201 235.872 274.689 235.472 273.195L190.106 285.351C190.131 285.447 190.144 285.513 190.15 285.549L236.461 277.726ZM235.472 273.195L235.42 273.001L190.054 285.157L190.106 285.351L235.472 273.195ZM235.42 273.001C234.21 268.487 232.366 264.143 229.767 260.146L190.389 285.743C190.029 285.189 189.987 284.91 190.054 285.157L235.42 273.001ZM229.767 260.146C224.764 252.449 217.857 247.378 210.5 244.464L193.204 288.13C192.921 288.018 192.411 287.77 191.825 287.305C191.223 286.827 190.733 286.272 190.389 285.743L229.767 260.146ZM210.5 244.464C202.94 241.469 195.314 240.885 188.933 241.174L191.057 288.093C192.028 288.049 192.696 288.093 193.093 288.146C193.487 288.198 193.486 288.241 193.204 288.13L210.5 244.464ZM187.359 302.267C188.623 301.928 186.608 302.807 182.9 301.633C180.818 300.974 178.252 299.659 175.936 297.291C173.592 294.894 172.223 292.151 171.564 289.694L216.931 277.538C214.167 267.222 206.536 259.851 197.075 256.856C188.952 254.285 181.041 255.336 175.204 256.9L187.359 302.267ZM171.564 289.694L171.616 289.888L216.983 277.732L216.931 277.538L171.564 289.694ZM171.616 289.888C170.365 285.219 171.241 279.745 174.426 275.459C177.203 271.723 180.382 270.63 181.318 270.379L193.473 315.746C199.759 314.062 206.95 310.434 212.122 303.476C217.702 295.968 219.355 286.584 216.983 277.732L171.616 289.888ZM181.318 270.379C181.433 270.348 181.609 270.312 181.831 270.289C182.053 270.267 182.273 270.264 182.472 270.276C182.89 270.302 183.011 270.381 182.74 270.283L166.676 314.417C174.826 317.383 183.933 318.302 193.473 315.746L181.318 270.379ZM182.74 270.283C182.511 270.199 182.052 270.007 181.336 269.603L158.265 310.513C160.851 311.971 163.655 313.317 166.676 314.417L182.74 270.283ZM181.336 269.603C181.231 269.544 181.122 269.481 181.008 269.413L157.123 309.853C157.5 310.076 157.881 310.296 158.265 310.513L181.336 269.603ZM147.656 324.42C149.381 325.532 151.185 326.578 153.069 327.543L174.48 285.741C174.034 285.512 173.574 285.248 173.1 284.942L147.656 324.42ZM153.069 327.543C156.346 329.222 159.84 330.64 163.55 331.727L176.755 286.655C176.002 286.434 175.249 286.135 174.48 285.741L153.069 327.543ZM163.55 331.727C174.593 334.963 186.423 334.942 198.676 331.659L186.52 286.292C181.728 287.576 178.717 287.23 176.756 286.655L163.55 331.727ZM198.676 331.659C211.748 328.156 224.031 320.321 231.211 307.773L190.445 284.448C190.751 283.913 190.211 285.303 186.52 286.292L198.676 331.659ZM185.267 282.473C171.598 263.378 171.6 263.376 171.603 263.374C171.604 263.373 171.607 263.371 171.608 263.37C171.612 263.368 171.615 263.365 171.619 263.363C171.626 263.358 171.632 263.353 171.639 263.348C171.653 263.338 171.667 263.328 171.681 263.318C171.709 263.299 171.736 263.279 171.764 263.26C171.82 263.221 171.875 263.182 171.931 263.144C172.042 263.067 172.153 262.992 172.264 262.918C172.486 262.77 172.707 262.628 172.929 262.492C173.371 262.219 173.811 261.968 174.245 261.738L196.24 303.236C196.691 302.997 197.143 302.739 197.593 302.461C197.819 302.322 198.043 302.178 198.267 302.029C198.379 301.955 198.491 301.879 198.603 301.802C198.658 301.764 198.714 301.725 198.77 301.686C198.797 301.666 198.825 301.647 198.853 301.627C198.867 301.617 198.881 301.607 198.895 301.597C198.902 301.593 198.908 301.588 198.915 301.583C198.919 301.58 198.922 301.578 198.926 301.575C198.927 301.574 198.93 301.572 198.931 301.571C198.934 301.57 198.936 301.568 185.267 282.473ZM198.026 302.186C197.585 302.473 197.142 302.738 196.7 302.985C196.479 303.108 196.258 303.227 196.038 303.34C195.928 303.397 195.818 303.453 195.708 303.507C195.653 303.534 195.599 303.561 195.544 303.588C195.516 303.601 195.489 303.615 195.462 303.628C195.448 303.634 195.434 303.641 195.421 303.647C195.414 303.651 195.407 303.654 195.4 303.657C195.397 303.659 195.393 303.661 195.39 303.662C195.388 303.663 195.386 303.664 195.385 303.665C195.382 303.666 195.38 303.667 185.267 282.473C175.154 261.278 175.152 261.279 175.149 261.281C175.148 261.281 175.146 261.282 175.144 261.283C175.141 261.285 175.137 261.286 175.134 261.288C175.127 261.291 175.12 261.295 175.113 261.298C175.1 261.304 175.086 261.311 175.072 261.318C175.045 261.331 175.017 261.344 174.99 261.357C174.935 261.384 174.88 261.411 174.825 261.439C174.715 261.493 174.604 261.549 174.493 261.607C174.271 261.721 174.047 261.841 173.822 261.967C173.371 262.218 172.916 262.492 172.459 262.788L198.026 302.186ZM279.966 291.946C292.544 288.576 300.462 279.184 303.838 269.089C306.985 259.681 306.338 249.831 304.07 241.367L258.703 253.523C259.328 255.855 258.726 255.898 259.297 254.192C259.624 253.214 260.38 251.607 261.982 249.99C263.655 248.3 265.729 247.137 267.81 246.58L279.966 291.946ZM233.554 260.053C235.87 268.697 240.355 277.577 247.84 284.133C255.787 291.094 267.348 295.327 279.966 291.946L267.81 246.58C269.938 246.009 272.302 246.003 274.527 246.611C276.653 247.191 278.054 248.162 278.784 248.801C280.071 249.928 279.524 250.147 278.921 247.897L233.554 260.053ZM233.502 259.858L233.554 260.053L278.921 247.897L278.869 247.702L233.502 259.858ZM257.606 209.278C245.122 212.624 237.204 221.94 233.793 231.994C230.6 241.404 231.207 251.293 233.502 259.858L278.869 247.702C278.244 245.373 278.856 245.355 278.27 247.082C277.937 248.062 277.177 249.653 275.587 251.251C273.929 252.917 271.863 254.082 269.762 254.645L257.606 209.278ZM304.018 241.172C301.682 232.456 297.13 223.63 289.691 217.125C281.884 210.299 270.338 205.867 257.606 209.278L269.762 254.645C267.504 255.25 265.088 255.219 262.895 254.608C260.808 254.027 259.458 253.079 258.776 252.483C257.566 251.425 258.094 251.247 258.651 253.328L304.018 241.172ZM304.07 241.367L304.018 241.172L258.651 253.328L258.703 253.523L304.07 241.367ZM223.809 303.135L243.07 297.974L230.914 252.608L211.653 257.768L223.809 303.135ZM245.497 293.342L240.415 274.374L195.048 286.53L200.131 305.498L245.497 293.342ZM235.997 271.576L216.736 276.737L228.892 322.103L248.152 316.943L235.997 271.576ZM214.309 281.369L219.391 300.337L264.758 288.181L259.675 269.213L214.309 281.369ZM209.365 277.91L221.883 259.647L183.143 233.094L170.625 251.357L209.365 277.91ZM225.196 240.292L221.573 226.771L176.207 238.927L179.83 252.448L225.196 240.292ZM192.812 210.166L143.591 223.354L155.747 268.721L204.968 255.532L192.812 210.166ZM126.986 252.116L131.078 267.388L176.444 255.232L172.352 239.96L126.986 252.116ZM159.839 283.993L185.909 277.008L173.753 231.641L147.683 238.627L159.839 283.993ZM160.134 241.537L148.252 259.838L187.645 285.413L199.527 267.112L160.134 241.537ZM147.714 284.543L153.07 293.638L193.54 269.804L188.184 260.709L147.714 284.543ZM179.383 304.404L187.359 302.267L175.204 256.9L167.227 259.037L179.383 304.404ZM148.728 277.892L140.04 292.939L180.715 316.423L189.402 301.375L148.728 277.892Z" fill="#161616" mask="url(#path-1-outside-1_675_12873)"/>
<ellipse cx="219.579" cy="202.521" rx="9.4125" ry="8.82971" transform="rotate(-4.99997 219.579 202.521)" fill="#161616"/>
<mask id="path-4-outside-2_675_12873" maskUnits="userSpaceOnUse" x="-5.91231" y="-7.58558" width="420.216" height="326.878" fill="black">
<rect fill="white" x="-5.91231" y="-7.58558" width="420.216" height="326.878"/>
<path fill-rule="evenodd" clip-rule="evenodd" d="M279.408 127.52L303.078 121.177L292.106 80.2292L330.534 113.82L358.938 106.21L316.103 70.3745L335.058 22.2952L306.536 29.9375L290.552 74.4301L280.5 36.914L256.83 43.2562L279.408 127.52ZM249.985 44.062C249.586 40.7154 251.696 37.4969 255.046 36.5991L278.716 30.2569C282.392 29.2718 286.171 31.4536 287.157 35.1302L291.51 51.3783L300.05 27.6074C300.814 25.4817 302.57 23.8651 304.752 23.2805L333.274 15.6381C335.788 14.9644 338.467 15.7646 340.2 17.7067C341.933 19.6488 342.424 22.4015 341.469 24.8229L324.337 68.2779L363.36 100.924C365.332 102.574 366.222 105.185 365.667 107.697C365.554 108.208 365.385 108.699 365.166 109.16C365.927 109.965 366.504 110.964 366.811 112.108L372.645 133.883C373.63 137.559 371.448 141.338 367.772 142.324L363.723 143.478C367.4 142.493 371.179 144.675 372.164 148.352L377.858 169.601C378.843 173.278 376.661 177.057 372.984 178.042L373.474 180.057L378.347 178.643C382.024 177.658 385.803 179.84 386.788 183.516L392.622 205.291C393.095 207.056 392.848 208.937 391.934 210.52C391.02 212.103 389.514 213.258 387.749 213.731L316.393 232.851C312.716 233.836 308.937 231.655 307.952 227.978L290.686 163.541L272.733 168.352L289.998 232.789C290.471 234.554 290.224 236.435 289.31 238.018C288.396 239.601 286.891 240.756 285.125 241.229L258.891 248.259C255.215 249.244 251.435 247.062 250.45 243.385L233.185 178.948L211.902 184.651C208.226 185.636 204.447 183.454 203.462 179.778L203.278 179.091L192.142 219.75L201.957 256.379C202.43 258.145 202.183 260.026 201.269 261.609C200.355 263.192 198.849 264.347 197.084 264.82L170.85 271.849C169.084 272.322 167.203 272.075 165.62 271.161C164.037 270.247 162.882 268.742 162.409 266.976L152.873 231.386L134.245 212.854C133.886 215.89 133.031 218.819 131.682 221.587C139.19 225.811 144.436 232.779 146.808 241.633C149.496 251.663 147.779 261.503 142.24 269.578C136.763 277.561 127.884 283.362 116.917 286.301L73.8934 297.829C70.2168 298.814 66.4378 296.632 65.4526 292.955L40.4281 199.562C40.0571 198.178 40.1353 196.778 40.5734 195.519C39.5645 194.648 38.7971 193.475 38.4261 192.091L15.8479 107.827C14.8627 104.151 17.0446 100.372 20.7211 99.3864L44.3906 93.0442C48.0672 92.059 51.8462 94.2409 52.8314 97.9175L59.4828 122.741L73.3886 119.015L66.7372 94.1914C65.752 90.5148 67.9339 86.7358 71.6105 85.7506L95.2799 79.4084C97.0455 78.9353 98.9266 79.183 100.51 80.0969C102.093 81.0108 103.248 82.5162 103.721 84.2817L118.163 138.18L124.502 76.1753C124.793 73.3296 126.812 70.9595 129.574 70.2192L153.717 63.7501C156.489 63.0074 159.431 64.0601 161.103 66.3927L179.33 91.8269C180.628 69.5464 196.61 50.7349 220.013 44.4643C230.584 41.6316 240.776 41.6366 249.985 44.062ZM186.756 102.19C187.008 103.717 187.339 105.254 187.752 106.795C191.198 119.655 199.471 129.388 210.191 134.891C218.181 138.993 227.532 140.744 237.256 139.688C239.94 139.396 242.652 138.891 245.373 138.162C248.473 137.331 251.317 136.348 253.937 135.218C260.784 132.265 266.097 128.313 270.439 123.477C270.633 123.261 270.825 123.043 271.015 122.824C272.337 121.297 273.568 119.686 274.724 117.993L254.616 106.384C254.513 106.569 254.407 106.752 254.299 106.933C251.271 112.01 246.411 115.559 239.555 117.396C226.892 120.789 215.669 114.41 211.895 100.326C208.153 86.3613 214.714 75.3436 227.378 71.9505C233.768 70.2383 239.289 70.846 243.869 73.177C244.463 73.4795 245.041 73.8109 245.604 74.1701L257.095 54.094C255.458 53.2637 253.762 52.5311 252.012 51.9021C251.568 51.7426 251.121 51.5897 250.671 51.4436C242.065 48.6525 232.233 48.325 221.796 51.1213C197.582 57.6095 182.91 78.8599 186.756 102.19ZM209.796 146.172L185.18 152.768L176.759 139.803L146.936 147.794L146.007 163.264L121.864 169.733L131.358 76.8763L155.501 70.4072L209.796 146.172ZM106.126 184.817C101.718 184.155 96.8372 184.448 91.6829 185.829L47.0852 197.779L72.1097 291.172L115.133 279.644C134.546 274.442 144.51 259.682 140.151 243.417C138.217 236.199 134.017 230.677 127.925 227.386C125.824 226.251 123.499 225.381 120.963 224.799C122.812 222.959 124.273 220.969 125.345 218.853C127.337 214.919 127.982 210.551 127.268 205.913C127.122 204.962 126.919 204 126.658 203.028C124.677 195.633 120.018 190.099 113.65 187.078C113.506 187.009 113.362 186.942 113.216 186.877C111.308 186.016 109.253 185.376 107.075 184.975C106.761 184.917 106.445 184.864 106.126 184.817ZM111.512 180.516L159.049 227.809L169.066 265.192L195.3 258.163L185.002 219.73L202.412 156.159L172.899 164.067L165.057 197.238L141.681 172.432L111.512 180.516ZM59.8735 150.827L87.0934 143.534L95.9724 176.671L119.642 170.329L97.0637 86.0655L73.3942 92.4077L81.8293 123.888L54.6095 131.182L46.1743 99.7012L22.5049 106.043L45.0831 190.307L68.7526 183.965L59.8735 150.827ZM204.144 155.695L210.119 177.994L238.058 170.508L257.107 241.602L283.341 234.572L264.292 163.478L292.362 155.957L286.387 133.658L204.144 155.695ZM314.609 226.194L385.965 207.074L380.131 185.3L335.008 197.391L330.931 182.175L371.2 171.385L365.507 150.135L325.238 160.925L321.653 147.546L365.988 135.666L360.154 113.892L289.584 132.801L314.609 226.194ZM165.658 122.99L150.129 99.1182L148.261 127.651L165.658 122.99ZM77.8556 209.778L89.3985 206.685C95.0388 205.174 99.8431 206.839 101.425 212.742C103.006 218.644 99.547 222.524 94.0379 224L82.4949 227.093L77.8556 209.778ZM87.3452 245.194L100.069 241.785C106.758 239.993 112.106 242.637 113.793 248.933C115.48 255.229 112.171 260.193 105.481 261.985L92.7578 265.394L87.3452 245.194Z"/>
</mask>
<path fill-rule="evenodd" clip-rule="evenodd" d="M279.408 127.52L303.078 121.177L292.106 80.2292L330.534 113.82L358.938 106.21L316.103 70.3745L335.058 22.2952L306.536 29.9375L290.552 74.4301L280.5 36.914L256.83 43.2562L279.408 127.52ZM249.985 44.062C249.586 40.7154 251.696 37.4969 255.046 36.5991L278.716 30.2569C282.392 29.2718 286.171 31.4536 287.157 35.1302L291.51 51.3783L300.05 27.6074C300.814 25.4817 302.57 23.8651 304.752 23.2805L333.274 15.6381C335.788 14.9644 338.467 15.7646 340.2 17.7067C341.933 19.6488 342.424 22.4015 341.469 24.8229L324.337 68.2779L363.36 100.924C365.332 102.574 366.222 105.185 365.667 107.697C365.554 108.208 365.385 108.699 365.166 109.16C365.927 109.965 366.504 110.964 366.811 112.108L372.645 133.883C373.63 137.559 371.448 141.338 367.772 142.324L363.723 143.478C367.4 142.493 371.179 144.675 372.164 148.352L377.858 169.601C378.843 173.278 376.661 177.057 372.984 178.042L373.474 180.057L378.347 178.643C382.024 177.658 385.803 179.84 386.788 183.516L392.622 205.291C393.095 207.056 392.848 208.937 391.934 210.52C391.02 212.103 389.514 213.258 387.749 213.731L316.393 232.851C312.716 233.836 308.937 231.655 307.952 227.978L290.686 163.541L272.733 168.352L289.998 232.789C290.471 234.554 290.224 236.435 289.31 238.018C288.396 239.601 286.891 240.756 285.125 241.229L258.891 248.259C255.215 249.244 251.435 247.062 250.45 243.385L233.185 178.948L211.902 184.651C208.226 185.636 204.447 183.454 203.462 179.778L203.278 179.091L192.142 219.75L201.957 256.379C202.43 258.145 202.183 260.026 201.269 261.609C200.355 263.192 198.849 264.347 197.084 264.82L170.85 271.849C169.084 272.322 167.203 272.075 165.62 271.161C164.037 270.247 162.882 268.742 162.409 266.976L152.873 231.386L134.245 212.854C133.886 215.89 133.031 218.819 131.682 221.587C139.19 225.811 144.436 232.779 146.808 241.633C149.496 251.663 147.779 261.503 142.24 269.578C136.763 277.561 127.884 283.362 116.917 286.301L73.8934 297.829C70.2168 298.814 66.4378 296.632 65.4526 292.955L40.4281 199.562C40.0571 198.178 40.1353 196.778 40.5734 195.519C39.5645 194.648 38.7971 193.475 38.4261 192.091L15.8479 107.827C14.8627 104.151 17.0446 100.372 20.7211 99.3864L44.3906 93.0442C48.0672 92.059 51.8462 94.2409 52.8314 97.9175L59.4828 122.741L73.3886 119.015L66.7372 94.1914C65.752 90.5148 67.9339 86.7358 71.6105 85.7506L95.2799 79.4084C97.0455 78.9353 98.9266 79.183 100.51 80.0969C102.093 81.0108 103.248 82.5162 103.721 84.2817L118.163 138.18L124.502 76.1753C124.793 73.3296 126.812 70.9595 129.574 70.2192L153.717 63.7501C156.489 63.0074 159.431 64.0601 161.103 66.3927L179.33 91.8269C180.628 69.5464 196.61 50.7349 220.013 44.4643C230.584 41.6316 240.776 41.6366 249.985 44.062ZM186.756 102.19C187.008 103.717 187.339 105.254 187.752 106.795C191.198 119.655 199.471 129.388 210.191 134.891C218.181 138.993 227.532 140.744 237.256 139.688C239.94 139.396 242.652 138.891 245.373 138.162C248.473 137.331 251.317 136.348 253.937 135.218C260.784 132.265 266.097 128.313 270.439 123.477C270.633 123.261 270.825 123.043 271.015 122.824C272.337 121.297 273.568 119.686 274.724 117.993L254.616 106.384C254.513 106.569 254.407 106.752 254.299 106.933C251.271 112.01 246.411 115.559 239.555 117.396C226.892 120.789 215.669 114.41 211.895 100.326C208.153 86.3613 214.714 75.3436 227.378 71.9505C233.768 70.2383 239.289 70.846 243.869 73.177C244.463 73.4795 245.041 73.8109 245.604 74.1701L257.095 54.094C255.458 53.2637 253.762 52.5311 252.012 51.9021C251.568 51.7426 251.121 51.5897 250.671 51.4436C242.065 48.6525 232.233 48.325 221.796 51.1213C197.582 57.6095 182.91 78.8599 186.756 102.19ZM209.796 146.172L185.18 152.768L176.759 139.803L146.936 147.794L146.007 163.264L121.864 169.733L131.358 76.8763L155.501 70.4072L209.796 146.172ZM106.126 184.817C101.718 184.155 96.8372 184.448 91.6829 185.829L47.0852 197.779L72.1097 291.172L115.133 279.644C134.546 274.442 144.51 259.682 140.151 243.417C138.217 236.199 134.017 230.677 127.925 227.386C125.824 226.251 123.499 225.381 120.963 224.799C122.812 222.959 124.273 220.969 125.345 218.853C127.337 214.919 127.982 210.551 127.268 205.913C127.122 204.962 126.919 204 126.658 203.028C124.677 195.633 120.018 190.099 113.65 187.078C113.506 187.009 113.362 186.942 113.216 186.877C111.308 186.016 109.253 185.376 107.075 184.975C106.761 184.917 106.445 184.864 106.126 184.817ZM111.512 180.516L159.049 227.809L169.066 265.192L195.3 258.163L185.002 219.73L202.412 156.159L172.899 164.067L165.057 197.238L141.681 172.432L111.512 180.516ZM59.8735 150.827L87.0934 143.534L95.9724 176.671L119.642 170.329L97.0637 86.0655L73.3942 92.4077L81.8293 123.888L54.6095 131.182L46.1743 99.7012L22.5049 106.043L45.0831 190.307L68.7526 183.965L59.8735 150.827ZM204.144 155.695L210.119 177.994L238.058 170.508L257.107 241.602L283.341 234.572L264.292 163.478L292.362 155.957L286.387 133.658L204.144 155.695ZM314.609 226.194L385.965 207.074L380.131 185.3L335.008 197.391L330.931 182.175L371.2 171.385L365.507 150.135L325.238 160.925L321.653 147.546L365.988 135.666L360.154 113.892L289.584 132.801L314.609 226.194ZM165.658 122.99L150.129 99.1182L148.261 127.651L165.658 122.99ZM77.8556 209.778L89.3985 206.685C95.0388 205.174 99.8431 206.839 101.425 212.742C103.006 218.644 99.547 222.524 94.0379 224L82.4949 227.093L77.8556 209.778ZM87.3452 245.194L100.069 241.785C106.758 239.993 112.106 242.637 113.793 248.933C115.48 255.229 112.171 260.193 105.481 261.985L92.7578 265.394L87.3452 245.194Z" fill="#161616"/>
<path fill-rule="evenodd" clip-rule="evenodd" d="M279.408 127.52L303.078 121.177L292.106 80.2292L330.534 113.82L358.938 106.21L316.103 70.3745L335.058 22.2952L306.536 29.9375L290.552 74.4301L280.5 36.914L256.83 43.2562L279.408 127.52ZM249.985 44.062C249.586 40.7154 251.696 37.4969 255.046 36.5991L278.716 30.2569C282.392 29.2718 286.171 31.4536 287.157 35.1302L291.51 51.3783L300.05 27.6074C300.814 25.4817 302.57 23.8651 304.752 23.2805L333.274 15.6381C335.788 14.9644 338.467 15.7646 340.2 17.7067C341.933 19.6488 342.424 22.4015 341.469 24.8229L324.337 68.2779L363.36 100.924C365.332 102.574 366.222 105.185 365.667 107.697C365.554 108.208 365.385 108.699 365.166 109.16C365.927 109.965 366.504 110.964 366.811 112.108L372.645 133.883C373.63 137.559 371.448 141.338 367.772 142.324L363.723 143.478C367.4 142.493 371.179 144.675 372.164 148.352L377.858 169.601C378.843 173.278 376.661 177.057 372.984 178.042L373.474 180.057L378.347 178.643C382.024 177.658 385.803 179.84 386.788 183.516L392.622 205.291C393.095 207.056 392.848 208.937 391.934 210.52C391.02 212.103 389.514 213.258 387.749 213.731L316.393 232.851C312.716 233.836 308.937 231.655 307.952 227.978L290.686 163.541L272.733 168.352L289.998 232.789C290.471 234.554 290.224 236.435 289.31 238.018C288.396 239.601 286.891 240.756 285.125 241.229L258.891 248.259C255.215 249.244 251.435 247.062 250.45 243.385L233.185 178.948L211.902 184.651C208.226 185.636 204.447 183.454 203.462 179.778L203.278 179.091L192.142 219.75L201.957 256.379C202.43 258.145 202.183 260.026 201.269 261.609C200.355 263.192 198.849 264.347 197.084 264.82L170.85 271.849C169.084 272.322 167.203 272.075 165.62 271.161C164.037 270.247 162.882 268.742 162.409 266.976L152.873 231.386L134.245 212.854C133.886 215.89 133.031 218.819 131.682 221.587C139.19 225.811 144.436 232.779 146.808 241.633C149.496 251.663 147.779 261.503 142.24 269.578C136.763 277.561 127.884 283.362 116.917 286.301L73.8934 297.829C70.2168 298.814 66.4378 296.632 65.4526 292.955L40.4281 199.562C40.0571 198.178 40.1353 196.778 40.5734 195.519C39.5645 194.648 38.7971 193.475 38.4261 192.091L15.8479 107.827C14.8627 104.151 17.0446 100.372 20.7211 99.3864L44.3906 93.0442C48.0672 92.059 51.8462 94.2409 52.8314 97.9175L59.4828 122.741L73.3886 119.015L66.7372 94.1914C65.752 90.5148 67.9339 86.7358 71.6105 85.7506L95.2799 79.4084C97.0455 78.9353 98.9266 79.183 100.51 80.0969C102.093 81.0108 103.248 82.5162 103.721 84.2817L118.163 138.18L124.502 76.1753C124.793 73.3296 126.812 70.9595 129.574 70.2192L153.717 63.7501C156.489 63.0074 159.431 64.0601 161.103 66.3927L179.33 91.8269C180.628 69.5464 196.61 50.7349 220.013 44.4643C230.584 41.6316 240.776 41.6366 249.985 44.062ZM186.756 102.19C187.008 103.717 187.339 105.254 187.752 106.795C191.198 119.655 199.471 129.388 210.191 134.891C218.181 138.993 227.532 140.744 237.256 139.688C239.94 139.396 242.652 138.891 245.373 138.162C248.473 137.331 251.317 136.348 253.937 135.218C260.784 132.265 266.097 128.313 270.439 123.477C270.633 123.261 270.825 123.043 271.015 122.824C272.337 121.297 273.568 119.686 274.724 117.993L254.616 106.384C254.513 106.569 254.407 106.752 254.299 106.933C251.271 112.01 246.411 115.559 239.555 117.396C226.892 120.789 215.669 114.41 211.895 100.326C208.153 86.3613 214.714 75.3436 227.378 71.9505C233.768 70.2383 239.289 70.846 243.869 73.177C244.463 73.4795 245.041 73.8109 245.604 74.1701L257.095 54.094C255.458 53.2637 253.762 52.5311 252.012 51.9021C251.568 51.7426 251.121 51.5897 250.671 51.4436C242.065 48.6525 232.233 48.325 221.796 51.1213C197.582 57.6095 182.91 78.8599 186.756 102.19ZM209.796 146.172L185.18 152.768L176.759 139.803L146.936 147.794L146.007 163.264L121.864 169.733L131.358 76.8763L155.501 70.4072L209.796 146.172ZM106.126 184.817C101.718 184.155 96.8372 184.448 91.6829 185.829L47.0852 197.779L72.1097 291.172L115.133 279.644C134.546 274.442 144.51 259.682 140.151 243.417C138.217 236.199 134.017 230.677 127.925 227.386C125.824 226.251 123.499 225.381 120.963 224.799C122.812 222.959 124.273 220.969 125.345 218.853C127.337 214.919 127.982 210.551 127.268 205.913C127.122 204.962 126.919 204 126.658 203.028C124.677 195.633 120.018 190.099 113.65 187.078C113.506 187.009 113.362 186.942 113.216 186.877C111.308 186.016 109.253 185.376 107.075 184.975C106.761 184.917 106.445 184.864 106.126 184.817ZM111.512 180.516L159.049 227.809L169.066 265.192L195.3 258.163L185.002 219.73L202.412 156.159L172.899 164.067L165.057 197.238L141.681 172.432L111.512 180.516ZM59.8735 150.827L87.0934 143.534L95.9724 176.671L119.642 170.329L97.0637 86.0655L73.3942 92.4077L81.8293 123.888L54.6095 131.182L46.1743 99.7012L22.5049 106.043L45.0831 190.307L68.7526 183.965L59.8735 150.827ZM204.144 155.695L210.119 177.994L238.058 170.508L257.107 241.602L283.341 234.572L264.292 163.478L292.362 155.957L286.387 133.658L204.144 155.695ZM314.609 226.194L385.965 207.074L380.131 185.3L335.008 197.391L330.931 182.175L371.2 171.385L365.507 150.135L325.238 160.925L321.653 147.546L365.988 135.666L360.154 113.892L289.584 132.801L314.609 226.194ZM165.658 122.99L150.129 99.1182L148.261 127.651L165.658 122.99ZM77.8556 209.778L89.3985 206.685C95.0388 205.174 99.8431 206.839 101.425 212.742C103.006 218.644 99.547 222.524 94.0379 224L82.4949 227.093L77.8556 209.778ZM87.3452 245.194L100.069 241.785C106.758 239.993 112.106 242.637 113.793 248.933C115.48 255.229 112.171 260.193 105.481 261.985L92.7578 265.394L87.3452 245.194Z" stroke="#161616" stroke-width="30.6305" stroke-linejoin="round" mask="url(#path-4-outside-2_675_12873)"/>
<path fill-rule="evenodd" clip-rule="evenodd" d="M187.752 106.795C194.475 131.885 219.572 145.074 245.372 138.161C259.455 134.388 268.255 127.464 274.723 117.993L254.616 106.384C251.615 111.754 246.655 115.493 239.554 117.396C226.891 120.789 215.669 114.409 211.895 100.326C208.153 86.361 214.714 75.3433 227.377 71.9502C234.596 70.0159 240.706 71.0425 245.603 74.1699L257.094 54.0937C247.112 49.0309 234.933 47.6011 221.796 51.1211C195.996 58.0341 181.029 81.7054 187.752 106.795ZM256.83 43.2559L279.408 127.519L303.077 121.177L292.105 80.2289L330.534 113.82L358.937 106.21L316.102 70.3742L335.057 22.2949L306.536 29.9373L290.552 74.4299L280.499 36.9137L256.83 43.2559ZM121.864 169.733L131.358 76.876L155.501 70.4069L209.796 146.172L185.18 152.768L176.759 139.803L146.935 147.794L146.007 163.264L121.864 169.733ZM148.261 127.651L165.658 122.99L150.129 99.1179L148.261 127.651ZM22.5045 106.043L45.0828 190.307L68.7522 183.964L59.8731 150.827L87.093 143.534L95.9721 176.671L119.642 170.329L97.0633 86.0652L73.3939 92.4074L81.829 123.888L54.6091 131.181L46.174 99.701L22.5045 106.043ZM314.608 226.194L289.584 132.801L360.153 113.892L365.988 135.666L321.652 147.546L325.237 160.925L365.506 150.135L371.2 171.385L330.931 182.175L335.008 197.39L380.13 185.3L385.965 207.074L314.608 226.194ZM238.057 170.507L257.107 241.602L283.341 234.572L264.291 163.478L292.362 155.957L286.387 133.658L204.143 155.695L210.118 177.994L238.057 170.507ZM169.066 265.192L159.049 227.809L111.511 180.515L141.68 172.432L165.057 197.238L172.899 164.067L202.412 156.159L185.002 219.73L195.3 258.163L169.066 265.192ZM47.0848 197.778L72.1093 291.172L115.133 279.643C134.546 274.442 144.509 259.681 140.151 243.416C137.55 233.71 130.85 227.07 120.963 224.798C126.957 218.834 128.872 211.292 126.658 203.028C122.792 188.599 108.735 181.259 91.6825 185.829L47.0848 197.778ZM77.8552 209.778L89.3981 206.685C95.0384 205.174 99.8428 206.839 101.424 212.742C103.006 218.644 99.5466 222.524 94.0375 224L82.4946 227.093L77.8552 209.778ZM87.3448 245.194L100.068 241.785C106.758 239.992 112.106 242.636 113.793 248.933C115.48 255.229 112.171 260.193 105.481 261.985L92.7574 265.394L87.3448 245.194Z" fill="white"/>
<path fill-rule="evenodd" clip-rule="evenodd" d="M220.054 268.737C217.446 264.086 213.776 260.468 209.267 257.969C208.853 257.74 208.436 257.522 208.016 257.315L211.36 252.437C213.13 249.854 213.683 246.626 212.872 243.601L209.249 230.08C207.717 224.361 201.838 220.967 196.119 222.499L146.898 235.688C141.179 237.221 137.785 243.099 139.317 248.818L143.409 264.09C144.145 266.837 145.942 269.178 148.404 270.6C150.867 272.022 153.793 272.407 156.539 271.671L157.295 271.469C157.049 273.724 157.52 276.043 158.715 278.072L161.224 282.333C160.677 282.92 160.193 283.572 159.785 284.279L151.097 299.326C148.239 304.278 149.768 310.601 154.574 313.698C165.719 320.881 179.359 323.629 195.376 319.337C203.355 317.199 210.49 313.198 215.727 307.469C218.33 309.759 221.993 310.746 225.593 309.781L244.853 304.621C249.603 303.348 252.749 299.077 252.801 294.389C260.958 298.127 270.523 299.203 280.955 296.408C307.653 289.254 316.913 262.725 310.662 239.399L310.61 239.204C304.358 215.869 283.218 197.703 256.625 204.829C230.044 211.951 220.661 238.489 226.917 261.838L226.969 262.033C227.375 263.548 227.844 265.042 228.372 266.508L220.054 268.737ZM217.735 280.457L222.818 299.426L242.078 294.265L236.996 275.297L217.735 280.457ZM239.187 264.802C240.466 267.937 242.064 270.836 243.936 273.437C245.495 275.603 247.246 277.563 249.162 279.28C256.743 286.072 266.923 289.069 278.18 286.052C297.635 280.839 305.468 261.434 300.307 242.173L300.255 241.979C295.094 222.718 278.757 209.997 259.4 215.184C240.042 220.371 232.112 239.803 237.273 259.063L237.325 259.258C237.838 261.174 238.461 263.026 239.187 264.802ZM210.832 296.116C213.26 291.873 214.203 286.935 213.31 281.643C213.178 280.863 213.006 280.074 212.793 279.279L212.741 279.084C212.103 276.704 211.201 274.672 210.082 272.95C207.997 269.743 205.156 267.61 201.856 266.303C198.311 264.899 194.237 264.447 189.999 264.639L202.517 246.376L198.894 232.855L149.673 246.044L153.765 261.316L179.835 254.33L167.953 272.632L173.309 281.726L181.285 279.589C188.386 277.686 193.078 279.244 194.251 283.622L194.304 283.816C195.424 287.999 192.749 291.635 187.399 293.068C183.085 294.224 178.922 293.888 174.712 292.356C173.087 291.764 171.455 290.995 169.805 290.064C169.56 289.926 169.315 289.784 169.069 289.639L160.382 304.687C161.481 305.396 162.613 306.051 163.778 306.648C165.801 307.684 167.925 308.543 170.157 309.197C176.659 311.102 184.08 311.265 192.602 308.981C200.983 306.736 207.395 302.123 210.832 296.116ZM185.271 282.479C185.271 282.479 185.263 282.484 185.246 282.493C185.262 282.483 185.271 282.479 185.271 282.479ZM281.39 247.45C284.284 258.248 281.479 267.236 273.892 269.269C266.304 271.302 259.161 264.875 256.241 253.981L256.189 253.786C253.27 242.891 256.198 233.975 263.688 231.968C271.178 229.961 278.445 236.458 281.338 247.256L281.39 247.45Z" fill="white"/>
<path fill-rule="evenodd" clip-rule="evenodd" d="M278.182 286.054C258.727 291.267 242.487 278.52 237.327 259.259L237.274 259.065C232.114 239.804 240.044 220.372 259.401 215.186C278.759 209.999 295.096 222.72 300.257 241.98L300.309 242.175C305.47 261.435 297.637 280.841 278.182 286.054ZM273.893 269.27C281.481 267.237 284.285 258.249 281.392 247.452L281.34 247.257C278.447 236.46 271.18 229.962 263.69 231.969C256.2 233.976 253.272 242.893 256.191 253.787L256.243 253.982C259.162 264.877 266.306 271.303 273.893 269.27ZM222.82 299.427L217.737 280.459L236.997 275.298L242.08 294.267L222.82 299.427ZM160.383 304.688C168.953 310.211 179.471 312.502 192.603 308.983C207.778 304.917 216.496 293.093 212.795 279.28L212.742 279.086C209.641 267.51 200.302 264.174 190.001 264.64L202.519 246.377L198.896 232.856L149.674 246.045L153.766 261.317L179.836 254.332L167.954 272.633L173.311 281.728L181.287 279.591C188.388 277.688 193.08 279.246 194.253 283.623L194.305 283.817C195.426 288 192.751 291.636 187.401 293.07C181.175 294.738 175.264 293.298 169.071 289.641L160.383 304.688Z" fill="#F91C32"/>
</svg>
