<svg width="116" height="34" viewBox="0 0 116 34" fill="none" xmlns="http://www.w3.org/2000/svg">
<path d="M15.9089 7.09192V8.01613H18.7792V7.09192H15.9089Z" fill="white"/>
<path d="M26.1489 9.49924C26.1489 10.7001 25.1764 11.6736 23.9768 11.6736C22.7772 11.6736 21.8047 10.7001 21.8047 9.49924C21.8047 8.29838 22.7772 7.32489 23.9768 7.32489C25.1764 7.32489 26.1489 8.29838 26.1489 9.49924Z" fill="white"/>
<path d="M28.7432 1.42308H23.0459V0.801833H28.7432C29.6006 0.801833 30.8847 1.02842 31.965 1.72057C33.0621 2.42343 33.9408 3.60418 33.9408 5.46116V28.0618L33.9408 28.0646C33.9268 28.8181 33.6663 29.936 32.9254 30.8726C32.1737 31.8228 30.9452 32.5629 29.0535 32.5629H25.9505V31.9417H29.0535C30.7613 31.9417 31.8084 31.2839 32.4389 30.4869C33.0792 29.6775 33.3077 28.7003 33.3202 28.0559V5.46116C33.3202 3.83918 32.5698 2.84557 31.6305 2.24382C30.6745 1.63136 29.5149 1.42308 28.7432 1.42308Z" fill="white"/>
<path d="M11.5646 0.801833V1.42308H6.091C4.14582 1.42308 2.94499 2.23973 2.21721 3.24574C1.47883 4.26639 1.21621 5.50015 1.20369 6.31841C1.17782 12.0937 1.14168 24.4548 1.20364 27.7424C1.23232 29.264 2.01989 30.2854 3.01944 30.9578C3.88236 31.5382 4.89294 31.8488 5.66885 31.9731V32.6015C4.80859 32.4765 3.66137 32.138 2.67331 31.4734C1.54857 30.7169 0.61653 29.5252 0.583149 27.7541C0.521 24.4569 0.557248 12.0841 0.583096 6.31398L0.583104 6.31235L0.583127 6.31073C0.596785 5.39468 0.885092 4.02792 1.71456 2.88136C2.55511 1.71948 3.94016 0.801833 6.091 0.801833H11.5646Z" fill="white"/>
<path d="M15.9089 7.09192H18.7792V6.31537C18.7792 5.95298 18.8445 5.22819 19.5892 5.22819H28.7432C29.0277 5.22819 29.5966 5.41457 29.5966 6.16006V27.4376C29.5966 27.7224 29.4104 28.2919 28.6656 28.2919H25.9505V30.9321H28.6656C29.8293 30.9321 32.1411 30.2332 32.079 27.4376C32.0169 24.6421 32.0531 12.0878 32.079 6.16006C32.0014 4.96934 31.2257 2.58791 28.7432 2.58791H23.0459H19.5892C19.0462 2.58791 17.8515 2.74322 17.4171 3.36446C17.3654 3.10561 16.8275 2.58791 15.0898 2.58791H11.5646H6.09101C4.95322 2.61379 2.64662 3.34893 2.5225 6.0824C2.39838 8.81587 2.47078 21.6135 2.5225 27.6706C2.62594 28.7319 3.40687 30.8545 5.70313 30.8545H15.7537C16.6189 30.6193 16.9254 30.3961 17.4117 29.8872L18.1153 30.5915V26.9717H16.0207C16.0207 27.4118 15.788 28.2919 14.8571 28.2919H6.01343C5.72899 28.2919 5.16009 28.121 5.16009 27.4376V6.0824C5.16009 5.79767 5.34628 5.22819 6.09101 5.22819H15.0898C15.4001 5.22819 15.9089 5.44563 15.9089 6.31537V7.09192Z" fill="white"/>
<path d="M5.82401 31.631V33.883H18.1153V30.5915L17.4117 29.8872C16.9254 30.3961 16.6189 30.6193 15.7537 30.8545V31.631H5.82401Z" fill="white"/>
<path d="M8.92975 20.0093C12.0843 23.4615 18.5061 14.9158 21.2644 10.9767C15.6813 12.2999 5.39814 15.959 8.92975 20.0093Z" fill="white"/>
<path d="M13.0121 24.4769C16.956 27.1784 20.9271 16.9104 22.6534 12.2489C17.5131 14.9713 8.55077 21.2652 13.0121 24.4769Z" fill="white"/>
<path d="M9.95506 23.5611C13.8898 26.6783 19.2915 16.593 21.5667 11.9779C15.8477 14.3033 5.5189 19.8756 9.95506 23.5611Z" fill="white"/>
<path d="M17.4171 3.36446C17.8515 2.74322 19.0462 2.58791 19.5892 2.58791H23.0459V1.42308V0.801833V0.491211H11.5646V0.801833V1.42308V2.58791H15.0898C16.8275 2.58791 17.3654 3.10561 17.4171 3.36446Z" fill="white"/>
<path d="M45.9622 24.9084V6.43536H47.4375V24.9084H45.9622ZM51.8062 24.9084V6.43536H53.2815V24.9084H51.8062ZM57.6502 24.9084V6.43536H59.1255V24.9084H57.6502ZM68.3178 24.9084V7.87216H61.6982V6.43536H76.4126V7.87216H69.793V24.9084H68.3178ZM78.7281 24.9084V6.43536H84.2316C84.4454 6.43536 84.7917 6.43964 85.2707 6.44819C85.7581 6.45674 86.22 6.49523 86.6561 6.56365C88.0416 6.7518 89.1919 7.27349 90.107 8.12873C91.0221 8.97541 91.7063 10.053 92.1596 11.3615C92.6129 12.6615 92.8395 14.0983 92.8395 15.6719C92.8395 17.2541 92.6129 18.6994 92.1596 20.0079C91.7063 21.3079 91.0221 22.3812 90.107 23.2279C89.1919 24.0746 88.0416 24.592 86.6561 24.7802C86.22 24.84 85.7539 24.8785 85.2578 24.8956C84.7703 24.9042 84.4283 24.9084 84.2316 24.9084H78.7281ZM80.2804 23.4588H84.2316C84.6164 23.4588 85.0141 23.4503 85.4246 23.4332C85.8351 23.4075 86.1858 23.369 86.4765 23.3177C87.6226 23.1125 88.5462 22.6592 89.2475 21.9579C89.9488 21.248 90.4577 20.3543 90.7741 19.2767C91.0991 18.1906 91.2616 16.989 91.2616 15.6719C91.2616 14.3463 91.0991 13.1447 90.7741 12.0671C90.4491 10.9809 89.936 10.0872 89.2347 9.38593C88.5334 8.67608 87.614 8.2228 86.4765 8.0261C86.1858 7.97479 85.8266 7.94058 85.3989 7.92347C84.9799 7.89782 84.5908 7.88499 84.2316 7.88499H80.2804V23.4588ZM95.9474 24.9084V6.43536H97.3201L104.889 22.7789L112.381 6.43536H113.805V24.8828H112.355V9.83492L105.479 24.9084H104.273L97.3842 9.83492V24.9084H95.9474Z" fill="white"/>
<path d="M46.5561 33.8224C46.224 33.8224 45.9473 33.7358 45.726 33.5628C45.5066 33.3897 45.3527 33.1563 45.2642 32.8625L45.9826 32.6904C46.0047 32.8132 46.0691 32.9188 46.1757 33.0074C46.2824 33.0959 46.4001 33.1402 46.5289 33.1402C46.6134 33.1402 46.703 33.1181 46.7975 33.0738C46.8921 33.0275 46.9626 32.9541 47.0088 32.8534C47.037 32.789 47.0531 32.7126 47.0571 32.624C47.0632 32.5335 47.0662 32.4288 47.0662 32.3101V29.3852H47.8027V32.3101C47.8027 32.4449 47.8017 32.5637 47.7997 32.6663C47.7997 32.7669 47.7896 32.8625 47.7695 32.953C47.7514 33.0416 47.7142 33.1331 47.6578 33.2277C47.5391 33.433 47.3841 33.5839 47.193 33.6805C47.0018 33.7751 46.7895 33.8224 46.5561 33.8224ZM53.9661 33.7318L55.3365 29.3852H56.402L57.7724 33.7318H57.0238L55.7802 29.8319H55.9432L54.7147 33.7318H53.9661ZM54.7298 32.79V32.1109H57.0117V32.79H54.7298ZM63.9929 33.7318V29.3852H65.7164C66.0102 29.3852 66.2507 29.4446 66.4378 29.5633C66.627 29.68 66.7669 29.8299 66.8574 30.013C66.95 30.1962 66.9963 30.3853 66.9963 30.5805C66.9963 30.82 66.9389 31.0232 66.8242 31.1903C66.7115 31.3573 66.5576 31.47 66.3624 31.5283V31.3774C66.6361 31.4398 66.8433 31.5696 66.9842 31.7668C67.1271 31.964 67.1985 32.1884 67.1985 32.4399C67.1985 32.6975 67.1492 32.9229 67.0506 33.116C66.952 33.3092 66.8051 33.4601 66.6099 33.5688C66.4167 33.6775 66.1772 33.7318 65.8915 33.7318H63.9929ZM64.7294 33.0466H65.8009C65.9277 33.0466 66.0414 33.0215 66.142 32.9712C66.2426 32.9188 66.3211 32.8464 66.3775 32.7538C66.4358 32.6592 66.465 32.5476 66.465 32.4188C66.465 32.3021 66.4399 32.1974 66.3895 32.1049C66.3392 32.0123 66.2658 31.9388 66.1692 31.8845C66.0726 31.8282 65.9569 31.8 65.8221 31.8H64.7294V33.0466ZM64.7294 31.1208H65.7074C65.812 31.1208 65.9056 31.1007 65.9881 31.0605C66.0706 31.0202 66.136 30.9608 66.1843 30.8824C66.2326 30.8039 66.2567 30.7073 66.2567 30.5926C66.2567 30.4417 66.2084 30.3159 66.1118 30.2153C66.0153 30.1147 65.8804 30.0644 65.7074 30.0644H64.7294V31.1208ZM73.1742 33.7318L74.5446 29.3852H75.6101L76.9805 33.7318H76.2319L74.9883 29.8319H75.1513L73.9228 33.7318H73.1742ZM73.9379 32.79V32.1109H76.2199V32.79H73.9379ZM83.2614 33.7318V29.3852H83.9888V33.0496H85.9086V33.7318H83.2614ZM92.0947 33.7318V29.3852H93.8907C93.9329 29.3852 93.9872 29.3872 94.0537 29.3912C94.1201 29.3933 94.1814 29.3993 94.2378 29.4094C94.4893 29.4476 94.6966 29.5311 94.8596 29.6599C95.0246 29.7887 95.1463 29.9517 95.2248 30.1489C95.3053 30.3441 95.3456 30.5614 95.3456 30.8009C95.3456 31.0383 95.3053 31.2557 95.2248 31.4529C95.1443 31.6481 95.0216 31.81 94.8566 31.9388C94.6936 32.0676 94.4873 32.1511 94.2378 32.1894C94.1814 32.1974 94.1191 32.2035 94.0506 32.2075C93.9842 32.2115 93.9309 32.2135 93.8907 32.2135H92.8221V33.7318H92.0947ZM92.8221 31.5344H93.8605C93.9007 31.5344 93.946 31.5323 93.9963 31.5283C94.0466 31.5243 94.0929 31.5162 94.1352 31.5042C94.2559 31.474 94.3505 31.4207 94.4189 31.3442C94.4893 31.2677 94.5386 31.1812 94.5668 31.0846C94.597 30.988 94.6121 30.8934 94.6121 30.8009C94.6121 30.7083 94.597 30.6137 94.5668 30.5171C94.5386 30.4185 94.4893 30.331 94.4189 30.2545C94.3505 30.1781 94.2559 30.1247 94.1352 30.0945C94.0929 30.0825 94.0466 30.0754 93.9963 30.0734C93.946 30.0694 93.9007 30.0674 93.8605 30.0674H92.8221V31.5344ZM103.376 33.8224C103.03 33.8224 102.725 33.7519 102.461 33.6111C102.2 33.4702 101.994 33.272 101.845 33.0164C101.698 32.7609 101.625 32.461 101.625 32.1169V29.3912L102.362 29.3852V32.0988C102.362 32.2618 102.389 32.4077 102.443 32.5365C102.499 32.6653 102.575 32.775 102.669 32.8655C102.764 32.9541 102.873 33.0215 102.995 33.0677C103.118 33.114 103.245 33.1372 103.376 33.1372C103.511 33.1372 103.638 33.114 103.759 33.0677C103.882 33.0195 103.991 32.951 104.085 32.8625C104.18 32.7719 104.254 32.6623 104.308 32.5335C104.363 32.4047 104.39 32.2598 104.39 32.0988V29.3852H105.126V32.1169C105.126 32.461 105.052 32.7609 104.903 33.0164C104.756 33.272 104.551 33.4702 104.287 33.6111C104.026 33.7519 103.722 33.8224 103.376 33.8224ZM111.645 33.7318V29.3852H113.441C113.483 29.3852 113.537 29.3872 113.604 29.3912C113.67 29.3933 113.731 29.3993 113.788 29.4094C114.039 29.4476 114.247 29.5311 114.41 29.6599C114.575 29.7887 114.696 29.9517 114.775 30.1489C114.855 30.3441 114.896 30.5614 114.896 30.8009C114.896 31.155 114.806 31.4599 114.627 31.7155C114.448 31.969 114.173 32.126 113.803 32.1864L113.492 32.2135H112.372V33.7318H111.645ZM114.141 33.7318L113.284 31.963L114.023 31.8L114.965 33.7318H114.141ZM112.372 31.5344H113.411C113.451 31.5344 113.496 31.5323 113.546 31.5283C113.597 31.5243 113.643 31.5162 113.685 31.5042C113.806 31.474 113.901 31.4207 113.969 31.3442C114.039 31.2677 114.089 31.1812 114.117 31.0846C114.147 30.988 114.162 30.8934 114.162 30.8009C114.162 30.7083 114.147 30.6137 114.117 30.5171C114.089 30.4185 114.039 30.331 113.969 30.2545C113.901 30.1781 113.806 30.1247 113.685 30.0945C113.643 30.0825 113.597 30.0754 113.546 30.0734C113.496 30.0694 113.451 30.0674 113.411 30.0674H112.372V31.5344Z" fill="white"/>
<path d="M45.0665 4.11694V0.313661H46.638C46.675 0.313661 46.7226 0.315422 46.7807 0.318944C46.8388 0.320705 46.8925 0.325987 46.9418 0.334791C47.1619 0.368246 47.3432 0.441318 47.4859 0.554008C47.6302 0.666697 47.7368 0.809321 47.8054 0.981877C47.8759 1.15267 47.9111 1.34284 47.9111 1.55237C47.9111 1.76014 47.8759 1.95031 47.8054 2.12286C47.735 2.29366 47.6276 2.4354 47.4832 2.54809C47.3406 2.66078 47.1601 2.73385 46.9418 2.76731C46.8925 2.77435 46.8379 2.77963 46.778 2.78315C46.7199 2.78668 46.6733 2.78844 46.638 2.78844H45.7031V4.11694H45.0665ZM45.7031 2.19417H46.6116C46.6468 2.19417 46.6865 2.19241 46.7305 2.18889C46.7745 2.18537 46.815 2.17833 46.852 2.16776C46.9576 2.14135 47.0404 2.09469 47.1002 2.02778C47.1619 1.96087 47.205 1.88516 47.2297 1.80064C47.2561 1.71612 47.2693 1.63336 47.2693 1.55237C47.2693 1.47137 47.2561 1.38862 47.2297 1.3041C47.205 1.21782 47.1619 1.14123 47.1002 1.07432C47.0404 1.00741 46.9576 0.960748 46.852 0.934336C46.815 0.923771 46.7745 0.917609 46.7305 0.915848C46.6865 0.912326 46.6468 0.910565 46.6116 0.910565H45.7031V2.19417ZM48.493 4.11694V0.313661H49.7053C49.737 0.313661 49.7995 0.314542 49.8929 0.316303C49.9879 0.318063 50.0795 0.324226 50.1675 0.334791C50.4686 0.373528 50.7231 0.480935 50.9308 0.657013C51.1404 0.83133 51.2988 1.05407 51.4063 1.32523C51.5137 1.59639 51.5674 1.89308 51.5674 2.2153C51.5674 2.53752 51.5137 2.83422 51.4063 3.10538C51.2988 3.37654 51.1404 3.60015 50.9308 3.77623C50.7231 3.95055 50.4686 4.05708 50.1675 4.09581C50.0813 4.10638 49.9906 4.11254 49.8955 4.1143C49.8004 4.11606 49.737 4.11694 49.7053 4.11694H48.493ZM49.1401 3.5174H49.7053C49.7582 3.5174 49.8251 3.51564 49.9061 3.51212C49.9888 3.50859 50.0619 3.50067 50.1253 3.48835C50.3049 3.45489 50.451 3.37478 50.5637 3.248C50.6764 3.12122 50.7592 2.96715 50.812 2.78579C50.8666 2.60443 50.8939 2.41427 50.8939 2.2153C50.8939 2.00929 50.8666 1.81561 50.812 1.63425C50.7574 1.45289 50.6729 1.30058 50.5584 1.17732C50.4457 1.05407 50.3014 0.975714 50.1253 0.94226C50.0619 0.928173 49.9888 0.92025 49.9061 0.918489C49.8251 0.914967 49.7582 0.913207 49.7053 0.913207H49.1401V3.5174ZM52.2445 4.11694V0.313661H53.816C53.853 0.313661 53.9005 0.315422 53.9587 0.318944C54.0168 0.320705 54.0705 0.325987 54.1198 0.334791C54.3399 0.368246 54.5212 0.441318 54.6638 0.554008C54.8082 0.666697 54.9148 0.809321 54.9834 0.981877C55.0539 1.15267 55.0891 1.34284 55.0891 1.55237C55.0891 1.76014 55.0539 1.95031 54.9834 2.12286C54.913 2.29366 54.8056 2.4354 54.6612 2.54809C54.5186 2.66078 54.3381 2.73385 54.1198 2.76731C54.0705 2.77435 54.0159 2.77963 53.956 2.78315C53.8979 2.78668 53.8512 2.78844 53.816 2.78844H52.8811V4.11694H52.2445ZM52.8811 2.19417H53.7896C53.8248 2.19417 53.8645 2.19241 53.9085 2.18889C53.9525 2.18537 53.993 2.17833 54.03 2.16776C54.1356 2.14135 54.2184 2.09469 54.2782 2.02778C54.3399 1.96087 54.383 1.88516 54.4077 1.80064C54.4341 1.71612 54.4473 1.63336 54.4473 1.55237C54.4473 1.47137 54.4341 1.38862 54.4077 1.3041C54.383 1.21782 54.3399 1.14123 54.2782 1.07432C54.2184 1.00741 54.1356 0.960748 54.03 0.934336C53.993 0.923771 53.9525 0.917609 53.9085 0.915848C53.8645 0.912326 53.8248 0.910565 53.7896 0.910565H52.8811V2.19417ZM55.671 4.11694V0.313661H56.2442L57.5595 3.00765L58.8748 0.313661H59.4479V4.11694H58.8536V1.67915L57.6862 4.11694H57.4327L56.2679 1.67915V4.11694H55.671Z" fill="white"/>
</svg>
