<svg width="24" height="24" viewBox="0 0 24 24" fill="none" xmlns="http://www.w3.org/2000/svg">
<path fill-rule="evenodd" clip-rule="evenodd" d="M4 2C2.89543 2 2 2.89543 2 4V20C2 21.1046 2.89543 22 4 22H20C21.1046 22 22 21.1046 22 20V4C22 2.89543 21.1046 2 20 2H4ZM18.8782 7.81946C18.6054 8.49347 18.0036 8.71813 16.9445 8.2688C17.0009 8.35871 17.0748 8.44372 17.1512 8.53164L17.1512 8.53165C17.3681 8.78109 17.6052 9.05392 17.5222 9.52854C18.5252 9.30388 19.3115 8.39718 18.8782 7.81946ZM10.2847 10.8445C10.0439 11.0451 10.0359 10.676 10.1001 10.676C13.9676 6.59984 15.773 8.13248 15.773 8.13248C18.4128 10.6118 16.2544 15.5625 12.8683 17.9376C12.7813 18.0039 12.6036 17.8854 12.764 17.7048C13.4059 16.8062 13.7349 16.2445 14.2404 15.3458C14.8663 14.3589 17.3938 6.33505 10.2847 10.8445ZM6.27264 8.87067C5.68769 8.87067 5.36604 9.31198 5.21349 9.8576C4.84103 11.2778 5.03229 12.1925 5.21349 13.0591C6.14435 16.0761 8.63175 17.9376 9.22541 18.3789C9.42597 18.3789 9.36181 18.1944 9.36181 18.1944C7.4041 16.0199 6.62579 13.9257 6.5294 11.8876C8.1102 13.6368 9.76311 13.3801 11.7048 10.8445C11.7771 10.7081 11.6808 10.6359 11.5924 10.676C9.54434 12.3542 7.95785 12.3129 7.41212 10.6921L7.40785 10.6794C7.37049 10.5687 7.35585 10.5254 7.35585 10.315V9.8576C7.35585 9.32583 6.93862 8.83857 6.27264 8.87067ZM7.42086 7.3907C7.42086 7.92247 6.98977 8.35356 6.458 8.35356C5.92623 8.35356 5.49514 7.92247 5.49514 7.3907C5.49514 6.85892 5.92623 6.42783 6.458 6.42783C6.98977 6.42783 7.42086 6.85892 7.42086 7.3907ZM12.924 7.54682C13.4558 7.54682 13.8869 7.11573 13.8869 6.58396C13.8869 6.05218 13.4558 5.62109 12.924 5.62109C12.3923 5.62109 11.9612 6.05218 11.9612 6.58396C11.9612 7.11573 12.3923 7.54682 12.924 7.54682Z" fill="white"/>
</svg>
