<svg width="335" height="243" viewBox="0 0 335 243" fill="none" xmlns="http://www.w3.org/2000/svg">
<path fill-rule="evenodd" clip-rule="evenodd" d="M463.144 22.1703C463.78 20.5708 463.753 18.7844 463.072 17.2041C462.39 15.6238 461.108 14.3791 459.509 13.7437C457.909 13.1084 456.123 13.1345 454.543 13.8162C452.962 14.498 451.718 15.7796 451.082 17.3791L437.734 50.9838C435.557 44.5424 432.018 38.6457 427.357 33.6953C422.697 28.7448 417.024 24.8569 410.725 22.2963L333.963 -8.19477C327.322 -10.7748 320.206 -11.9014 313.094 -11.4985C305.981 -11.0956 299.038 -9.17256 292.732 -5.85909L306.339 -40.1151C306.974 -41.7146 306.948 -43.501 306.266 -45.0813C305.584 -46.6616 304.303 -47.9063 302.703 -48.5417C301.104 -49.177 299.317 -49.1509 297.737 -48.4692C296.157 -47.7874 294.912 -46.5058 294.277 -44.9063L270.321 15.4036C270.181 15.8698 270.093 16.3501 270.059 16.8358C269.991 16.9693 269.922 17.1025 269.854 17.2356L269.849 17.2448L269.849 17.2452C269.387 18.1447 268.928 19.0395 268.523 19.9822C265.667 26.5441 264.147 33.6093 264.053 40.7651C263.958 47.9209 265.291 55.0238 267.972 61.6588C270.334 67.5213 273.856 72.8458 278.327 77.3123C282.799 81.7787 288.128 85.2949 293.993 87.6494C302.108 90.7095 310.893 91.5474 319.44 90.0766C327.987 88.6057 335.987 84.8794 342.612 79.2827C342.666 79.3043 342.839 79.4497 342.895 79.9051C343.85 88.4272 347.086 96.5341 352.262 103.371C357.438 110.209 364.362 115.524 372.305 118.756C375.618 120.067 379.066 121.008 382.586 121.562C392.138 122.805 401.846 121.281 410.558 117.17C419.269 113.059 426.618 106.535 431.731 98.3709C434.611 93.8446 436.838 88.9351 438.348 83.7872C438.68 83.3876 438.963 82.9486 439.188 82.4801L463.144 22.1703ZM335.968 54.0482C327.838 56.2579 319.211 55.7713 311.382 52.6613C303.552 49.5512 296.943 43.9857 292.545 36.7999C292.1 36.0731 291.803 35.2657 291.67 34.4239C291.537 33.5821 291.571 32.7224 291.771 31.8939C291.97 31.0654 292.331 30.2842 292.832 29.5951C293.334 28.906 293.966 28.3223 294.693 27.8774C295.419 27.4326 296.227 27.1353 297.069 27.0025C297.91 26.8697 298.77 26.9039 299.599 27.1034C300.427 27.3028 301.208 27.6635 301.897 28.1648C302.587 28.6661 303.17 29.2982 303.615 30.0251C306.547 34.8156 310.953 38.526 316.173 40.5993C321.393 42.6726 327.144 42.9971 332.564 41.5239C334.225 41.0725 335.997 41.2993 337.49 42.1545C338.984 43.0097 340.077 44.4231 340.528 46.0839C340.979 47.7448 340.753 49.5169 339.898 51.0105C339.042 52.5041 337.629 53.5968 335.968 54.0482ZM408.34 82.7953C400.21 85.005 391.583 84.5184 383.754 81.4084C375.924 78.2983 369.314 72.7328 364.917 65.547C364.018 64.0791 363.74 62.3143 364.143 60.641C364.545 58.9677 365.596 57.523 367.064 56.6245C368.532 55.7262 370.297 55.4477 371.97 55.8505C373.644 56.2532 375.089 57.3042 375.987 58.7722C378.919 63.5627 383.325 67.273 388.545 69.3464C393.764 71.4197 399.516 71.7442 404.936 70.271C406.596 69.8196 408.369 70.0464 409.862 70.9016C411.356 71.7568 412.448 73.1702 412.9 74.831C413.351 76.4919 413.124 78.264 412.269 79.7576C411.414 81.2512 410.001 82.3439 408.34 82.7953ZM232.514 -22.4327C231.846 -24.6316 230.333 -26.4753 228.306 -27.5582C226.28 -28.6412 223.906 -28.8747 221.707 -28.2074C219.508 -27.5402 217.665 -26.0267 216.582 -24.0001C215.499 -21.9734 215.265 -19.5996 215.932 -17.4008L229.951 28.7948C222.32 23.8795 213.718 20.6666 204.733 19.3748C195.747 18.083 186.589 18.7428 177.882 21.3091L72.3579 53.3325C63.2776 56.1627 54.9096 60.9067 47.8178 67.2446C40.7261 73.5826 35.0755 81.3672 31.247 90.0737L16.9562 42.9827C16.2889 40.7839 14.7755 38.9402 12.7489 37.8572C10.7222 36.7743 8.34839 36.5407 6.14957 37.208C3.95074 37.8753 2.10705 39.3887 1.02409 41.4154C-0.0588784 43.442 -0.292408 45.8159 0.374871 48.0147L25.5347 130.921C25.7762 131.525 26.0842 132.099 26.453 132.635C26.4937 132.835 26.534 133.036 26.5742 133.236C26.8403 134.56 27.105 135.877 27.4667 137.198C29.9437 146.426 34.2348 155.068 40.0894 162.619C45.944 170.17 53.2446 176.478 61.5648 181.176C68.9077 185.333 77.0154 187.963 85.4006 188.906C93.7858 189.85 102.275 189.089 110.359 186.668C121.378 183.112 131.249 176.678 138.95 168.031C146.652 159.385 151.905 148.838 154.167 137.482C154.241 137.46 154.543 137.468 154.981 137.896C163.068 146.001 173.191 151.774 184.284 154.608C195.378 157.441 207.03 157.231 218.013 153.998C222.563 152.611 226.947 150.725 231.083 148.374C242.092 141.726 250.961 132.057 256.638 120.517C262.314 108.977 264.56 96.0499 263.107 83.2714C262.348 76.1493 260.59 69.1695 257.883 62.538C257.898 61.844 257.828 61.1508 257.674 60.474L232.514 -22.4327ZM126.235 116.659C119.585 125.73 110.171 132.399 99.408 135.666C88.6449 138.932 77.1127 138.619 66.5424 134.774C65.4732 134.385 64.491 133.79 63.652 133.021C62.813 132.253 62.1335 131.326 61.6525 130.295C61.1714 129.264 60.8982 128.149 60.8483 127.012C60.7985 125.875 60.973 124.74 61.3619 123.671C61.7508 122.601 62.3465 121.619 63.115 120.78C63.8835 119.941 64.8098 119.262 65.8408 118.781C66.8719 118.3 67.9877 118.026 69.1243 117.976C70.261 117.927 71.3964 118.101 72.4656 118.49C79.5125 121.053 87.2006 121.262 94.376 119.084C101.551 116.907 107.827 112.461 112.261 106.413C113.62 104.56 115.659 103.323 117.93 102.973C120.201 102.624 122.518 103.19 124.371 104.549C126.224 105.908 127.462 107.947 127.811 110.218C128.161 112.489 127.594 114.806 126.235 116.659ZM225.723 86.4675C219.073 95.5384 209.659 102.208 198.896 105.474C188.133 108.74 176.601 108.427 166.03 104.583C163.871 103.797 162.112 102.186 161.141 100.104C160.169 98.0213 160.065 95.6382 160.85 93.4788C161.635 91.3194 163.247 89.5604 165.329 88.5889C167.411 87.6174 169.794 87.5128 171.954 88.2983C179.001 90.8615 186.689 91.07 193.864 88.8925C201.04 86.715 207.315 82.2689 211.749 76.2216C213.108 74.3685 215.147 73.131 217.418 72.7814C219.689 72.4318 222.006 72.9987 223.859 74.3574C225.712 75.7161 226.95 77.7553 227.299 80.0264C227.649 82.2975 227.082 84.6144 225.723 86.4675ZM334.077 138.574C335.047 139.134 335.754 140.056 336.044 141.138L346.972 181.921C347.036 182.253 347.059 182.591 347.041 182.929C348.253 186.202 348.998 189.63 349.253 193.111C349.756 199.358 348.456 205.618 345.507 211.148C342.557 216.678 338.082 221.245 332.614 224.307C330.562 225.386 328.397 226.234 326.158 226.837C320.757 228.236 315.079 228.152 309.721 226.595C304.363 225.037 299.525 222.063 295.716 217.986C295.509 217.771 295.363 217.762 295.326 217.772C294.043 223.267 291.315 228.319 287.426 232.407C283.536 236.496 278.626 239.471 273.202 241.027C269.226 242.077 265.079 242.312 261.01 241.718C256.941 241.124 253.034 239.714 249.525 237.571C245.547 235.15 242.092 231.961 239.362 228.189C236.631 224.418 234.679 220.14 233.62 215.606C233.465 214.957 233.358 214.311 233.249 213.662C233.233 213.564 233.216 213.466 233.2 213.367C233.029 213.101 232.888 212.816 232.78 212.518L221.852 171.735C221.562 170.654 221.714 169.501 222.274 168.532C222.834 167.562 223.756 166.854 224.838 166.564C225.919 166.274 227.072 166.426 228.042 166.986C229.011 167.546 229.719 168.468 230.009 169.55L236.216 192.714C238.22 188.535 241.096 184.834 244.652 181.861C248.207 178.887 252.359 176.71 256.827 175.477L308.735 161.568C313.017 160.458 317.488 160.283 321.844 161.056C326.2 161.829 330.338 163.531 333.976 166.047L327.887 143.323C327.598 142.242 327.749 141.089 328.309 140.119C328.869 139.15 329.791 138.442 330.873 138.152C331.955 137.862 333.107 138.014 334.077 138.574ZM268.684 216.011C273.979 214.592 278.671 211.495 282.055 207.183C282.746 206.302 283.06 205.183 282.926 204.071C282.792 202.959 282.222 201.946 281.341 201.255C280.46 200.563 279.34 200.25 278.229 200.384C277.117 200.518 276.104 201.088 275.413 201.969C273.156 204.843 270.029 206.908 266.499 207.854C262.969 208.8 259.228 208.575 255.837 207.214C255.322 207.008 254.772 206.905 254.218 206.911C253.663 206.917 253.115 207.032 252.606 207.25C252.096 207.468 251.634 207.784 251.246 208.18C250.858 208.576 250.552 209.045 250.346 209.56C250.139 210.074 250.036 210.625 250.042 211.179C250.048 211.733 250.164 212.281 250.381 212.791C250.599 213.301 250.915 213.763 251.312 214.151C251.708 214.538 252.177 214.844 252.691 215.051C257.778 217.093 263.39 217.429 268.684 216.011ZM317.624 202.898C322.918 201.479 327.61 198.381 330.994 194.07C331.686 193.189 331.999 192.069 331.865 190.958C331.731 189.846 331.161 188.833 330.28 188.142C329.399 187.45 328.28 187.137 327.168 187.271C326.056 187.405 325.043 187.975 324.352 188.856C322.096 191.73 318.968 193.795 315.438 194.741C311.909 195.687 308.167 195.462 304.776 194.101C303.737 193.684 302.575 193.697 301.545 194.137C300.515 194.576 299.702 195.407 299.285 196.447C298.868 197.486 298.881 198.648 299.321 199.678C299.761 200.708 300.591 201.52 301.631 201.938C306.717 203.979 312.329 204.316 317.624 202.898Z" fill="url(#paint0_linear_1058_12019)" fill-opacity="0.2"/>
<defs>
<linearGradient id="paint0_linear_1058_12019" x1="598.5" y1="-240" x2="13" y2="214.5" gradientUnits="userSpaceOnUse">
<stop stop-color="#FF0083"/>
<stop offset="1" stop-color="#FF0083" stop-opacity="0"/>
</linearGradient>
</defs>
</svg>
