<svg width="324" height="320" viewBox="0 0 324 320" fill="none" xmlns="http://www.w3.org/2000/svg">
<path fill-rule="evenodd" clip-rule="evenodd" d="M359.135 9.23477L294.86 69.174C259.401 102.24 203.712 100.297 170.646 64.8383C137.579 29.3799 139.523 -26.3095 174.981 -59.3759C210.44 -92.4424 266.129 -90.4985 299.196 -55.0402L359.135 9.23477ZM316.67 288.11L228.893 292.493C180.469 294.912 139.151 257.524 136.732 209.1C134.314 160.677 171.702 119.358 220.126 116.94C268.549 114.521 309.868 151.909 312.286 200.333L316.67 288.11ZM80.3881 167.024L15.9853 158.415L24.5938 94.0121C29.3429 58.4832 62.0764 33.4688 97.6053 38.2179C133.134 42.9669 158.149 75.7004 153.4 111.229C148.651 146.758 115.917 171.773 80.3881 167.024Z" fill="url(#paint0_linear_1096_11113)" fill-opacity="0.2"/>
<defs>
<linearGradient id="paint0_linear_1096_11113" x1="494.184" y1="-297.507" x2="-84.1156" y2="-142.784" gradientUnits="userSpaceOnUse">
<stop stop-color="#0066FF"/>
<stop offset="1" stop-color="white" stop-opacity="0"/>
</linearGradient>
</defs>
</svg>
