<svg width="395" height="342" viewBox="0 0 395 342" fill="none" xmlns="http://www.w3.org/2000/svg">
<path fill-rule="evenodd" clip-rule="evenodd" d="M57.9618 -17.8261C36.4126 -5.19383 35.6695 31.2169 49.788 54.9954C63.1634 77.2877 83.9695 83.2323 104.033 75.0585L130.783 124.102C121.866 133.018 120.38 147.88 127.811 158.283L178.34 227.389C187.257 240.022 205.091 241.508 216.237 231.848C240.593 210.697 240.624 210.554 240.649 210.437C240.653 210.419 240.657 210.401 240.759 210.298C251.162 234.82 252.648 253.397 243.731 283.12C235.557 309.871 220.696 336.622 198.403 354.455C198.146 354.659 197.885 354.864 197.623 355.071C183.51 366.201 163.007 382.37 177.597 404.985C186.514 419.103 205.091 422.818 218.466 413.902C247.446 395.325 272.711 364.858 289.059 329.191C291.288 365.602 285.343 392.352 272.711 404.985C260.822 416.874 261.565 435.451 272.711 446.597C284.6 458.486 303.177 457.743 314.323 446.597C372.283 389.38 345.533 232.591 315.066 157.54C348.505 118.9 365.596 55.7385 367.082 48.3077C370.797 34.9323 361.88 20.8139 348.505 17.0985C334.386 13.3831 321.011 22.3 317.296 35.6754C312.094 54.2523 295.003 106.268 271.225 128.56C265.28 130.789 249.676 140.449 204.348 174.631L169.423 127.074C164.222 120.386 156.791 116.671 148.617 116.671H144.902L116.665 68.3708C134.499 54.2523 138.214 31.96 125.582 11.1539C112.206 -11.8815 80.2541 -30.4584 57.9618 -17.8261ZM225.897 32.7031C199.889 32.7031 178.34 54.2523 178.34 80.26C178.34 106.268 199.889 127.074 225.897 127.074C251.904 127.074 272.711 106.268 272.711 80.26C272.711 53.5093 251.904 32.7031 225.897 32.7031ZM413.152 -16.34C396.804 -16.34 383.429 -2.96458 383.429 13.3831C383.429 29.7308 396.804 43.1062 413.152 43.1062C429.5 43.1062 442.875 29.7308 442.875 13.3831C442.875 -2.96458 429.5 -16.34 413.152 -16.34Z" fill="url(#paint0_linear_1058_12316)" fill-opacity="0.2"/>
<defs>
<linearGradient id="paint0_linear_1058_12316" x1="501" y1="-364" x2="-42.8159" y2="-98.2974" gradientUnits="userSpaceOnUse">
<stop stop-color="white"/>
<stop offset="1" stop-color="white" stop-opacity="0"/>
</linearGradient>
</defs>
</svg>
