<svg width="230" height="230" viewBox="0 0 230 230" fill="none" xmlns="http://www.w3.org/2000/svg">
<path d="M191.761 9.82534L27.1097 211.075C26.495 211.804 26.0314 212.647 25.7458 213.557C25.4602 214.466 25.3583 215.423 25.4461 216.372C25.5339 217.321 25.8095 218.243 26.2571 219.085C26.7046 219.927 27.315 220.671 28.0528 221.274C28.7907 221.878 29.6411 222.328 30.5548 222.6C31.4684 222.871 32.4269 222.959 33.3745 222.856C34.3222 222.754 35.24 222.464 36.0746 222.004C36.9092 221.543 37.6439 220.922 38.2359 220.175L202.887 18.9247C203.502 18.1962 203.965 17.3528 204.251 16.4434C204.537 15.5341 204.639 14.577 204.551 13.6279C204.463 12.6788 204.187 11.7566 203.74 10.9151C203.292 10.0735 202.682 9.32937 201.944 8.72596C201.206 8.12254 200.356 7.67191 199.442 7.40028C198.528 7.12865 197.57 7.04145 196.622 7.14376C195.675 7.24607 194.757 7.53584 193.922 7.99621C193.088 8.45658 192.353 9.07835 191.761 9.82534ZM100.494 59.9581L27.6919 9.7319C26.6131 8.98741 25.3513 8.55208 24.043 8.47301C22.7346 8.39394 21.4296 8.67413 20.269 9.28329C19.1084 9.89244 18.1365 10.8074 17.4585 11.929C16.7804 13.0507 16.4219 14.3365 16.4219 15.6472V116.107C16.4228 117.416 16.7815 118.701 17.4592 119.821C18.137 120.942 19.108 121.856 20.2673 122.465C21.4267 123.074 22.7304 123.355 24.0377 123.276C25.3449 123.198 26.606 122.765 27.6847 122.022L100.494 71.796C101.453 71.1352 102.237 70.2512 102.779 69.2201C103.321 68.1891 103.604 67.0418 103.604 65.8771C103.604 64.7123 103.321 63.565 102.779 62.534C102.237 61.5029 101.453 60.6189 100.494 59.9581ZM135.217 130.733C133.311 130.733 131.482 131.491 130.135 132.839C128.787 134.187 128.029 136.015 128.029 137.921V214.353C128.029 216.259 128.787 218.087 130.135 219.435C131.482 220.783 133.311 221.54 135.217 221.54H157.764C159.67 221.54 161.498 220.783 162.846 219.435C164.194 218.087 164.952 216.259 164.952 214.353V137.921C164.952 136.015 164.194 134.187 162.846 132.839C161.498 131.491 159.67 130.733 157.764 130.733H135.217ZM176.653 137.921V214.353C176.653 216.259 177.41 218.087 178.758 219.435C180.106 220.783 181.934 221.54 183.84 221.54H206.387C208.294 221.54 210.122 220.783 211.47 219.435C212.818 218.087 213.575 216.259 213.575 214.353V137.921C213.575 136.015 212.818 134.187 211.47 132.839C210.122 131.491 208.294 130.733 206.387 130.733H183.84C181.934 130.733 180.106 131.491 178.758 132.839C177.41 134.187 176.653 136.015 176.653 137.921Z" fill="url(#paint0_linear_1058_12321)" fill-opacity="0.2"/>
<defs>
<linearGradient id="paint0_linear_1058_12321" x1="270.943" y1="-134.518" x2="-62.0765" y2="13.7478" gradientUnits="userSpaceOnUse">
<stop stop-color="white"/>
<stop offset="1" stop-color="white" stop-opacity="0"/>
</linearGradient>
</defs>
</svg>
