<svg width="55" height="94" viewBox="0 0 55 94" fill="none" xmlns="http://www.w3.org/2000/svg">
<path d="M0.00251744 88.7187C3.2544 87.9076 6.39939 86.7721 9.40606 85.3272C9.59846 85.1361 10.1197 84.5558 10.541 83.5385C10.7409 83.055 10.8924 82.535 10.9955 81.9842C10.871 81.9691 10.7472 81.9471 10.6233 81.9182C7.96119 81.2863 6.49811 78.2262 7.16207 75.0416C8.40573 69.0773 12.514 66.8232 12.514 66.8232C12.514 66.8232 16.697 72.1682 16.431 76.5506C16.2971 78.7499 14.8856 80.7368 13.1578 81.5806C13.0717 82.3244 12.922 82.9858 12.7372 83.568C13.4917 83.1317 14.2361 82.6752 14.9698 82.1973C18.0457 80.196 20.8769 77.8735 23.429 75.2604C23.5441 75.007 23.7993 74.3462 23.8603 73.3546C23.8899 72.8768 23.8741 72.2902 23.7616 71.608C23.6396 71.6363 23.5158 71.6583 23.39 71.6728C20.6719 71.989 18.2513 69.6142 17.7854 66.3944C16.9139 60.3641 20.0036 56.8412 20.0036 56.8412C20.0036 56.8412 25.7629 60.4333 27.011 64.6427C27.6378 66.7553 26.9909 69.1049 25.6554 70.4888C25.8277 71.2131 25.9132 71.8821 25.9396 72.4895C26.2546 72.1148 26.5639 71.7356 26.8682 71.3508C29.382 68.1757 31.4826 64.732 33.1419 61.0752C33.1658 60.8061 33.1934 60.0258 32.8615 58.9739C32.7037 58.4747 32.4855 57.9793 32.2107 57.4907C32.1057 57.5593 31.9963 57.6221 31.8831 57.6794C29.4373 58.9067 26.3502 57.5027 24.8116 54.6362C21.9301 49.268 23.6289 44.9007 23.6289 44.9007C23.6289 44.9007 30.2691 46.3066 32.8822 49.8345C34.1938 51.605 34.3893 54.0345 33.6078 55.7919C34.0215 56.42 34.3334 57.0248 34.566 57.5913C34.6188 57.4473 34.6704 57.3027 34.7219 57.1581C36.1856 53.0273 37.0873 48.7354 37.4155 44.355C37.3363 44.0708 37.0892 43.3496 36.4416 42.5058C36.1228 42.0908 35.748 41.6998 35.3224 41.3351C35.2469 41.4357 35.1658 41.5319 35.079 41.6243C33.2004 43.6137 29.8189 43.3508 27.3932 41.1836C22.8499 37.1244 22.9518 32.4396 22.9518 32.4396C22.9518 32.4396 29.6725 31.4895 33.3343 33.9115C35.1721 35.1268 36.1869 37.3432 36.0536 39.2615C36.6509 39.7054 37.1457 40.1618 37.5563 40.6101C37.5563 40.6039 37.5563 40.5976 37.5563 40.5913C37.5563 36.0461 36.9452 31.5656 35.738 27.2373C35.5833 27.0154 35.1029 26.4005 34.173 25.8082C33.7316 25.5271 33.2456 25.2876 32.7212 25.0908C32.6848 25.2109 32.642 25.3291 32.5917 25.446C31.5071 27.9579 28.2395 28.867 25.2184 27.6605C19.5603 25.4001 18.0545 20.9624 18.0545 20.9624C18.0545 20.9624 24.0452 17.7709 28.3144 18.7945C30.4571 19.3082 32.1686 21.0435 32.6992 22.892C33.4198 23.1071 34.0473 23.3705 34.5899 23.6547C33.3764 20.3142 31.8089 17.1208 29.9076 14.1166C27.3323 15.1868 24.0609 13.9701 22.0495 11.1942C17.8338 5.37327 19.1296 0 19.1296 0C19.1296 0 27.1141 0.594795 30.7256 4.30629C33.084 6.73011 33.411 10.756 31.5983 12.9075C33.2425 15.4936 34.6496 18.2135 35.8071 21.0448C36.0197 20.3538 36.2863 19.7766 36.5528 19.3094C36.6163 19.1975 36.6817 19.0906 36.7465 18.9875C35.8159 17.2314 35.931 14.6649 37.2715 12.7969C39.8311 9.23001 46.4493 7.72479 46.4493 7.72479C46.4493 7.72479 48.2136 12.0663 45.4131 17.4773C43.9174 20.3664 40.8516 21.8163 38.3881 20.626C38.3366 20.6009 38.2857 20.5745 38.2354 20.5468C37.589 21.793 37.1143 23.7314 37.7047 26.5627C38.3139 28.7262 38.7792 30.9256 39.1005 33.1519L39.2458 33.8385L39.1779 33.7103C39.3935 35.3299 39.5325 36.9628 39.5941 38.6051C40.0342 38.021 40.4863 37.5645 40.9006 37.213C40.9987 37.13 41.0962 37.0514 41.193 36.9772C40.9195 35.0093 41.9054 32.6364 43.8035 31.3399C47.4289 28.8633 54.1628 29.7127 54.1628 29.7127C54.1628 29.7127 54.3357 34.3956 49.8534 38.5227C47.4597 40.7258 44.0827 41.0402 42.1745 39.0791C42.1342 39.0376 42.0959 38.9955 42.0581 38.9521C41.0201 39.9053 39.9072 41.5734 39.4973 44.4562L39.4797 44.5826C39.3105 46.7964 39.0012 48.9888 38.5516 51.1511L38.4617 51.7874L38.4435 51.6578C38.0964 53.248 37.6739 54.8217 37.1759 56.3747C37.7827 55.9824 38.3573 55.7114 38.8622 55.5246C38.9829 55.48 39.1011 55.4398 39.2175 55.4027C39.6331 53.4592 41.3715 51.5673 43.5992 50.9983C47.8527 49.9112 53.8905 53.0122 53.8905 53.0122C53.8905 53.0122 52.4513 57.4719 46.8278 59.8171C43.8249 61.0689 40.5447 60.2088 39.4218 57.7133C39.3979 57.6611 39.3765 57.6077 39.3558 57.5542C38.0599 58.0931 36.451 59.2726 35.0841 61.819C34.1567 63.8757 33.096 65.8675 31.9058 67.7858L31.5864 68.3857L31.6159 68.248C30.7413 69.6255 29.7995 70.9642 28.7922 72.2606C29.5039 72.0965 30.1421 72.0374 30.6847 72.0349C30.813 72.0349 30.9381 72.0368 31.0601 72.0418C32.1158 70.358 34.3962 69.1741 36.6836 69.4011C41.0528 69.8343 45.6653 74.8133 45.6653 74.8133C45.6653 74.8133 42.7875 78.5116 36.7012 78.7921C33.4512 78.9417 30.6627 77.0114 30.4615 74.2827C30.4571 74.2255 30.4553 74.1683 30.454 74.111C29.0462 74.1745 27.121 74.736 24.9543 76.6814L24.8424 76.7819C23.302 78.3526 21.6647 79.8226 19.9369 81.1851L19.864 81.2505L19.8734 81.2347C18.6593 82.1892 17.4006 83.0908 16.0997 83.9371C15.9016 84.066 15.703 84.193 15.503 84.3187C16.2254 84.408 16.8435 84.5709 17.3528 84.7532C17.4741 84.7966 17.5905 84.8419 17.703 84.8884C19.2705 83.6674 21.8181 83.3348 23.8905 84.3307C27.8478 86.232 30.4798 92.4887 30.4798 92.4887C30.4798 92.4887 26.5105 94.9798 20.6952 93.1614C17.5905 92.19 15.63 89.4229 16.3745 86.7897C16.3902 86.7344 16.4078 86.6797 16.426 86.6256C15.0849 86.205 13.0918 86.0742 10.402 87.1506C8.34536 88.144 6.22648 88.9991 4.05416 89.7096L3.51156 89.9284L3.60776 89.8536C2.58353 90.1787 1.5486 90.4717 0.502368 90.7326L0 88.7187H0.00251744Z" fill="url(#paint0_linear_634_10542)"/>
<defs>
<linearGradient id="paint0_linear_634_10542" x1="2.97901" y1="81.4994" x2="59.2814" y2="75.6253" gradientUnits="userSpaceOnUse">
<stop stop-color="#D06D30"/>
<stop offset="0.241139" stop-color="#FFD887"/>
<stop offset="0.653953" stop-color="#FFDCAD"/>
<stop offset="1" stop-color="#FAB858"/>
</linearGradient>
</defs>
</svg>
