<svg width="368" height="191" viewBox="0 0 368 191" fill="none" xmlns="http://www.w3.org/2000/svg">
<mask id="path-1-outside-1_117_1579" maskUnits="userSpaceOnUse" x="-0.00195312" y="-0.285889" width="368" height="191" fill="black">
<rect fill="white" x="-0.00195312" y="-0.285889" width="368" height="191"/>
<path fill-rule="evenodd" clip-rule="evenodd" d="M209.619 34.2254C199.039 35.8931 190.023 41.4158 183.775 49.1362L171.547 42.3777H171.508C166.74 39.1476 160.587 37.5325 152.858 37.5325C149.09 37.5325 144.898 37.917 140.091 38.6477L98.2146 45.2618V46.6077L25.6516 58.1055L23.998 149.55L56.0304 167.315L144.86 153.28V151.934L179.315 146.512C194.964 144.05 205.658 137.83 211.3 127.95C212.321 128.892 213.388 129.782 214.495 130.617L214.849 130.937L214.893 130.913C223.531 137.264 234.606 140.295 246.035 138.491L309.316 128.502C332.014 124.919 347.512 103.623 343.931 80.9349C342.567 72.2983 338.636 64.705 333.037 58.81L319.56 41.6467L314.871 43.5789C306.344 29.6794 290.023 21.5305 272.914 24.2273L209.619 34.2254Z"/>
</mask>
<path fill-rule="evenodd" clip-rule="evenodd" d="M209.619 34.2254C199.039 35.8931 190.023 41.4158 183.775 49.1362L171.547 42.3777H171.508C166.74 39.1476 160.587 37.5325 152.858 37.5325C149.09 37.5325 144.898 37.917 140.091 38.6477L98.2146 45.2618V46.6077L25.6516 58.1055L23.998 149.55L56.0304 167.315L144.86 153.28V151.934L179.315 146.512C194.964 144.05 205.658 137.83 211.3 127.95C212.321 128.892 213.388 129.782 214.495 130.617L214.849 130.937L214.893 130.913C223.531 137.264 234.606 140.295 246.035 138.491L309.316 128.502C332.014 124.919 347.512 103.623 343.931 80.9349C342.567 72.2983 338.636 64.705 333.037 58.81L319.56 41.6467L314.871 43.5789C306.344 29.6794 290.023 21.5305 272.914 24.2273L209.619 34.2254Z" fill="white"/>
<path d="M183.775 49.1362L172.603 69.3506C182.406 74.7687 194.683 72.3722 201.729 63.6652L183.775 49.1362ZM209.619 34.2254L213.215 57.0401L213.222 57.039L209.619 34.2254ZM171.547 42.3777L182.719 22.1633C179.299 20.2729 175.455 19.2813 171.547 19.2813V42.3777ZM171.508 42.3777L158.555 61.4997C162.378 64.0898 166.89 65.4742 171.508 65.4742V42.3777ZM140.091 38.6477L136.62 15.8135C136.576 15.8202 136.532 15.827 136.488 15.834L140.091 38.6477ZM98.2146 45.2618L94.6114 22.4481C83.3858 24.2211 75.1182 33.897 75.1182 45.2618L98.2146 45.2618ZM98.2146 46.6077L101.829 69.4195C113.05 67.6416 121.311 57.9681 121.311 46.6077L98.2146 46.6077ZM25.6516 58.1055L22.037 35.2936C10.9725 37.0468 2.76143 46.4872 2.5589 57.6879L25.6516 58.1055ZM23.998 149.55L0.905365 149.132C0.750903 157.674 5.3245 165.604 12.7958 169.748L23.998 149.55ZM56.0304 167.315L44.8282 187.513C49.3339 190.012 54.5459 190.933 59.6351 190.129L56.0304 167.315ZM144.86 153.28L148.464 176.093C159.689 174.319 167.956 164.644 167.956 153.28H144.86ZM144.86 151.934L141.269 129.118C130.038 130.886 121.763 140.564 121.763 151.934H144.86ZM179.315 146.512L175.726 123.696L175.724 123.696L179.315 146.512ZM211.3 127.95L226.965 110.978C221.794 106.205 214.729 104.05 207.774 105.124C200.819 106.199 194.733 110.386 191.243 116.497L211.3 127.95ZM214.495 130.617L230.009 113.506C229.492 113.037 228.954 112.592 228.396 112.172L214.495 130.617ZM214.849 130.937L199.336 148.049C206.595 154.63 217.218 155.914 225.837 151.252L214.849 130.937ZM214.893 130.913L228.575 112.305C221.374 107.011 211.766 106.346 203.905 110.598L214.893 130.913ZM246.035 138.491L242.434 115.677L242.434 115.677L246.035 138.491ZM309.316 128.502L305.715 105.688L305.715 105.688L309.316 128.502ZM343.931 80.9349L321.117 84.536L321.117 84.536L343.931 80.9349ZM333.037 58.81L314.871 73.0741C315.318 73.6433 315.792 74.1911 316.29 74.7158L333.037 58.81ZM319.56 41.6467L337.725 27.3826C331.338 19.2487 320.322 16.352 310.76 20.2921L319.56 41.6467ZM314.871 43.5789L295.183 55.6557C301.113 65.3227 313.184 69.2541 323.67 64.9335L314.871 43.5789ZM272.914 24.2273L269.318 1.4125L269.311 1.41367L272.914 24.2273ZM201.729 63.6652C204.523 60.2128 208.501 57.7833 213.215 57.0401L206.023 11.4106C189.577 14.0029 175.522 22.6187 165.821 34.6072L201.729 63.6652ZM160.374 62.5921L172.603 69.3506L194.947 28.9218L182.719 22.1633L160.374 62.5921ZM171.508 65.4742H171.547V19.2813H171.508V65.4742ZM152.858 60.6289C155.141 60.6289 156.61 60.87 157.472 61.0945C157.894 61.2045 158.165 61.3089 158.32 61.3775C158.472 61.4446 158.54 61.4894 158.555 61.4997L184.462 23.2557C174.806 16.7149 163.727 14.436 152.858 14.436V60.6289ZM143.562 61.4818C147.643 60.8615 150.613 60.6289 152.858 60.6289V14.436C147.566 14.436 142.153 14.9726 136.62 15.8135L143.562 61.4818ZM101.818 68.0754L143.695 61.4613L136.488 15.834L94.6114 22.4481L101.818 68.0754ZM121.311 46.6077V45.2618H75.1182V46.6077H121.311ZM29.2662 80.9173L101.829 69.4195L94.6 23.7958L22.037 35.2936L29.2662 80.9173ZM47.0907 149.967L48.7443 58.523L2.5589 57.6879L0.905365 149.132L47.0907 149.967ZM67.2326 147.117L35.2003 129.352L12.7958 169.748L44.8282 187.513L67.2326 147.117ZM141.255 130.466L52.4257 144.502L59.6351 190.129L148.464 176.093L141.255 130.466ZM121.763 151.934V153.28H167.956V151.934H121.763ZM175.724 123.696L141.269 129.118L148.45 174.749L182.905 169.327L175.724 123.696ZM191.243 116.497C190.292 118.163 187.286 121.877 175.726 123.696L182.904 169.328C202.642 166.223 221.025 157.498 231.357 139.402L191.243 116.497ZM228.396 112.172C227.9 111.798 227.422 111.399 226.965 110.978L195.635 144.922C197.22 146.385 198.875 147.766 200.595 149.062L228.396 112.172ZM230.362 113.826L230.009 113.506L198.982 147.728L199.336 148.049L230.362 113.826ZM203.905 110.598L203.86 110.622L225.837 151.252L225.882 151.228L203.905 110.598ZM242.434 115.677C237.34 116.481 232.446 115.152 228.575 112.305L201.212 149.522C214.615 159.376 231.872 164.109 249.636 161.305L242.434 115.677ZM305.715 105.688L242.434 115.677L249.636 161.305L312.917 151.316L305.715 105.688ZM321.117 84.536C322.707 94.6139 315.823 104.092 305.715 105.688L312.917 151.316C348.205 145.746 372.316 112.631 366.744 77.3337L321.117 84.536ZM316.29 74.7158C318.771 77.3276 320.506 80.6674 321.117 84.536L366.745 77.3338C364.629 63.9292 358.501 52.0824 349.784 42.9043L316.29 74.7158ZM301.394 55.9108L314.871 73.0741L351.202 44.5459L337.725 27.3826L301.394 55.9108ZM323.67 64.9335L328.359 63.0013L310.76 20.2921L306.071 22.2243L323.67 64.9335ZM276.511 47.042C284.082 45.8486 291.365 49.4311 295.183 55.6557L334.558 31.5021C321.324 9.92774 295.964 -2.78761 269.318 1.4125L276.511 47.042ZM213.222 57.039L276.518 47.0409L269.311 1.41367L206.015 11.4118L213.222 57.039Z" fill="white" mask="url(#path-1-outside-1_117_1579)"/>
<g clip-path="url(#clip0_117_1579)">
<path d="M211.962 93.6751C213.116 90.6372 213.885 86.9841 213.962 82.7157C214.116 74.5249 211.77 67.9108 207.04 63.0656C205.771 61.7966 204.387 60.6814 202.887 59.7201H202.925L171.547 42.3772H171.508C166.74 39.1471 160.587 37.532 152.858 37.532C149.09 37.532 144.898 37.9165 140.091 38.6472L98.2146 45.2613V46.6072L25.6516 58.105L23.998 149.549L56.0304 167.315L144.86 153.279V151.933L179.315 146.511C203.272 142.743 215.615 130.168 216 109.134V107.98C215.961 102.596 214.539 97.6744 211.962 93.6751Z" fill="#0275F6"/>
<path d="M296.348 46.3432L233.067 56.332C210.368 59.9149 194.871 81.2113 198.452 103.899C202.034 126.587 223.337 142.074 246.035 138.491L309.316 128.502C332.015 124.92 347.512 103.623 343.931 80.9355C340.349 58.2479 319.046 42.7604 296.348 46.3432Z" fill="#0275F6"/>
<path d="M179.855 99.2134L214.849 130.938L337.556 64.5662L319.56 41.6475L179.855 99.2134Z" fill="#0275F6"/>
<path d="M285.873 106.404L222.577 116.402C199.889 119.978 178.585 104.481 175.009 81.793C171.433 59.105 186.93 37.8014 209.618 34.2251L272.914 24.227C295.602 20.6508 316.905 36.1478 320.481 58.8358C324.058 81.5238 308.561 102.827 285.873 106.404Z" fill="#F2D23B" stroke="#0275F6" stroke-width="13.459" stroke-miterlimit="10"/>
<path d="M196.427 89.7524C197.042 74.4476 224.037 72.448 223.922 64.6034C223.806 59.6043 213.308 61.9116 210.732 68.4103L196.734 70.6022C199.042 59.2198 209.77 51.7597 220.384 50.2215C233.151 48.3372 238.88 54.1438 238.649 62.4115C238.265 75.7935 219.538 80.3311 214.769 85.1764L238.303 81.4848L238.073 93.5209L196.234 100.058L196.427 89.714V89.7524Z" fill="#04030B"/>
<path d="M247.109 79.2536C251.339 78.5999 254.146 81.3302 254.069 84.9064C253.992 88.4826 251.07 92.1358 246.84 92.7895C242.61 93.4432 239.803 90.713 239.879 87.1367C239.956 83.5605 242.879 79.9074 247.109 79.2536Z" fill="#04030B"/>
<path d="M277.336 88.0214C247.034 92.7898 247.957 45.8756 278.221 41.1073C308.83 36.3005 307.946 83.2147 277.336 88.0214ZM278.105 54.6432C266.569 56.4505 266.185 76.2545 277.721 74.4471C289.257 72.6398 289.642 52.8358 278.105 54.6432Z" fill="#04030B"/>
<path d="M80.7554 86.9839L57.7983 90.5986L58.2597 65.9495L37.1868 69.2565L35.9563 136.705L57.0292 133.36L57.4522 110.826L80.3709 107.211L79.9479 129.745L101.059 126.438L102.29 58.9893L81.1784 62.3348L80.7554 86.9839Z" fill="white"/>
<path d="M164.549 78.8313C168.356 75.4473 169.894 70.8713 169.971 65.7569C170.24 51.798 160.511 48.414 141.822 51.375L109.752 56.451L108.521 123.861L145.322 118.055C159.588 115.786 171.701 110.248 172.009 92.1365V91.3674C171.932 84.9455 168.933 80.7156 164.549 78.8313ZM130.478 73.3708L138.938 72.0249C145.091 71.0636 147.475 71.525 147.437 74.0245C147.398 76.4471 145.052 77.87 138.784 78.8313L130.325 80.1772L130.44 73.3324L130.478 73.3708ZM139.977 99.635L129.978 101.212L130.094 94.4822L140.092 92.9055C146.245 91.9442 148.667 92.521 148.59 95.0974C148.552 97.52 146.206 98.6352 139.977 99.635Z" fill="white"/>
</g>
<defs>
<clipPath id="clip0_117_1579">
<rect width="320.4" height="150.317" fill="white" transform="translate(24 17)"/>
</clipPath>
</defs>
</svg>
