<?xml version="1.0" encoding="UTF-8"?>
<!DOCTYPE svg PUBLIC "-//W3C//DTD SVG 1.1//EN" "http://www.w3.org/Graphics/SVG/1.1/DTD/svg11.dtd">
<svg xmlns="http://www.w3.org/2000/svg" version="1.1" width="32px" height="32px" style="shape-rendering:geometricPrecision; text-rendering:geometricPrecision; image-rendering:optimizeQuality; fill-rule:evenodd; clip-rule:evenodd" xmlns:xlink="http://www.w3.org/1999/xlink">
<g><path style="opacity:0.699" fill="#9b9b9b" d="M -0.5,-0.5 C 0.5,-0.5 1.5,-0.5 2.5,-0.5C 9.83333,3.5 17.1667,7.5 24.5,11.5C 23.6618,11.8417 23.3284,12.5084 23.5,13.5C 15.5,9.5 7.5,5.5 -0.5,1.5C -0.5,0.833333 -0.5,0.166667 -0.5,-0.5 Z"/></g>
<g><path style="opacity:0.5" fill="#909090" d="M 24.5,11.5 C 26.153,11.6596 27.4863,12.3263 28.5,13.5C 27.8333,13.8333 27.1667,14.1667 26.5,14.5C 25.391,14.4431 24.391,14.1098 23.5,13.5C 23.3284,12.5084 23.6618,11.8417 24.5,11.5 Z"/></g>
<g><path style="opacity:0.666" fill="#898989" d="M 28.5,13.5 C 29.609,13.5569 30.609,13.8902 31.5,14.5C 31.5,15.1667 31.5,15.8333 31.5,16.5C 30.609,17.1098 29.609,17.4431 28.5,17.5C 27.8333,17.1667 27.1667,16.8333 26.5,16.5C 26.5,15.8333 26.5,15.1667 26.5,14.5C 27.1667,14.1667 27.8333,13.8333 28.5,13.5 Z"/></g>
<g><path style="opacity:0.5" fill="#9a9a9a" d="M 26.5,16.5 C 27.1667,16.8333 27.8333,17.1667 28.5,17.5C 27.4863,18.6737 26.153,19.3404 24.5,19.5C 23.8333,19.1667 23.1667,18.8333 22.5,18.5C 23.5137,17.3263 24.847,16.6596 26.5,16.5 Z"/></g>
<g><path style="opacity:0.5" fill="#9a9a9a" d="M 22.5,18.5 C 23.1667,18.8333 23.8333,19.1667 24.5,19.5C 23.4863,20.6737 22.153,21.3404 20.5,21.5C 19.8333,21.1667 19.1667,20.8333 18.5,20.5C 19.5137,19.3263 20.847,18.6596 22.5,18.5 Z"/></g>
<g><path style="opacity:0.5" fill="#9a9a9a" d="M 18.5,20.5 C 19.1667,20.8333 19.8333,21.1667 20.5,21.5C 19.4863,22.6737 18.153,23.3404 16.5,23.5C 15.8333,23.1667 15.1667,22.8333 14.5,22.5C 15.5137,21.3263 16.847,20.6596 18.5,20.5 Z"/></g>
<g><path style="opacity:0.5" fill="#9a9a9a" d="M 14.5,22.5 C 15.1667,22.8333 15.8333,23.1667 16.5,23.5C 15.4863,24.6737 14.153,25.3404 12.5,25.5C 11.8333,25.1667 11.1667,24.8333 10.5,24.5C 11.5137,23.3263 12.847,22.6596 14.5,22.5 Z"/></g>
<g><path style="opacity:0.5" fill="#9a9a9a" d="M 10.5,24.5 C 11.1667,24.8333 11.8333,25.1667 12.5,25.5C 11.4863,26.6737 10.153,27.3404 8.5,27.5C 7.83333,27.1667 7.16667,26.8333 6.5,26.5C 7.51369,25.3263 8.84702,24.6596 10.5,24.5 Z"/></g>
<g><path style="opacity:0.5" fill="#9b9b9b" d="M 6.5,26.5 C 7.16667,26.8333 7.83333,27.1667 8.5,27.5C 7.48631,28.6737 6.15298,29.3404 4.5,29.5C 4.15829,28.6618 3.49162,28.3284 2.5,28.5C 3.51369,27.3263 4.84702,26.6596 6.5,26.5 Z"/></g>
<g><path style="opacity:0.643" fill="#939393" d="M 2.5,28.5 C 3.49162,28.3284 4.15829,28.6618 4.5,29.5C 3.83333,30.1667 3.16667,30.8333 2.5,31.5C 1.5,31.5 0.5,31.5 -0.5,31.5C -0.5,30.8333 -0.5,30.1667 -0.5,29.5C 0.391047,28.8902 1.39105,28.5569 2.5,28.5 Z"/></g>
</svg>
