<svg xmlns="http://www.w3.org/2000/svg" xmlns:xlink="http://www.w3.org/1999/xlink" version="1.1" height="82.83240051269527" width="420.94074155354554" viewBox="0 0 420.94074155354554 82.83240051269527"><g id="SvgjsG2282" rel="mainfill" name="main_text" xmlns:name="mainText_mainfill" fill="#d40d9a" transform="translate(94.6397600319391,-22.926302337646504)"><path d="M13.248 48.50700000000001 q-0.621 -10.557 -0.621 -12.006 q0 -6.486 12.558 -6.486 q8.763 0 13.662 3.588 t4.899 8.97 t-5.382 10.074 q9.177 5.037 9.177 13.386 q0 5.658 -3.4845 9.7635 t-8.9355 6.072 t-11.247 1.9665 t-10.626 -1.518 t-7.521 -3.519 t-2.691 -3.3465 t0.7245 -2.0355 t1.656 -0.69 t3.0705 1.5525 t5.8995 3.1395 t8.6595 1.587 q8.142 0 13.5585 -3.6225 t5.4165 -9.2115 q0 -3.243 -1.932 -6.003 t-5.244 -4.416 q-7.107 5.244 -16.629 6.486 l0.276 8.832 q0 1.587 -0.7245 2.553 t-2.001 0.966 t-2.07 -0.966 t-0.7935 -2.553 l0.345 -8.625 q-4.761 -0.207 -7.176 -2.2425 t-2.415 -4.5885 t2.484 -4.485 t7.107 -2.622 z M18.078 36.43200000000001 q0 4.692 0.138 11.661 q8.418 0 15.801 2.622 q4.623 -3.519 4.623 -7.7625 t-3.4845 -6.1755 t-8.625 -1.932 t-8.4525 1.587 z M18.078 52.78500000000001 l0 4.761 q2.829 -0.069 6.624 -1.173 t5.865 -2.484 q-3.795 -1.242 -10.557 -1.242 q-1.449 0 -1.932 0.138 z M13.317 57.82200000000001 l0 -4.692 q-4.899 0.552 -4.899 2.277 q0 2.277 4.899 2.415 z M77.31500000000001 62.652000000000015 q2.7945 -1.587 2.7945 -4.278 t-1.8285 -4.6575 t-5.2095 -1.9665 q-4.554 0 -7.659 3.4155 t-4.002 7.9695 q3.795 1.104 8.4525 1.104 t7.452 -1.587 z M81.524 50.37000000000001 q3.4845 3.105 3.4845 8.073 t-4.3125 7.5555 t-10.592 2.5875 q-3.588 0 -8.763 -1.035 q0.414 4.83 3.6225 8.3145 t7.1415 3.4845 q2.346 0 4.347 -0.6555 t3.036 -1.4145 q2.76 -2.139 3.6225 -2.139 t1.38 0.5175 t0.5175 1.2765 q0 1.932 -3.9675 4.416 t-8.5905 2.484 q-7.176 0 -11.385 -5.037 t-4.554 -12.144 q-3.657 -1.104 -3.657 -3.588 q0 -1.035 0.5865 -1.6215 t1.4145 -0.5865 t2.07 0.621 q1.518 -6.21 5.7615 -10.212 t9.798 -4.002 t9.039 3.105 z M114.50600000000001 62.652000000000015 q2.7945 -1.587 2.7945 -4.278 t-1.8285 -4.6575 t-5.2095 -1.9665 q-4.554 0 -7.659 3.4155 t-4.002 7.9695 q3.795 1.104 8.4525 1.104 t7.452 -1.587 z M118.715 50.37000000000001 q3.4845 3.105 3.4845 8.073 t-4.3125 7.5555 t-10.592 2.5875 q-3.588 0 -8.763 -1.035 q0.414 4.83 3.6225 8.3145 t7.1415 3.4845 q2.346 0 4.347 -0.6555 t3.036 -1.4145 q2.76 -2.139 3.6225 -2.139 t1.38 0.5175 t0.5175 1.2765 q0 1.932 -3.9675 4.416 t-8.5905 2.484 q-7.176 0 -11.385 -5.037 t-4.554 -12.144 q-3.657 -1.104 -3.657 -3.588 q0 -1.035 0.5865 -1.6215 t1.4145 -0.5865 t2.07 0.621 q1.518 -6.21 5.7615 -10.212 t9.798 -4.002 t9.039 3.105 z M156.354 75.69300000000001 q1.725 0 1.725 1.8285 t-4.002 4.071 t-8.418 2.2425 q-7.245 0 -12.075 -5.3475 t-4.83 -12.938 t4.8645 -12.938 t12.8 -5.3475 q4.347 0 7.6935 1.9665 t3.3465 4.0365 q0 1.104 -0.69 1.8285 t-1.587 0.7245 t-2.07 -1.035 q-3.588 -3.036 -7.314 -3.036 q-4.761 0 -8.3145 4.002 t-3.5535 9.729 t3.588 9.798 t8.901 4.071 q4.071 0 7.935 -2.76 q1.311 -0.897 2.001 -0.897 z M186.818 62.652000000000015 q2.7945 -1.587 2.7945 -4.278 t-1.8285 -4.6575 t-5.2095 -1.9665 q-4.554 0 -7.659 3.4155 t-4.002 7.9695 q3.795 1.104 8.4525 1.104 t7.452 -1.587 z M191.02700000000002 50.37000000000001 q3.4845 3.105 3.4845 8.073 t-4.3125 7.5555 t-10.592 2.5875 q-3.588 0 -8.763 -1.035 q0.414 4.83 3.6225 8.3145 t7.1415 3.4845 q2.346 0 4.347 -0.6555 t3.036 -1.4145 q2.76 -2.139 3.6225 -2.139 t1.38 0.5175 t0.5175 1.2765 q0 1.932 -3.9675 4.416 t-8.5905 2.484 q-7.176 0 -11.385 -5.037 t-4.554 -12.144 q-3.657 -1.104 -3.657 -3.588 q0 -1.035 0.5865 -1.6215 t1.4145 -0.5865 t2.07 0.621 q1.518 -6.21 5.7615 -10.212 t9.798 -4.002 t9.039 3.105 z M225.52700000000002 74.93400000000001 q3.3465 -4.071 3.3465 -9.5565 t-2.415 -9.384 t-6.555 -3.8985 q-7.245 0 -11.937 11.937 l0 10.971 q4.14 4.002 9.798 4.002 q4.416 0 7.7625 -4.071 z M203.68800000000002 69.69000000000001 l0.069 -2.622 l0 -1.104 q0 -2.898 -0.621 -8.487 t-0.621 -6.7965 t0.7245 -2.139 t1.9665 -0.9315 t1.9665 0.9315 t0.7245 2.1045 t-0.0345 2.9325 t-0.0345 2.9325 q2.277 -4.209 5.106 -6.555 t7.314 -2.346 t7.728 2.898 t4.623 6.693 t1.38 7.59 q0 7.521 -4.554 13.11 t-11.661 5.589 q-5.175 0 -9.798 -3.381 q-0.138 8.349 -0.138 12.3855 t-0.69 5.106 t-2.139 1.0695 t-2.3805 -1.2075 t-0.9315 -3.4845 t0.276 -5.4165 t0.828 -8.28 t0.897 -9.2805 l0 -1.311 z M249.84900000000005 52.509000000000015 l-0.138 16.353 q0 6.279 0.5175 8.211 t2.7255 1.932 q1.035 0 2.5185 -0.7245 t1.9665 -0.7245 q1.449 0 1.449 1.4145 t-2.553 2.967 t-5.037 1.5525 q-6.003 0 -6.003 -8.832 l-0.069 -22.149 q-2.277 0.207 -3.174 0.207 q-3.45 0 -3.45 -2.277 t3.45 -2.277 q0.276 0 3.036 0.138 l-0.138 -7.728 q0 -3.45 2.622 -3.45 t2.622 3.45 l-0.207 7.797 l5.589 -0.276 q3.45 0 3.45 2.346 q0 2.208 -3.45 2.208 q-0.621 0 -5.727 -0.138 z M291.18 65.48100000000001 q0 -5.727 -3.2085 -9.729 t-7.9695 -4.002 t-8.1075 4.071 t-3.3465 9.798 t3.2085 9.729 t7.9695 4.002 t8.1075 -4.071 t3.3465 -9.798 z M291.52500000000003 52.543000000000006 q4.554 5.2785 4.554 12.9375 t-4.623 13.007 t-11.661 5.3475 t-11.592 -5.2785 t-4.554 -12.938 t4.5885 -13.007 t11.661 -5.3475 t11.627 5.2785 z M309.53400000000005 66.99900000000001 l0.207 12.972 q0 3.519 -2.622 3.519 q-3.174 0 -3.174 -4.8645 t1.38 -13.628 q0 -2.898 -0.5865 -7.935 t-0.5865 -6.279 t0.7245 -2.208 t1.9665 -0.966 t1.9665 0.966 t0.7245 2.1045 t-0.0345 2.898 t-0.0345 2.9325 q1.38 -3.519 4.3125 -6.21 t6.0375 -2.691 t4.7955 1.2765 t1.6905 2.7255 t-0.759 2.277 t-1.9665 0.828 t-2.622 -1.2765 t-2.2425 -1.2765 q-2.277 0 -5.313 4.899 t-3.864 9.936 z"></path></g><defs id="SvgjsDefs2281"></defs><g id="SvgjsG2283" rel="mainfill" name="symbol" xmlns:name="symbol_mainfill" fill="#d40d9a" transform="translate(-4.381682794948322,-4.290989402286159) scale(0.916095087170721)"><path xmlns="http://www.w3.org/2000/svg" fill-rule="evenodd" clip-rule="evenodd" d="M74.331,5.551c2.767-0.867,5.483-0.732,8.149,0.4c2,0.732,4.051,2.051,6.15,3.949  c1.767,1.701,3.2,3.4,4.3,5.1c1.3,2.268,1.967,4.352,2,6.25c0.101,2.068-0.433,4.033-1.6,5.9c-0.833,1.367-2.05,2.701-3.65,4  c-2,1.6-4.566,3.117-7.7,4.551c-3.533,1.5-7.699,2.783-12.5,3.85c-1.8,0.367-3.482,0.666-5.05,0.9c3.367,1.199,6.417,2.9,9.15,5.1  c2.467,2.033,4.517,4.551,6.149,7.551c1.434,2.699,2.384,5.549,2.851,8.549c1,6.168,0.667,11.518-1,16.051  c-0.5,1.299-1.067,2.416-1.7,3.35c1.833,1.967,2.983,3.566,3.45,4.801c0.233,0.699,0.25,1.166,0.05,1.398  c-0.233,0.201-0.7,0.168-1.4-0.1c-1.199-0.4-2.75-1.482-4.649-3.25l-0.15,0.1c-1.1,0.867-2.2,1.467-3.3,1.801  c-1.233,0.434-2.4,0.666-3.5,0.699c-1.967,0.033-4.1-0.432-6.4-1.398c-1.566-0.701-3.199-1.668-4.899-2.9  c-2.267-1.633-4.65-3.834-7.15-6.6c-3.167-3.635-5.933-7.533-8.3-11.701c-0.9-1.6-1.8-3.416-2.7-5.449  c0,2.934-0.467,6.65-1.399,11.15c-1.033,4.633-2.334,8.783-3.9,12.449c-1.333,3.066-2.85,5.65-4.55,7.75  c-1.167,1.467-2.5,2.65-4,3.551c-1.833,1.199-3.833,1.75-6,1.648c-2.033-0.166-4.067-0.883-6.101-2.148  c-1.3-0.734-3-2.168-5.1-4.301c-1.934-2.166-3.25-4.232-3.95-6.199c-1.033-2.635-1.149-5.352-0.35-8.15  c0.633-2.334,2.05-4.768,4.25-7.301c1.667-1.9,3.8-3.816,6.399-5.75c3.967-2.934,9.268-6.016,15.9-9.25l0.55-0.299h-0.149  c-2.867-0.434-5.533-1.834-8-4.201c-1.467-1.566-2.65-3.25-3.551-5.049c-1.1-2.533-1.583-4.951-1.449-7.25l0.05-0.4  c-1.333-0.9-2.717-1.234-4.15-1c-0.133-0.033-0.283-0.018-0.45,0.049c-0.3,0.102-0.467,0.15-0.5,0.15l-0.8,0.201  c-0.133,0.066-0.533,0.25-1.2,0.549c-0.5,0.334-0.933,0.533-1.3,0.6l-0.399,0.051c-0.067-0.066-0.101-0.199-0.101-0.4  c0-0.4,0.167-0.949,0.5-1.65c0.333-0.467,0.7-0.898,1.101-1.299c0.033-0.033,0.35-0.268,0.949-0.701  c0.268-0.166,0.467-0.283,0.601-0.35c0.267-0.166,0.5-0.266,0.7-0.299c0.833-0.234,1.416-0.367,1.75-0.4h2  c0.767,0.133,1.467,0.332,2.1,0.6c0.367-1.033,1.1-2.35,2.2-3.949c1.033-1.434,2.183-2.602,3.45-3.5  c0.8-0.568,1.449-0.951,1.949-1.15c-0.333-1.234-0.3-2.451,0.101-3.65c0.333-1.232,0.899-2.25,1.7-3.051  c1.066-1.133,2.267-1.732,3.6-1.799c0.667-0.033,1.2,0.066,1.6,0.299l0.25,0.25l-0.199,0.352c-0.067,0.1-0.4,0.383-1,0.85  c-0.9,0.867-1.483,1.566-1.75,2.1c-0.768,1.199-0.983,2.416-0.65,3.65c1.867-0.201,3.75,0.049,5.65,0.75  c1.833,0.732,3.533,1.783,5.1,3.15c1.6,1.432,2.883,3.148,3.85,5.148c1.101,2.102,1.7,4.318,1.801,6.65  c0.066,0.566,0.017,1.301-0.15,2.201l2.1-0.5c-0.033-0.602,0.084-1.4,0.351-2.4c0.366-1.301,0.883-2.668,1.55-4.1  c3.233-6.635,6.333-11.967,9.3-16c1.967-2.602,3.9-4.734,5.8-6.4C69.414,7.602,71.864,6.217,74.331,5.551z M81.181,9.252  c-1.967-0.734-3.95-0.801-5.95-0.201c-1.8,0.5-3.75,1.684-5.85,3.551c-1.667,1.432-3.4,3.383-5.2,5.85  c-2.667,3.666-5.6,8.766-8.8,15.299c-0.7,1.467-1.434,2.734-2.2,3.801c-0.2,0.268-0.383,0.518-0.55,0.75l1.4,0.051  c2.533,0.1,4.982,0.467,7.35,1.1c2.967-0.6,5.55-1.201,7.75-1.801c4.5-1.299,8.45-2.783,11.85-4.449  c2.801-1.367,5.101-2.834,6.9-4.4c2.8-2.5,4.066-5.018,3.8-7.551c-0.1-1.365-0.667-2.883-1.7-4.549  c-0.732-1.168-1.982-2.6-3.75-4.301C84.464,10.868,82.781,9.819,81.181,9.252z M52.98,49.852c-0.8,0.699-1.533,1.416-2.199,2.148  l-1.5,1.551c-1,1.166-1.667,1.732-2,1.699c-0.067,0-0.101-0.166-0.101-0.5c0.033-0.5,0.2-1.25,0.5-2.25c0.167-0.432,0.5-1.133,1-2.1  c0.601-0.967,1.267-1.9,2-2.799c1.067-1.301,2.9-3.033,5.5-5.201l-6.85-0.449c-1.067-0.1-2.483-0.234-4.25-0.4  c-0.333-0.334-0.567-0.982-0.7-1.949l-0.2-2.5c-0.066-1.768-0.517-3.484-1.35-5.15c-0.767-1.533-1.783-2.9-3.05-4.1  c-1.233-1.102-2.551-1.918-3.95-2.451c-1.467-0.5-2.867-0.666-4.2-0.5c-2.333,0.268-4.434,1.633-6.3,4.1  c-0.8,1.033-1.417,2.068-1.851,3.102c-0.366,0.932-0.6,2.016-0.699,3.25c-0.268,3.766,0.967,7.182,3.699,10.25  c1.934,2.166,4.101,3.549,6.5,4.148c1.634,0.434,3.25,0.451,4.851,0.051l1.45-0.25l0.199,1.9c1.2,3.5,3.15,7.367,5.851,11.6  c2.667,4.033,5.55,7.666,8.649,10.9c1.334,1.332,2.567,2.5,3.7,3.5c0.067-0.867,0.167-1.566,0.3-2.1  c0.601-2.635,1.983-5.418,4.15-8.352c1.566-2.166,3.3-4.016,5.2-5.549c3-2.434,6.017-4.066,9.05-4.9c0.267-0.066,0.55-0.1,0.85-0.1  c-0.333-0.734-0.616-1.283-0.85-1.65c-0.9-1.732-2.066-3.334-3.5-4.801c-0.4,0.102-0.95,0.217-1.65,0.352  c-2.533,0.398-4.949,1.383-7.25,2.949c-1.366,0.9-2.899,2.184-4.6,3.85c-1.066,1.1-2.633,3.066-4.7,5.9  c-0.8,1.232-1.399,2.066-1.8,2.5l-0.45,0.4c-0.066-0.066-0.1-0.268-0.1-0.6c0-0.801,0.217-1.867,0.649-3.201  c0.934-2.533,2.268-4.9,4-7.1c1.434-1.834,3.067-3.434,4.9-4.801c2.3-1.6,4.617-2.75,6.95-3.449c-2.267-1.467-4.867-2.617-7.8-3.449  l-0.101,0.049c-1.066,0.867-2.6,2.1-4.6,3.701C54.764,48.334,53.647,49.25,52.98,49.852z M77.381,60.25c-2.467,0.668-5.066,2-7.8,4  c-1.833,1.5-3.5,3.102-5,4.801c-2.101,2.467-3.684,4.801-4.75,7l-1.05,2l-0.051,0.25c0.134,0.133,0.867,0.666,2.2,1.6  c1.567,1.033,3.033,1.834,4.4,2.4c1.899,0.768,3.566,1.1,5,1c1.899-0.166,3.517-0.834,4.85-2c1.333-1.1,2.384-2.75,3.15-4.949  c1.399-3.967,1.616-8.684,0.649-14.15l-0.649-2.5C78.064,59.967,77.748,60.151,77.381,60.25z M40.281,56.952  c-0.634-1.701-1.101-3.316-1.4-4.85c-1,1.033-2.7,2.115-5.1,3.25c-6.367,3.1-11.5,6.049-15.4,8.85  c-2.467,1.9-4.417,3.633-5.85,5.199c-1.768,2.066-2.917,4.033-3.45,5.9c-0.601,2.066-0.517,4.051,0.25,5.949  c0.533,1.568,1.583,3.25,3.149,5.051c1.733,1.801,3.184,3.066,4.351,3.801c1.6,1,3.133,1.549,4.6,1.648  c1.467,0.033,2.851-0.332,4.15-1.1c1.133-0.666,2.25-1.617,3.35-2.85c1.601-1.967,3.05-4.283,4.351-6.949  c1.633-3.334,3.116-7.268,4.449-11.801c1.033-3.9,1.884-7.9,2.551-12V56.952z"></path></g></svg>