<svg width="421" height="83" viewBox="0 0 421 83" fill="none" xmlns="http://www.w3.org/2000/svg">
<g clip-path="url(#clip0_1_7)">
<path d="M107.888 25.5807C107.474 18.5427 107.267 14.5407 107.267 13.5747C107.267 9.2507 111.453 7.0887 119.825 7.0887C125.667 7.0887 130.221 8.2847 133.487 10.6767C136.753 13.0687 138.386 16.0587 138.386 19.6467C138.386 23.2347 136.592 26.5927 133.004 29.7207C139.122 33.0787 142.181 37.5407 142.181 43.1067C142.181 46.8787 141.019 50.1332 138.696 52.8702C136.373 55.6072 133.395 57.6312 129.761 58.9422C126.127 60.2532 122.378 60.9087 118.514 60.9087C114.65 60.9087 111.108 60.4027 107.888 59.3907C104.668 58.3787 102.161 57.2057 100.367 55.8717C98.5728 54.5377 97.6758 53.4222 97.6758 52.5252C97.6758 51.6282 97.9173 50.9497 98.4003 50.4897C98.8833 50.0297 99.4353 49.7997 100.056 49.7997C100.677 49.7997 101.701 50.3172 103.127 51.3522C104.553 52.3872 106.519 53.4337 109.026 54.4917C111.533 55.5497 114.42 56.0787 117.686 56.0787C123.114 56.0787 127.633 54.8712 131.244 52.4562C134.855 50.0412 136.661 46.9707 136.661 43.2447C136.661 41.0827 136.017 39.0817 134.729 37.2417C133.441 35.4017 131.693 33.9297 129.485 32.8257C124.747 36.3217 119.204 38.4837 112.856 39.3117L113.132 48.1437C113.132 49.2017 112.89 50.0527 112.407 50.6967C111.924 51.3407 111.257 51.6627 110.406 51.6627C109.555 51.6627 108.865 51.3407 108.336 50.6967C107.807 50.0527 107.543 49.2017 107.543 48.1437L107.888 39.5187C104.714 39.3807 102.322 38.6332 100.712 37.2762C99.1018 35.9192 98.2968 34.3897 98.2968 32.6877C98.2968 30.9857 99.1248 29.4907 100.781 28.2027C102.437 26.9147 104.806 26.0407 107.888 25.5807ZM112.718 13.5057C112.718 16.6337 112.764 20.5207 112.856 25.1667C118.468 25.1667 123.735 26.0407 128.657 27.7887C131.739 25.4427 133.28 22.8552 133.28 20.0262C133.28 17.1972 132.118 15.1387 129.795 13.8507C127.472 12.5627 124.597 11.9187 121.17 11.9187C117.743 11.9187 114.926 12.4477 112.718 13.5057ZM112.718 29.8587V34.6197C114.604 34.5737 116.812 34.1827 119.342 33.4467C121.872 32.7107 123.827 31.8827 125.207 30.9627C122.677 30.1347 119.158 29.7207 114.65 29.7207C113.684 29.7207 113.04 29.7667 112.718 29.8587ZM107.957 34.8957V30.2037C104.691 30.5717 103.058 31.3307 103.058 32.4807C103.058 33.9987 104.691 34.8037 107.957 34.8957ZM171.955 39.7257C173.818 38.6677 174.749 37.2417 174.749 35.4477C174.749 33.6537 174.14 32.1012 172.921 30.7902C171.702 29.4792 169.965 28.8237 167.711 28.8237C164.675 28.8237 162.122 29.9622 160.052 32.2392C157.982 34.5162 156.648 37.1727 156.05 40.2087C158.58 40.9447 161.398 41.3127 164.503 41.3127C167.608 41.3127 170.092 40.7837 171.955 39.7257ZM176.164 27.4437C178.487 29.5137 179.648 32.2047 179.648 35.5167C179.648 38.8287 178.211 41.3472 175.336 43.0722C172.461 44.7972 168.93 45.6597 164.744 45.6597C162.352 45.6597 159.431 45.3147 155.981 44.6247C156.257 47.8447 157.464 50.6162 159.603 52.9392C161.742 55.2622 164.123 56.4237 166.745 56.4237C168.309 56.4237 169.758 56.2052 171.092 55.7682C172.426 55.3312 173.438 54.8597 174.128 54.3537C175.968 52.9277 177.175 52.2147 177.75 52.2147C178.325 52.2147 178.785 52.3872 179.13 52.7322C179.475 53.0772 179.648 53.5027 179.648 54.0087C179.648 55.2967 178.325 56.7687 175.68 58.4247C173.035 60.0807 170.172 60.9087 167.09 60.9087C162.306 60.9087 158.511 59.2297 155.705 55.8717C152.899 52.5137 151.381 48.4657 151.151 43.7277C148.713 42.9917 147.494 41.7957 147.494 40.1397C147.494 39.4497 147.689 38.9092 148.08 38.5182C148.471 38.1272 148.943 37.9317 149.495 37.9317C150.047 37.9317 150.737 38.1387 151.565 38.5527C152.577 34.4127 154.497 31.0087 157.326 28.3407C160.155 25.6727 163.421 24.3387 167.124 24.3387C170.827 24.3387 173.841 25.3737 176.164 27.4437ZM209.146 39.7257C211.009 38.6677 211.94 37.2417 211.94 35.4477C211.94 33.6537 211.331 32.1012 210.112 30.7902C208.893 29.4792 207.156 28.8237 204.902 28.8237C201.866 28.8237 199.313 29.9622 197.243 32.2392C195.173 34.5162 193.839 37.1727 193.241 40.2087C195.771 40.9447 198.589 41.3127 201.694 41.3127C204.799 41.3127 207.283 40.7837 209.146 39.7257ZM213.355 27.4437C215.678 29.5137 216.839 32.2047 216.839 35.5167C216.839 38.8287 215.402 41.3472 212.527 43.0722C209.652 44.7972 206.121 45.6597 201.935 45.6597C199.543 45.6597 196.622 45.3147 193.172 44.6247C193.448 47.8447 194.655 50.6162 196.794 52.9392C198.933 55.2622 201.314 56.4237 203.936 56.4237C205.5 56.4237 206.949 56.2052 208.283 55.7682C209.617 55.3312 210.629 54.8597 211.319 54.3537C213.159 52.9277 214.366 52.2147 214.941 52.2147C215.516 52.2147 215.976 52.3872 216.321 52.7322C216.666 53.0772 216.839 53.5027 216.839 54.0087C216.839 55.2967 215.516 56.7687 212.871 58.4247C210.226 60.0807 207.363 60.9087 204.281 60.9087C199.497 60.9087 195.702 59.2297 192.896 55.8717C190.09 52.5137 188.572 48.4657 188.342 43.7277C185.904 42.9917 184.685 41.7957 184.685 40.1397C184.685 39.4497 184.88 38.9092 185.271 38.5182C185.662 38.1272 186.134 37.9317 186.686 37.9317C187.238 37.9317 187.928 38.1387 188.756 38.5527C189.768 34.4127 191.688 31.0087 194.517 28.3407C197.346 25.6727 200.612 24.3387 204.315 24.3387C208.018 24.3387 211.032 25.3737 213.355 27.4437ZM250.994 52.7667C252.144 52.7667 252.719 53.3762 252.719 54.5952C252.719 55.8142 251.385 57.1712 248.717 58.6662C246.049 60.1612 243.243 60.9087 240.299 60.9087C235.469 60.9087 231.444 59.1262 228.224 55.5612C225.004 51.9962 223.394 47.6835 223.394 42.6232C223.394 37.5629 225.015 33.2502 228.258 29.6852C231.501 26.1202 235.768 24.3377 241.058 24.3377C243.956 24.3377 246.521 24.9932 248.752 26.3042C250.983 27.6152 252.098 28.9607 252.098 30.3407C252.098 31.0767 251.868 31.6862 251.408 32.1692C250.948 32.6522 250.419 32.8937 249.821 32.8937C249.223 32.8937 248.533 32.5487 247.751 31.8587C245.359 29.8347 242.921 28.8227 240.437 28.8227C237.263 28.8227 234.492 30.1567 232.123 32.8247C229.754 35.4927 228.569 38.7357 228.569 42.5537C228.569 46.3717 229.765 49.6377 232.157 52.3517C234.549 55.0657 237.516 56.4227 241.058 56.4227C243.772 56.4227 246.417 55.5027 248.993 53.6627C249.867 53.0647 250.534 52.7657 250.994 52.7657L250.994 52.7667ZM281.458 39.7257C283.321 38.6677 284.252 37.2417 284.252 35.4477C284.252 33.6537 283.643 32.1012 282.424 30.7902C281.205 29.4792 279.468 28.8237 277.214 28.8237C274.178 28.8237 271.625 29.9622 269.555 32.2392C267.485 34.5162 266.151 37.1727 265.553 40.2087C268.083 40.9447 270.901 41.3127 274.006 41.3127C277.111 41.3127 279.595 40.7837 281.458 39.7257ZM285.667 27.4437C287.99 29.5137 289.151 32.2047 289.151 35.5167C289.151 38.8287 287.714 41.3472 284.839 43.0722C281.964 44.7972 278.433 45.6597 274.247 45.6597C271.855 45.6597 268.934 45.3147 265.484 44.6247C265.76 47.8447 266.967 50.6162 269.106 52.9392C271.245 55.2622 273.626 56.4237 276.248 56.4237C277.812 56.4237 279.261 56.2052 280.595 55.7682C281.929 55.3312 282.941 54.8597 283.631 54.3537C285.471 52.9277 286.678 52.2147 287.253 52.2147C287.828 52.2147 288.288 52.3872 288.633 52.7322C288.978 53.0772 289.151 53.5027 289.151 54.0087C289.151 55.2967 287.828 56.7687 285.183 58.4247C282.538 60.0807 279.675 60.9087 276.593 60.9087C271.809 60.9087 268.014 59.2297 265.208 55.8717C262.402 52.5137 260.884 48.4657 260.654 43.7277C258.216 42.9917 256.997 41.7957 256.997 40.1397C256.997 39.4497 257.192 38.9092 257.583 38.5182C257.974 38.1272 258.446 37.9317 258.998 37.9317C259.55 37.9317 260.24 38.1387 261.068 38.5527C262.08 34.4127 264 31.0087 266.829 28.3407C269.658 25.6727 272.924 24.3387 276.627 24.3387C280.33 24.3387 283.344 25.3737 285.667 27.4437ZM320.167 52.0077C322.398 49.2937 323.513 46.1082 323.513 42.4512C323.513 38.7942 322.708 35.6662 321.098 33.0672C319.488 30.4682 317.303 29.1687 314.543 29.1687C309.713 29.1687 305.734 33.1477 302.606 41.1057V52.0767C305.366 54.7447 308.632 56.0787 312.404 56.0787C315.348 56.0787 317.936 54.7217 320.167 52.0077ZM298.328 46.7637L298.397 44.1417V43.0377C298.397 41.1057 298.19 38.2767 297.776 34.5507C297.362 30.8247 297.155 28.5592 297.155 27.7542C297.155 26.9492 297.396 26.2362 297.879 25.6152C298.362 24.9942 299.018 24.6837 299.846 24.6837C300.674 24.6837 301.329 24.9942 301.812 25.6152C302.295 26.2362 302.537 26.9377 302.537 27.7197C302.537 28.5017 302.525 29.4792 302.502 30.6522C302.479 31.8252 302.468 32.8027 302.468 33.5847C303.986 30.7787 305.688 28.5937 307.574 27.0297C309.46 25.4657 311.898 24.6837 314.888 24.6837C317.878 24.6837 320.454 25.6497 322.616 27.5817C324.778 29.5137 326.319 31.7447 327.239 34.2747C328.159 36.8047 328.619 39.3347 328.619 41.8647C328.619 46.8787 327.101 51.2487 324.065 54.9747C321.029 58.7007 317.142 60.5637 312.404 60.5637C308.954 60.5637 305.688 59.4367 302.606 57.1827C302.514 62.7487 302.468 66.8772 302.468 69.5682C302.468 72.2592 302.238 73.9612 301.778 74.6742C301.318 75.3872 300.605 75.7437 299.639 75.7437C298.673 75.7437 297.879 75.3412 297.258 74.5362C296.637 73.7312 296.327 72.5697 296.327 71.0517C296.327 69.5337 296.419 67.7282 296.603 65.6352C296.787 63.5422 297.063 60.7822 297.431 57.3552C297.799 53.9282 298.098 50.8347 298.328 48.0747V46.7637ZM344.489 29.5827L344.351 45.9357C344.351 50.1217 344.523 52.8587 344.868 54.1467C345.213 55.4347 346.122 56.0787 347.594 56.0787C348.284 56.0787 349.123 55.8372 350.112 55.3542C351.101 54.8712 351.757 54.6297 352.079 54.6297C353.045 54.6297 353.528 55.1012 353.528 56.0442C353.528 56.9872 352.677 57.9762 350.975 59.0112C349.273 60.0462 347.594 60.5637 345.938 60.5637C341.936 60.5637 339.935 57.6197 339.935 51.7317L339.866 29.5827C338.348 29.7207 337.29 29.7897 336.692 29.7897C334.392 29.7897 333.242 29.0307 333.242 27.5127C333.242 25.9947 334.392 25.2357 336.692 25.2357C336.876 25.2357 337.888 25.2817 339.728 25.3737L339.59 17.6457C339.59 15.3457 340.464 14.1957 342.212 14.1957C343.96 14.1957 344.834 15.3457 344.834 17.6457L344.627 25.4427L350.216 25.1667C352.516 25.1667 353.666 25.9487 353.666 27.5127C353.666 28.9847 352.516 29.7207 350.216 29.7207C349.802 29.7207 347.893 29.6747 344.489 29.5827ZM385.82 42.5547C385.82 38.7367 384.75 35.4937 382.611 32.8257C380.472 30.1577 377.816 28.8237 374.642 28.8237C371.468 28.8237 368.765 30.1807 366.534 32.8947C364.303 35.6087 363.188 38.8747 363.188 42.6927C363.188 46.5107 364.257 49.7537 366.396 52.4217C368.535 55.0897 371.192 56.4237 374.366 56.4237C377.54 56.4237 380.242 55.0667 382.473 52.3527C384.704 49.6387 385.82 46.3727 385.82 42.5547ZM386.165 29.6167C389.201 33.1357 390.719 37.4482 390.719 42.5542C390.719 47.6602 389.178 51.9959 386.096 55.5612C383.014 59.1265 379.127 60.909 374.435 60.9087C369.743 60.9084 365.879 59.1489 362.843 55.6302C359.807 52.1115 358.289 47.7989 358.289 42.6922C358.289 37.5855 359.818 33.2499 362.877 29.6852C365.936 26.1205 369.823 24.338 374.538 24.3377C379.253 24.3374 383.128 26.0974 386.165 29.6167ZM404.174 44.0727L404.381 57.0447C404.381 59.3907 403.507 60.5637 401.759 60.5637C399.643 60.5637 398.585 58.9422 398.585 55.6992C398.585 52.4562 399.045 47.9135 399.965 42.0712C399.965 40.1392 399.769 37.4942 399.378 34.1362C398.987 30.7782 398.792 28.6852 398.792 27.8572C398.792 27.0292 399.033 26.2932 399.516 25.6492C399.999 25.0052 400.655 24.6832 401.483 24.6832C402.311 24.6832 402.966 25.0052 403.449 25.6492C403.932 26.2932 404.174 26.9947 404.174 27.7537C404.174 28.5127 404.162 29.4787 404.139 30.6517C404.116 31.8247 404.105 32.8022 404.105 33.5842C405.025 31.2382 406.462 29.1682 408.417 27.3742C410.372 25.5802 412.385 24.6832 414.455 24.6832C416.525 24.6832 418.123 25.1087 419.25 25.9597C420.377 26.8107 420.941 27.7192 420.941 28.6852C420.941 29.6512 420.688 30.4102 420.182 30.9622C419.676 31.5142 419.02 31.7902 418.215 31.7902C417.41 31.7902 416.536 31.3647 415.593 30.5137C414.65 29.6627 413.903 29.2372 413.351 29.2372C411.833 29.2372 410.062 30.8702 408.038 34.1362C406.014 37.4022 404.726 40.7147 404.174 44.0727Z" fill="#FFFBFB"/>
<path fill-rule="evenodd" clip-rule="evenodd" d="M63.7125 0.794247C66.2474 -7.51167e-06 68.7355 0.123665 71.1778 1.16069C73.01 1.83127 74.8889 3.0396 76.8118 4.77834C78.4305 6.33662 79.7433 7.89307 80.751 9.45043C81.9419 11.5281 82.5529 13.4373 82.5832 15.176C82.6757 17.0705 82.1865 18.8706 81.1174 20.581C80.3543 21.8333 79.2394 23.0554 77.7737 24.2454C75.9415 25.7111 73.5908 27.1008 70.7197 28.4145C67.4832 29.7887 63.6667 30.964 59.2686 31.9415C57.6196 32.2777 56.0787 32.5516 54.6423 32.766C57.7268 33.8644 60.5209 35.4226 63.0245 37.438C65.2846 39.3005 67.1625 41.6072 68.6576 44.3555C69.9713 46.828 70.8416 49.4389 71.2694 52.1872C72.1855 57.8377 71.8804 62.7388 70.3533 66.8914C69.8953 68.0814 69.3758 69.1047 68.7959 69.9603C70.4751 71.7623 71.5287 73.2271 71.9565 74.3585C72.1699 74.9989 72.1855 75.4267 72.0023 75.6392C71.7888 75.8233 71.361 75.7931 70.7197 75.5476C69.6213 75.1812 68.2005 74.19 66.4608 72.5703L66.3234 72.6619C65.3157 73.4562 64.308 74.0058 63.3003 74.3118C62.1707 74.7094 61.1017 74.9219 60.094 74.9521C58.292 74.9824 56.338 74.5564 54.2309 73.6714C52.7963 73.0293 51.3004 72.1434 49.743 71.0148C47.6662 69.5188 45.4832 67.5025 43.1929 64.9685C40.2916 61.6385 37.7577 58.0676 35.5893 54.2493C34.7648 52.7836 33.9404 51.1199 33.1159 49.2575C33.1159 51.9453 32.6881 55.3495 31.8343 59.472C30.8879 63.7162 29.6961 67.518 28.2615 70.8764C27.0403 73.6852 25.6506 76.0524 24.0932 77.9762C23.0242 79.3201 21.803 80.4038 20.4289 81.2292C18.7497 82.3276 16.9175 82.8324 14.9323 82.739C13.0699 82.5869 11.2065 81.93 9.3432 80.7712C8.15228 80.0988 6.59492 78.7851 4.67112 76.8311C2.89939 74.8468 1.69381 72.9541 1.05254 71.1522C0.106214 68.7383 -5.31873e-05 66.2492 0.731907 63.686C1.3118 61.5478 2.6099 59.3181 4.62531 56.9976C6.15244 55.257 8.10647 53.5018 10.4874 51.73C14.1216 49.0422 18.9778 46.2188 25.0533 43.2562L25.5572 42.9823H25.4207C22.7942 42.5847 20.3519 41.3021 18.0919 39.1337C16.748 37.6991 15.6643 36.1564 14.8389 34.5084C13.8312 32.1879 13.3887 29.9728 13.5114 27.8667L13.5572 27.5002C12.3361 26.6758 11.0682 26.3698 9.75544 26.5842C9.6336 26.5539 9.49619 26.5677 9.3432 26.629C9.06837 26.7225 8.91538 26.7665 8.88515 26.7665L8.15228 26.9506C8.03044 27.0111 7.664 27.1796 7.05296 27.4535C6.59492 27.7595 6.19825 27.9418 5.86204 28.0032L5.49652 28.0499C5.43514 27.9894 5.40399 27.8676 5.40399 27.6835C5.40399 27.317 5.55698 26.8141 5.86204 26.1719C6.1671 25.7441 6.50331 25.3493 6.87066 24.9819C6.90089 24.9517 7.19129 24.7364 7.74003 24.3397C7.98555 24.1877 8.16785 24.0805 8.29061 24.0191C8.53521 23.867 8.74866 23.7754 8.93187 23.7452C9.69498 23.5308 10.2291 23.409 10.535 23.3787H12.3672C13.0699 23.5006 13.7111 23.6829 14.291 23.9284C14.6272 22.9821 15.2987 21.7756 16.3064 20.3107C17.2528 18.9971 18.3063 17.9271 19.467 17.1044C20.1998 16.5841 20.7944 16.2332 21.2524 16.0509C20.9474 14.9204 20.9776 13.8055 21.345 12.7071C21.65 11.5785 22.1685 10.6459 22.9023 9.91214C23.8789 8.87421 24.9791 8.32546 26.2003 8.26409C26.8113 8.23385 27.2996 8.32455 27.666 8.538L27.895 8.76702L27.7127 9.08949C27.6514 9.1811 27.3463 9.44035 26.7966 9.86817C25.9722 10.6624 25.4381 11.3028 25.1935 11.792C24.4899 12.8904 24.293 14.0053 24.598 15.1357C26.3084 14.9516 28.0334 15.1806 29.774 15.8228C31.4532 16.4934 33.0105 17.4562 34.446 18.7085C35.9118 20.0203 37.0871 21.5924 37.973 23.4245C38.9816 25.3502 39.5304 27.3802 39.6229 29.5166C39.6834 30.0351 39.6385 30.7084 39.4855 31.5329L41.4093 31.0749C41.379 30.5234 41.4862 29.7923 41.7308 28.8762C42.0661 27.6844 42.5397 26.4321 43.1508 25.1202C46.1125 19.0419 48.9524 14.1573 51.6705 10.4627C53.4724 8.07903 55.2432 6.12592 56.9838 4.59971C59.2081 2.67316 61.4525 1.40437 63.7125 0.794247ZM69.9878 4.18471C68.1858 3.5123 66.3692 3.45092 64.537 4.00058C62.888 4.45863 61.1017 5.54328 59.1779 7.25363C57.6507 8.56548 56.0631 10.3528 54.4142 12.6128C51.9709 15.9712 49.284 20.6433 46.3525 26.6281C45.7113 27.972 45.0388 29.1327 44.3371 30.1102C44.1539 30.3557 43.9863 30.5847 43.8333 30.7973L45.1158 30.844C47.4363 30.9356 49.6798 31.2718 51.8491 31.8517C54.5672 31.302 56.9334 30.7515 58.9488 30.2018C63.0713 29.0118 66.6898 27.6523 69.8046 26.1261C72.3705 24.8738 74.4776 23.5299 76.1256 22.0953C78.6907 19.8051 79.8505 17.4983 79.6068 15.1779C79.5152 13.9274 78.9957 12.5368 78.0494 11.0105C77.3788 9.94054 76.2337 8.62869 74.6141 7.07041C72.9953 5.66512 71.4535 4.70414 69.9878 4.18471ZM44.153 41.3782C43.4201 42.0185 42.7486 42.6754 42.1385 43.3459L40.7643 44.7668C39.8482 45.835 39.2372 46.3535 38.9322 46.3233C38.8708 46.3233 38.8396 46.1712 38.8396 45.8652C38.8699 45.4072 39.0228 44.7201 39.2977 43.804C39.4507 43.4082 39.7557 42.7661 40.2138 41.8802C40.7643 40.9943 41.3745 40.1396 42.046 39.316C43.0234 38.1242 44.7026 36.5375 47.0845 34.5514L40.8092 34.1401C39.8318 34.0485 38.5346 33.9257 36.9158 33.7737C36.6108 33.4677 36.3964 32.8741 36.2746 31.9882L36.0913 29.698C36.0309 28.0783 35.6177 26.5063 34.8546 24.9801C34.152 23.5757 33.2212 22.3234 32.0605 21.2241C30.931 20.2145 29.7236 19.467 28.442 18.9787C27.098 18.5207 25.8155 18.3686 24.5944 18.5207C22.4571 18.7662 20.5324 20.0167 18.823 22.2767C18.0901 23.223 17.5248 24.1712 17.1273 25.1184C16.792 25.9722 16.5776 26.9653 16.4869 28.0957C16.2414 31.5457 17.3728 34.6751 19.8755 37.4857C21.6473 39.4699 23.6325 40.7369 25.8302 41.2856C27.3271 41.6832 28.8075 41.6988 30.2741 41.3324L31.6025 41.1033L31.7848 42.8439C32.8841 46.0503 34.6705 49.5928 37.1449 53.4706C39.5881 57.1652 42.2292 60.4934 45.0682 63.4561C46.2902 64.6763 47.4198 65.7463 48.4577 66.6624C48.5191 65.8681 48.6107 65.2278 48.7325 64.7386C49.2831 62.3247 50.5492 59.7752 52.5343 57.0874C53.9689 55.1031 55.5575 53.4083 57.298 52.004C60.0463 49.7742 62.8102 48.2791 65.5887 47.5151C65.8333 47.4546 66.0925 47.4235 66.3674 47.4235C66.0623 46.7511 65.8031 46.2481 65.5887 45.9119C64.7642 44.3253 63.696 42.8577 62.3824 41.5138C62.0159 41.6072 61.5121 41.7126 60.8708 41.8362C58.5503 42.2008 56.337 43.1032 54.2291 44.5378C52.9777 45.3623 51.5734 46.5385 50.0151 48.0648C49.0385 49.0725 47.603 50.8735 45.7094 53.4697C44.9766 54.5983 44.4278 55.3624 44.0605 55.76L43.6482 56.1264C43.5878 56.0659 43.5566 55.8809 43.5566 55.5767C43.5566 54.8429 43.7554 53.8664 44.1511 52.6443C45.0068 50.3238 46.2289 48.1554 47.8155 46.14C49.1292 44.4599 50.6252 42.9942 52.3044 41.7419C54.4114 40.2761 56.534 39.2226 58.6713 38.5823C56.5945 37.2383 54.2126 36.1848 51.5257 35.4226L51.4332 35.4675C50.4566 36.2618 49.0513 37.3913 47.2192 38.858C45.7873 39.9875 44.764 40.8267 44.153 41.3782ZM66.5066 50.9037C64.2466 51.5157 61.8657 52.7359 59.3611 54.5681C57.6819 55.9423 56.1547 57.4098 54.7806 58.9663C52.8559 61.2263 51.4057 63.3645 50.4291 65.379L49.4672 67.2111L49.4205 67.4402C49.5433 67.562 50.2148 68.0503 51.4359 68.9059C52.8715 69.8522 54.2145 70.586 55.4668 71.1045C57.2064 71.8081 58.7336 72.1123 60.0472 72.0206C61.7869 71.8686 63.2691 71.2566 64.4903 70.1885C65.7115 69.1807 66.6743 67.6692 67.376 65.6547C68.6576 62.0205 68.8564 57.6993 67.9705 52.6919L67.376 50.4017C67.1323 50.6445 66.8428 50.813 66.5066 50.9037ZM32.5195 47.8824C31.9387 46.3242 31.5109 44.8447 31.237 43.4394C30.3209 44.3857 28.7635 45.3769 26.5649 46.4167C20.7321 49.2566 16.0298 51.9582 12.457 54.5241C10.197 56.2647 8.41062 57.8523 7.09785 59.2869C5.4782 61.1796 4.4256 62.9815 3.93732 64.6919C3.38675 66.5845 3.4637 68.403 4.16635 70.1417C4.65463 71.5782 5.61653 73.119 7.05113 74.7689C8.63872 76.4188 9.96798 77.5777 11.0371 78.251C12.5028 79.1671 13.9072 79.67 15.2511 79.7607C16.595 79.791 17.8629 79.4566 19.0529 78.753C20.0908 78.1429 21.1141 77.2717 22.1218 76.1422C23.5885 74.3402 24.9159 72.2185 26.1077 69.7762C27.6037 66.7219 28.9623 63.118 30.1834 58.9654C31.1298 55.3926 31.9094 51.7282 32.5204 47.9722V47.8824H32.5195Z" fill="#FFF9FD"/>
</g>
<defs>
<clipPath id="clip0_1_7">
<rect width="420.941" height="82.8324" fill="white"/>
</clipPath>
</defs>
</svg>
