<svg width="22" height="23" viewBox="0 0 22 23" fill="none" xmlns="http://www.w3.org/2000/svg">
<path d="M21.0391 12.6054C21.0855 17.8704 17.1684 22.3884 11.955 22.9821C11.8449 22.9944 11.7342 23.0003 11.6234 23C10.5857 23 4.97659 23 2.90481 22.9162C2.50136 22.8679 2.1179 22.7136 1.79345 22.469C1.46899 22.2245 1.21513 21.8983 1.05768 21.5237C1.36775 21.6605 1.69993 21.7402 2.0383 21.759C2.75147 21.8232 4.01023 21.759 5.72721 21.759C7.55473 21.759 9.53023 21.7751 10.477 21.784C10.9822 21.7911 11.4871 21.7524 11.9853 21.6681C14.3804 21.2508 16.565 20.0385 18.1864 18.227C19.7613 16.4881 20.758 14.3034 21.0391 11.9742V12.6054Z" fill="#3770FF"/>
<path d="M20.208 10.3411C20.2203 12.9175 19.2704 15.4057 17.5443 17.3185C15.8182 19.2312 13.4402 20.4308 10.8761 20.6822H2.13966C1.5412 20.5958 0.994431 20.2952 0.600925 19.8361C0.207419 19.377 -0.00606597 18.7907 0.000131228 18.186V2.49612C0.000131228 1.24806 0.891603 0 2.13966 0H11.0544C13.6023 0.253603 15.9605 1.4596 17.6576 3.37684C19.3547 5.29408 20.2655 7.78127 20.208 10.3411Z" fill="#3770FF"/>
</svg>
