<svg width="24" height="19" viewBox="0 0 24 19" fill="none" xmlns="http://www.w3.org/2000/svg">
<path d="M19.869 2.11153C18.3279 1.40708 16.7011 0.907309 15.0299 0.625C14.8013 1.03318 14.5943 1.45314 14.4101 1.88312C12.63 1.61529 10.8198 1.61529 9.03972 1.88312C8.85535 1.45318 8.64844 1.03323 8.41986 0.625C6.74766 0.909693 5.11973 1.41065 3.57714 2.11522C0.514694 6.6393 -0.315486 11.051 0.0996039 15.4001C1.89305 16.7232 3.90042 17.7294 6.03447 18.375C6.51499 17.7297 6.9402 17.0451 7.30557 16.3285C6.6116 16.0697 5.9418 15.7504 5.30391 15.3743C5.47179 15.2527 5.63598 15.1275 5.79464 15.0059C7.65073 15.8774 9.67657 16.3293 11.7277 16.3293C13.7788 16.3293 15.8046 15.8774 17.6607 15.0059C17.8212 15.1367 17.9854 15.2619 18.1514 15.3743C17.5123 15.751 16.8413 16.0709 16.1461 16.3303C16.511 17.0466 16.9362 17.7306 17.4172 18.375C19.553 17.732 21.5619 16.7262 23.3557 15.4019C23.8428 10.3584 22.5237 5.98721 19.869 2.11153ZM7.83135 12.7254C6.67463 12.7254 5.719 11.6773 5.719 10.3879C5.719 9.09843 6.64142 8.0411 7.82766 8.0411C9.0139 8.0411 9.96214 9.09843 9.94185 10.3879C9.92156 11.6773 9.01021 12.7254 7.83135 12.7254ZM15.624 12.7254C14.4654 12.7254 13.5135 11.6773 13.5135 10.3879C13.5135 9.09843 14.4359 8.0411 15.624 8.0411C16.8121 8.0411 17.7529 9.09843 17.7326 10.3879C17.7123 11.6773 16.8028 12.7254 15.624 12.7254Z" fill="white"/>
</svg>
