<svg width="28" height="29" viewBox="0 0 28 29" fill="none" xmlns="http://www.w3.org/2000/svg">
<path d="M23.125 4.25C24.5469 4.25 25.75 5.45312 25.75 6.875V26.125C25.75 27.6016 24.5469 28.75 23.125 28.75H15.5781V20.4375H18.75L19.3516 16.5H15.5781V13.9844C15.5781 12.8906 16.125 11.8516 17.8203 11.8516H19.5156V8.51562C19.5156 8.51562 17.9844 8.24219 16.4531 8.24219C13.3906 8.24219 11.3672 10.1562 11.3672 13.5469V16.5H7.92188V20.4375H11.3672V28.75H3.875C2.39844 28.75 1.25 27.6016 1.25 26.125V6.875C1.25 5.45312 2.39844 4.25 3.875 4.25H23.125Z" fill="white"/>
</svg>
