<svg width="605" height="162" viewBox="0 0 605 162" fill="none" xmlns="http://www.w3.org/2000/svg">
<path d="M77.4375 0C85.5285 0 91.4598 12.9839 98.76 15.3438C106.326 17.7902 118.776 10.8411 125.074 15.4038C131.436 20.0125 128.62 33.976 133.248 40.3073C137.832 46.5769 152.069 48.2007 154.526 55.7323C156.895 62.9992 146.414 72.61 146.414 80.6641C146.414 88.7181 156.895 98.329 154.525 105.596C152.069 113.127 137.832 114.751 133.247 121.021C128.617 127.352 131.434 141.319 125.072 145.924C118.774 150.487 106.324 143.538 98.7582 145.984C91.4598 148.344 85.5285 161.328 77.4375 161.328C69.3465 161.328 63.4152 148.344 56.115 145.984C48.5489 143.538 36.0994 150.487 29.8011 145.924C23.4389 141.316 26.2547 127.352 21.6267 121.021C17.0431 114.751 2.80621 113.127 0.348589 105.596C-2.02038 98.329 8.46088 88.7181 8.46088 80.6641C8.46088 72.61 -2.02038 62.9992 0.350364 55.7323C2.80622 48.2007 17.0431 46.5769 21.6285 40.3073C26.2583 33.976 23.4407 20.0089 29.8028 15.4038C36.1012 10.8411 48.5507 17.7902 56.1168 15.3438C63.4152 12.9839 69.3465 0 77.4375 0Z" fill="url(#paint0_linear)"/>
<path d="M76.1014 42.6148L54.2758 84.0849C54.0365 84.5402 53.9176 85.0502 53.9307 85.5655C53.9437 86.0809 54.0883 86.5841 54.3505 87.0264C54.6126 87.4686 54.9833 87.835 55.4268 88.09C55.8702 88.345 56.3713 88.4799 56.8815 88.4817H68.3542C68.7431 88.4815 69.1283 88.5587 69.4876 88.7089C69.847 88.8592 70.1736 89.0795 70.4487 89.3573C70.7238 89.635 70.942 89.9649 71.0909 90.3279C71.2398 90.6909 71.3164 91.08 71.3164 91.473V116.386C71.3164 119.467 75.3683 120.537 76.8595 117.849L99.6465 76.776C99.8985 76.3208 100.028 75.807 100.023 75.2855C100.018 74.764 99.8784 74.2529 99.6176 73.8028C99.3568 73.3527 98.9842 72.9793 98.5365 72.7195C98.0889 72.4598 97.5819 72.3227 97.0657 72.3219L84.6284 72.3084C83.8439 72.3071 83.092 71.9914 82.5376 71.4306C81.9832 70.8699 81.6716 70.1098 81.6711 69.3172V44.0203C81.6761 40.9028 77.5492 39.8642 76.1014 42.6148Z" fill="white"/>
<path d="M214.229 52.8494C214.229 47.6376 217.387 44.0051 221.649 44.0051C224.648 44.0051 227.647 45.1107 229.226 46.69L234.593 30.7387C229.7 26.1587 221.649 23 214.703 23C199.391 23 188.656 33.8974 188.656 49.2169V55.0605H177.922V76.3815H188.656V136.712H214.229V76.3815H231.12V55.0605H214.229V52.8494Z" fill="#0D0543"/>
<path d="M293.581 55.0605V102.598L293.423 102.125C293.423 110.179 287.266 116.339 279.058 116.339C270.849 116.339 265.166 110.021 265.166 101.019V55.0605H239.593V107.021C239.593 125.499 252.064 138.607 269.586 138.607C279.847 138.607 288.529 134.343 293.581 127.394V136.712H320.259V55.0605H293.581Z" fill="#0D0543"/>
<path d="M372.367 116.97C363.685 116.97 357.212 111.443 354.687 103.23H412.937C412.937 72.1173 397.782 53.1653 371.893 53.1653C347.267 53.1653 329.271 70.8538 329.271 95.6494C329.271 120.761 347.899 138.607 373.156 138.607C385.311 138.607 399.361 133.395 406.622 125.973L390.836 110.021C385.943 114.286 378.681 116.97 372.367 116.97ZM372.367 74.6442C380.418 74.6442 385.943 79.5402 388.153 86.963H355.002C357.844 79.3822 364.316 74.6442 372.367 74.6442Z" fill="#0D0543"/>
<path d="M422.376 136.712H449.212V26.3166H422.376V136.712Z" fill="#0D0543"/>
<path d="M501.792 116.97C493.11 116.97 486.638 111.443 484.112 103.23H542.362C542.362 72.1173 527.208 53.1653 501.319 53.1653C476.693 53.1653 458.697 70.8538 458.697 95.6494C458.697 120.761 477.324 138.607 502.582 138.607C514.737 138.607 528.786 133.395 536.048 125.973L520.262 110.021C515.368 114.286 508.107 116.97 501.792 116.97ZM501.792 74.6442C509.843 74.6442 515.368 79.5402 517.578 86.963H484.428C487.269 79.3822 493.742 74.6442 501.792 74.6442Z" fill="#0D0543"/>
<path d="M578.164 70.2221V55.0605H551.486V136.712H578.164V99.5977L578.322 99.9136C578.322 84.9099 588.425 75.4339 605 75.4339V53.1653C593.161 53.1653 583.531 59.6406 578.164 70.2221Z" fill="#0D0543"/>
<defs>
<linearGradient id="paint0_linear" x1="15.2109" y1="22.5859" x2="140.125" y2="139.664" gradientUnits="userSpaceOnUse">
<stop stop-color="#00FBFF"/>
<stop offset="0.9999" stop-color="#10DCE8"/>
<stop offset="1" stop-color="#09C9E3"/>
</linearGradient>
</defs>
</svg>
