<svg width="31" height="31" viewBox="0 0 31 31" fill="none" xmlns="http://www.w3.org/2000/svg">
<path d="M15.5 0.5C13.5302 0.5 11.5796 0.897619 9.75975 1.67015C7.93986 2.44269 6.28628 3.57501 4.8934 5.00247C2.08035 7.88536 0.5 11.7954 0.5 15.8724C0.5 22.667 4.805 28.4317 10.76 30.4762C11.51 30.5992 11.75 30.1226 11.75 29.7076V27.1096C7.595 28.032 6.71 25.0497 6.71 25.0497C6.02 23.2665 5.045 22.79 5.045 22.79C3.68 21.8369 5.15 21.8676 5.15 21.8676C6.65 21.9752 7.445 23.451 7.445 23.451C8.75 25.7876 10.955 25.0958 11.81 24.7269C11.945 23.7277 12.335 23.0513 12.755 22.667C9.425 22.2827 5.93 20.9607 5.93 15.1038C5.93 13.3974 6.5 12.0293 7.475 10.9379C7.325 10.5536 6.8 8.95482 7.625 6.87955C7.625 6.87955 8.885 6.46449 11.75 8.44753C12.935 8.10934 14.225 7.94024 15.5 7.94024C16.775 7.94024 18.065 8.10934 19.25 8.44753C22.115 6.46449 23.375 6.87955 23.375 6.87955C24.2 8.95482 23.675 10.5536 23.525 10.9379C24.5 12.0293 25.07 13.3974 25.07 15.1038C25.07 20.976 21.56 22.2673 18.215 22.6516C18.755 23.1282 19.25 24.0659 19.25 25.4955V29.7076C19.25 30.1226 19.49 30.6145 20.255 30.4762C26.21 28.4163 30.5 22.667 30.5 15.8724C30.5 13.8537 30.112 11.8547 29.3582 9.98964C28.6044 8.12457 27.4995 6.42993 26.1066 5.00247C24.7137 3.57501 23.0601 2.44269 21.2403 1.67015C19.4204 0.897619 17.4698 0.5 15.5 0.5Z" fill="#505050"/>
</svg>
