<svg width="30" height="31" viewBox="0 0 30 31" fill="none" xmlns="http://www.w3.org/2000/svg">
<path d="M15 0.5C13.0302 0.5 11.0796 0.897619 9.25975 1.67015C7.43986 2.44269 5.78628 3.57501 4.3934 5.00247C1.58035 7.88536 0 11.7954 0 15.8724C0 22.667 4.305 28.4317 10.26 30.4762C11.01 30.5992 11.25 30.1226 11.25 29.7076V27.1096C7.095 28.032 6.21 25.0497 6.21 25.0497C5.52 23.2665 4.545 22.79 4.545 22.79C3.18 21.8369 4.65 21.8676 4.65 21.8676C6.15 21.9752 6.945 23.451 6.945 23.451C8.25 25.7876 10.455 25.0958 11.31 24.7269C11.445 23.7277 11.835 23.0513 12.255 22.667C8.925 22.2827 5.43 20.9607 5.43 15.1038C5.43 13.3974 6 12.0293 6.975 10.9379C6.825 10.5536 6.3 8.95482 7.125 6.87955C7.125 6.87955 8.385 6.46449 11.25 8.44753C12.435 8.10934 13.725 7.94024 15 7.94024C16.275 7.94024 17.565 8.10934 18.75 8.44753C21.615 6.46449 22.875 6.87955 22.875 6.87955C23.7 8.95482 23.175 10.5536 23.025 10.9379C24 12.0293 24.57 13.3974 24.57 15.1038C24.57 20.976 21.06 22.2673 17.715 22.6516C18.255 23.1282 18.75 24.0659 18.75 25.4955V29.7076C18.75 30.1226 18.99 30.6145 19.755 30.4762C25.71 28.4163 30 22.667 30 15.8724C30 13.8537 29.612 11.8547 28.8582 9.98964C28.1044 8.12457 26.9995 6.42993 25.6066 5.00247C24.2137 3.57501 22.5601 2.44269 20.7403 1.67015C18.9204 0.897619 16.9698 0.5 15 0.5Z" fill="#505050"/>
</svg>
