<svg width="240" height="240" viewBox="0 0 240 240" fill="none" xmlns="http://www.w3.org/2000/svg">
<path d="M240 120C240 186.274 186.274 240 120 240C53.7258 240 0 186.274 0 120C0 53.7258 53.7258 0 120 0C186.274 0 240 53.7258 240 120Z" fill="#1FD26C"/>
<path d="M205.278 124.565C205.084 127.362 207.018 129.1 209.846 129.391L205.076 129.644L204.982 130.995L211.495 131.448L211.894 125.704L210.111 125.58L209.859 129.203C208.145 128.631 207.065 127.613 207.213 125.492C207.385 123.014 209.272 121.92 211.937 122.105C214.546 122.287 216.302 123.616 216.119 126.244C215.978 128.271 214.656 129.386 213.016 129.649L214.202 131.58C216.533 130.874 217.945 129.011 218.129 126.364C218.401 122.46 215.792 120.11 212.094 119.853C208.096 119.575 205.503 121.337 205.278 124.565Z" fill="black"/>
<path d="M202.079 144.472L203.904 144.93L205.556 138.342L209.06 139.22L207.692 144.677L209.517 145.135L210.885 139.678L214.133 140.492L212.482 147.081L214.307 147.538L216.476 138.887L204.248 135.822L202.079 144.472Z" fill="black"/>
<path d="M198.725 153.543L208.602 157.721L207.092 161.29L208.825 162.023L212.666 152.943L210.933 152.21L209.431 155.762L199.553 151.585L198.725 153.543Z" fill="black"/>
<path d="M189.907 169.333L200.182 176.636L201.414 174.903L191.139 167.6L189.907 169.333Z" fill="black"/>
<path d="M185.502 175.157L190.621 179.847L192.415 181.287L190.321 180.926L181.294 179.748L179.972 181.191L189.266 189.708L190.703 188.14L185.598 183.462L183.747 181.945L186.043 182.364L194.898 183.562L196.232 182.106L186.938 173.589L185.502 175.157Z" fill="black"/>
<path d="M165.961 192.182L171.752 201.21L168.489 203.302L169.505 204.886L177.804 199.563L176.788 197.979L173.541 200.062L167.751 191.035L165.961 192.182Z" fill="black"/>
<path d="M154.157 198.292C150.771 199.754 149.583 203.362 151.03 206.713C152.469 210.047 155.91 211.656 159.296 210.194C162.699 208.725 163.87 205.124 162.43 201.79C160.983 198.439 157.56 196.823 154.157 198.292ZM154.945 200.165C157.363 199.121 159.338 200.277 160.375 202.678C161.404 205.062 160.899 207.309 158.48 208.353C156.062 209.397 154.097 208.217 153.068 205.833C152.031 203.432 152.527 201.21 154.945 200.165Z" fill="black"/>
<path d="M140.125 202.994C136.773 203.78 135.616 205.849 136.488 209.567L138.138 216.601L140.19 216.12L138.535 209.068C137.964 206.631 138.519 205.458 140.571 204.976C142.586 204.503 143.642 205.299 144.214 207.736L145.868 214.788L147.92 214.307L146.27 207.273C145.397 203.554 143.404 202.224 140.125 202.994Z" fill="black"/>
<path d="M125.329 205.247C122.55 205.419 120.724 206.984 119.992 209.48L121.916 210.718C122.194 208.816 123.275 207.392 125.435 207.258C128.026 207.098 129.362 208.882 129.522 211.473C129.683 214.083 128.576 215.999 125.985 216.159C123.825 216.293 122.578 215.032 122.067 213.159L120.31 214.625C121.345 217.031 123.348 218.34 126.128 218.168C129.996 217.929 132 214.958 131.776 211.334C131.551 207.709 129.198 205.008 125.329 205.247Z" fill="black"/>
<path d="M113.53 205.393L112.896 210.85L106.878 210.151L107.512 204.694L105.4 204.449L103.946 216.971L106.058 217.216L106.661 212.02L112.679 212.719L112.076 217.915L114.188 218.16L115.642 205.638L113.53 205.393Z" fill="black"/>
<path d="M87.4252 203.849L86.8567 205.364L91.2783 207.023L91.8468 205.508L87.4252 203.849Z" fill="black"/>
<path d="M73.8218 191.865C71.4902 190.309 69.0213 191.126 67.3656 193.437L69.5132 189.17L68.3865 188.418L64.7613 193.848L69.5497 197.044L70.5422 195.558L67.5221 193.542C68.8692 192.337 70.2889 191.905 72.0572 193.085C74.1228 194.464 74.137 196.646 72.6535 198.868C71.2014 201.043 69.176 201.908 66.9853 200.445C65.2952 199.317 64.9832 197.615 65.5687 196.061L63.3039 196.132C62.7596 198.506 63.6766 200.657 65.8831 202.13C69.1379 204.303 72.4732 203.204 74.5313 200.121C76.7565 196.788 76.5133 193.662 73.8218 191.865Z" fill="black"/>
<path d="M58.2881 179.365L56.9919 180.729L61.9154 185.408L59.4268 188.026L55.3489 184.151L54.0527 185.515L58.1306 189.39L55.8234 191.818L50.8999 187.139L49.6037 188.503L56.0684 194.646L64.7527 185.509L58.2881 179.365Z" fill="black"/>
<path d="M51.9777 171.874L43.4689 178.403L41.1095 175.327L39.6167 176.473L45.6182 184.295L47.1109 183.15L44.7631 180.089L53.2719 173.561L51.9777 171.874Z" fill="black"/>
<path d="M42.6154 156.49L31.1961 161.83L32.0967 163.756L43.5161 158.416L42.6154 156.49Z" fill="black"/>
<path d="M39.7022 149.779L33.0904 151.897L30.9503 152.741L32.3024 151.103L37.8021 143.848L37.2051 141.985L25.1999 145.831L25.8486 147.855L32.4425 145.743L34.6779 144.889L33.1753 146.674L27.7429 153.768L28.3457 155.65L40.3509 151.804L39.7022 149.779Z" fill="black"/>
<path d="M34.6027 124.57L23.8936 125.149L23.6843 121.279L21.8055 121.381L22.3379 131.226L24.2167 131.124L24.0084 127.272L34.7175 126.693L34.6027 124.57Z" fill="black"/>
<path d="M35.136 110.888C35.5474 107.223 33.0053 104.4 29.3779 103.993C25.7692 103.588 22.6646 105.777 22.2532 109.442C21.8397 113.125 24.3839 115.929 27.9926 116.334C31.62 116.741 34.7225 114.571 35.136 110.888ZM33.1187 110.642C32.8249 113.26 30.8414 114.401 28.2424 114.109C25.6621 113.819 23.9621 112.265 24.256 109.647C24.5498 107.03 26.5499 105.91 29.1302 106.2C31.7292 106.491 33.4126 108.025 33.1187 110.642Z" fill="black"/>
<path d="M37.9226 96.6006C38.8985 93.2986 37.6738 91.2689 34.0109 90.1864L27.0821 88.1386L26.4848 90.1595L33.4317 92.2126C35.8315 92.9219 36.5765 93.9857 35.9792 96.0066C35.3926 97.9914 34.1783 98.5154 31.7785 97.8062L24.8317 95.753L24.2344 97.7739L31.1632 99.8217C34.826 100.904 36.9681 99.8304 37.9226 96.6006Z" fill="black"/>
<path d="M43.2735 82.5608C44.5089 80.0652 44.062 77.7025 42.2623 75.8248L40.2302 76.8762C41.7411 78.0651 42.4376 79.7116 41.4776 81.6507C40.3256 83.9777 38.1136 84.2473 35.7867 83.0953C33.4428 81.9349 32.333 80.0208 33.485 77.6938C34.445 75.7547 36.1597 75.302 38.0381 75.791L37.6421 73.5375C35.0408 73.2364 32.9078 74.3219 31.6724 76.8175C29.9527 80.2911 31.5305 83.5076 34.7849 85.1187C38.0393 86.7298 41.5538 86.0344 43.2735 82.5608Z" fill="black"/>
<path d="M48.8827 72.3722L44.4635 69.108L48.0631 64.2347L52.4823 67.499L53.7455 65.7888L43.6055 58.2989L42.3423 60.0091L46.5496 63.1168L42.95 67.9901L38.7427 64.8824L37.4795 66.5925L47.6195 74.0824L48.8827 72.3722Z" fill="black"/>
<path d="M62.8844 50.6247L61.8442 49.3852L58.2266 52.4209L59.2667 53.6604L62.8844 50.6247Z" fill="black"/>
<path d="M80.1649 44.4902C82.668 43.2278 83.1725 40.6764 81.9771 38.0973L84.633 42.0682L85.8426 41.4581L82.9026 35.6287L77.7619 38.2213L78.5668 39.8172L81.8091 38.182C82.1939 39.9477 81.8707 41.3962 79.9724 42.3536C77.7548 43.4719 75.8495 42.4099 74.6464 40.0243C73.4687 37.6892 73.7135 35.5006 76.0655 34.3144C77.8799 33.3994 79.5142 33.9659 80.5789 35.2412L81.6321 33.2349C79.8342 31.5919 77.5109 31.3307 75.1421 32.5253C71.6478 34.2876 70.9613 37.7315 72.6304 41.0411C74.4351 44.6194 77.2754 45.9475 80.1649 44.4902Z" fill="black"/>
<path d="M98.2787 37.2261L97.7318 35.4258L91.2328 37.4002L90.1827 33.9437L95.5656 32.3084L95.0187 30.5081L89.6358 32.1434L88.6623 28.9389L95.1613 26.9645L94.6144 25.1642L86.0811 27.7566L89.7454 39.8185L98.2787 37.2261Z" fill="black"/>
<path d="M107.907 35.3598L106.424 24.738L110.263 24.2023L110.003 22.3388L100.238 23.7017L100.498 25.5651L104.318 25.0319L105.801 35.6537L107.907 35.3598Z" fill="black"/>
<path d="M126.307 34.7369L127.327 22.172L125.208 22L124.188 34.5649L126.307 34.7369Z" fill="black"/>
<path d="M133.823 35.5248L135.254 28.731L135.58 26.4538L136.335 28.4394L139.918 36.8082L141.832 37.2115L144.43 24.8758L142.35 24.4377L140.923 31.2131L140.559 33.5785L139.751 31.3894L136.274 23.1581L134.341 22.751L131.743 35.0866L133.823 35.5248Z" fill="black"/>
<path d="M158.547 43.663L163.376 34.0872L166.837 35.8325L167.684 34.1525L158.881 29.7129L158.034 31.3929L161.478 33.1297L156.648 42.7056L158.547 43.663Z" fill="black"/>
<path d="M169.607 50.5583C172.589 52.7277 176.3 51.9132 178.447 48.9614C180.583 46.0248 180.215 42.2442 177.233 40.0748C174.236 37.8944 170.541 38.7199 168.404 41.6565C166.257 44.6083 166.61 48.3779 169.607 50.5583ZM170.818 48.9261C168.688 47.3766 168.677 45.0886 170.215 42.9736C171.743 40.8739 173.934 40.1644 176.064 41.714C178.194 43.2635 178.179 45.5557 176.651 47.6554C175.113 49.7704 172.948 50.4757 170.818 48.9261Z" fill="black"/>
<path d="M180.763 60.102C183.153 62.5805 185.523 62.5171 188.272 59.8658L193.473 54.8506L192.011 53.3337L186.796 58.362C184.995 60.099 183.702 60.2219 182.239 58.705C180.802 57.2152 180.946 55.9004 182.747 54.1634L187.962 49.1351L186.499 47.6182L181.298 52.6334C178.549 55.2847 178.425 57.6776 180.763 60.102Z" fill="black"/>
<path d="M190.516 71.8789C192.079 74.1835 194.355 74.9586 196.876 74.3174L196.962 72.031C195.183 72.7601 193.407 72.5551 192.192 70.7644C190.735 68.6156 191.59 66.5578 193.739 65.1003C195.903 63.6323 198.116 63.6094 199.573 65.7583C200.788 67.549 200.337 69.2643 198.986 70.658L201.142 71.4236C202.686 69.3082 202.792 66.9172 201.229 64.6126C199.053 61.4049 195.477 61.1934 192.472 63.2318C189.466 65.2701 188.34 68.6712 190.516 71.8789Z" fill="black"/>
<path d="M196.441 81.4103L201.452 79.1573L203.936 84.6831L198.925 86.936L199.797 88.8751L211.294 83.7058L210.423 81.7666L205.652 83.9115L203.168 78.3858L207.938 76.2409L207.066 74.3018L195.569 79.4711L196.441 81.4103Z" fill="black"/>
<path d="M208.6 104.689L210.192 104.398L209.343 99.7524L207.751 100.043L208.6 104.689Z" fill="black"/>
<path d="M127.662 135.855C126.236 133.037 122.823 134.927 122.077 133.352C119.259 132.01 115.68 125.265 111.703 123.392L99.7539 117.774L160.624 94.457L137.472 155.244L127.645 135.855H127.662Z" fill="black"/>
<path d="M117.718 144.804L137.489 155.244L123.999 120.31L117.718 144.804Z" fill="black"/>
<path d="M107.891 125.414C106.466 122.597 105.422 120.526 104.676 118.951C101.859 117.609 95.926 114.825 91.9486 112.952L80 107.334L140.87 84.0168L117.719 144.804L107.891 125.414Z" fill="black"/>
<path d="M131.192 93.728L116.989 131.016C116.989 131.016 108.72 114.692 108.753 114.692C108.786 114.692 94.2852 107.864 94.2852 107.864L131.175 93.728H131.192Z" fill="#1FD26C"/>
<path d="M80 107.317L99.7542 117.774L105.289 116.962L80 107.317Z" fill="black"/>
<path d="M140.87 84L160.641 94.9709L128.159 113.267L140.439 84.1657" fill="black"/>
</svg>
