<svg width="643" height="115" viewBox="0 0 643 115" fill="none" xmlns="http://www.w3.org/2000/svg">
<g filter="url(#filter0_f_89_164)">
<path d="M25.4 91.6V67.3H53V91.6H64.7V31.3H53V55.6H25.4V31.3H13.8V55.6V67.3V91.6H25.4ZM116.135 31.3L97.3352 91.6H110.635L126.235 42.7L141.835 91.6H155.235L136.435 31.3H116.135ZM208.37 31.3C208.37 31.3 180.87 32.2 180.87 61.4C180.87 90.7 208.37 91.6 208.37 91.6H229.97V79.9H208.87C208.87 79.9 192.57 78.9 192.57 61.4C192.57 44 208.87 43 208.87 43H229.97V31.3H208.37ZM274.15 91.6V68.6L291.95 91.6H305.75L282.35 61.4L305.75 31.3H291.95L274.15 54.2V31.3H262.55V91.6H274.15ZM341.398 31.3V43H370.598C370.598 43 376.098 43.1 376.098 48.8C376.098 54.5 370.598 54.6 370.598 54.6H341.398V66.2H370.798C370.798 66.2 377.498 66.5 377.498 73.1C377.498 79.6 370.798 79.9 370.798 79.9H341.398V91.6H371.098C371.098 91.6 389.298 91.5 389.298 73.1C389.298 66 386.098 62.2 383.098 59.9C385.498 57.8 387.898 54.5 387.898 48.8C387.898 31.3 370.098 31.3 370.098 31.3H341.398ZM417.902 31.3L438.402 70.1V91.6H450.102V70.1L470.702 31.3H458.502L444.302 56.4L430.002 31.3H417.902ZM532.041 91.6V43H551.141V31.3H532.041H520.341H501.241V43H520.341V91.6H532.041ZM581.749 55.6V67.3H628.649V55.6H581.749ZM581.749 79.9V91.6H628.649V79.9H581.749ZM581.749 31.3V43H628.649V31.3H581.749Z" fill="#BDD2EB"/>
</g>
<g filter="url(#filter1_d_89_164)">
<path d="M25.4 91.6V67.3H53V91.6H64.7V31.3H53V55.6H25.4V31.3H13.8V55.6V67.3V91.6H25.4ZM116.135 31.3L97.3352 91.6H110.635L126.235 42.7L141.835 91.6H155.235L136.435 31.3H116.135ZM208.37 31.3C208.37 31.3 180.87 32.2 180.87 61.4C180.87 90.7 208.37 91.6 208.37 91.6H229.97V79.9H208.87C208.87 79.9 192.57 78.9 192.57 61.4C192.57 44 208.87 43 208.87 43H229.97V31.3H208.37ZM274.15 91.6V68.6L291.95 91.6H305.75L282.35 61.4L305.75 31.3H291.95L274.15 54.2V31.3H262.55V91.6H274.15ZM341.398 31.3V43H370.598C370.598 43 376.098 43.1 376.098 48.8C376.098 54.5 370.598 54.6 370.598 54.6H341.398V66.2H370.798C370.798 66.2 377.498 66.5 377.498 73.1C377.498 79.6 370.798 79.9 370.798 79.9H341.398V91.6H371.098C371.098 91.6 389.298 91.5 389.298 73.1C389.298 66 386.098 62.2 383.098 59.9C385.498 57.8 387.898 54.5 387.898 48.8C387.898 31.3 370.098 31.3 370.098 31.3H341.398ZM417.902 31.3L438.402 70.1V91.6H450.102V70.1L470.702 31.3H458.502L444.302 56.4L430.002 31.3H417.902ZM532.041 91.6V43H551.141V31.3H532.041H520.341H501.241V43H520.341V91.6H532.041ZM581.749 55.6V67.3H628.649V55.6H581.749ZM581.749 79.9V91.6H628.649V79.9H581.749ZM581.749 31.3V43H628.649V31.3H581.749Z" fill="#BDD2EB"/>
</g>
<defs>
<filter id="filter0_f_89_164" x="9.79999" y="27.3" width="622.849" height="68.2999" filterUnits="userSpaceOnUse" color-interpolation-filters="sRGB">
<feFlood flood-opacity="0" result="BackgroundImageFix"/>
<feBlend mode="normal" in="SourceGraphic" in2="BackgroundImageFix" result="shape"/>
<feGaussianBlur stdDeviation="2" result="effect1_foregroundBlur_89_164"/>
</filter>
<filter id="filter1_d_89_164" x="9.79999" y="31.3" width="622.849" height="68.2999" filterUnits="userSpaceOnUse" color-interpolation-filters="sRGB">
<feFlood flood-opacity="0" result="BackgroundImageFix"/>
<feColorMatrix in="SourceAlpha" type="matrix" values="0 0 0 0 0 0 0 0 0 0 0 0 0 0 0 0 0 0 127 0" result="hardAlpha"/>
<feOffset dy="4"/>
<feGaussianBlur stdDeviation="2"/>
<feComposite in2="hardAlpha" operator="out"/>
<feColorMatrix type="matrix" values="0 0 0 0 0 0 0 0 0 0 0 0 0 0 0 0 0 0 0.25 0"/>
<feBlend mode="normal" in2="BackgroundImageFix" result="effect1_dropShadow_89_164"/>
<feBlend mode="normal" in="SourceGraphic" in2="effect1_dropShadow_89_164" result="shape"/>
</filter>
</defs>
</svg>
