<svg width="28" height="29" viewBox="0 0 28 29" fill="none" xmlns="http://www.w3.org/2000/svg">
<path d="M13.5 10.2109C16.9453 10.2109 19.7891 13.0547 19.7891 16.5C19.7891 20 16.9453 22.7891 13.5 22.7891C10 22.7891 7.21094 20 7.21094 16.5C7.21094 13.0547 10 10.2109 13.5 10.2109ZM13.5 20.6016C15.7422 20.6016 17.5469 18.7969 17.5469 16.5C17.5469 14.2578 15.7422 12.4531 13.5 12.4531C11.2031 12.4531 9.39844 14.2578 9.39844 16.5C9.39844 18.7969 11.2578 20.6016 13.5 20.6016ZM21.4844 9.99219C21.4844 10.8125 20.8281 11.4688 20.0078 11.4688C19.1875 11.4688 18.5312 10.8125 18.5312 9.99219C18.5312 9.17188 19.1875 8.51562 20.0078 8.51562C20.8281 8.51562 21.4844 9.17188 21.4844 9.99219ZM25.6406 11.4688C25.75 13.4922 25.75 19.5625 25.6406 21.5859C25.5312 23.5547 25.0938 25.25 23.6719 26.7266C22.25 28.1484 20.5 28.5859 18.5312 28.6953C16.5078 28.8047 10.4375 28.8047 8.41406 28.6953C6.44531 28.5859 4.75 28.1484 3.27344 26.7266C1.85156 25.25 1.41406 23.5547 1.30469 21.5859C1.19531 19.5625 1.19531 13.4922 1.30469 11.4688C1.41406 9.5 1.85156 7.75 3.27344 6.32812C4.75 4.90625 6.44531 4.46875 8.41406 4.35938C10.4375 4.25 16.5078 4.25 18.5312 4.35938C20.5 4.46875 22.25 4.90625 23.6719 6.32812C25.0938 7.75 25.5312 9.5 25.6406 11.4688ZM23.0156 23.7188C23.6719 22.1328 23.5078 18.3047 23.5078 16.5C23.5078 14.75 23.6719 10.9219 23.0156 9.28125C22.5781 8.24219 21.7578 7.36719 20.7188 6.98438C19.0781 6.32812 15.25 6.49219 13.5 6.49219C11.6953 6.49219 7.86719 6.32812 6.28125 6.98438C5.1875 7.42188 4.36719 8.24219 3.92969 9.28125C3.27344 10.9219 3.4375 14.75 3.4375 16.5C3.4375 18.3047 3.27344 22.1328 3.92969 23.7188C4.36719 24.8125 5.1875 25.6328 6.28125 26.0703C7.86719 26.7266 11.6953 26.5625 13.5 26.5625C15.25 26.5625 19.0781 26.7266 20.7188 26.0703C21.7578 25.6328 22.6328 24.8125 23.0156 23.7188Z" fill="white"/>
</svg>
