<svg width="31" height="31" viewBox="0 0 31 31" fill="none" xmlns="http://www.w3.org/2000/svg">
<path d="M8.57692 0.5H22.4231C24.5645 0.502291 26.6176 1.35399 28.1318 2.86821C29.646 4.38243 30.4977 6.43549 30.5 8.57692V22.4231C30.4977 24.5645 29.646 26.6176 28.1318 28.1318C26.6176 29.646 24.5645 30.4977 22.4231 30.5H8.57692C6.43549 30.4977 4.38243 29.646 2.86821 28.1318C1.35398 26.6176 0.502291 24.5645 0.5 22.4231V8.57692C0.502291 6.43549 1.35398 4.38243 2.86821 2.86821C4.38243 1.35399 6.43549 0.502291 8.57692 0.5ZM15.5 22.4231C16.8693 22.4231 18.2078 22.017 19.3463 21.2563C20.4848 20.4956 21.3721 19.4144 21.8961 18.1493C22.4201 16.8843 22.5572 15.4923 22.2901 14.1494C22.0229 12.8064 21.3636 11.5729 20.3954 10.6046C19.4271 9.63644 18.1936 8.97708 16.8506 8.70995C15.5077 8.44282 14.1157 8.57992 12.8507 9.10391C11.5856 9.6279 10.5044 10.5152 9.74367 11.6537C8.98296 12.7922 8.57692 14.1307 8.57692 15.5C8.57883 17.3355 9.30884 19.0953 10.6068 20.3932C11.9047 21.6912 13.6645 22.4212 15.5 22.4231ZM6.84615 8.57692C7.18847 8.57692 7.52309 8.47542 7.80772 8.28524C8.09234 8.09506 8.31418 7.82475 8.44518 7.50849C8.57617 7.19223 8.61045 6.84423 8.54367 6.5085C8.47689 6.17276 8.31204 5.86437 8.06999 5.62231C7.82794 5.38026 7.51955 5.21542 7.18381 5.14864C6.84807 5.08186 6.50008 5.11613 6.18382 5.24713C5.86756 5.37813 5.59725 5.59997 5.40707 5.88459C5.21689 6.16921 5.11538 6.50384 5.11538 6.84615C5.11538 7.30518 5.29773 7.74541 5.62232 8.06999C5.9469 8.39457 6.38713 8.57692 6.84615 8.57692ZM10.8846 15.5C10.8846 16.4128 11.1553 17.3052 11.6624 18.0642C12.1696 18.8232 12.8904 19.4147 13.7338 19.7641C14.5771 20.1134 15.5051 20.2048 16.4004 20.0267C17.2957 19.8486 18.1181 19.409 18.7636 18.7636C19.409 18.1181 19.8486 17.2957 20.0267 16.4004C20.2048 15.5051 20.1134 14.5771 19.7641 13.7338C19.4147 12.8904 18.8232 12.1696 18.0642 11.6624C17.3052 11.1553 16.4128 10.8846 15.5 10.8846C14.2759 10.8846 13.102 11.3709 12.2364 12.2364C11.3709 13.102 10.8846 14.2759 10.8846 15.5Z" fill="#505050"/>
</svg>
