<svg width="30" height="31" viewBox="0 0 30 31" fill="none" xmlns="http://www.w3.org/2000/svg">
<path d="M8.07692 0.5H21.9231C24.0645 0.502291 26.1176 1.35399 27.6318 2.86821C29.146 4.38243 29.9977 6.43549 30 8.57692V22.4231C29.9977 24.5645 29.146 26.6176 27.6318 28.1318C26.1176 29.646 24.0645 30.4977 21.9231 30.5H8.07692C5.93549 30.4977 3.88243 29.646 2.36821 28.1318C0.853985 26.6176 0.00229073 24.5645 0 22.4231V8.57692C0.00229073 6.43549 0.853985 4.38243 2.36821 2.86821C3.88243 1.35399 5.93549 0.502291 8.07692 0.5ZM15 22.4231C16.3693 22.4231 17.7078 22.017 18.8463 21.2563C19.9847 20.4956 20.8721 19.4144 21.3961 18.1493C21.9201 16.8843 22.0572 15.4923 21.7901 14.1494C21.5229 12.8064 20.8636 11.5729 19.8954 10.6046C18.9271 9.63644 17.6936 8.97708 16.3506 8.70995C15.0077 8.44282 13.6157 8.57992 12.3507 9.10391C11.0856 9.6279 10.0044 10.5153 9.24367 11.6537C8.48296 12.7922 8.07692 14.1307 8.07692 15.5C8.07883 17.3355 8.80884 19.0953 10.1068 20.3932C11.4047 21.6912 13.1645 22.4212 15 22.4231ZM6.34615 8.57692C6.68847 8.57692 7.02309 8.47542 7.30772 8.28524C7.59234 8.09506 7.81418 7.82475 7.94518 7.50849C8.07617 7.19223 8.11045 6.84423 8.04367 6.5085C7.97688 6.17276 7.81204 5.86437 7.56999 5.62231C7.32794 5.38026 7.01955 5.21542 6.68381 5.14864C6.34807 5.08186 6.00007 5.11613 5.68382 5.24713C5.36756 5.37813 5.09725 5.59997 4.90707 5.88459C4.71689 6.16921 4.61539 6.50384 4.61539 6.84615C4.61539 7.30518 4.79773 7.74541 5.12232 8.06999C5.4469 8.39457 5.88713 8.57692 6.34615 8.57692ZM10.3846 15.5C10.3846 16.4128 10.6553 17.3052 11.1624 18.0642C11.6696 18.8232 12.3904 19.4147 13.2338 19.7641C14.0771 20.1134 15.0051 20.2048 15.9004 20.0267C16.7957 19.8486 17.6181 19.409 18.2636 18.7636C18.909 18.1181 19.3486 17.2957 19.5267 16.4004C19.7048 15.5051 19.6134 14.5771 19.2641 13.7338C18.9147 12.8904 18.3232 12.1696 17.5642 11.6624C16.8052 11.1553 15.9128 10.8846 15 10.8846C13.7759 10.8846 12.602 11.3709 11.7364 12.2364C10.8709 13.102 10.3846 14.2759 10.3846 15.5Z" fill="#505050"/>
</svg>
