<svg width="28" height="29" viewBox="0 0 28 29" fill="none" xmlns="http://www.w3.org/2000/svg">
<path d="M24 4.25C24.9297 4.25 25.75 5.07031 25.75 6.05469V27C25.75 27.9844 24.9297 28.75 24 28.75H2.94531C2.01562 28.75 1.25 27.9844 1.25 27V6.05469C1.25 5.07031 2.01562 4.25 2.94531 4.25H24ZM8.63281 25.25V13.6016H5.02344V25.25H8.63281ZM6.82812 11.9609C7.97656 11.9609 8.90625 11.0312 8.90625 9.88281C8.90625 8.73438 7.97656 7.75 6.82812 7.75C5.625 7.75 4.69531 8.73438 4.69531 9.88281C4.69531 11.0312 5.625 11.9609 6.82812 11.9609ZM22.25 25.25V18.8516C22.25 15.7344 21.5391 13.2734 17.875 13.2734C16.125 13.2734 14.9219 14.2578 14.4297 15.1875H14.375V13.6016H10.9297V25.25H14.5391V19.5078C14.5391 17.9766 14.8125 16.5 16.7266 16.5C18.5859 16.5 18.5859 18.25 18.5859 19.5625V25.25H22.25Z" fill="white"/>
</svg>
