<svg width="17" height="18" viewBox="0 0 17 18" fill="none" xmlns="http://www.w3.org/2000/svg">
<path d="M15.743 0.629025H1.25704C1.09421 0.626777 0.932521 0.656435 0.781218 0.716305C0.629915 0.776175 0.491959 0.865084 0.375229 0.977955C0.258499 1.09083 0.165281 1.22545 0.100899 1.37413C0.0365161 1.52282 0.00223052 1.68265 0 1.84451V16.4133C0.00223052 16.5752 0.0365161 16.735 0.100899 16.8837C0.165281 17.0324 0.258499 17.167 0.375229 17.2799C0.491959 17.3927 0.629915 17.4816 0.781218 17.5415C0.932521 17.6014 1.09421 17.631 1.25704 17.6288H15.743C15.9058 17.631 16.0675 17.6014 16.2188 17.5415C16.3701 17.4816 16.508 17.3927 16.6248 17.2799C16.7415 17.167 16.8347 17.0324 16.8991 16.8837C16.9635 16.735 16.9978 16.5752 17 16.4133V1.84451C16.9978 1.68265 16.9635 1.52282 16.8991 1.37413C16.8347 1.22545 16.7415 1.09083 16.6248 0.977955C16.508 0.865084 16.3701 0.776175 16.2188 0.716305C16.0675 0.656435 15.9058 0.626777 15.743 0.629025ZM5.15644 14.8578H2.59105V7.20793H5.15644V14.8578ZM3.87374 6.13695C3.51994 6.13695 3.18063 5.99725 2.93046 5.74858C2.68028 5.49991 2.53974 5.16264 2.53974 4.81097C2.53974 4.45929 2.68028 4.12203 2.93046 3.87336C3.18063 3.62469 3.51994 3.48499 3.87374 3.48499C4.06161 3.46381 4.25186 3.48231 4.43204 3.53929C4.61221 3.59626 4.77825 3.69042 4.91927 3.8156C5.0603 3.94078 5.17314 4.09415 5.25039 4.26568C5.32765 4.43721 5.36759 4.62303 5.36759 4.81097C5.36759 4.9989 5.32765 5.18472 5.25039 5.35625C5.17314 5.52778 5.0603 5.68116 4.91927 5.80634C4.77825 5.93151 4.61221 6.02567 4.43204 6.08265C4.25186 6.13962 4.06161 6.15813 3.87374 6.13695ZM14.409 14.8578H11.8436V10.7524C11.8436 9.7239 11.4759 9.05241 10.5438 9.05241C10.2553 9.05451 9.97441 9.14444 9.73894 9.3101C9.50348 9.47576 9.32476 9.70917 9.22686 9.97889C9.15994 10.1787 9.13095 10.3891 9.14135 10.5994V14.8493H6.57596C6.57596 14.8493 6.57596 7.89642 6.57596 7.19943H9.14135V8.27892C9.3744 7.87696 9.71335 7.54582 10.1217 7.32115C10.5301 7.09649 10.9923 6.98681 11.4588 7.00394C13.169 7.00394 14.409 8.10042 14.409 10.4549V14.8578Z" fill="#727272"/>
</svg>
