<svg width="31" height="31" viewBox="0 0 31 31" fill="none" xmlns="http://www.w3.org/2000/svg">
<path d="M27.1667 0.5C28.0507 0.5 28.8986 0.851189 29.5237 1.47631C30.1488 2.10143 30.5 2.94928 30.5 3.83333V27.1667C30.5 28.0507 30.1488 28.8986 29.5237 29.5237C28.8986 30.1488 28.0507 30.5 27.1667 30.5H3.83333C2.94928 30.5 2.10143 30.1488 1.47631 29.5237C0.851189 28.8986 0.5 28.0507 0.5 27.1667V3.83333C0.5 2.94928 0.851189 2.10143 1.47631 1.47631C2.10143 0.851189 2.94928 0.5 3.83333 0.5H27.1667ZM26.3333 26.3333V17.5C26.3333 16.059 25.7609 14.677 24.7419 13.6581C23.723 12.6391 22.341 12.0667 20.9 12.0667C19.4833 12.0667 17.8333 12.9333 17.0333 14.2333V12.3833H12.3833V26.3333H17.0333V18.1167C17.0333 16.8333 18.0667 15.7833 19.35 15.7833C19.9688 15.7833 20.5623 16.0292 20.9999 16.4668C21.4375 16.9043 21.6833 17.4978 21.6833 18.1167V26.3333H26.3333ZM6.96667 9.76667C7.70927 9.76667 8.42146 9.47167 8.94657 8.94657C9.47167 8.42146 9.76667 7.70927 9.76667 6.96667C9.76667 5.41667 8.51667 4.15 6.96667 4.15C6.21964 4.15 5.50321 4.44675 4.97498 4.97498C4.44675 5.50321 4.15 6.21964 4.15 6.96667C4.15 8.51667 5.41667 9.76667 6.96667 9.76667ZM9.28333 26.3333V12.3833H4.66667V26.3333H9.28333Z" fill="#505050"/>
</svg>
