<svg width="30" height="31" viewBox="0 0 30 31" fill="none" xmlns="http://www.w3.org/2000/svg">
<path d="M26.6667 0.5C27.5507 0.5 28.3986 0.851189 29.0237 1.47631C29.6488 2.10143 30 2.94928 30 3.83333V27.1667C30 28.0507 29.6488 28.8986 29.0237 29.5237C28.3986 30.1488 27.5507 30.5 26.6667 30.5H3.33333C2.44928 30.5 1.60143 30.1488 0.976311 29.5237C0.351189 28.8986 0 28.0507 0 27.1667V3.83333C0 2.94928 0.351189 2.10143 0.976311 1.47631C1.60143 0.851189 2.44928 0.5 3.33333 0.5H26.6667ZM25.8333 26.3333V17.5C25.8333 16.059 25.2609 14.677 24.2419 13.6581C23.223 12.6391 21.841 12.0667 20.4 12.0667C18.9833 12.0667 17.3333 12.9333 16.5333 14.2333V12.3833H11.8833V26.3333H16.5333V18.1167C16.5333 16.8333 17.5667 15.7833 18.85 15.7833C19.4688 15.7833 20.0623 16.0292 20.4999 16.4668C20.9375 16.9043 21.1833 17.4978 21.1833 18.1167V26.3333H25.8333ZM6.46667 9.76667C7.20927 9.76667 7.92146 9.47167 8.44657 8.94657C8.97167 8.42146 9.26667 7.70927 9.26667 6.96667C9.26667 5.41667 8.01667 4.15 6.46667 4.15C5.71964 4.15 5.00321 4.44675 4.47498 4.97498C3.94675 5.50321 3.65 6.21964 3.65 6.96667C3.65 8.51667 4.91667 9.76667 6.46667 9.76667ZM8.78333 26.3333V12.3833H4.16667V26.3333H8.78333Z" fill="#505050"/>
</svg>
