<svg width="112" height="50" viewBox="0 0 112 50" fill="none" xmlns="http://www.w3.org/2000/svg">
<path d="M52.7694 30.9106V49.3424H41.0581V18.8887H58.7149V11.7579H0L9.82813 0H112L102.182 11.8133H89.0536C89.0536 15.9175 89.0906 19.8183 89.0536 23.7191C88.9954 28.4888 86.8478 30.5858 81.9999 30.6571C78.4664 30.6994 74.9329 30.6571 71.1561 30.6571V37.772H111.426L101.561 49.6118C89.3154 49.6118 77.2127 49.6673 65.1101 49.5775C61.3068 49.551 59.1196 47.2005 59.027 43.2971C58.9265 39.2457 59.0058 35.1917 59.0058 30.9106H52.7694ZM76.9483 18.6246V11.9982H71.1614V18.6378L76.9483 18.6246Z" fill="#BDD2EB"/>
<path d="M25.3083 15.0379H36.681V49.2947H25.3083V15.0379Z" fill="#BDD2EB"/>
</svg>
