<svg width="23" height="24" viewBox="0 0 23 24" fill="none" xmlns="http://www.w3.org/2000/svg">
<path d="M3.35456 20.2031C2.85942 20.2031 2.42817 20.0154 2.06081 19.6401C1.69345 19.2647 1.50977 18.8295 1.50977 18.3343V5.92393C1.50977 5.42879 1.69345 4.99354 2.06081 4.6182C2.42817 4.24285 2.85942 4.05518 3.35456 4.05518H19.6462C20.1414 4.05518 20.5726 4.24285 20.94 4.6182C21.3073 4.99354 21.491 5.42879 21.491 5.92393V18.3343C21.491 18.8295 21.3073 19.2647 20.94 19.6401C20.5726 20.0154 20.1414 20.2031 19.6462 20.2031H3.35456ZM11.5004 12.9198L19.6462 7.60101V5.92393L11.5004 11.1708L3.35456 5.92393V7.60101L11.5004 12.9198Z" fill="#727272"/>
</svg>
