<svg width="18" height="18" viewBox="0 0 18 18" fill="none" xmlns="http://www.w3.org/2000/svg">
<path d="M16.95 18C14.8 18 12.7043 17.5207 10.663 16.562C8.62167 15.6033 6.81333 14.3367 5.238 12.762C3.66267 11.1873 2.396 9.379 1.438 7.337C0.48 5.295 0.000666667 3.19933 0 1.05C0 0.75 0.0999999 0.5 0.3 0.3C0.5 0.0999999 0.75 0 1.05 0H5.1C5.33333 0 5.54167 0.0749999 5.725 0.225C5.90833 0.375 6.01667 0.566667 6.05 0.8L6.7 4.3C6.73333 4.53333 6.729 4.746 6.687 4.938C6.645 5.13 6.54933 5.30067 6.4 5.45L4 7.9C4.7 9.1 5.575 10.225 6.625 11.275C7.675 12.325 8.83333 13.2333 10.1 14L12.45 11.65C12.6 11.5 12.796 11.3877 13.038 11.313C13.28 11.2383 13.5173 11.2173 13.75 11.25L17.2 11.95C17.4333 12 17.625 12.1127 17.775 12.288C17.925 12.4633 18 12.6673 18 12.9V16.95C18 17.25 17.9 17.5 17.7 17.7C17.5 17.9 17.25 18 16.95 18Z" fill="#727272"/>
</svg>
