<svg width="29" height="28" viewBox="0 0 29 28" fill="none" xmlns="http://www.w3.org/2000/svg">
<path d="M25.6016 10.8125C25.6016 11.0859 25.6016 11.3047 25.6016 11.5781C25.6016 19.1797 19.8594 27.875 9.30469 27.875C6.02344 27.875 3.01562 26.9453 0.5 25.3047C0.9375 25.3594 1.375 25.4141 1.86719 25.4141C4.54688 25.4141 7.00781 24.4844 8.97656 22.9531C6.46094 22.8984 4.32812 21.2578 3.61719 18.9609C4 19.0156 4.32812 19.0703 4.71094 19.0703C5.20312 19.0703 5.75 18.9609 6.1875 18.8516C3.5625 18.3047 1.59375 16.0078 1.59375 13.2188V13.1641C2.35938 13.6016 3.28906 13.8203 4.21875 13.875C2.63281 12.8359 1.64844 11.0859 1.64844 9.11719C1.64844 8.02344 1.92188 7.03906 2.41406 6.21875C5.25781 9.66406 9.52344 11.9609 14.2812 12.2344C14.1719 11.7969 14.1172 11.3594 14.1172 10.9219C14.1172 7.75 16.6875 5.17969 19.8594 5.17969C21.5 5.17969 22.9766 5.83594 24.0703 6.98438C25.3281 6.71094 26.5859 6.21875 27.6797 5.5625C27.2422 6.92969 26.3672 8.02344 25.1641 8.73438C26.3125 8.625 27.4609 8.29688 28.4453 7.85938C27.6797 9.00781 26.6953 9.99219 25.6016 10.8125Z" fill="white"/>
</svg>
