<svg width="30" height="31" viewBox="0 0 30 31" fill="none" xmlns="http://www.w3.org/2000/svg">
<path d="M30 4.02941C28.8958 4.64706 27.7055 5.05294 26.4723 5.24706C27.7342 4.31176 28.7094 2.82941 29.1683 1.04706C27.978 1.92941 26.6587 2.54706 25.2677 2.9C24.1348 1.38235 22.543 0.5 20.7361 0.5C17.3662 0.5 14.6128 3.88824 14.6128 8.07059C14.6128 8.67059 14.6702 9.25294 14.7706 9.8C9.66539 9.48235 5.1195 6.46471 2.09369 1.89412C1.5631 3.00588 1.26195 4.31176 1.26195 5.68824C1.26195 8.31765 2.33748 10.6471 4.00096 11.9706C2.98279 11.9706 2.03633 11.6176 1.20459 11.0882V11.1412C1.20459 14.8118 3.32696 17.8824 6.13767 18.5706C5.23527 18.8745 4.2879 18.9168 3.36998 18.6941C3.75947 20.1985 4.52228 21.5148 5.55117 22.4581C6.58006 23.4014 7.8233 23.9242 9.10612 23.9529C6.93159 26.0714 4.23613 27.2164 1.46272 27.2C0.975143 27.2 0.487572 27.1647 0 27.0941C2.72467 29.2471 5.96558 30.5 9.43595 30.5C20.7361 30.5 26.9455 18.9588 26.9455 8.95294C26.9455 8.61765 26.9455 8.3 26.9312 7.9647C28.1358 6.90588 29.1683 5.56471 30 4.02941Z" fill="#505050"/>
</svg>
