<svg width="22" height="24" viewBox="0 0 22 24" fill="none" xmlns="http://www.w3.org/2000/svg">
<path d="M7.59884 20.0361C14.5169 20.0361 18.3009 14.0437 18.3009 8.84759C18.3009 8.67701 18.3009 8.50738 18.2899 8.33968C19.0262 7.78243 19.6616 7.09251 20.1663 6.30226C19.4798 6.62043 18.7515 6.82911 18.0058 6.92134C18.791 6.42977 19.3787 5.65668 19.6594 4.74593C18.9212 5.2039 18.1137 5.52671 17.2715 5.70043C16.7044 5.06962 15.9543 4.65185 15.1372 4.51181C14.3201 4.37177 13.4816 4.51727 12.7515 4.92578C12.0215 5.33428 11.4407 5.98301 11.0989 6.77152C10.7572 7.56002 10.6737 8.44431 10.8613 9.28747C9.3658 9.20912 7.90281 8.80286 6.56727 8.09508C5.23172 7.3873 4.05347 6.3938 3.10901 5.17909C2.62805 6.04466 2.48071 7.06933 2.697 8.04447C2.91328 9.01962 3.47693 9.87193 4.27317 10.4279C3.67483 10.4098 3.08942 10.2415 2.56634 9.93722V9.98705C2.5667 10.8949 2.86737 11.7746 3.41737 12.4771C3.96737 13.1797 4.73285 13.6617 5.58401 13.8415C5.03017 13.9993 4.44908 14.0223 3.88542 13.9086C4.12574 14.69 4.59371 15.3735 5.22387 15.8632C5.85404 16.3529 6.61487 16.6244 7.39992 16.6398C6.61995 17.2805 5.72681 17.7542 4.77159 18.0337C3.81637 18.3133 2.8178 18.3932 1.83301 18.269C3.55323 19.4231 5.55485 20.0353 7.59884 20.0323" fill="#727272"/>
</svg>
