<svg width="31" height="31" viewBox="0 0 31 31" fill="none" xmlns="http://www.w3.org/2000/svg">
<path d="M30.5 4.02941C29.3958 4.64706 28.2055 5.05294 26.9723 5.24706C28.2342 4.31176 29.2094 2.82941 29.6683 1.04706C28.478 1.92941 27.1587 2.54706 25.7677 2.9C24.6348 1.38235 23.043 0.5 21.2361 0.5C17.8662 0.5 15.1128 3.88824 15.1128 8.07059C15.1128 8.67059 15.1702 9.25294 15.2706 9.8C10.1654 9.48235 5.6195 6.46471 2.59369 1.89412C2.0631 3.00588 1.76195 4.31176 1.76195 5.68824C1.76195 8.31765 2.83748 10.6471 4.50096 11.9706C3.48279 11.9706 2.53633 11.6176 1.70459 11.0882V11.1412C1.70459 14.8118 3.82696 17.8824 6.63767 18.5706C5.73527 18.8745 4.7879 18.9168 3.86998 18.6941C4.25947 20.1985 5.02228 21.5148 6.05117 22.4581C7.08006 23.4014 8.3233 23.9242 9.60612 23.9529C7.43159 26.0714 4.73613 27.2164 1.96272 27.2C1.47514 27.2 0.987572 27.1647 0.5 27.0941C3.22467 29.2471 6.46558 30.5 9.93595 30.5C21.2361 30.5 27.4455 18.9588 27.4455 8.95294C27.4455 8.61765 27.4455 8.3 27.4312 7.9647C28.6358 6.90588 29.6683 5.56471 30.5 4.02941Z" fill="#505050"/>
</svg>
