<svg width="56" height="56" viewBox="0 0 56 56" fill="none" xmlns="http://www.w3.org/2000/svg">
<rect x="4" y="4" width="48" height="48" rx="24" fill="#F4EBFF"/>
<rect x="4" y="4" width="48" height="48" rx="24" stroke="#F9F5FF" stroke-width="8"/>
<path d="M22.0944 27.2288C22.0322 26.8282 22 26.4179 22 26C22 21.5817 25.6052 18 30.0526 18C34.4999 18 38.1052 21.5817 38.1052 26C38.1052 26.9981 37.9213 27.9535 37.5852 28.8345C37.5154 29.0175 37.4804 29.109 37.4646 29.1804C37.4489 29.2512 37.4428 29.301 37.4411 29.3735C37.4394 29.4466 37.4493 29.5272 37.4692 29.6883L37.8717 32.9585C37.9153 33.3125 37.9371 33.4895 37.8782 33.6182C37.8266 33.731 37.735 33.8205 37.6211 33.8695C37.4911 33.9254 37.3146 33.8995 36.9617 33.8478L33.7765 33.3809C33.6101 33.3565 33.527 33.3443 33.4512 33.3448C33.3763 33.3452 33.3245 33.3507 33.2511 33.3661C33.177 33.3817 33.0823 33.4172 32.893 33.4881C32.0097 33.819 31.0524 34 30.0526 34C29.6344 34 29.2237 33.9683 28.8227 33.9073M23.6316 38C26.5965 38 29 35.5376 29 32.5C29 29.4624 26.5965 27 23.6316 27C20.6667 27 18.2632 29.4624 18.2632 32.5C18.2632 33.1106 18.3603 33.6979 18.5395 34.2467C18.6153 34.4787 18.6532 34.5947 18.6657 34.6739C18.6786 34.7567 18.6809 34.8031 18.6761 34.8867C18.6714 34.9668 18.6514 35.0573 18.6113 35.2383L18 38L20.9948 37.591C21.1583 37.5687 21.24 37.5575 21.3114 37.558C21.3865 37.5585 21.4264 37.5626 21.5001 37.5773C21.5701 37.5912 21.6742 37.6279 21.8823 37.7014C22.4306 37.8949 23.0191 38 23.6316 38Z" stroke="#7F56D9" stroke-width="2" stroke-linecap="round" stroke-linejoin="round"/>
</svg>
