<svg width="56" height="56" viewBox="0 0 56 56" fill="none" xmlns="http://www.w3.org/2000/svg">
<rect x="4" y="4" width="48" height="48" rx="24" fill="#F4EBFF"/>
<rect x="4" y="4" width="48" height="48" rx="24" stroke="#F9F5FF" stroke-width="8"/>
<path d="M36.9996 27.5C36.9996 32.1944 33.194 36 28.4996 36C27.4228 36 26.3928 35.7998 25.4448 35.4345C25.2714 35.3678 25.1848 35.3344 25.1159 35.3185C25.0481 35.3029 24.999 35.2963 24.9295 35.2937C24.8588 35.291 24.7813 35.299 24.6262 35.315L19.5052 35.8444C19.0169 35.8948 18.7728 35.9201 18.6288 35.8322C18.5034 35.7557 18.4179 35.6279 18.3952 35.4828C18.3691 35.3161 18.4857 35.1002 18.7191 34.6684L20.3547 31.6408C20.4894 31.3915 20.5568 31.2668 20.5873 31.1469C20.6174 31.0286 20.6247 30.9432 20.6151 30.8214C20.6053 30.6981 20.5512 30.5376 20.443 30.2166C20.1555 29.3636 19.9996 28.45 19.9996 27.5C19.9996 22.8056 23.8052 19 28.4996 19C33.194 19 36.9996 22.8056 36.9996 27.5Z" stroke="#7F56D9" stroke-width="2" stroke-linecap="round" stroke-linejoin="round"/>
<path fill-rule="evenodd" clip-rule="evenodd" d="M28.4965 24.9493C27.5968 23.9104 26.0965 23.631 24.9692 24.5822C23.842 25.5335 23.6833 27.124 24.5685 28.2491C25.117 28.9461 26.4935 30.2191 27.4616 31.087C27.8172 31.4057 27.995 31.5651 28.2084 31.6293C28.3914 31.6844 28.6017 31.6844 28.7847 31.6293C28.9981 31.5651 29.1759 31.4057 29.5315 31.087C30.4996 30.2191 31.8761 28.9461 32.4246 28.2491C33.3098 27.124 33.1705 25.5235 32.0238 24.5822C30.8772 23.641 29.3963 23.9104 28.4965 24.9493Z" stroke="#7F56D9" stroke-width="2" stroke-linecap="round" stroke-linejoin="round"/>
</svg>
