<svg width="20" height="19" viewBox="0 0 20 19" fill="none" xmlns="http://www.w3.org/2000/svg">
<path d="M19.0853 4.4912C18.8672 3.65975 18.2246 3.00493 17.4088 2.78271C15.9299 2.37891 10 2.37891 10 2.37891C10 2.37891 4.07019 2.37891 2.59133 2.78271C1.77546 3.00497 1.13289 3.65975 0.914805 4.4912C0.518555 5.99824 0.518555 9.14255 0.518555 9.14255C0.518555 9.14255 0.518555 12.2869 0.914805 13.7939C1.13289 14.6253 1.77546 15.2529 2.59133 15.4751C4.07019 15.8789 10 15.8789 10 15.8789C10 15.8789 15.9299 15.8789 17.4088 15.4751C18.2246 15.2529 18.8672 14.6253 19.0853 13.7939C19.4815 12.2869 19.4815 9.14255 19.4815 9.14255C19.4815 9.14255 19.4815 5.99824 19.0853 4.4912ZM8.06064 11.9973V6.28775L13.0169 9.14262L8.06064 11.9973Z" fill="#727272"/>
</svg>
